<svg width="340" height="202" viewBox="0 0 340 202" fill="none" xmlns="http://www.w3.org/2000/svg">
<g clip-path="url(#clip0_77_4766)">
<path d="M79.2263 16.5049C55.5278 16.5471 36.3561 35.7144 36.311 59.4136C36.3561 83.1181 55.5275 102.285 79.2263 102.33C102.925 102.285 122.094 83.1185 122.136 59.4136C122.094 35.7144 102.925 16.5474 79.2263 16.5049Z" fill="#2A323D"/>
<path d="M134.344 63.0745C132.976 61.2415 132.976 58.2388 134.344 56.4033L137.323 52.3933C138.689 50.5582 138.241 48.0301 136.333 46.7728L132.158 44.0198C130.249 42.767 129.224 39.9435 129.877 37.7525L131.307 32.9647C131.96 30.774 130.678 28.5511 128.453 28.0256L123.592 26.8648C121.369 26.3372 119.439 24.0385 119.302 21.7583L119.008 16.7642C118.873 14.4865 116.907 12.8346 114.638 13.0939L109.672 13.6695C107.401 13.9356 104.802 12.4354 103.896 10.3387L101.913 5.75057C101.005 3.65394 98.5895 2.7732 96.5476 3.79846L92.0789 6.03497C90.0371 7.06271 87.0805 6.53971 85.5112 4.87881L82.0767 1.24568C80.5074 -0.415226 77.9379 -0.415226 76.3714 1.24568L72.9351 4.87943C71.3682 6.54033 68.4113 7.06333 66.3694 6.03559L61.9007 3.79908C59.8567 2.77382 57.4432 3.65456 56.5371 5.75119L54.5528 10.3393C53.6467 12.436 51.0475 13.9363 48.7763 13.6701L43.8118 13.0945C41.5407 12.8355 39.5725 14.4871 39.4348 16.7648L39.1457 21.7589C39.0105 24.0391 37.081 26.3378 34.8559 26.8654L29.9926 28.0262C27.7673 28.5514 26.4873 30.7743 27.1387 32.9653L28.5703 37.7531C29.2221 39.9438 28.1987 42.7677 26.2877 44.0204L22.1149 46.7734C20.2064 48.0304 19.7611 50.5588 21.124 52.3939L24.106 56.404C25.4689 58.2391 25.4689 61.2422 24.106 63.0751L21.124 67.0852C19.7611 68.9228 20.2064 71.4483 22.1149 72.7057L26.2877 75.4606C28.1987 76.7155 29.2221 79.5372 28.5703 81.7279L27.1387 86.5156C26.4873 88.7042 27.7676 90.9292 29.9926 91.4593L34.8559 92.613C37.081 93.1432 39.0105 95.4416 39.1457 97.7242L39.4348 102.714C39.5725 104.994 41.5407 106.646 43.8118 106.386L48.7763 105.804C51.0475 105.542 53.6464 107.045 54.5503 109.142L56.5368 113.73C57.4429 115.829 59.8564 116.707 61.9004 115.679L66.3691 113.443C68.411 112.419 71.3679 112.938 72.9348 114.601L76.3711 118.235C77.9376 119.896 80.5071 119.896 82.0764 118.235L85.5105 114.601C87.0798 112.938 90.0365 112.419 92.0783 113.443L96.547 115.679C98.5889 116.707 101.005 115.829 101.91 113.73L103.895 109.142C104.801 107.045 107.4 105.543 109.671 105.804L114.638 106.386C116.906 106.645 118.873 104.994 119.008 102.714L119.301 97.7242C119.439 95.4416 121.368 93.1432 123.591 92.613L128.452 91.4593C130.677 90.9295 131.96 88.7042 131.306 86.5156L129.877 81.7279C129.223 79.5372 130.248 76.7155 132.157 75.4606L136.332 72.7057C138.241 71.4487 138.688 68.9228 137.323 67.0852L134.344 63.0745ZM79.2228 102.417C55.6495 102.415 36.5446 83.3127 36.5446 59.7344C36.5446 36.1655 55.6492 17.0609 79.2228 17.0563C102.794 17.0609 121.901 36.1655 121.901 59.7344C121.901 83.3127 102.794 102.415 79.2228 102.417Z" fill="#8C8C8C"/>
<path d="M69.0098 118.507C68.9454 118.484 68.8352 118.459 68.7322 118.459L64.3758 120.639C63.0569 121.299 61.5795 121.652 60.1114 121.652C56.3514 121.652 52.9494 119.404 51.4513 115.927L49.4645 111.343C49.4738 111.369 49.4645 111.378 49.4459 111.378C49.4141 111.378 49.3382 111.348 49.2788 111.323L46.6016 111.637L26.6436 141.978L46.8839 138.477L51.6806 158.449L74.5316 123.708C73.7353 123.254 72.983 122.717 72.3452 122.043L69.0098 118.507Z" fill="#757575"/>
<path d="M109.18 111.319C109.097 111.351 108.989 111.408 108.927 111.466L106.998 115.928C105.5 119.401 102.1 121.649 98.336 121.649C96.8701 121.649 95.3905 121.295 94.0669 120.63L89.7263 118.458C89.5933 118.465 89.497 118.488 89.4373 118.504L86.1062 122.039C85.3493 122.837 84.4456 123.457 83.4819 123.95L106.17 158.446L110.967 138.473L131.207 141.974L111.199 111.555L109.18 111.319Z" fill="#757575"/>
<path d="M100.537 58.9911C100.44 59.3875 100.343 59.7839 100.246 60.1804C100.24 60.2069 100.231 60.2326 100.223 60.2587C100.221 60.2651 100.218 60.2716 100.215 60.2781L100.202 60.3233C100.2 60.3336 100.198 60.3442 100.196 60.3546L100.185 60.3913C100.183 60.4018 100.181 60.4124 100.179 60.4228L100.168 60.4594L100.162 60.4908C100.158 60.503 100.154 60.5151 100.15 60.5272L100.145 60.5589L100.133 60.5954L100.128 60.6271C100.124 60.6392 100.12 60.6513 100.116 60.6634C100.113 60.6755 100.112 60.6847 100.11 60.6953C100.109 60.7059 100.103 60.7195 100.099 60.7316L100.094 60.7635L100.08 60.7991C100.075 60.827 100.069 60.8551 100.063 60.8831C100.037 60.9864 100.01 61.0896 99.9839 61.1929L99.9767 61.2239C99.9735 61.2362 99.9701 61.2486 99.9668 61.2611C99.9636 61.2735 99.9622 61.2817 99.96 61.2921C99.9542 61.3091 99.9486 61.3262 99.943 61.3441C99.8542 61.6987 99.7654 62.0533 99.6765 62.408C99.4978 63.1265 99.3188 63.8451 99.1397 64.5639C99.1361 64.5761 99.1324 64.5884 99.1288 64.6007C99.1215 64.6348 99.1143 64.6671 99.107 64.7004L99.0787 64.8053C99.0767 64.8159 99.0746 64.8263 99.0724 64.8367C99.0702 64.8471 99.0653 64.8612 99.0615 64.8735L99.0554 64.9049C99.0518 64.9171 99.048 64.9294 99.0445 64.9417C99.0409 64.954 99.04 64.9625 99.038 64.973C99.036 64.9836 99.0303 64.9974 99.0266 65.0097L99.021 65.0412C99.017 65.0533 99.0133 65.0656 99.0095 65.0778L99.0034 65.1092L98.9922 65.1458C98.9903 65.1564 98.9886 65.167 98.9867 65.1774L98.9721 65.2297C98.8255 65.8107 98.679 66.3915 98.5301 66.9815H95.0926C94.9152 66.9815 94.9123 66.9815 94.8674 66.8189C94.7535 66.4053 94.6425 65.991 94.5307 65.5768C94.3871 65.0444 94.2437 64.512 94.1003 63.9795C94.0932 63.9531 94.0876 63.9261 94.0813 63.8994C94.0753 63.8653 94.0695 63.8312 94.0642 63.7971L94.0578 63.7656L94.0457 63.7288C94.0434 63.7184 94.0412 63.708 94.0388 63.6974L94.0271 63.6608L94.0061 63.5778C94.002 63.5657 93.998 63.5536 93.994 63.5415C93.9901 63.5294 93.9896 63.5205 93.9872 63.5101L93.9605 63.422C93.9526 63.3879 93.945 63.3554 93.9371 63.3222L93.9264 63.2857C93.9195 63.258 93.9124 63.2302 93.9053 63.2024L93.8923 63.1664L93.8859 63.1347C93.8819 63.1226 93.8778 63.1105 93.8738 63.0982L93.8531 63.0151L93.8412 62.9789C93.839 62.9684 93.8368 62.958 93.8347 62.9474L93.8242 62.9108C93.7243 62.5561 93.6225 62.202 93.5254 61.8467C93.3916 61.3565 93.2614 60.8655 93.1298 60.3751C93.1233 60.3512 93.1171 60.3272 93.111 60.3033C93.1096 60.2863 93.1085 60.2692 93.1073 60.2522L93.1001 60.221C93.0916 60.1915 93.0831 60.162 93.0747 60.1326L93.0676 60.1014C93.0638 60.0891 93.0599 60.0768 93.0562 60.0647C93.0524 60.0526 93.0509 60.0441 93.0483 60.0337C93.0401 60.0042 93.0318 59.9747 93.0234 59.9453C93.0148 59.9122 93.0064 59.8793 92.9972 59.8462L92.9865 59.8093L92.7991 59.1025H92.7837V66.9642C92.7527 66.9666 92.7219 66.9712 92.6909 66.9712C91.0592 66.9712 89.4276 66.9712 87.796 66.9712C87.7623 66.9696 87.7287 66.9662 87.6953 66.961C87.6953 63.0054 87.6953 59.0496 87.6953 55.0937V54.963H87.8095C90.2423 54.963 92.6753 54.9623 95.1083 54.9609C95.1979 54.9609 95.2393 54.9795 95.2647 55.0736C95.3613 55.4315 95.4691 55.787 95.5728 56.1435C95.5769 56.16 95.5799 56.1767 95.5821 56.1936L95.5979 56.229L95.6357 56.3804C95.6396 56.3925 95.6436 56.4046 95.6476 56.4167L95.6545 56.448C95.663 56.4773 95.6716 56.5068 95.6802 56.5363C95.6824 56.5467 95.6846 56.5573 95.6867 56.5678C95.6887 56.5784 95.6947 56.592 95.6986 56.6041L95.7052 56.6355L95.7165 56.6723C95.7235 56.6999 95.7304 56.7277 95.7376 56.7553C95.7413 56.7676 95.7453 56.7797 95.749 56.7918L95.7894 56.9596C95.7931 56.9717 95.7971 56.984 95.801 56.9961C95.8076 57.0241 95.8143 57.0518 95.8211 57.0798L95.833 57.1157L95.8391 57.1474L95.8516 57.1846C95.8536 57.1952 95.8555 57.2057 95.8574 57.2163C95.8592 57.2269 95.8652 57.2407 95.869 57.2528C95.8727 57.2649 95.8734 57.2737 95.8754 57.2843L95.8856 57.3209C96.0273 57.8683 96.1689 58.4157 96.3104 58.9629C96.4387 59.4548 96.5681 59.9462 96.6987 60.4373C96.7043 60.4551 96.7108 60.4727 96.7182 60.4899L96.7421 60.4925C96.8886 59.8892 97.0347 59.2865 97.1805 58.6843L97.1917 58.6478C97.1936 58.6373 97.1954 58.6267 97.1972 58.6161L97.2244 58.5112C97.2265 58.5006 97.2285 58.4902 97.2304 58.4798C97.2322 58.4694 97.237 58.4551 97.2404 58.4428C97.2491 58.404 97.2575 58.3653 97.2663 58.3264C97.2709 58.3094 97.2755 58.2923 97.2803 58.2741L97.2997 58.1901L97.3452 58.0002L97.3508 57.9685L97.3619 57.9319C97.3636 57.9213 97.3655 57.9108 97.3674 57.9004L97.3781 57.8636L97.3837 57.832C97.3875 57.8198 97.391 57.8075 97.3948 57.7952L97.4004 57.7639L97.4311 57.6425C97.4326 57.6318 97.4343 57.6212 97.4358 57.6107C97.4444 57.5755 97.4529 57.5403 97.4612 57.5052L97.4675 57.474C97.4708 57.4617 97.474 57.4493 97.4771 57.4368C97.4801 57.4244 97.4817 57.4162 97.4841 57.4058C97.4864 57.3954 97.4904 57.3809 97.4934 57.3685L97.5006 57.3376L97.514 57.284L97.5212 57.2528L97.5278 57.2187C97.5565 57.0812 97.5822 56.9429 97.613 56.8061C97.7015 56.4239 97.7912 56.0419 97.882 55.6602C97.932 55.4489 97.9814 55.2375 98.0367 55.0276C98.0435 55.0018 98.0834 54.9816 98.1119 54.9659C98.1272 54.9575 98.1509 54.9643 98.1708 54.9643H105.529C105.563 54.9643 105.597 54.9678 105.631 54.9695V66.9842C105.594 66.9842 105.557 66.9818 105.52 66.9818H100.569V59.0949C100.569 59.0608 100.569 59.0267 100.568 58.9926L100.571 58.9174L100.554 58.9154C100.549 58.9408 100.543 58.9662 100.537 58.9911Z" fill="#FCFCFC"/>
<path d="M52.8169 55.0364H57.9393V55.1301C57.9393 56.7005 57.9398 58.271 57.9408 59.8416C57.9408 59.9195 57.9214 59.942 57.8418 59.9418C56.2008 59.9394 54.5596 59.9389 52.9181 59.9403C52.8841 59.9403 52.85 59.943 52.8159 59.9445L52.8169 55.0364Z" fill="#FCFCFC"/>
<path d="M63.6846 49.532C63.6858 49.5632 63.688 49.5944 63.688 49.6256C63.688 51.1877 63.688 52.7499 63.688 54.3122V54.4173H58.547V54.2508C58.547 52.703 58.547 51.155 58.547 49.607C58.547 49.5762 58.5431 49.5455 58.541 49.5146H58.5751C58.604 49.5224 58.6335 49.5277 58.6633 49.5303C58.9755 49.5315 59.2874 49.5303 59.5995 49.5303L63.6846 49.532Z" fill="#FCFCFC"/>
<path d="M57.9455 49.5154C57.9436 49.5462 57.9399 49.5771 57.9399 49.6079C57.9399 51.1608 57.9399 52.7137 57.9399 54.2667V54.4235H52.8174V49.5324C54.4804 49.5324 56.1434 49.532 57.8063 49.5312C57.8417 49.5286 57.8768 49.5233 57.9114 49.5154H57.9455Z" fill="#FCFCFC"/>
<path d="M69.4278 60.6096L68.4629 60.7139C68.4629 60.7187 68.4629 60.7233 68.4629 60.7279L68.7464 60.764L68.7997 60.7754L68.8486 60.7812L68.8857 60.7894L68.9508 60.7981L68.9876 60.8075L69.036 60.8141L69.0733 60.8218L69.138 60.8325L69.1747 60.8422L69.2234 60.849L69.2599 60.8591L69.3086 60.8663L69.345 60.8765L69.4621 60.8978L69.5836 60.9278L69.6152 60.9334L69.6519 60.9445L69.6834 60.9504L69.7199 60.9617L69.7515 60.9675L69.8395 60.9941L69.8708 61.0007L69.9587 61.0285L70.0413 61.05L70.0768 61.067C70.3617 61.1506 70.6288 61.2858 70.8647 61.466C70.9775 61.5477 71.0847 61.6367 71.1857 61.7325C71.3561 61.9009 71.4443 62.1103 71.4738 62.3501C71.5675 63.1153 71.538 63.8839 71.542 64.6508C71.5455 65.3918 71.542 66.1335 71.542 66.874V66.9742H66.1412V66.8741C66.1402 65.5142 66.1391 64.1541 66.138 62.7941C66.138 62.7429 66.1327 62.6918 66.1298 62.6407C66.128 62.6225 66.1259 62.6044 66.124 62.5862C66.1016 62.4464 66.0937 62.3021 66.0525 62.1681C66.016 62.045 65.9569 61.9299 65.8782 61.8285C65.8227 61.7603 65.7225 61.7092 65.6335 61.6891C65.4187 61.6413 65.1988 61.6163 64.9807 61.5822L64.8584 61.5737L64.6234 61.5657C64.5503 61.5619 64.4771 61.5568 64.404 61.5554C64.3936 61.5554 64.3829 61.5725 64.3725 61.583C64.3725 61.6171 64.3704 61.6512 64.3704 61.6853V66.8661C64.3704 66.9002 64.3704 66.9343 64.3692 66.9684C64.3381 66.9696 64.3071 66.972 64.2759 66.972H58.6453C58.6142 66.972 58.583 66.9692 58.552 66.9677C58.552 66.9365 58.5508 66.9053 58.5508 66.874C58.5508 62.9468 58.5508 59.0196 58.5508 55.0924V54.9703C58.5799 54.9676 58.6019 54.9637 58.6235 54.9639C60.6788 54.9673 62.734 54.9712 64.7892 54.9756C65.0645 54.9756 65.3398 54.9833 65.6151 54.9906C65.9717 55.0002 66.3285 55.0101 66.6851 55.0247C66.9987 55.0377 67.3127 55.0511 67.6257 55.0758C67.9386 55.1006 68.248 55.1404 68.5591 55.1737L68.6123 55.1849L68.6612 55.1909L68.698 55.2002L68.7464 55.2072L68.7832 55.2166L68.8997 55.2413L68.9367 55.2509L69.1723 55.3095L69.2081 55.3236C69.3769 55.3785 69.5488 55.425 69.7139 55.4901C70.0274 55.6135 70.3161 55.7839 70.5898 55.9804C70.8012 56.1323 70.9857 56.3128 71.1239 56.5321C71.307 56.8228 71.4103 57.1456 71.4735 57.483C71.5341 57.8112 71.5557 58.1453 71.5379 58.4785C71.5173 58.897 71.4602 59.3103 71.2653 59.6885C71.129 59.9545 70.9266 60.1612 70.6462 60.2788C70.5037 60.3385 70.3565 60.3884 70.2126 60.4428L70.1093 60.4733L70.078 60.4799L70.0412 60.4901L70.0091 60.4949L69.9729 60.5062L69.925 60.5155L69.8878 60.5244L69.8562 60.5293L69.8195 60.5396L69.7711 60.5472L69.7343 60.5568L69.6856 60.5632L69.6323 60.5755L69.5839 60.5818L69.5301 60.5926L69.4813 60.598L69.4278 60.6096ZM64.3726 59.6805C64.6028 59.7161 65.372 59.6486 65.6373 59.582C65.8673 59.5242 66.0056 59.381 66.0704 59.1598C66.0925 59.084 66.1176 59.0064 66.1198 58.9279C66.1302 58.5679 66.1431 58.2077 66.1368 57.8477C66.129 57.4442 65.9324 57.2157 65.538 57.1212C65.1655 57.0319 64.7861 57.019 64.4055 57.0168C64.3944 57.0184 64.3836 57.0216 64.3733 57.0261L64.3726 59.6805Z" fill="#FCFCFC"/>
<path d="M80.9809 54.987C81.0127 54.9792 81.0448 54.9643 81.0766 54.9643C82.8425 54.9631 84.6086 54.9628 86.3751 54.9635C86.3976 54.9635 86.4201 54.9654 86.4574 54.9669C86.3906 55.0797 86.3295 55.1852 86.2663 55.2893C86.0707 55.6119 85.8759 55.9349 85.678 56.256C85.3725 56.7516 85.0633 57.2444 84.758 57.7407C84.5575 58.0665 84.3632 58.3963 84.1632 58.7225C84.0024 58.9849 83.8363 59.2443 83.6744 59.5064C83.5014 59.7865 83.3303 60.0675 83.1611 60.3495C83.1485 60.3706 83.1533 60.4132 83.166 60.4373C83.2897 60.668 83.4167 60.8974 83.5431 61.1266C83.7122 61.4334 83.8818 61.7399 84.0518 62.046C84.2244 62.356 84.3995 62.6648 84.5712 62.9754C84.7653 63.3257 84.9559 63.678 85.1493 64.0289C85.3096 64.3198 85.473 64.6097 85.6327 64.9004C85.909 65.401 86.185 65.9017 86.4608 66.4025C86.5538 66.5707 86.6503 66.7371 86.7445 66.9046C86.7554 66.928 86.765 66.9521 86.7731 66.9767C86.738 66.9784 86.7085 66.9809 86.6791 66.9809C84.7399 66.9809 82.8008 66.9816 80.8616 66.9828C80.7913 66.9828 80.7516 66.9591 80.7253 66.8993C80.6169 66.6563 80.5081 66.4134 80.3991 66.1708C80.3548 66.0724 80.3072 65.9756 80.2628 65.8775C80.1456 65.6206 80.0301 65.3633 79.9123 65.1068C79.8011 64.8645 79.6862 64.6238 79.5757 64.3812C79.454 64.1141 79.3372 63.8452 79.215 63.5781C79.1073 63.3418 78.9935 63.1078 78.8874 62.8711C78.7501 62.5674 78.6167 62.262 78.4814 61.9573C78.4756 61.9443 78.4688 61.932 78.4623 61.9193L78.4403 61.8579L78.4233 61.8622C78.4243 61.8823 78.4252 61.9024 78.4262 61.9223C78.4262 62.8481 78.4257 63.774 78.4248 64.7002C78.4248 65.4553 78.4248 66.2105 78.4248 66.9659C78.3908 66.9683 78.3567 66.9728 78.3226 66.9728C76.4485 66.9728 74.5749 66.9728 72.7018 66.9728C72.6677 66.9728 72.6336 66.9678 72.6006 66.9651V54.9633H78.4066L78.4236 54.9857C78.4236 56.4967 78.4236 58.0078 78.4236 59.5189V59.6092L78.4437 59.6109L78.4748 59.5189L80.9666 55.007C80.9713 55.0003 80.9761 54.9937 80.9809 54.987Z" fill="#FCFCFC"/>
</g>
<g clip-path="url(#clip1_77_4766)">
<path d="M171.653 33.0098C146.132 33.0552 125.486 53.6969 125.437 79.2191C125.486 104.747 146.132 125.388 171.653 125.437C197.175 125.388 217.819 104.747 217.864 79.2191C217.818 53.6969 197.175 33.0556 171.653 33.0098Z" fill="#2A323D"/>
<path d="M226.771 82.8804C225.403 81.0474 225.403 78.0447 226.771 76.2093L229.751 72.1992C231.116 70.3641 230.668 67.836 228.76 66.5787L224.585 63.8257C222.676 62.5729 221.651 59.7494 222.305 57.5584L223.734 52.7706C224.387 50.5799 223.105 48.357 220.88 47.8315L216.019 46.6707C213.796 46.1431 211.867 43.8444 211.729 41.5642L211.436 36.5701C211.3 34.2924 209.334 32.6405 207.066 32.8998L202.099 33.4754C199.828 33.7416 197.229 32.2413 196.323 30.1446L194.341 25.5565C193.432 23.4599 191.017 22.5791 188.975 23.6044L184.506 25.8409C182.464 26.8686 179.508 26.3456 177.938 24.6847L174.504 21.0516C172.935 19.3907 170.365 19.3907 168.799 21.0516L165.362 24.6853C163.795 26.3462 160.839 26.8692 158.797 25.8415L154.328 23.605C152.284 22.5797 149.87 23.4605 148.964 25.5571L146.98 30.1452C146.074 32.2419 143.475 33.7422 141.204 33.476L136.239 32.9004C133.968 32.6414 132 34.293 131.862 36.5707L131.573 41.5648C131.438 43.845 129.508 46.1437 127.283 46.6713L122.42 47.8322C120.195 48.3573 118.915 50.5802 119.566 52.7712L120.998 57.559C121.649 59.7497 120.626 62.5736 118.715 63.8263L114.542 66.5793C112.634 67.8363 112.188 70.3647 113.551 72.1998L116.533 76.2099C117.896 78.045 117.896 81.0481 116.533 82.881L113.551 86.8911C112.188 88.7287 112.634 91.2543 114.542 92.5116L118.715 95.2665C120.626 96.5214 121.649 99.3431 120.998 101.534L119.566 106.322C118.915 108.51 120.195 110.735 122.42 111.265L127.283 112.419C129.508 112.949 131.438 115.247 131.573 117.53L131.862 122.52C132 124.8 133.968 126.452 136.239 126.192L141.204 125.61C143.475 125.348 146.074 126.851 146.978 128.948L148.964 133.536C149.87 135.634 152.284 136.513 154.328 135.485L158.796 133.249C160.838 132.225 163.795 132.744 165.362 134.407L168.798 138.041C170.365 139.702 172.934 139.702 174.504 138.041L177.938 134.407C179.507 132.744 182.464 132.225 184.506 133.249L188.974 135.485C191.016 136.513 193.432 135.634 194.338 133.536L196.322 128.948C197.228 126.851 199.827 125.348 202.098 125.61L207.065 126.192C209.334 126.451 211.3 124.8 211.435 122.52L211.729 117.53C211.866 115.247 213.796 112.949 216.018 112.419L220.88 111.265C223.105 110.735 224.387 108.51 223.733 106.322L222.304 101.534C221.65 99.3431 222.676 96.5214 224.584 95.2665L228.759 92.5116C230.668 91.2546 231.115 88.7287 229.75 86.8911L226.771 82.8804ZM171.65 122.223C148.077 122.221 128.972 103.119 128.972 79.5404C128.972 55.9714 148.076 36.8668 171.65 36.8622C195.221 36.8668 214.328 55.9714 214.328 79.5404C214.328 103.119 195.221 122.221 171.65 122.223Z" fill="url(#paint0_linear_77_4766)"/>
<path d="M161.437 138.313C161.372 138.29 161.262 138.264 161.159 138.264L156.803 140.444C155.484 141.104 154.006 141.458 152.538 141.458C148.778 141.458 145.376 139.21 143.878 135.732L141.891 131.149C141.901 131.174 141.891 131.183 141.873 131.183C141.841 131.183 141.765 131.154 141.706 131.128L139.028 131.443L119.07 161.783L139.311 158.283L144.107 178.255L166.958 143.514C166.162 143.06 165.41 142.523 164.772 141.848L161.437 138.313Z" fill="#D09A00"/>
<path d="M201.607 131.125C201.524 131.157 201.416 131.214 201.355 131.272L199.426 135.734C197.927 139.207 194.528 141.455 190.763 141.455C189.297 141.455 187.818 141.101 186.494 140.436L182.154 138.264C182.021 138.271 181.924 138.293 181.865 138.31L178.533 141.845C177.777 142.643 176.873 143.263 175.909 143.756L198.597 178.251L203.394 158.279L223.634 161.78L203.626 131.361L201.607 131.125Z" fill="#D09A00"/>
<path d="M192.963 78.7965C192.866 79.1929 192.769 79.5893 192.672 79.9859C192.666 80.0123 192.657 80.038 192.65 80.0641C192.647 80.0706 192.644 80.077 192.641 80.0835L192.628 80.1287C192.626 80.1391 192.624 80.1496 192.622 80.16L192.611 80.1967C192.609 80.2072 192.607 80.2178 192.605 80.2282L192.594 80.2648L192.588 80.2962C192.584 80.3085 192.581 80.3206 192.577 80.3327L192.571 80.3644L192.56 80.4008L192.554 80.4325C192.55 80.4446 192.546 80.4567 192.543 80.4688C192.539 80.4809 192.539 80.4901 192.537 80.5007C192.535 80.5113 192.529 80.5249 192.525 80.537L192.52 80.5689L192.506 80.6045C192.501 80.6324 192.496 80.6606 192.489 80.6885C192.463 80.7918 192.437 80.8951 192.41 80.9983L192.403 81.0294C192.4 81.0416 192.396 81.0541 192.393 81.0665C192.39 81.0789 192.389 81.0871 192.386 81.0975C192.381 81.1146 192.375 81.1316 192.369 81.1495C192.28 81.5041 192.192 81.8587 192.103 82.2134C191.924 82.9319 191.745 83.6505 191.566 84.3693C191.562 84.3815 191.559 84.3938 191.555 84.4061C191.548 84.4402 191.541 84.4726 191.533 84.5058L191.505 84.6108C191.503 84.6213 191.501 84.6317 191.499 84.6421C191.496 84.6525 191.492 84.6667 191.488 84.6789L191.482 84.7103C191.478 84.7226 191.474 84.7348 191.471 84.7471C191.467 84.7594 191.466 84.7679 191.464 84.7785C191.462 84.789 191.457 84.8028 191.453 84.8151L191.447 84.8466C191.443 84.8587 191.44 84.871 191.436 84.8833L191.43 84.9146L191.418 84.9513C191.417 84.9618 191.415 84.9724 191.413 84.9828L191.398 85.0351C191.252 85.6161 191.105 86.1969 190.956 86.7869H187.519C187.341 86.7869 187.339 86.7869 187.294 86.6243C187.18 86.2107 187.069 85.7964 186.957 85.3823C186.813 84.8499 186.67 84.3174 186.527 83.7849C186.519 83.7585 186.514 83.7316 186.508 83.7048C186.502 83.6707 186.496 83.6366 186.491 83.6025L186.484 83.571L186.472 83.5342C186.47 83.5238 186.468 83.5134 186.465 83.5029L186.453 83.4662L186.432 83.3832C186.428 83.3711 186.424 83.359 186.42 83.3469C186.416 83.3348 186.416 83.326 186.413 83.3156L186.387 83.2275C186.379 83.1934 186.371 83.1608 186.363 83.1276L186.353 83.0911C186.346 83.0634 186.339 83.0356 186.332 83.0078L186.319 82.9718L186.312 82.9401C186.308 82.928 186.304 82.9159 186.3 82.9036L186.279 82.8205L186.267 82.7844C186.265 82.7738 186.263 82.7634 186.261 82.7528L186.25 82.7162C186.151 82.3615 186.049 82.0074 185.952 81.6521C185.818 81.1619 185.688 80.671 185.556 80.1805C185.55 80.1566 185.543 80.1326 185.537 80.1087C185.536 80.0917 185.535 80.0747 185.534 80.0576L185.526 80.0264C185.518 79.9969 185.509 79.9674 185.501 79.938L185.494 79.9068C185.49 79.8945 185.486 79.8822 185.482 79.8701C185.479 79.858 185.477 79.8495 185.475 79.8391C185.466 79.8096 185.458 79.7801 185.45 79.7507C185.441 79.7176 185.433 79.6847 185.423 79.6517L185.413 79.6147L185.225 78.9079H185.21V86.7697C185.179 86.772 185.148 86.7767 185.117 86.7767C183.485 86.7767 181.854 86.7767 180.222 86.7767C180.189 86.775 180.155 86.7716 180.122 86.7664C180.122 82.8108 180.122 78.8551 180.122 74.8991V74.7684H180.236C182.669 74.7684 185.102 74.7677 187.535 74.7664C187.624 74.7664 187.666 74.7849 187.691 74.879C187.788 75.2369 187.895 75.5924 187.999 75.9489C188.003 75.9654 188.006 75.9822 188.008 75.999L188.024 76.0345L188.062 76.1858C188.066 76.1979 188.07 76.21 188.074 76.2221L188.081 76.2535C188.089 76.2828 188.098 76.3122 188.106 76.3417C188.109 76.3521 188.111 76.3627 188.113 76.3733C188.115 76.3838 188.121 76.3975 188.125 76.4096L188.131 76.4409L188.143 76.4777C188.15 76.5053 188.157 76.5331 188.164 76.5607C188.168 76.573 188.172 76.5851 188.175 76.5972L188.216 76.7651C188.219 76.7772 188.223 76.7894 188.227 76.8015C188.234 76.8295 188.241 76.8573 188.247 76.8852L188.259 76.9212L188.265 76.9529L188.278 76.99C188.28 77.0006 188.282 77.0112 188.284 77.0217C188.286 77.0323 188.291 77.0461 188.295 77.0582C188.299 77.0703 188.3 77.0791 188.302 77.0897L188.312 77.1264C188.454 77.6738 188.595 78.2211 188.737 78.7684C188.865 79.2602 188.994 79.7516 189.125 80.2427C189.131 80.2606 189.137 80.2781 189.145 80.2953L189.168 80.2979C189.315 79.6946 189.461 79.0919 189.607 78.4897L189.618 78.4533C189.62 78.4427 189.622 78.4321 189.623 78.4216L189.651 78.3166C189.653 78.306 189.655 78.2956 189.657 78.2852C189.659 78.2748 189.663 78.2605 189.667 78.2482C189.675 78.2094 189.684 78.1707 189.693 78.1318C189.697 78.1148 189.702 78.0978 189.707 78.0795L189.726 77.9955L189.771 77.8057L189.777 77.774L189.788 77.7373C189.79 77.7268 189.792 77.7162 189.794 77.7058L189.804 77.669L189.81 77.6375C189.814 77.6252 189.817 77.6129 189.821 77.6006L189.827 77.5693L189.857 77.4479C189.859 77.4372 189.861 77.4266 189.862 77.4161C189.871 77.381 189.879 77.3457 189.887 77.3106L189.894 77.2794C189.897 77.2671 189.9 77.2547 189.903 77.2422C189.906 77.2298 189.908 77.2216 189.91 77.2112C189.913 77.2008 189.917 77.1863 189.92 77.1739L189.927 77.1431L189.94 77.0894L189.947 77.0582L189.954 77.0241C189.983 76.8866 190.008 76.7484 190.039 76.6115C190.128 76.2293 190.217 75.8473 190.308 75.4656C190.358 75.2543 190.408 75.043 190.463 74.833C190.47 74.8073 190.51 74.787 190.538 74.7713C190.553 74.7629 190.577 74.7698 190.597 74.7698H197.955C197.989 74.7698 198.023 74.7732 198.057 74.7749V86.7896C198.02 86.7896 197.983 86.7872 197.946 86.7872H192.995V78.9003C192.995 78.8662 192.995 78.8321 192.994 78.798L192.997 78.7229L192.98 78.7208C192.975 78.7462 192.969 78.7716 192.963 78.7965Z" fill="#FCFCFC"/>
<path d="M145.244 74.8418H150.366V74.9355C150.366 76.5059 150.367 78.0764 150.368 79.647C150.368 79.7249 150.348 79.7474 150.269 79.7472C148.628 79.7448 146.986 79.7443 145.345 79.7457C145.311 79.7457 145.277 79.7484 145.243 79.7499L145.244 74.8418Z" fill="#FCFCFC"/>
<path d="M156.111 69.3377C156.113 69.3689 156.115 69.4001 156.115 69.4313C156.115 70.9933 156.115 72.5555 156.115 74.1179V74.223H150.974V74.0565C150.974 72.5086 150.974 70.9607 150.974 69.4127C150.974 69.3818 150.97 69.3512 150.968 69.3203H151.002C151.031 69.3281 151.06 69.3333 151.09 69.336C151.402 69.3372 151.714 69.336 152.026 69.336L156.111 69.3377Z" fill="#FCFCFC"/>
<path d="M150.372 69.321C150.37 69.3519 150.367 69.3827 150.367 69.4136C150.367 70.9665 150.367 72.5194 150.367 74.0724V74.2292H145.244V69.3381C146.907 69.3381 148.57 69.3377 150.233 69.3369C150.268 69.3343 150.304 69.329 150.338 69.321H150.372Z" fill="#FCFCFC"/>
<path d="M161.855 80.4148L160.89 80.5191C160.89 80.5238 160.89 80.5284 160.89 80.533L161.173 80.5692L161.226 80.5806L161.275 80.5864L161.312 80.5946L161.378 80.6033L161.414 80.6126L161.463 80.6193L161.5 80.627L161.565 80.6377L161.601 80.6474L161.65 80.6542L161.687 80.6643L161.735 80.6714L161.772 80.6817L161.889 80.703L162.01 80.733L162.042 80.7386L162.079 80.7497L162.11 80.7556L162.147 80.7669L162.178 80.7727L162.266 80.7992L162.298 80.8059L162.385 80.8337L162.468 80.8551L162.504 80.8722C162.788 80.9557 163.056 81.091 163.291 81.2711C163.404 81.3528 163.511 81.4419 163.612 81.5377C163.783 81.7061 163.871 81.9155 163.901 82.1553C163.994 82.9205 163.965 83.6891 163.969 84.456C163.972 85.197 163.969 85.9387 163.969 86.6791V86.7793H158.568V86.6793C158.567 85.3193 158.566 83.9593 158.565 82.5992C158.565 82.5481 158.559 82.497 158.557 82.4459C158.555 82.4276 158.553 82.4096 158.551 82.3913C158.528 82.2516 158.52 82.1072 158.479 81.9733C158.443 81.8502 158.384 81.735 158.305 81.6336C158.249 81.5655 158.149 81.5143 158.06 81.4942C157.845 81.4465 157.626 81.4215 157.407 81.3874L157.285 81.3789L157.05 81.3708C156.977 81.3671 156.904 81.362 156.831 81.3606C156.82 81.3606 156.81 81.3777 156.799 81.3882C156.799 81.4223 156.797 81.4564 156.797 81.4905V86.6713C156.797 86.7054 156.797 86.7395 156.796 86.7735C156.765 86.7747 156.734 86.7771 156.703 86.7771H151.072C151.041 86.7771 151.01 86.7744 150.979 86.7729C150.979 86.7417 150.978 86.7105 150.978 86.6791C150.978 82.7519 150.978 78.8247 150.978 74.8975V74.7755C151.007 74.7728 151.029 74.7689 151.05 74.769C153.106 74.7725 155.161 74.7764 157.216 74.7808C157.491 74.7808 157.767 74.7885 158.042 74.7958C158.398 74.8053 158.755 74.8152 159.112 74.8299C159.425 74.8428 159.739 74.8563 160.052 74.881C160.365 74.9057 160.675 74.9456 160.986 74.9788L161.039 74.9901L161.088 74.9961L161.125 75.0054L161.173 75.0124L161.21 75.0218L161.326 75.0465L161.363 75.056L161.599 75.1147L161.635 75.1288C161.804 75.1837 161.976 75.2302 162.141 75.2953C162.454 75.4187 162.743 75.5891 163.017 75.7856C163.228 75.9375 163.412 76.1179 163.551 76.3373C163.734 76.628 163.837 76.9508 163.9 77.2882C163.961 77.6163 163.982 77.9505 163.965 78.2837C163.944 78.7022 163.887 79.1155 163.692 79.4936C163.556 79.7597 163.353 79.9664 163.073 80.084C162.93 80.1436 162.783 80.1936 162.639 80.2479L162.536 80.2784L162.505 80.2851L162.468 80.2953L162.436 80.3001L162.4 80.3113L162.352 80.3207L162.315 80.3296L162.283 80.3345L162.246 80.3447L162.198 80.3524L162.161 80.3619L162.112 80.3684L162.059 80.3807L162.011 80.387L161.957 80.3977L161.908 80.4032L161.855 80.4148ZM156.799 79.4856C157.03 79.5213 157.799 79.4538 158.064 79.3871C158.294 79.3294 158.432 79.1862 158.497 78.965C158.519 78.8892 158.544 78.8116 158.547 78.7331C158.557 78.3731 158.57 78.0129 158.564 77.6529C158.556 77.2494 158.359 77.0208 157.965 76.9264C157.592 76.8371 157.213 76.8242 156.832 76.8219C156.821 76.8236 156.81 76.8268 156.8 76.8313L156.799 79.4856Z" fill="#FCFCFC"/>
<path d="M173.407 74.7922C173.439 74.7843 173.471 74.7695 173.503 74.7695C175.269 74.7683 177.035 74.768 178.801 74.7687C178.824 74.7687 178.846 74.7705 178.884 74.7721C178.817 74.8849 178.756 74.9904 178.693 75.0945C178.497 75.4171 178.302 75.7401 178.104 76.0611C177.799 76.5567 177.49 77.0496 177.184 77.5459C176.984 77.8717 176.789 78.2015 176.589 78.5277C176.429 78.7901 176.263 79.0495 176.101 79.3116C175.928 79.5917 175.757 79.8727 175.587 80.1547C175.575 80.1758 175.58 80.2184 175.592 80.2424C175.716 80.4732 175.843 80.7026 175.969 80.9318C176.138 81.2386 176.308 81.545 176.478 81.8512C176.651 82.1612 176.826 82.47 176.998 82.7805C177.192 83.1309 177.382 83.4832 177.576 83.8341C177.736 84.125 177.899 84.4149 178.059 84.7056C178.335 85.2062 178.611 85.7069 178.887 86.2077C178.98 86.3759 179.077 86.5422 179.171 86.7098C179.182 86.7332 179.191 86.7573 179.199 86.7819C179.164 86.7836 179.135 86.7861 179.105 86.7861C177.166 86.7861 175.227 86.7867 173.288 86.788C173.218 86.788 173.178 86.7643 173.152 86.7045C173.043 86.4615 172.934 86.2186 172.825 85.9759C172.781 85.8776 172.734 85.7808 172.689 85.6826C172.572 85.4258 172.456 85.1685 172.339 84.912C172.227 84.6697 172.113 84.429 172.002 84.1863C171.88 83.9193 171.763 83.6504 171.641 83.3833C171.534 83.1469 171.42 82.913 171.314 82.6762C171.176 82.3725 171.043 82.0671 170.908 81.7624C170.902 81.7495 170.895 81.7372 170.889 81.7244L170.867 81.6631L170.85 81.6673C170.851 81.6874 170.851 81.7076 170.852 81.7275C170.852 82.6532 170.852 83.5792 170.851 84.5054C170.851 85.2605 170.851 86.0157 170.851 86.7711C170.817 86.7735 170.783 86.7779 170.749 86.7779C168.875 86.7779 167.001 86.7779 165.128 86.7779C165.094 86.7779 165.06 86.773 165.027 86.7703V74.7685H170.833L170.85 74.7908C170.85 76.3019 170.85 77.813 170.85 79.324V79.4144L170.87 79.4161L170.901 79.324L173.393 74.8121C173.398 74.8055 173.402 74.7988 173.407 74.7922Z" fill="#FCFCFC"/>
</g>
<g clip-path="url(#clip2_77_4766)">
<path d="M260.779 56.1165C235.258 56.1619 214.612 76.8036 214.563 102.326C214.612 127.854 235.258 148.495 260.779 148.544C286.301 148.495 306.945 127.854 306.99 102.326C306.944 76.8036 286.301 56.1623 260.779 56.1165Z" fill="#2A323D"/>
<path d="M315.897 105.987C314.529 104.154 314.529 101.151 315.897 99.3159L318.877 95.3059C320.242 93.4708 319.794 90.9427 317.886 89.6854L313.711 86.9324C311.802 85.6796 310.777 82.8561 311.431 80.6651L312.86 75.8773C313.513 73.6866 312.231 71.4637 310.006 70.9382L305.145 69.7774C302.922 69.2498 300.993 66.9511 300.855 64.6709L300.562 59.6768C300.426 57.3991 298.46 55.7472 296.192 56.0065L291.225 56.5821C288.954 56.8482 286.355 55.3479 285.449 53.2513L283.467 48.6632C282.558 46.5665 280.143 45.6858 278.101 46.7111L273.632 48.9476C271.59 49.9753 268.634 49.4523 267.064 47.7914L263.63 44.1583C262.061 42.4974 259.491 42.4974 257.925 44.1583L254.488 47.792C252.921 49.4529 249.965 49.9759 247.923 48.9482L243.454 46.7117C241.41 45.6864 238.996 46.5672 238.09 48.6638L236.106 53.2519C235.2 55.3486 232.601 56.8489 230.33 56.5827L225.365 56.0071C223.094 55.7481 221.126 57.3997 220.988 59.6774L220.699 64.6715C220.564 66.9517 218.634 69.2504 216.409 69.778L211.546 70.9388C209.32 71.464 208.041 73.6869 208.692 75.8779L210.124 80.6657C210.775 82.8564 209.752 85.6803 207.841 86.933L203.668 89.686C201.76 90.943 201.314 93.4714 202.677 95.3065L205.659 99.3166C207.022 101.152 207.022 104.155 205.659 105.988L202.677 109.998C201.314 111.835 201.76 114.361 203.668 115.618L207.841 118.373C209.752 119.628 210.775 122.45 210.124 124.64L208.692 129.428C208.041 131.617 209.321 133.842 211.546 134.372L216.409 135.526C218.634 136.056 220.564 138.354 220.699 140.637L220.988 145.626C221.126 147.906 223.094 149.558 225.365 149.299L230.33 148.716C232.601 148.455 235.2 149.957 236.104 152.054L238.09 156.642C238.996 158.741 241.41 159.62 243.454 158.592L247.922 156.355C249.964 155.332 252.921 155.851 254.488 157.514L257.924 161.148C259.491 162.808 262.06 162.808 263.63 161.148L267.064 157.514C268.633 155.851 271.59 155.332 273.632 156.355L278.1 158.592C280.142 159.62 282.558 158.741 283.464 156.642L285.448 152.054C286.354 149.957 288.953 148.455 291.224 148.716L296.191 149.299C298.46 149.558 300.426 147.906 300.561 145.626L300.855 140.637C300.992 138.354 302.922 136.056 305.144 135.526L310.006 134.372C312.231 133.842 313.513 131.617 312.859 129.428L311.43 124.64C310.776 122.45 311.802 119.628 313.71 118.373L317.885 115.618C319.794 114.361 320.241 111.835 318.876 109.998L315.897 105.987ZM260.776 145.33C237.203 145.327 218.098 126.225 218.098 102.647C218.098 79.0781 237.202 59.9735 260.776 59.9689C284.347 59.9735 303.454 79.0781 303.454 102.647C303.454 126.225 284.347 145.327 260.776 145.33Z" fill="url(#paint1_linear_77_4766)"/>
<path d="M250.563 161.42C250.499 161.397 250.388 161.372 250.285 161.372L245.929 163.551C244.61 164.212 243.133 164.565 241.665 164.565C237.905 164.565 234.503 162.317 233.005 158.839L231.018 154.256C231.027 154.281 231.018 154.29 230.999 154.29C230.967 154.29 230.891 154.261 230.832 154.235L228.155 154.55L208.197 184.89L228.437 181.39L233.234 201.362L256.085 166.621C255.289 166.167 254.536 165.63 253.898 164.955L250.563 161.42Z" fill="#B2B2B2"/>
<path d="M290.733 154.232C290.65 154.264 290.542 154.321 290.481 154.378L288.551 158.84C287.053 162.313 283.654 164.561 279.889 164.561C278.423 164.561 276.944 164.208 275.62 163.543L271.28 161.37C271.146 161.378 271.05 161.4 270.991 161.417L267.659 164.951C266.902 165.75 265.999 166.369 265.035 166.862L287.723 201.358L292.52 181.386L312.76 184.887L292.752 154.468L290.733 154.232Z" fill="#B2B2B2"/>
<path d="M282.089 101.904C281.993 102.3 281.896 102.697 281.799 103.093C281.792 103.119 281.784 103.145 281.776 103.171C281.773 103.178 281.77 103.184 281.768 103.191L281.755 103.236C281.753 103.246 281.751 103.257 281.749 103.267L281.737 103.304C281.735 103.314 281.733 103.325 281.732 103.335L281.72 103.372L281.715 103.403C281.711 103.416 281.707 103.428 281.703 103.44L281.698 103.472L281.686 103.508L281.681 103.54C281.677 103.552 281.673 103.564 281.669 103.576C281.665 103.588 281.665 103.597 281.663 103.608C281.661 103.618 281.656 103.632 281.652 103.644L281.647 103.676L281.633 103.712C281.627 103.74 281.622 103.768 281.616 103.796C281.589 103.899 281.563 104.002 281.537 104.106L281.529 104.137C281.526 104.149 281.523 104.161 281.52 104.174C281.516 104.186 281.515 104.194 281.513 104.205C281.507 104.222 281.501 104.239 281.496 104.257C281.407 104.611 281.318 104.966 281.229 105.321C281.05 106.039 280.872 106.758 280.692 107.476C280.689 107.489 280.685 107.501 280.682 107.513C280.674 107.547 280.667 107.58 280.66 107.613L280.631 107.718C280.629 107.729 280.627 107.739 280.625 107.749C280.623 107.76 280.618 107.774 280.614 107.786L280.608 107.817C280.605 107.83 280.601 107.842 280.597 107.854C280.594 107.867 280.593 107.875 280.591 107.886C280.589 107.896 280.583 107.91 280.579 107.922L280.574 107.954C280.57 107.966 280.566 107.978 280.562 107.99L280.556 108.022L280.545 108.058C280.543 108.069 280.541 108.08 280.539 108.09L280.525 108.142C280.378 108.723 280.232 109.304 280.083 109.894H276.645C276.468 109.894 276.465 109.894 276.42 109.731C276.306 109.318 276.195 108.904 276.083 108.489C275.94 107.957 275.796 107.425 275.653 106.892C275.646 106.866 275.64 106.839 275.634 106.812C275.628 106.778 275.622 106.744 275.617 106.71L275.61 106.678L275.598 106.641C275.596 106.631 275.594 106.621 275.592 106.61L275.58 106.573L275.559 106.49C275.555 106.478 275.551 106.466 275.547 106.454C275.543 106.442 275.542 106.433 275.54 106.423L275.513 106.335C275.505 106.301 275.498 106.268 275.49 106.235L275.479 106.198C275.472 106.171 275.465 106.143 275.458 106.115L275.445 106.079L275.439 106.047C275.435 106.035 275.431 106.023 275.426 106.011L275.406 105.928L275.394 105.892C275.392 105.881 275.39 105.871 275.387 105.86L275.377 105.823C275.277 105.469 275.175 105.115 275.078 104.759C274.944 104.269 274.814 103.778 274.682 103.288C274.676 103.264 274.67 103.24 274.664 103.216C274.662 103.199 274.661 103.182 274.66 103.165L274.653 103.134C274.644 103.104 274.636 103.075 274.627 103.045L274.62 103.014C274.617 103.002 274.613 102.989 274.609 102.977C274.605 102.965 274.604 102.957 274.601 102.946C274.593 102.917 274.585 102.887 274.576 102.858C274.567 102.825 274.559 102.792 274.55 102.759L274.539 102.722L274.352 102.015H274.336V109.877C274.305 109.879 274.275 109.884 274.244 109.884C272.612 109.884 270.98 109.884 269.349 109.884C269.315 109.882 269.281 109.879 269.248 109.874C269.248 105.918 269.248 101.962 269.248 98.0063V97.8756H269.362C271.795 97.8756 274.228 97.8749 276.661 97.8735C276.751 97.8735 276.792 97.8921 276.817 97.9862C276.914 98.3441 277.022 98.6996 277.126 99.0561C277.13 99.0726 277.133 99.0893 277.135 99.1062L277.151 99.1416L277.188 99.293C277.192 99.3051 277.196 99.3172 277.2 99.3293L277.207 99.3606C277.216 99.3899 277.224 99.4194 277.233 99.4489C277.235 99.4593 277.237 99.4699 277.239 99.4804C277.241 99.491 277.247 99.5046 277.251 99.5167L277.258 99.5481L277.269 99.5849C277.276 99.6125 277.283 99.6403 277.29 99.6679C277.294 99.6802 277.298 99.6923 277.302 99.7044L277.342 99.8722C277.346 99.8843 277.35 99.8966 277.354 99.9087C277.36 99.9367 277.367 99.9644 277.374 99.9924L277.386 100.028L277.392 100.06L277.404 100.097C277.406 100.108 277.408 100.118 277.41 100.129C277.412 100.139 277.418 100.153 277.422 100.165C277.425 100.177 277.426 100.186 277.428 100.197L277.438 100.234C277.58 100.781 277.722 101.328 277.863 101.876C277.991 102.367 278.121 102.859 278.251 103.35C278.257 103.368 278.264 103.385 278.271 103.403L278.295 103.405C278.441 102.802 278.587 102.199 278.733 101.597L278.744 101.56C278.746 101.55 278.748 101.539 278.75 101.529L278.777 101.424C278.779 101.413 278.781 101.403 278.783 101.392C278.785 101.382 278.79 101.368 278.793 101.355C278.802 101.317 278.81 101.278 278.819 101.239C278.824 101.222 278.828 101.205 278.833 101.187L278.852 101.103L278.898 100.913L278.904 100.881L278.915 100.844C278.916 100.834 278.918 100.823 278.92 100.813L278.931 100.776L278.936 100.745C278.94 100.732 278.944 100.72 278.948 100.708L278.953 100.676L278.984 100.555C278.985 100.544 278.987 100.534 278.989 100.523C278.997 100.488 279.006 100.453 279.014 100.418L279.02 100.387C279.024 100.374 279.027 100.362 279.03 100.349C279.033 100.337 279.034 100.329 279.037 100.318C279.039 100.308 279.043 100.294 279.046 100.281L279.053 100.25L279.067 100.197L279.074 100.165L279.081 100.131C279.109 99.9938 279.135 99.8555 279.166 99.7187C279.254 99.3365 279.344 98.9545 279.435 98.5728C279.485 98.3615 279.534 98.1501 279.589 97.9402C279.596 97.9144 279.636 97.8942 279.665 97.8785C279.68 97.8701 279.704 97.8769 279.724 97.8769H287.081C287.115 97.8769 287.149 97.8804 287.184 97.8821V109.897C287.147 109.897 287.11 109.894 287.073 109.894H282.121V102.007C282.121 101.973 282.121 101.939 282.12 101.905L282.124 101.83L282.107 101.828C282.102 101.853 282.096 101.879 282.089 101.904Z" fill="#FCFCFC"/>
<path d="M234.37 97.9492H239.492V98.043C239.492 99.6133 239.493 101.184 239.494 102.754C239.494 102.832 239.475 102.855 239.395 102.855C237.754 102.852 236.113 102.852 234.471 102.853C234.437 102.853 234.403 102.856 234.369 102.857L234.37 97.9492Z" fill="#FCFCFC"/>
<path d="M245.238 92.4446C245.239 92.4758 245.241 92.507 245.241 92.5382C245.241 94.1003 245.241 95.6625 245.241 97.2248V97.3299H240.1V97.1634C240.1 95.6156 240.1 94.0676 240.1 92.5196C240.1 92.4888 240.096 92.4581 240.094 92.4272H240.128C240.157 92.435 240.187 92.4403 240.217 92.4429C240.529 92.4441 240.841 92.4429 241.153 92.4429L245.238 92.4446Z" fill="#FCFCFC"/>
<path d="M239.499 92.428C239.497 92.4588 239.493 92.4897 239.493 92.5205C239.493 94.0734 239.493 95.6263 239.493 97.1793V97.3361H234.371V92.445C236.034 92.445 237.697 92.4446 239.36 92.4438C239.395 92.4412 239.43 92.4359 239.465 92.428H239.499Z" fill="#FCFCFC"/>
<path d="M250.981 103.522L250.016 103.626C250.016 103.631 250.016 103.636 250.016 103.64L250.3 103.677L250.353 103.688L250.402 103.694L250.439 103.702L250.504 103.711L250.541 103.72L250.589 103.727L250.627 103.734L250.691 103.745L250.728 103.755L250.777 103.762L250.813 103.772L250.862 103.779L250.898 103.789L251.015 103.81L251.137 103.84L251.168 103.846L251.205 103.857L251.237 103.863L251.273 103.874L251.305 103.88L251.393 103.907L251.424 103.913L251.512 103.941L251.595 103.963L251.63 103.98C251.915 104.063 252.182 104.198 252.418 104.379C252.531 104.46 252.638 104.549 252.739 104.645C252.909 104.813 252.998 105.023 253.027 105.263C253.121 106.028 253.091 106.797 253.095 107.563C253.099 108.304 253.095 109.046 253.095 109.787V109.887H247.694V109.787C247.693 108.427 247.692 107.067 247.691 105.707C247.691 105.656 247.686 105.604 247.683 105.553C247.681 105.535 247.679 105.517 247.677 105.499C247.655 105.359 247.647 105.215 247.606 105.081C247.569 104.958 247.51 104.842 247.431 104.741C247.376 104.673 247.276 104.622 247.187 104.602C246.972 104.554 246.752 104.529 246.534 104.495L246.412 104.486L246.177 104.478C246.104 104.475 246.03 104.469 245.957 104.468C245.947 104.468 245.936 104.485 245.926 104.496C245.926 104.53 245.924 104.564 245.924 104.598V109.779C245.924 109.813 245.924 109.847 245.922 109.881C245.891 109.882 245.86 109.885 245.829 109.885H240.199C240.167 109.885 240.136 109.882 240.105 109.88C240.105 109.849 240.104 109.818 240.104 109.787C240.104 105.859 240.104 101.932 240.104 98.005V97.8829C240.133 97.8802 240.155 97.8763 240.177 97.8765C242.232 97.8799 244.287 97.8838 246.342 97.8882C246.618 97.8882 246.893 97.8959 247.168 97.9032C247.525 97.9128 247.882 97.9227 248.238 97.9373C248.552 97.9503 248.866 97.9637 249.179 97.9884C249.492 98.0131 249.801 98.053 250.112 98.0863L250.166 98.0975L250.214 98.1035L250.251 98.1128L250.3 98.1198L250.336 98.1292L250.453 98.1539L250.49 98.1635L250.726 98.2221L250.761 98.2362C250.93 98.2911 251.102 98.3376 251.267 98.4027C251.581 98.5261 251.869 98.6965 252.143 98.893C252.354 99.0449 252.539 99.2254 252.677 99.4447C252.86 99.7354 252.963 100.058 253.027 100.396C253.087 100.724 253.109 101.058 253.091 101.391C253.07 101.81 253.013 102.223 252.818 102.601C252.682 102.867 252.48 103.074 252.199 103.191C252.057 103.251 251.91 103.301 251.766 103.355L251.663 103.386L251.631 103.393L251.594 103.403L251.562 103.408L251.526 103.419L251.478 103.428L251.441 103.437L251.409 103.442L251.373 103.452L251.324 103.46L251.288 103.469L251.239 103.476L251.186 103.488L251.137 103.494L251.083 103.505L251.035 103.511L250.981 103.522ZM245.926 102.593C246.156 102.629 246.925 102.561 247.191 102.495C247.421 102.437 247.559 102.294 247.624 102.072C247.646 101.997 247.671 101.919 247.673 101.84C247.683 101.481 247.696 101.12 247.69 100.76C247.682 100.357 247.486 100.128 247.091 100.034C246.719 99.9445 246.339 99.9316 245.959 99.9294C245.948 99.931 245.937 99.9342 245.927 99.9387L245.926 102.593Z" fill="#FCFCFC"/>
<path d="M262.534 97.8996C262.566 97.8918 262.598 97.8769 262.63 97.8769C264.396 97.8757 266.162 97.8754 267.928 97.8761C267.951 97.8761 267.973 97.878 268.011 97.8795C267.944 97.9923 267.883 98.0978 267.819 98.2019C267.624 98.5245 267.429 98.8475 267.231 99.1686C266.926 99.6642 266.616 100.157 266.311 100.653C266.111 100.979 265.916 101.309 265.716 101.635C265.556 101.898 265.389 102.157 265.228 102.419C265.055 102.699 264.884 102.98 264.714 103.262C264.702 103.283 264.706 103.326 264.719 103.35C264.843 103.581 264.97 103.81 265.096 104.039C265.265 104.346 265.435 104.652 265.605 104.959C265.778 105.269 265.953 105.577 266.124 105.888C266.319 106.238 266.509 106.591 266.703 106.942C266.863 107.232 267.026 107.522 267.186 107.813C267.462 108.314 267.738 108.814 268.014 109.315C268.107 109.483 268.203 109.65 268.298 109.817C268.309 109.841 268.318 109.865 268.326 109.889C268.291 109.891 268.262 109.894 268.232 109.894C266.293 109.894 264.354 109.894 262.415 109.895C262.344 109.895 262.305 109.872 262.279 109.812C262.17 109.569 262.061 109.326 261.952 109.083C261.908 108.985 261.86 108.888 261.816 108.79C261.699 108.533 261.583 108.276 261.466 108.019C261.354 107.777 261.239 107.536 261.129 107.294C261.007 107.027 260.89 106.758 260.768 106.491C260.661 106.254 260.547 106.02 260.441 105.784C260.303 105.48 260.17 105.175 260.035 104.87C260.029 104.857 260.022 104.845 260.016 104.832L259.994 104.77L259.977 104.775C259.978 104.795 259.978 104.815 259.979 104.835C259.979 105.761 259.979 106.687 259.978 107.613C259.978 108.368 259.978 109.123 259.978 109.879C259.944 109.881 259.91 109.885 259.876 109.885C258.002 109.885 256.128 109.885 254.255 109.885C254.221 109.885 254.187 109.88 254.154 109.878V97.8759H259.96L259.977 97.8982C259.977 99.4093 259.977 100.92 259.977 102.431V102.522L259.997 102.523L260.028 102.431L262.52 97.9196C262.525 97.9129 262.529 97.9063 262.534 97.8996Z" fill="#FCFCFC"/>
</g>
<defs>
<linearGradient id="paint0_linear_77_4766" x1="173.463" y1="-236.224" x2="262.889" y2="-225.917" gradientUnits="userSpaceOnUse">
<stop stop-color="#D09A00"/>
<stop offset="0.980418" stop-color="#FFD285"/>
</linearGradient>
<linearGradient id="paint1_linear_77_4766" x1="339.475" y1="173.352" x2="231.117" y2="31.322" gradientUnits="userSpaceOnUse">
<stop stop-color="#ECECEC"/>
<stop offset="0.223958" stop-color="#565656"/>
<stop offset="0.421875" stop-color="#ECECEC"/>
<stop offset="0.634529" stop-color="#565656"/>
<stop offset="0.813511" stop-color="#ECECEC"/>
<stop offset="1" stop-color="#565656"/>
</linearGradient>
<clipPath id="clip0_77_4766">
<rect width="158.447" height="158.447" fill="white"/>
</clipPath>
<clipPath id="clip1_77_4766">
<rect width="158.447" height="158.447" fill="white" transform="translate(92.4272 19.8059)"/>
</clipPath>
<clipPath id="clip2_77_4766">
<rect width="158.447" height="158.447" fill="white" transform="translate(181.553 42.9126)"/>
</clipPath>
</defs>
</svg>
