<svg width="34" height="34" viewBox="0 0 34 34" fill="none" xmlns="http://www.w3.org/2000/svg">
<path d="M15.8294 0.224609C16.0348 0.445242 15.7558 0.47466 15.5357 0.59233C15.4329 0.72471 15.3008 0.783545 15.1687 0.886507C13.5977 2.31326 12.5994 3.99007 12.3939 6.16698C12.0415 10.2119 14.8898 13.6538 18.5897 14.301C19.7496 14.5069 20.9535 14.5804 22.1575 14.5069C22.7447 14.4775 23.332 14.5363 23.9193 14.4922C25.4756 14.3745 26.9438 14.4775 28.0156 15.8307C27.5898 16.7573 27.6779 17.7428 27.6779 18.7136C27.6779 19.0961 27.6632 19.4785 27.2375 19.6256C26.7676 19.7874 26.518 19.4785 26.2978 19.1402C25.8427 18.4489 25.3435 17.787 24.903 17.0809C24.1102 15.8307 22.9943 15.3159 21.5555 15.5218C21.4968 15.4924 21.4234 15.4777 21.3646 15.4483C19.6175 15.2865 17.8556 15.4041 16.0938 15.3894C14.7871 15.4483 13.7006 14.8158 12.6141 14.2274C10.4558 12.5947 9.20786 10.4914 9.22254 7.74083C9.22254 5.6963 9.97133 3.93124 11.3808 2.44564C11.5423 2.26914 11.7038 2.07792 11.8653 1.90142C13.0252 1.0483 14.3318 0.356989 15.8294 0.224609Z" fill="#D16B28"/>
<path d="M21.3793 15.4484C21.438 15.4778 21.5114 15.4925 21.5701 15.5219C23.3173 16.8016 24.4331 18.4637 24.8589 20.6259C25.6811 24.9062 22.3042 29.3188 17.9583 29.51C16.1084 29.5836 14.2438 29.5542 12.3938 29.5394C11.2193 29.5247 10.2356 29.8925 9.50145 30.8338C9.03162 30.0984 8.70862 29.26 7.82769 28.8775C6.81463 28.451 6.03648 27.7155 5.27301 26.9507C3.20283 24.8032 2.76237 20.6553 4.34804 18.1401C5.69879 16.0073 7.5781 14.6688 10.0887 14.2717C10.9403 14.257 11.7772 14.2422 12.6287 14.2275C13.7299 14.8159 14.8017 15.4484 16.1084 15.3895C17.8702 15.5955 19.6321 15.4778 21.3793 15.4484ZM17.8556 20.6553C17.0921 20.67 16.4608 21.3025 16.4754 22.0526C16.4901 22.8028 17.1215 23.45 17.8702 23.45C18.6484 23.45 19.3091 22.7881 19.2797 21.9938C19.2797 21.2437 18.6337 20.6406 17.8556 20.6553ZM14.0969 22.0085C14.0823 21.2289 13.4803 20.6406 12.7021 20.6553C11.9387 20.67 11.3073 21.2878 11.3073 22.0526C11.3073 22.8322 11.9974 23.4941 12.7756 23.4647C13.539 23.4353 14.1116 22.8028 14.0969 22.0085ZM7.51937 23.4647C8.28284 23.4794 8.91417 22.8616 8.94353 22.0968C8.9729 21.3172 8.38561 20.6847 7.60746 20.6553C6.79995 20.6259 6.15393 21.2437 6.13925 22.0379C6.13925 22.8028 6.77058 23.45 7.51937 23.4647Z" fill="#F7F8F8"/>
<path d="M10.0889 14.2719C7.57824 14.6837 5.69894 16.0075 4.34819 18.1403C2.76252 20.6555 3.20298 24.8034 5.27316 26.9362C6.02194 27.7157 6.80009 28.4512 7.82784 28.863C8.72345 29.2308 9.04645 30.0839 9.5016 30.8193C8.929 31.6724 8.3564 32.5255 7.79848 33.3786C7.60761 33.6728 7.35801 33.8493 7.00564 33.7464C6.62391 33.6434 6.5505 33.3492 6.5505 32.9962C6.5505 32.5991 6.5505 32.2167 6.5505 31.8195C6.56518 30.4075 5.96321 29.4073 4.70055 28.7454C2.29269 27.4804 0.868529 25.4947 0.516158 22.7589C0.0610135 19.214 2.32206 15.6692 5.74298 14.6249C7.16715 14.1836 8.62067 14.1689 10.0889 14.2719Z" fill="#D1D2D2"/>
<path d="M14.6572 8.22477C14.6572 7.13208 15.5201 6.24556 16.6145 6.22494C17.7299 6.20432 18.698 7.1527 18.6559 8.26601C18.6349 9.33808 17.7088 10.2246 16.6355 10.2246C15.5411 10.204 14.6783 9.31747 14.6572 8.22477Z" fill="#F7F8F8"/>
<path d="M23.6572 8.22445C23.6572 9.31714 22.8196 10.2037 21.7097 10.2243C20.6208 10.2449 19.6366 9.27591 19.6576 8.18321C19.6785 7.13175 20.6208 6.22461 21.6888 6.22461C22.7777 6.24523 23.6363 7.13175 23.6572 8.22445Z" fill="#F7F8F8"/>
<path d="M26.6357 10.2232C25.5736 10.1818 24.6572 9.22945 24.6572 8.21497C24.6572 7.13839 25.6777 6.16532 26.7606 6.22743C27.8228 6.28954 28.6974 7.2212 28.6558 8.29779C28.635 9.37437 27.6978 10.2646 26.6357 10.2232Z" fill="#F7F8F8"/>
<path d="M17.8559 20.655C18.6341 20.6403 19.2654 21.2434 19.2948 22.0083C19.3094 22.7878 18.6634 23.4644 17.8853 23.4644C17.1365 23.4644 16.5052 22.8172 16.4905 22.0671C16.4611 21.3022 17.0925 20.6698 17.8559 20.655Z" fill="#24292F"/>
<path d="M14.0972 22.0081C14.1119 22.7876 13.5393 23.4201 12.7758 23.4495C12.0124 23.4789 11.3076 22.817 11.3076 22.0375C11.3076 21.2873 11.9389 20.6548 12.7024 20.6401C13.4806 20.6401 14.0825 21.2285 14.0972 22.0081Z" fill="#24292F"/>
<path d="M7.51952 23.4641C6.77073 23.4494 6.1394 22.8022 6.1394 22.0521C6.1394 21.2578 6.8001 20.64 7.60761 20.6695C8.37108 20.6989 8.95837 21.3314 8.94368 22.1109C8.91432 22.8611 8.28299 23.4789 7.51952 23.4641Z" fill="#24292F"/>
<path d="M33.1566 10.7259C32.2757 12.6086 30.9396 14.0354 29.0603 14.9179C28.5758 15.1386 28.2968 15.5798 27.9591 15.9623C26.8874 14.609 25.4191 14.4914 23.8628 14.6238C23.2756 14.6679 22.6883 14.609 22.101 14.6385C20.8971 14.712 19.6931 14.6385 18.5332 14.4325C14.8334 13.7854 11.9703 10.3435 12.3374 6.29855C12.5283 4.10694 13.4826 2.41542 15.0683 0.988662C15.2004 0.870992 15.4329 0.636457 15.5357 0.518786C15.6238 0.415824 15.5357 0.518786 15.7143 0.356183C16.052 0.164968 16.4337 0.238512 16.7861 0.238512C19.8106 0.238512 22.8351 0.238512 25.8743 0.238512C31.2773 0.238512 34.8744 5.15126 33.2741 10.3141C33.2153 10.4464 33.186 10.5788 33.1566 10.7259ZM14.848 8.01949C14.848 8.79906 15.4647 9.43154 16.2282 9.43154C16.9769 9.44624 17.623 8.79906 17.6376 8.0342C17.6523 7.23992 16.9916 6.56331 16.2135 6.57802C15.45 6.60744 14.848 7.23992 14.848 8.01949ZM22.8057 8.00478C22.8057 7.22521 22.1891 6.59273 21.4256 6.59273C20.6915 6.57802 20.0161 7.23992 20.0015 7.99007C19.9868 8.76964 20.6621 9.46095 21.4403 9.44625C22.2038 9.41683 22.8057 8.79906 22.8057 8.00478ZM26.5497 9.43154C27.2985 9.46095 27.9591 8.81377 27.9885 8.04891C28.0179 7.28405 27.4012 6.62215 26.6524 6.57802C25.889 6.5339 25.1695 7.22521 25.1695 7.99007C25.1549 8.74022 25.8156 9.41683 26.5497 9.43154Z" fill="#FE8D25"/>
</svg>
