<svg width="38" height="39" viewBox="0 0 38 39" fill="none" xmlns="http://www.w3.org/2000/svg">
<path d="M11.6521 10.5199L11.8421 10.6859L28.8141 27.6559C29.0366 27.8781 29.2035 28.1496 29.3013 28.4484C29.3992 28.7472 29.4252 29.0649 29.3772 29.3757C29.3293 29.6864 29.2088 29.9815 29.0255 30.2369C28.8421 30.4924 28.6012 30.701 28.3221 30.8459L28.0901 30.9459L7.32011 38.5999C3.41611 40.0399 -0.385889 36.3699 0.800111 32.4719L0.900111 32.1799L8.55211 11.4099C8.65327 11.1347 8.81368 10.8852 9.02198 10.6789C9.23027 10.4727 9.48137 10.3147 9.75748 10.2163C10.0336 10.1178 10.328 10.0812 10.6198 10.1092C10.9116 10.1371 11.1937 10.2288 11.4461 10.3779L11.6521 10.5199ZM29.7141 19.2079C31.5361 19.3039 34.0341 19.6879 36.2061 20.9919C36.6464 21.2529 36.9699 21.6729 37.1099 22.1652C37.2499 22.6576 37.1958 23.1849 36.9587 23.6386C36.7216 24.0923 36.3196 24.4378 35.8354 24.6039C35.3513 24.7701 34.8218 24.7443 34.3561 24.5319L34.1481 24.4219C32.7841 23.6019 31.0401 23.2819 29.5041 23.2019C28.8712 23.1653 28.2367 23.1679 27.6041 23.2099L26.9721 23.2719C26.4504 23.3392 25.9231 23.1983 25.5046 22.8796C25.086 22.5609 24.8099 22.0902 24.736 21.5693C24.6621 21.0485 24.7963 20.5195 25.1097 20.097C25.423 19.6744 25.8903 19.3924 26.4101 19.3119C27.5055 19.1704 28.6119 19.1349 29.7141 19.2059M33.7641 13.6339C34.2737 13.6349 34.7637 13.8305 35.134 14.1806C35.5042 14.5307 35.7269 15.0089 35.7565 15.5177C35.7861 16.0264 35.6205 16.5272 35.2933 16.9179C34.9661 17.3086 34.5021 17.5597 33.9961 17.6199L33.7641 17.6339H32.3481C31.8385 17.6328 31.3486 17.4373 30.9783 17.0872C30.608 16.7371 30.3853 16.2588 30.3557 15.7501C30.3261 15.2414 30.4918 14.7405 30.8189 14.3498C31.1461 13.9591 31.6101 13.7081 32.1161 13.6479L32.3481 13.6339H33.7641ZM27.4001 12.0999C27.7445 12.4443 27.9513 12.9025 27.9819 13.3885C28.0125 13.8746 27.8646 14.3551 27.5661 14.7399L27.4001 14.9279L25.2781 17.0499C24.9182 17.4086 24.4352 17.6168 23.9273 17.6323C23.4194 17.6478 22.9247 17.4694 22.5436 17.1334C22.1624 16.7973 21.9235 16.3288 21.8753 15.8229C21.8271 15.3171 21.9733 14.8119 22.2841 14.4099L22.4501 14.2219L24.5701 12.1019C24.7559 11.9159 24.9764 11.7684 25.2192 11.6677C25.462 11.5671 25.7223 11.5153 25.9851 11.5153C26.2479 11.5153 26.5082 11.5671 26.751 11.6677C26.9938 11.7684 27.2144 11.9139 27.4001 12.0999ZM22.2261 1.56987C23.1221 4.26187 22.6421 7.20987 22.0821 9.26987C21.7456 10.5542 21.2833 11.8022 20.7021 12.9959C20.4653 13.4706 20.0495 13.8318 19.5464 14C19.0432 14.1683 18.4938 14.1297 18.0191 13.8929C17.5444 13.656 17.1832 13.2403 17.0149 12.7371C16.8467 12.234 16.8853 11.6846 17.1221 11.2099C17.5981 10.2599 17.9421 9.23987 18.2221 8.21787C18.6761 6.55387 18.9041 4.74787 18.5541 3.26787L18.4321 2.83587C18.3449 2.58575 18.3083 2.3208 18.3244 2.05642C18.3405 1.79203 18.4089 1.53347 18.5257 1.29574C18.6425 1.05802 18.8054 0.845861 19.0048 0.671591C19.2043 0.49732 19.4364 0.364408 19.6877 0.280568C19.9389 0.196728 20.2043 0.163632 20.4685 0.1832C20.7326 0.202768 20.9903 0.27461 21.2264 0.394557C21.4626 0.514504 21.6726 0.680166 21.8442 0.881926C22.0158 1.08369 22.1456 1.31752 22.2261 1.56987ZM33.0561 6.44587C33.4311 6.82092 33.6417 7.32954 33.6417 7.85987C33.6417 8.3902 33.4311 8.89881 33.0561 9.27387L31.6421 10.6879C31.4576 10.8789 31.2369 11.0313 30.9929 11.1361C30.7489 11.2409 30.4865 11.2961 30.2209 11.2984C29.9554 11.3007 29.692 11.2501 29.4462 11.1495C29.2004 11.0489 28.9771 10.9004 28.7893 10.7127C28.6015 10.5249 28.453 10.3016 28.3525 10.0558C28.2519 9.80998 28.2013 9.54662 28.2036 9.28107C28.2059 9.01551 28.2611 8.75307 28.3659 8.50906C28.4707 8.26505 28.6231 8.04436 28.8141 7.85987L30.2281 6.44587C30.6032 6.07093 31.1118 5.8603 31.6421 5.8603C32.1724 5.8603 32.6811 6.07093 33.0561 6.44587Z" fill="#FE8D25"/>
</svg>
