<svg width="98" height="113" viewBox="0 0 98 113" fill="none" xmlns="http://www.w3.org/2000/svg">
<g opacity="0.2" clip-path="url(#clip0_407_17440)">
<path d="M49.0009 16.2104C32.9042 16.2391 19.8822 29.2582 19.8516 45.3554C19.8822 61.4562 32.904 74.475 49.0009 74.5056C65.0979 74.475 78.118 61.4566 78.1466 45.3554C78.1177 29.2582 65.0976 16.2394 49.0009 16.2104Z" fill="#0D1117"/>
<g filter="url(#filter0_d_407_17440)">
<path d="M86.4388 47.8421C85.5099 46.5971 85.5099 44.5576 86.4388 43.3109L88.4628 40.5871C89.39 39.3407 89.086 37.6235 87.7897 36.7695L84.9539 34.8996C83.6574 34.0487 82.961 32.1308 83.4052 30.6426L84.3759 27.3906C84.8198 25.9026 83.949 24.3928 82.4377 24.0359L79.1359 23.2474C77.626 22.889 76.3154 21.3277 76.2221 19.7789L76.0226 16.3867C75.9308 14.8397 74.5954 13.7176 73.0544 13.8938L69.6809 14.2847C68.1383 14.4655 66.373 13.4465 65.7576 12.0224L64.4112 8.90597C63.7943 7.48187 62.1535 6.88364 60.7666 7.58003L57.7313 9.09914C56.3444 9.79721 54.3362 9.44197 53.2703 8.31384L50.9375 5.8461C49.8716 4.71797 48.1263 4.71797 47.0623 5.8461L44.7282 8.31426C43.664 9.44239 41.6556 9.79763 40.2687 9.09956L37.2334 7.58045C35.845 6.88406 34.2057 7.48229 33.5902 8.90639L32.2424 12.0228C31.627 13.4469 29.8615 14.4659 28.3189 14.2852L24.9469 13.8942C23.4042 13.7183 22.0674 14.8401 21.9738 16.3872L21.7775 19.7793C21.6856 21.3281 20.375 22.8894 18.8637 23.2478L15.5604 24.0363C14.0489 24.393 13.1795 25.9029 13.622 27.3911L14.5944 30.6431C15.0371 32.131 14.3419 34.0491 13.0439 34.9L10.2096 36.7699C8.91333 37.6238 8.61086 39.3411 9.53657 40.5876L11.562 43.3113C12.4878 44.5578 12.4878 46.5976 11.562 47.8426L9.53657 50.5663C8.61086 51.8145 8.91333 53.5299 10.2096 54.384L13.0439 56.2551C14.3419 57.1075 15.0371 59.0241 14.5944 60.5121L13.622 63.7641C13.1795 65.2506 14.0491 66.7619 15.5604 67.122L18.8637 67.9056C20.375 68.2657 21.6856 69.8268 21.7775 71.3773L21.9738 74.7663C22.0674 76.3151 23.4042 77.4371 24.9469 77.2609L28.3189 76.8651C29.8615 76.6875 31.6268 77.708 32.2408 79.1323L33.59 82.2488C34.2055 83.6743 35.8448 84.2711 37.2332 83.573L40.2685 82.0539C41.6553 81.3588 43.6638 81.7111 44.728 82.8407L47.0621 85.3088C48.1261 86.437 49.8714 86.437 50.9373 85.3088L53.2699 82.8407C54.3358 81.7111 56.344 81.3588 57.7309 82.0539L60.7662 83.573C62.1531 84.2711 63.7939 83.6743 64.4091 82.2488L65.7571 79.1323C66.3726 77.708 68.1378 76.6877 69.6805 76.8651L73.054 77.2609C74.5949 77.4369 75.9303 76.3151 76.0222 74.7663L76.2217 71.3773C76.3152 69.8268 77.6256 68.2657 79.1354 67.9056L82.4372 67.122C83.9486 66.7621 84.8196 65.2506 84.3755 63.7641L83.4048 60.5121C82.9608 59.0241 83.6572 57.1075 84.9535 56.2551L87.7893 54.384C89.0858 53.5301 89.3898 51.8145 88.4624 50.5663L86.4388 47.8421ZM48.999 74.5649C32.9874 74.5633 20.0108 61.5885 20.0108 45.5735C20.0108 29.5647 32.9872 16.5883 48.999 16.5852C65.0092 16.5883 77.9873 29.5647 77.9873 45.5735C77.9873 61.5885 65.0092 74.5633 48.999 74.5649Z" fill="url(#paint0_linear_407_17440)"/>
</g>
<path d="M42.0611 85.4937C42.0173 85.4782 41.9425 85.461 41.8725 85.461L38.9135 86.9414C38.0177 87.3899 37.0142 87.63 36.017 87.63C33.4631 87.63 31.1524 86.1031 30.1348 83.7409L28.7853 80.6279C28.7916 80.6449 28.7853 80.6512 28.7727 80.6512C28.7511 80.6512 28.6996 80.631 28.6592 80.6138L26.8408 80.8273L13.2847 101.436L27.0325 99.0579L30.2906 112.623L45.8116 89.0263C45.2708 88.718 44.7598 88.3533 44.3266 87.8951L42.0611 85.4937Z" fill="#FFD285"/>
<path d="M69.3458 80.6113C69.2897 80.633 69.2163 80.6719 69.1745 80.711L67.8641 83.7416C66.8465 86.1007 64.5373 87.6276 61.9804 87.6276C60.9847 87.6276 59.9798 87.3875 59.0807 86.9358L56.1325 85.4602C56.0421 85.465 55.9767 85.4804 55.9362 85.4915L53.6736 87.8924C53.1595 88.4347 52.5457 88.8555 51.8911 89.1904L67.3014 112.621L70.5595 99.0554L84.3073 101.433L70.7171 80.7717L69.3458 80.6113Z" fill="#FFD285"/>
<path d="M63.4757 45.0684C63.41 45.3377 63.3442 45.607 63.2783 45.8763C63.2739 45.8942 63.268 45.9117 63.2629 45.9294C63.2609 45.9338 63.259 45.9382 63.2571 45.9426L63.2484 45.9733C63.247 45.9804 63.2456 45.9875 63.2441 45.9946L63.2365 46.0195C63.2352 46.0267 63.2338 46.0338 63.2326 46.0409L63.2249 46.0658L63.2211 46.0871C63.2186 46.0954 63.2159 46.1036 63.2132 46.1119L63.2095 46.1334L63.2018 46.1582L63.198 46.1797C63.1953 46.1879 63.1926 46.1961 63.1901 46.2044C63.1876 46.2126 63.1874 46.2188 63.1862 46.226C63.1849 46.2332 63.181 46.2424 63.1784 46.2507L63.1748 46.2723L63.1655 46.2965C63.1617 46.3155 63.1582 46.3346 63.1539 46.3536C63.1361 46.4237 63.1182 46.4939 63.1002 46.564L63.0953 46.5851C63.0931 46.5934 63.0908 46.6019 63.0886 46.6103C63.0864 46.6188 63.0855 46.6243 63.084 46.6314C63.08 46.643 63.0762 46.6545 63.0724 46.6667C63.0121 46.9075 62.9518 47.1484 62.8914 47.3893C62.77 47.8774 62.6485 48.3655 62.5268 48.8537C62.5244 48.862 62.5218 48.8703 62.5194 48.8787C62.5144 48.9018 62.5096 48.9238 62.5046 48.9464L62.4854 49.0177C62.484 49.0249 62.4826 49.0319 62.4811 49.039C62.4796 49.046 62.4762 49.0556 62.4737 49.064L62.4695 49.0853C62.4671 49.0936 62.4645 49.1019 62.4621 49.1103C62.4597 49.1186 62.4591 49.1244 62.4577 49.1316C62.4563 49.1388 62.4525 49.1481 62.45 49.1565L62.4461 49.1779C62.4435 49.1861 62.4409 49.1944 62.4384 49.2028L62.4342 49.2241L62.4266 49.249C62.4253 49.2561 62.4241 49.2633 62.4229 49.2704L62.4129 49.3059C62.3134 49.7005 62.2139 50.095 62.1127 50.4958H59.7779C59.6574 50.4958 59.6554 50.4958 59.6249 50.3853C59.5476 50.1044 59.4721 49.823 59.3962 49.5417C59.2987 49.1801 59.2013 48.8184 59.1039 48.4567C59.0991 48.4388 59.0952 48.4205 59.091 48.4023C59.0869 48.3792 59.083 48.356 59.0794 48.3329L59.075 48.3115L59.0668 48.2864C59.0653 48.2794 59.0638 48.2723 59.0621 48.2652L59.0542 48.2403L59.0399 48.1839C59.0371 48.1757 59.0344 48.1675 59.0317 48.1592C59.029 48.151 59.0287 48.145 59.0271 48.1379L59.0089 48.0781C59.0036 48.0549 58.9984 48.0328 58.993 48.0103L58.9858 47.9855C58.9811 47.9667 58.9763 47.9478 58.9714 47.9289L58.9626 47.9045L58.9582 47.8829C58.9556 47.8747 58.9528 47.8665 58.95 47.8582L58.936 47.8017L58.9279 47.7771C58.9264 47.7699 58.9249 47.7629 58.9235 47.7557L58.9163 47.7308C58.8485 47.4899 58.7793 47.2494 58.7134 47.008C58.6225 46.6751 58.5341 46.3416 58.4447 46.0085C58.4403 45.9923 58.4361 45.976 58.4319 45.9598C58.431 45.9482 58.4302 45.9366 58.4294 45.925L58.4245 45.9039C58.4187 45.8838 58.413 45.8638 58.4073 45.8438L58.4024 45.8226C58.3999 45.8143 58.3972 45.8059 58.3947 45.7977C58.3921 45.7895 58.3911 45.7837 58.3893 45.7766C58.3838 45.7566 58.3782 45.7365 58.3724 45.7166C58.3665 45.6941 58.3609 45.6718 58.3546 45.6493L58.3473 45.6242L58.22 45.1441H58.2096V50.4841C58.1886 50.4857 58.1676 50.4888 58.1466 50.4888C57.0383 50.4888 55.93 50.4888 54.8218 50.4888C54.7989 50.4877 54.7761 50.4854 54.7534 50.4819C54.7534 47.7951 54.7534 45.1082 54.7534 42.4212V42.3324H54.8309C56.4834 42.3324 58.136 42.332 59.7885 42.3311C59.8494 42.3311 59.8775 42.3437 59.8947 42.4076C59.9604 42.6507 60.0336 42.8921 60.1041 43.1343C60.1068 43.1455 60.1089 43.1569 60.1103 43.1683L60.1211 43.1924L60.1468 43.2952C60.1494 43.3034 60.1521 43.3116 60.1549 43.3198L60.1595 43.3411C60.1653 43.361 60.1711 43.381 60.177 43.4011C60.1785 43.4082 60.18 43.4153 60.1814 43.4225C60.1828 43.4297 60.1868 43.439 60.1895 43.4472L60.194 43.4685L60.2016 43.4935C60.2064 43.5122 60.2111 43.5311 60.216 43.5498C60.2185 43.5582 60.2212 43.5664 60.2237 43.5746L60.2512 43.6886C60.2537 43.6969 60.2564 43.7052 60.259 43.7134C60.2635 43.7324 60.2681 43.7513 60.2727 43.7702L60.2808 43.7947L60.2849 43.8162L60.2934 43.8414C60.2948 43.8486 60.2961 43.8558 60.2973 43.863C60.2986 43.8701 60.3027 43.8795 60.3052 43.8877C60.3077 43.896 60.3082 43.902 60.3096 43.9092L60.3165 43.934C60.4127 44.3058 60.5089 44.6776 60.605 45.0493C60.6922 45.3834 60.7801 45.7172 60.8688 46.0507C60.8726 46.0629 60.877 46.0748 60.8821 46.0865L60.8983 46.0883C60.9978 45.6785 61.097 45.2691 61.196 44.8601L61.2036 44.8353C61.2049 44.8281 61.2062 44.821 61.2074 44.8138L61.2259 44.7425C61.2273 44.7353 61.2286 44.7282 61.2299 44.7212C61.2312 44.7141 61.2344 44.7044 61.2367 44.6961C61.2426 44.6697 61.2483 44.6434 61.2543 44.617C61.2575 44.6054 61.2606 44.5938 61.2638 44.5815L61.277 44.5244L61.3079 44.3954L61.3117 44.3739L61.3193 44.349C61.3204 44.3418 61.3217 44.3347 61.323 44.3276L61.3302 44.3026L61.3341 44.2812C61.3366 44.2729 61.339 44.2645 61.3416 44.2562L61.3454 44.2349L61.3662 44.1525C61.3673 44.1452 61.3684 44.138 61.3695 44.1308C61.3753 44.107 61.381 44.083 61.3867 44.0592L61.391 44.038C61.3932 44.0297 61.3954 44.0212 61.3975 44.0128C61.3996 44.0043 61.4006 43.9987 61.4022 43.9917C61.4038 43.9846 61.4065 43.9748 61.4086 43.9663L61.4135 43.9454L61.4226 43.9089L61.4275 43.8877L61.432 43.8646C61.4514 43.7712 61.4689 43.6773 61.4898 43.5843C61.5499 43.3247 61.6108 43.0653 61.6725 42.806C61.7065 42.6625 61.74 42.5189 61.7776 42.3763C61.7822 42.3588 61.8093 42.3451 61.8287 42.3344C61.8391 42.3287 61.8552 42.3334 61.8687 42.3334H66.8663C66.8894 42.3334 66.9126 42.3357 66.9357 42.3368V50.4976C66.9107 50.4976 66.8856 50.496 66.8606 50.496H63.4973V45.1389C63.4973 45.1158 63.4973 45.0926 63.4966 45.0695L63.4991 45.0184L63.4875 45.017C63.4839 45.0343 63.4801 45.0515 63.4757 45.0684Z" fill="#FCFCFC"/>
<path d="M31.0627 42.3828H34.5419V42.4465C34.5419 43.5131 34.5423 44.5799 34.543 45.6467C34.543 45.6996 34.5298 45.7148 34.4758 45.7147C33.3611 45.7131 32.2464 45.7128 31.1314 45.7137C31.1083 45.7137 31.0852 45.7155 31.062 45.7166L31.0627 42.3828Z" fill="#FCFCFC"/>
<path d="M38.4449 38.6436C38.4457 38.6648 38.4472 38.686 38.4472 38.7072C38.4472 39.7682 38.4472 40.8293 38.4472 41.8905V41.9619H34.9552V41.8488C34.9552 40.7974 34.9552 39.746 34.9552 38.6946C34.9552 38.6736 34.9526 38.6528 34.9512 38.6318H34.9743C34.994 38.6371 35.014 38.6407 35.0343 38.6425C35.2463 38.6433 35.4581 38.6425 35.6701 38.6425L38.4449 38.6436Z" fill="#FCFCFC"/>
<path d="M34.5462 38.6323C34.5449 38.6533 34.5423 38.6742 34.5423 38.6952C34.5423 39.7499 34.5423 40.8047 34.5423 41.8596V41.9661H31.063V38.6439C32.1926 38.6439 33.3221 38.6436 34.4516 38.6431C34.4757 38.6413 34.4995 38.6377 34.523 38.6323H34.5462Z" fill="#FCFCFC"/>
<path d="M42.3455 46.1678L41.6901 46.2386C41.6901 46.2418 41.6901 46.245 41.6901 46.2481L41.8827 46.2726L41.9189 46.2804L41.9521 46.2843L41.9773 46.2899L42.0215 46.2958L42.0465 46.3022L42.0794 46.3067L42.1047 46.3119L42.1487 46.3192L42.1736 46.3258L42.2067 46.3304L42.2314 46.3372L42.2645 46.3421L42.2893 46.349L42.3688 46.3635L42.4513 46.3839L42.4728 46.3877L42.4977 46.3952L42.5191 46.3993L42.5439 46.4069L42.5654 46.4109L42.6251 46.4289L42.6464 46.4334L42.7061 46.4523L42.7623 46.4669L42.7863 46.4785C42.9798 46.5352 43.1612 46.6271 43.3215 46.7494C43.3981 46.8049 43.4709 46.8654 43.5395 46.9305C43.6553 47.0448 43.7152 47.1871 43.7352 47.35C43.7989 47.8697 43.7789 48.3918 43.7815 48.9127C43.7839 49.416 43.7815 49.9198 43.7815 50.4227V50.4908H40.1132V50.4228C40.1125 49.4991 40.1118 48.5753 40.111 47.6515C40.111 47.6168 40.1074 47.5821 40.1054 47.5473C40.1042 47.535 40.1028 47.5227 40.1015 47.5103C40.0862 47.4154 40.0809 47.3173 40.0529 47.2263C40.0281 47.1428 39.988 47.0645 39.9345 46.9956C39.8968 46.9493 39.8288 46.9146 39.7683 46.901C39.6224 46.8685 39.473 46.8515 39.3249 46.8284L39.2418 46.8226L39.0822 46.8172C39.0326 46.8146 38.9828 46.8111 38.9332 46.8102C38.9261 46.8102 38.9188 46.8218 38.9118 46.829C38.9118 46.8521 38.9104 46.8753 38.9104 46.8984V50.4174C38.9104 50.4405 38.9104 50.4637 38.9096 50.4868C38.8884 50.4876 38.8674 50.4893 38.8462 50.4893H35.0217C35.0006 50.4893 34.9794 50.4874 34.9583 50.4864C34.9583 50.4652 34.9575 50.444 34.9575 50.4227C34.9575 47.7552 34.9575 45.0878 34.9575 42.4203V42.3374C34.9773 42.3356 34.9922 42.3329 35.0069 42.333C36.4029 42.3353 37.7989 42.338 39.1948 42.341C39.3818 42.341 39.5688 42.3462 39.7558 42.3512C39.9981 42.3577 40.2404 42.3644 40.4826 42.3743C40.6956 42.3831 40.9089 42.3923 41.1215 42.4091C41.334 42.4258 41.5442 42.4529 41.7555 42.4755L41.7916 42.4831L41.8248 42.4872L41.8498 42.4936L41.8827 42.4983L41.9077 42.5047L41.9868 42.5215L42.0119 42.5279L42.172 42.5678L42.1963 42.5774C42.3109 42.6146 42.4277 42.6462 42.5398 42.6905C42.7528 42.7743 42.9489 42.89 43.1348 43.0235C43.2784 43.1266 43.4037 43.2492 43.4975 43.3982C43.6219 43.5957 43.6921 43.8149 43.735 44.0441C43.7762 44.267 43.7909 44.4939 43.7787 44.7202C43.7647 45.0045 43.726 45.2852 43.5936 45.5421C43.501 45.7228 43.3635 45.8632 43.1731 45.9431C43.0763 45.9836 42.9763 46.0175 42.8786 46.0544L42.8084 46.0752L42.7871 46.0797L42.7621 46.0866L42.7404 46.0899L42.7157 46.0975L42.6832 46.1039L42.658 46.1099L42.6365 46.1132L42.6116 46.1202L42.5787 46.1254L42.5537 46.1319L42.5206 46.1363L42.4844 46.1446L42.4515 46.1489L42.415 46.1562L42.3819 46.1599L42.3455 46.1678ZM38.9119 45.5367C39.0682 45.5609 39.5907 45.515 39.7709 45.4698C39.9271 45.4305 40.0211 45.3333 40.0651 45.183C40.0801 45.1315 40.0971 45.0789 40.0986 45.0255C40.1057 44.781 40.1145 44.5363 40.1102 44.2918C40.1049 44.0177 39.9713 43.8625 39.7034 43.7984C39.4505 43.7377 39.1928 43.7289 38.9342 43.7274C38.9267 43.7285 38.9193 43.7307 38.9124 43.7338L38.9119 45.5367Z" fill="#FCFCFC"/>
<path d="M50.1922 42.3487C50.2138 42.3434 50.2355 42.3333 50.2572 42.3333C51.4566 42.3325 52.6562 42.3323 53.8561 42.3328C53.8714 42.3328 53.8866 42.334 53.912 42.3351C53.8666 42.4117 53.8251 42.4834 53.7821 42.5541C53.6493 42.7732 53.517 42.9926 53.3826 43.2107C53.1751 43.5473 52.965 43.882 52.7577 44.2191C52.6215 44.4404 52.4895 44.6644 52.3537 44.886C52.2444 45.0643 52.1316 45.2404 52.0217 45.4185C51.9042 45.6087 51.788 45.7996 51.673 45.9911C51.6645 46.0055 51.6677 46.0344 51.6764 46.0507C51.7604 46.2075 51.8466 46.3633 51.9325 46.519C52.0473 46.7273 52.1625 46.9355 52.278 47.1435C52.3952 47.354 52.5142 47.5638 52.6308 47.7747C52.7626 48.0127 52.8921 48.2519 53.0235 48.4903C53.1324 48.6879 53.2433 48.8848 53.3518 49.0822C53.5395 49.4223 53.727 49.7623 53.9143 50.1025C53.9775 50.2168 54.043 50.3297 54.107 50.4435C54.1144 50.4595 54.1209 50.4758 54.1264 50.4925C54.1026 50.4937 54.0825 50.4954 54.0625 50.4954C52.7454 50.4954 51.4283 50.4958 50.1111 50.4967C50.0634 50.4967 50.0364 50.4806 50.0186 50.4399C49.9449 50.2749 49.871 50.1099 49.797 49.9451C49.7669 49.8783 49.7346 49.8125 49.7044 49.7459C49.6248 49.5714 49.5463 49.3966 49.4664 49.2224C49.3908 49.0578 49.3128 48.8944 49.2377 48.7295C49.1551 48.5481 49.0757 48.3655 48.9927 48.1841C48.9196 48.0235 48.8423 47.8646 48.7702 47.7038C48.6769 47.4975 48.5863 47.2901 48.4944 47.0831C48.4905 47.0743 48.4859 47.066 48.4815 47.0573L48.4665 47.0157L48.455 47.0186C48.4557 47.0322 48.4562 47.0459 48.4569 47.0594C48.4569 47.6882 48.4566 48.3171 48.456 48.9462C48.456 49.4591 48.456 49.9721 48.456 50.4852C48.4329 50.4868 48.4097 50.4898 48.3866 50.4898C47.1137 50.4898 45.841 50.4898 44.5687 50.4898C44.5456 50.4898 44.5224 50.4865 44.5 50.4846V42.3326H48.4436L48.4552 42.3478C48.4552 43.3742 48.4552 44.4005 48.4552 45.4269V45.4883L48.4688 45.4894L48.4899 45.4269L50.1824 42.3623C50.1857 42.3578 50.1889 42.3533 50.1922 42.3487Z" fill="#FCFCFC"/>
</g>
<defs>
<filter id="filter0_d_407_17440" x="0.0315199" y="0.51576" width="97.937" height="99.0919" filterUnits="userSpaceOnUse" color-interpolation-filters="sRGB">
<feFlood flood-opacity="0" result="BackgroundImageFix"/>
<feColorMatrix in="SourceAlpha" type="matrix" values="0 0 0 0 0 0 0 0 0 0 0 0 0 0 0 0 0 0 127 0" result="hardAlpha"/>
<feOffset dy="4.48424"/>
<feGaussianBlur stdDeviation="4.48424"/>
<feComposite in2="hardAlpha" operator="out"/>
<feColorMatrix type="matrix" values="0 0 0 0 0 0 0 0 0 0 0 0 0 0 0 0 0 0 0.25 0"/>
<feBlend mode="normal" in2="BackgroundImageFix" result="effect1_dropShadow_407_17440"/>
<feBlend mode="normal" in="SourceGraphic" in2="effect1_dropShadow_407_17440" result="shape"/>
</filter>
<linearGradient id="paint0_linear_407_17440" x1="17.6099" y1="22.937" x2="42.2855" y2="4.87688" gradientUnits="userSpaceOnUse">
<stop stop-color="#D09A00"/>
<stop offset="0.293917" stop-color="#DEAB28"/>
<stop offset="0.980418" stop-color="#FFD285"/>
</linearGradient>
<clipPath id="clip0_407_17440">
<rect width="98" height="113" fill="white"/>
</clipPath>
</defs>
</svg>
