<svg width="181" height="98" viewBox="0 0 181 98" fill="none" xmlns="http://www.w3.org/2000/svg">
<path d="M44.2143 8.9917L45.5999 10.3819L46.9856 8.99192L53.9131 2.04367H176.854C177.832 2.04367 178.644 2.84509 178.644 3.84902V94.1536C178.644 95.1554 177.834 95.9561 176.854 95.9561H53.9126L46.9852 89.0126L45.5999 87.6242L44.2148 89.0129L37.2898 95.9561H4.35174C3.36382 95.9561 2.55661 95.1538 2.55661 94.1536V3.84902C2.55661 2.84689 3.36573 2.04367 4.35174 2.04367H37.2894L44.2143 8.9917ZM39.8944 71.5774C39.8944 74.7313 42.444 77.293 45.6001 77.293C48.7578 77.293 51.3083 74.7322 51.3083 71.5774C51.3083 68.4227 48.7578 65.8619 45.6001 65.8619C42.444 65.8619 39.8944 68.4235 39.8944 71.5774ZM39.8944 56.5303C39.8944 59.6771 42.4422 62.2459 45.6001 62.2459C48.7596 62.2459 51.3083 59.678 51.3083 56.5303C51.3083 53.3773 48.7624 50.8067 45.6001 50.8067C42.4393 50.8067 39.8944 53.3786 39.8944 56.5303ZM39.8944 41.4751C39.8944 44.6254 42.4404 47.1959 45.6001 47.1959C48.7613 47.1959 51.3083 44.6267 51.3083 41.4751C51.3083 38.3218 48.7596 35.7567 45.6001 35.7567C42.4421 35.7567 39.8944 38.3231 39.8944 41.4751ZM39.8944 26.4248C39.8944 29.5772 42.4422 32.1432 45.6001 32.1432C48.7596 32.1432 51.3083 29.5781 51.3083 26.4248C51.3083 23.2715 48.7596 20.7064 45.6001 20.7064C42.4422 20.7064 39.8944 23.2724 39.8944 26.4248Z" fill="#FE8D25" stroke="#D16B28" stroke-width="3.91303"/>
<path d="M3.65725 3.84902C3.65725 3.45219 3.97616 3.14431 4.35174 3.14431H36.8324L42.5429 8.87387V20.3305C40.3162 21.4537 38.7938 23.7653 38.7938 26.4252C38.7938 29.085 40.3162 31.3967 42.5429 32.5199V35.3805C40.3161 36.5038 38.7938 38.8156 38.7938 41.4751C38.7938 44.1332 40.3153 46.4474 42.5429 47.5718V50.4309C40.3148 51.5558 38.7938 53.8714 38.7938 56.5303C38.7938 59.1862 40.3162 61.4981 42.5429 62.6218V65.4852C40.317 66.6072 38.7938 68.9163 38.7938 71.5774C38.7938 74.2385 40.317 76.5477 42.5429 77.6697V89.1306L36.8331 94.8555H4.35174C3.97317 94.8555 3.65725 94.5474 3.65725 94.1536V3.84902Z" fill="#FE8D25" stroke="#D16B28" stroke-width="6.1143"/>
<rect x="75.6114" y="31.3485" width="71.5879" height="31.2251" stroke="#D16B28" stroke-width="0.0230998"/>
<path d="M140.304 44.2645C140.173 44.8053 140.042 45.3461 139.91 45.8871C139.902 45.9231 139.89 45.9582 139.88 45.9938C139.876 46.0026 139.872 46.0114 139.868 46.0203L139.851 46.0819C139.848 46.0961 139.845 46.1105 139.842 46.1247L139.827 46.1747C139.824 46.1891 139.822 46.2035 139.819 46.2177L139.804 46.2676L139.796 46.3104C139.791 46.3272 139.786 46.3437 139.78 46.3602L139.773 46.4034L139.758 46.4532L139.75 46.4964C139.745 46.5129 139.739 46.5294 139.734 46.5459C139.729 46.5624 139.729 46.575 139.726 46.5894C139.724 46.6038 139.716 46.6224 139.711 46.6389L139.704 46.6824L139.685 46.731C139.678 46.7691 139.671 46.8075 139.662 46.8456C139.626 46.9865 139.591 47.1274 139.555 47.2683L139.545 47.3106C139.541 47.3273 139.536 47.3443 139.532 47.3613C139.527 47.3783 139.525 47.3894 139.522 47.4036C139.515 47.4268 139.507 47.4501 139.499 47.4745C139.379 47.9582 139.258 48.442 139.138 48.9259C138.896 49.9061 138.653 50.8864 138.41 51.8669C138.405 51.8837 138.4 51.9004 138.395 51.9171C138.385 51.9636 138.376 52.0078 138.366 52.0532L138.327 52.1964C138.325 52.2108 138.322 52.225 138.319 52.2391C138.316 52.2533 138.309 52.2726 138.304 52.2894L138.296 52.3321C138.291 52.3489 138.286 52.3656 138.281 52.3824C138.276 52.3991 138.275 52.4107 138.272 52.4251C138.27 52.4396 138.262 52.4584 138.257 52.4751L138.249 52.5181C138.244 52.5346 138.239 52.5514 138.234 52.5681L138.225 52.6109L138.21 52.6609C138.208 52.6753 138.205 52.6897 138.203 52.7039L138.183 52.7753C137.984 53.5678 137.786 54.3601 137.584 55.165H132.923C132.682 55.165 132.678 55.165 132.617 54.9432C132.463 54.379 132.313 53.8138 132.161 53.2488C131.966 52.5226 131.772 51.7962 131.577 51.0697C131.568 51.0337 131.56 50.997 131.552 50.9605C131.544 50.914 131.536 50.8675 131.528 50.821L131.52 50.7779L131.503 50.7277C131.5 50.7135 131.497 50.6994 131.494 50.685L131.478 50.635L131.45 50.5217C131.444 50.5052 131.439 50.4887 131.433 50.4722C131.428 50.4557 131.427 50.4436 131.424 50.4294L131.388 50.3092C131.377 50.2627 131.367 50.2183 131.356 50.173L131.342 50.1233C131.332 50.0854 131.323 50.0475 131.313 50.0096L131.295 49.9605L131.287 49.9173C131.281 49.9008 131.276 49.8843 131.27 49.8675L131.242 49.7541L131.226 49.7048C131.223 49.6904 131.22 49.6762 131.217 49.6618L131.203 49.6118C131.068 49.128 130.93 48.6449 130.798 48.1601C130.617 47.4915 130.44 46.8217 130.261 46.1526C130.253 46.12 130.244 46.0872 130.236 46.0547C130.234 46.0314 130.233 46.0082 130.231 45.9849L130.221 45.9424C130.21 45.9021 130.198 45.8619 130.187 45.8217L130.177 45.7792C130.172 45.7624 130.167 45.7457 130.162 45.7292C130.157 45.7127 130.155 45.7011 130.151 45.6869C130.14 45.6466 130.129 45.6064 130.117 45.5662C130.106 45.5211 130.094 45.4763 130.082 45.4311L130.067 45.3807L129.813 44.4166H129.792V55.1415C129.75 55.1448 129.708 55.1511 129.666 55.1511C127.454 55.1511 125.242 55.1511 123.03 55.1511C122.984 55.1488 122.938 55.1442 122.893 55.1371C122.893 49.7409 122.893 44.3444 122.893 38.9477V38.7694H123.048C126.346 38.7694 129.645 38.7685 132.944 38.7666C133.066 38.7666 133.122 38.7919 133.156 38.9203C133.287 39.4085 133.433 39.8935 133.574 40.3798C133.579 40.4024 133.584 40.4252 133.586 40.4482L133.608 40.4966L133.659 40.703C133.665 40.7195 133.67 40.736 133.675 40.7525L133.685 40.7953C133.696 40.8353 133.708 40.8754 133.72 40.9157C133.723 40.9299 133.726 40.9443 133.728 40.9587C133.731 40.9732 133.739 40.9918 133.744 41.0083L133.753 41.051L133.769 41.1013C133.778 41.1389 133.788 41.1768 133.797 41.2145C133.802 41.2312 133.808 41.2477 133.813 41.2642L133.868 41.4932C133.873 41.5097 133.878 41.5265 133.883 41.543C133.892 41.5811 133.901 41.619 133.911 41.6571L133.927 41.7062L133.935 41.7494L133.952 41.8001C133.955 41.8145 133.957 41.829 133.96 41.8434C133.962 41.8578 133.97 41.8766 133.975 41.8931C133.981 41.9096 133.981 41.9217 133.984 41.9361L133.998 41.9861C134.19 42.7329 134.382 43.4796 134.574 44.2262C134.748 44.8971 134.923 45.5675 135.1 46.2374C135.108 46.2618 135.117 46.2858 135.127 46.3093L135.159 46.3128C135.358 45.4897 135.556 44.6675 135.754 43.846L135.769 43.7963C135.771 43.7819 135.774 43.7675 135.776 43.753L135.813 43.6098C135.816 43.5954 135.819 43.5812 135.821 43.567C135.824 43.5529 135.83 43.5333 135.835 43.5166C135.847 43.4636 135.858 43.4108 135.87 43.3578C135.876 43.3346 135.883 43.3113 135.889 43.2864L135.915 43.1718L135.977 42.9128L135.985 42.8696L136 42.8196C136.002 42.8052 136.005 42.7908 136.007 42.7766L136.022 42.7264L136.029 42.6834C136.034 42.6666 136.039 42.6499 136.044 42.6331L136.052 42.5904L136.093 42.4248C136.096 42.4102 136.098 42.3958 136.1 42.3814C136.112 42.3335 136.123 42.2853 136.134 42.2374L136.143 42.1949C136.147 42.1782 136.152 42.1612 136.156 42.1442C136.16 42.1272 136.162 42.1161 136.165 42.1019C136.169 42.0877 136.174 42.068 136.178 42.051L136.188 42.0089L136.206 41.9357L136.216 41.8931L136.225 41.8466C136.264 41.659 136.298 41.4705 136.34 41.2838C136.46 40.7624 136.582 40.2413 136.705 39.7205C136.773 39.4322 136.84 39.1439 136.915 38.8575C136.924 38.8224 136.978 38.7947 137.017 38.7733C137.037 38.762 137.069 38.7713 137.096 38.7713H147.073C147.119 38.7713 147.165 38.7759 147.211 38.7782V55.1687C147.161 55.1687 147.111 55.1655 147.061 55.1655H140.348V44.4061C140.348 44.3596 140.348 44.3131 140.346 44.2666L140.351 44.1641L140.328 44.1613C140.321 44.1959 140.313 44.2306 140.304 44.2645Z" fill="#FCFCFC"/>
<path d="M75.6012 38.8704H82.5465V38.9982C82.5465 41.1405 82.5471 43.283 82.5485 45.4256C82.5485 45.5319 82.5222 45.5626 82.4143 45.5623C80.1893 45.5591 77.964 45.5584 75.7385 45.5603C75.6923 45.5603 75.6461 45.564 75.5999 45.5661L75.6012 38.8704Z" fill="#FCFCFC"/>
<path d="M90.3376 31.3606C90.3392 31.4032 90.3422 31.4457 90.3422 31.4883C90.3422 33.6193 90.3422 35.7504 90.3422 37.8817V38.0252H83.3716V37.798C83.3716 35.6864 83.3716 33.5747 83.3716 31.4629C83.3716 31.4208 83.3663 31.379 83.3635 31.3369H83.4097C83.4489 31.3475 83.489 31.3547 83.5294 31.3583C83.9526 31.3599 84.3755 31.3583 84.7987 31.3583L90.3376 31.3606Z" fill="#FCFCFC"/>
<path d="M82.5551 31.3386C82.5526 31.3807 82.5475 31.4228 82.5475 31.4649C82.5475 33.5833 82.5475 35.7018 82.5475 37.8204V38.0343H75.6021V31.3619C77.8569 31.3619 80.1117 31.3613 82.3664 31.3602C82.4144 31.3567 82.462 31.3494 82.5089 31.3386H82.5551Z" fill="#FCFCFC"/>
<path d="M98.1236 46.4734L96.8152 46.6157C96.8152 46.6222 96.8152 46.6285 96.8152 46.6348L97.1996 46.684L97.2719 46.6996L97.3382 46.7075L97.3886 46.7187L97.4768 46.7305L97.5267 46.7433L97.5923 46.7524L97.6429 46.7629L97.7307 46.7775L97.7804 46.7908L97.8464 46.8001L97.8959 46.8138L97.9619 46.8235L98.0114 46.8375L98.1701 46.8665L98.3348 46.9075L98.3777 46.9151L98.4274 46.9303L98.4701 46.9384L98.5196 46.9537L98.5625 46.9616L98.6817 46.9979L98.7242 47.007L98.8434 47.0449L98.9554 47.0742L99.0035 47.0974C99.3898 47.2114 99.7519 47.3959 100.072 47.6417C100.225 47.7531 100.37 47.8746 100.507 48.0053C100.738 48.235 100.858 48.5207 100.898 48.8478C101.025 49.8917 100.985 50.9402 100.99 51.9864C100.995 52.9973 100.99 54.0091 100.99 55.0193V55.156H93.6674V55.0195C93.666 53.1642 93.6646 51.3089 93.663 49.4535C93.663 49.3837 93.6559 49.314 93.6519 49.2442C93.6494 49.2193 93.6466 49.1947 93.6441 49.1698C93.6136 48.9792 93.603 48.7823 93.5471 48.5995C93.4976 48.4316 93.4174 48.2745 93.3108 48.1362C93.2355 48.0432 93.0996 47.9734 92.979 47.946C92.6878 47.8809 92.3895 47.8467 92.0939 47.8002L91.928 47.7886L91.6095 47.7777C91.5104 47.7726 91.411 47.7656 91.3119 47.7637C91.2978 47.7637 91.2833 47.787 91.2692 47.8014C91.2692 47.8479 91.2664 47.8944 91.2664 47.9409V55.0086C91.2664 55.0551 91.2664 55.1016 91.2648 55.1481C91.2225 55.1497 91.1805 55.1529 91.1382 55.1529H83.5039C83.4617 55.1529 83.4194 55.1492 83.3773 55.1471C83.3773 55.1046 83.3757 55.062 83.3757 55.0193C83.3757 49.6618 83.3757 44.3043 83.3757 38.9468V38.7803C83.4152 38.7766 83.445 38.7713 83.4744 38.7715C86.261 38.7761 89.0476 38.7815 91.8342 38.7875C92.2075 38.7875 92.5808 38.798 92.9541 38.808C93.4376 38.821 93.9213 38.8345 94.4048 38.8545C94.83 38.8722 95.2558 38.8905 95.6801 38.9242C96.1045 38.9579 96.524 39.0124 96.9458 39.0577L97.0178 39.073L97.0841 39.0812L97.134 39.094L97.1996 39.1035L97.2495 39.1163L97.4075 39.15L97.4577 39.163L97.7771 39.243L97.8256 39.2623C98.0546 39.3371 98.2876 39.4006 98.5115 39.4894C98.9365 39.6577 99.328 39.8902 99.699 40.1583C99.9857 40.3654 100.236 40.6116 100.423 40.9109C100.672 41.3075 100.812 41.7478 100.897 42.2082C100.979 42.6558 101.009 43.1116 100.985 43.5661C100.957 44.1371 100.879 44.7009 100.615 45.2168C100.43 45.5797 100.156 45.8617 99.7755 46.0221C99.5824 46.1035 99.3828 46.1716 99.1876 46.2458L99.0476 46.2874L99.0051 46.2965L98.9552 46.3104L98.9118 46.3169L98.8626 46.3323L98.7977 46.3451L98.7473 46.3572L98.7044 46.3639L98.6547 46.3779L98.5891 46.3883L98.5392 46.4013L98.4731 46.4102L98.4008 46.4269L98.3352 46.4355L98.2622 46.4502L98.1962 46.4576L98.1236 46.4734ZM91.2694 45.2059C91.5815 45.2545 92.6245 45.1624 92.9841 45.0715C93.296 44.9927 93.4835 44.7974 93.5713 44.4956C93.6014 44.3922 93.6353 44.2864 93.6383 44.1792C93.6524 43.6882 93.67 43.1967 93.6614 42.7057C93.6508 42.1551 93.3842 41.8434 92.8495 41.7146C92.3445 41.5928 91.8301 41.5751 91.314 41.5721C91.2989 41.5743 91.2843 41.5786 91.2703 41.5848L91.2694 45.2059Z" fill="#FCFCFC"/>
<path d="M113.788 38.8028C113.831 38.7921 113.874 38.7719 113.917 38.7719C116.312 38.7702 118.706 38.7698 121.102 38.7708C121.132 38.7708 121.163 38.7733 121.213 38.7754C121.123 38.9293 121.04 39.0732 120.954 39.2153C120.689 39.6554 120.425 40.0959 120.156 40.534C119.742 41.21 119.323 41.8824 118.909 42.5594C118.637 43.0039 118.374 43.4538 118.102 43.8988C117.884 44.2568 117.659 44.6107 117.44 44.9682C117.205 45.3503 116.973 45.7337 116.744 46.1184C116.727 46.1472 116.733 46.2053 116.75 46.2381C116.918 46.5529 117.09 46.8658 117.262 47.1785C117.491 47.597 117.721 48.0151 117.951 48.4328C118.185 48.8557 118.423 49.277 118.656 49.7006C118.919 50.1786 119.177 50.6591 119.439 51.1378C119.657 51.5347 119.878 51.9301 120.095 52.3268C120.47 53.0097 120.844 53.6927 121.218 54.3759C121.344 54.6054 121.475 54.8323 121.602 55.0608C121.617 55.0928 121.63 55.1257 121.641 55.1592C121.594 55.1615 121.554 55.165 121.514 55.165C118.884 55.165 116.255 55.1658 113.626 55.1676C113.531 55.1676 113.477 55.1352 113.441 55.0536C113.294 54.7221 113.147 54.3908 112.999 54.0597C112.939 53.9256 112.874 53.7935 112.814 53.6596C112.655 53.3093 112.498 52.9582 112.339 52.6083C112.188 52.2777 112.032 51.9494 111.882 51.6184C111.717 51.2541 111.559 50.8872 111.393 50.5229C111.247 50.2004 111.093 49.8812 110.949 49.5583C110.763 49.144 110.582 48.7274 110.399 48.3117C110.391 48.294 110.382 48.2773 110.373 48.2598L110.343 48.1761L110.32 48.1819C110.321 48.2094 110.322 48.2368 110.324 48.264C110.324 49.5269 110.323 50.7901 110.322 52.0536C110.322 53.0837 110.322 54.114 110.322 55.1445C110.276 55.1478 110.23 55.1538 110.183 55.1538C107.642 55.1538 105.102 55.1538 102.562 55.1538C102.516 55.1538 102.47 55.1471 102.425 55.1434V38.7705H110.297L110.32 38.801C110.32 40.8624 110.32 42.9238 110.32 44.9852V45.1084L110.348 45.1107L110.39 44.9852L113.768 38.83C113.775 38.821 113.781 38.8119 113.788 38.8028Z" fill="#FCFCFC"/>
</svg>
