<svg width="920" height="305" viewBox="0 0 920 305" fill="none" xmlns="http://www.w3.org/2000/svg">
<path d="M831.266 165.06C829.581 171.965 827.893 178.871 826.203 185.778C826.091 186.238 825.939 186.686 825.809 187.14C825.758 187.253 825.708 187.366 825.66 187.479L825.438 188.265C825.402 188.447 825.367 188.631 825.328 188.812L825.132 189.45C825.099 189.634 825.064 189.818 825.031 189.999L824.835 190.637L824.737 191.184C824.672 191.397 824.604 191.608 824.536 191.819L824.441 192.371L824.242 193.006L824.144 193.558C824.076 193.769 824.007 193.98 823.942 194.191C823.877 194.402 823.874 194.562 823.841 194.746C823.809 194.93 823.708 195.167 823.642 195.378L823.55 195.933L823.31 196.554C823.215 197.041 823.123 197.53 823.013 198.017C822.556 199.816 822.097 201.615 821.636 203.414L821.511 203.955C821.455 204.168 821.396 204.385 821.339 204.602C821.283 204.818 821.259 204.961 821.221 205.142C821.12 205.439 821.022 205.736 820.924 206.047C819.377 212.224 817.83 218.402 816.282 224.58C813.168 237.096 810.051 249.613 806.931 262.133C806.869 262.347 806.804 262.561 806.741 262.774C806.614 263.368 806.489 263.932 806.362 264.511L805.869 266.34C805.833 266.524 805.798 266.705 805.759 266.886C805.721 267.067 805.634 267.313 805.569 267.527L805.462 268.073C805.4 268.287 805.335 268.501 805.272 268.714C805.21 268.928 805.195 269.077 805.16 269.261C805.124 269.445 805.026 269.685 804.961 269.899L804.863 270.448C804.795 270.659 804.729 270.873 804.664 271.086L804.557 271.633L804.361 272.271C804.329 272.455 804.299 272.639 804.266 272.82L804.011 273.731C801.459 283.851 798.907 293.968 796.313 304.245H736.434C733.345 304.245 733.294 304.246 732.511 301.413C730.528 294.209 728.593 286.992 726.647 279.778C724.146 270.504 721.647 261.23 719.15 251.954C719.026 251.494 718.928 251.025 718.818 250.558C718.714 249.965 718.613 249.371 718.521 248.777L718.408 248.228L718.198 247.587C718.159 247.406 718.12 247.225 718.079 247.041L717.874 246.402L717.509 244.957C717.438 244.746 717.367 244.535 717.298 244.324C717.23 244.114 717.221 243.959 717.18 243.778L716.714 242.243C716.577 241.65 716.444 241.083 716.307 240.504L716.12 239.869C715.999 239.386 715.877 238.902 715.752 238.417L715.527 237.791L715.414 237.238C715.346 237.028 715.274 236.817 715.203 236.603L714.844 235.154L714.636 234.525C714.598 234.341 714.559 234.16 714.524 233.976L714.34 233.338C712.6 227.16 710.826 220.991 709.134 214.802C706.805 206.264 704.537 197.712 702.243 189.168C702.13 188.752 702.024 188.334 701.917 187.918C701.893 187.621 701.872 187.324 701.852 187.028L701.727 186.484C701.579 185.97 701.431 185.456 701.285 184.944L701.16 184.4C701.095 184.187 701.026 183.973 700.961 183.762C700.896 183.551 700.869 183.403 700.825 183.222C700.682 182.707 700.538 182.194 700.391 181.681C700.24 181.105 700.095 180.532 699.934 179.956L699.747 179.312L696.483 167.001H696.216V303.946C695.676 303.987 695.139 304.067 694.599 304.067C666.176 304.067 637.754 304.067 609.334 304.067C608.747 304.039 608.161 303.979 607.58 303.889C607.58 234.986 607.58 166.08 607.58 97.1712V94.8943H609.568C651.947 94.8943 694.327 94.8824 736.707 94.8586C738.268 94.8586 738.989 95.1822 739.431 96.8209C741.114 103.055 742.993 109.247 744.8 115.458C744.87 115.745 744.923 116.037 744.96 116.33L745.236 116.948L745.895 119.584C745.963 119.795 746.031 120.006 746.103 120.216L746.221 120.763C746.37 121.273 746.519 121.786 746.669 122.3C746.708 122.481 746.747 122.665 746.782 122.85C746.818 123.034 746.922 123.271 746.99 123.482L747.106 124.028L747.302 124.669C747.423 125.15 747.545 125.634 747.67 126.115C747.735 126.329 747.803 126.539 747.868 126.75L748.572 129.674C748.637 129.885 748.705 130.099 748.774 130.31C748.889 130.796 749.005 131.28 749.124 131.767L749.331 132.394L749.438 132.946L749.655 133.593C749.691 133.777 749.723 133.961 749.756 134.145C749.789 134.329 749.892 134.57 749.958 134.78C750.023 134.991 750.035 135.145 750.07 135.329L750.249 135.968C752.716 145.503 755.182 155.037 757.647 164.57C759.883 173.138 762.137 181.698 764.41 190.251C764.508 190.563 764.622 190.869 764.752 191.169L765.167 191.213C767.719 180.704 770.265 170.206 772.803 159.717L772.999 159.081C773.031 158.897 773.064 158.713 773.094 158.529L773.569 156.7C773.604 156.516 773.64 156.335 773.672 156.154C773.705 155.973 773.788 155.724 773.848 155.51C773.999 154.833 774.144 154.159 774.299 153.482C774.379 153.186 774.459 152.889 774.542 152.571L774.88 151.108L775.673 147.801L775.771 147.248L775.963 146.61C775.993 146.426 776.026 146.242 776.058 146.061L776.245 145.42L776.343 144.871C776.409 144.657 776.471 144.443 776.536 144.229L776.634 143.683L777.168 141.569C777.195 141.382 777.225 141.198 777.251 141.014C777.4 140.403 777.548 139.788 777.694 139.177L777.804 138.634C777.86 138.42 777.916 138.203 777.97 137.986C778.023 137.77 778.05 137.627 778.091 137.446C778.133 137.265 778.201 137.013 778.255 136.796L778.379 136.259L778.614 135.324L778.738 134.78L778.854 134.187C779.353 131.791 779.801 129.383 780.338 127C781.879 120.342 783.441 113.688 785.024 107.039C785.893 103.358 786.754 99.6767 787.719 96.0194C787.837 95.5711 788.532 95.2178 789.027 94.9447C789.294 94.7993 789.707 94.918 790.054 94.918H918.219C918.813 94.918 919.407 94.9774 920 95.0071V304.293C919.359 304.293 918.715 304.251 918.074 304.251H831.821V166.868C831.821 166.274 831.821 165.68 831.803 165.087L831.866 163.778L831.569 163.742C831.477 164.184 831.379 164.627 831.266 165.06Z" fill="#FCFCFC"/>
<path d="M0.0178061 96.1885H89.2442V97.8212C89.2442 125.176 89.2531 152.532 89.2709 179.891C89.2709 181.248 88.9326 181.639 87.5467 181.637C58.9619 181.595 30.3733 181.586 1.78061 181.61C1.18707 181.61 0.593537 181.657 0 181.684L0.0178061 96.1885Z" fill="#FCFCFC"/>
<path d="M189.336 0.302797C189.356 0.846049 189.395 1.3893 189.395 1.93256C189.395 29.1427 189.395 56.3548 189.395 83.5689V85.4005H99.8422V82.5002C99.8422 55.5375 99.8422 28.5737 99.8422 1.60898C99.8422 1.07166 99.7739 0.537316 99.7383 0H100.332C100.835 0.135478 101.35 0.22686 101.869 0.273111C107.306 0.293891 112.74 0.273111 118.177 0.273111L189.336 0.302797Z" fill="#FCFCFC"/>
<path d="M89.3449 0.00585938C89.3122 0.543175 89.2469 1.08049 89.2469 1.61781C89.2469 28.6676 89.2469 55.7185 89.2469 82.7703V85.5014H0.0175781V0.302719C28.9861 0.302719 57.9537 0.295792 86.9203 0.281939C87.5367 0.236265 88.1488 0.143975 88.7513 0.00585938L89.3449 0.00585938Z" fill="#FCFCFC"/>
<path d="M289.367 193.262L272.558 195.078C272.558 195.162 272.558 195.242 272.558 195.322L277.497 195.951L278.425 196.15L279.277 196.251L279.924 196.394L281.058 196.545L281.699 196.708L282.542 196.824L283.192 196.958L284.319 197.145L284.957 197.314L285.806 197.433L286.441 197.608L287.29 197.732L287.925 197.91L289.964 198.282L292.08 198.804L292.632 198.902L293.27 199.095L293.819 199.199L294.454 199.395L295.006 199.496L296.537 199.959L297.083 200.075L298.615 200.558L300.054 200.933L300.671 201.229C305.634 202.685 310.286 205.04 314.397 208.179C316.36 209.602 318.228 211.153 319.988 212.822C322.956 215.755 324.493 219.403 325.006 223.58C326.638 236.909 326.125 250.297 326.193 263.656C326.256 276.563 326.193 289.483 326.193 302.381V304.127H232.118V302.384C232.1 278.695 232.081 255.004 232.061 231.313C232.061 230.423 231.969 229.532 231.919 228.641C231.886 228.324 231.851 228.009 231.818 227.691C231.426 225.257 231.29 222.743 230.572 220.409C229.936 218.266 228.906 216.259 227.536 214.493C226.568 213.306 224.823 212.415 223.274 212.065C219.532 211.234 215.7 210.797 211.902 210.203L209.771 210.055L205.679 209.915C204.405 209.85 203.129 209.761 201.856 209.737C201.675 209.737 201.488 210.034 201.307 210.218C201.307 210.812 201.272 211.406 201.272 211.999V302.245C201.272 302.838 201.272 303.432 201.251 304.026C200.708 304.047 200.168 304.088 199.624 304.088H101.545C101.002 304.088 100.459 304.041 99.9192 304.014C99.9192 303.471 99.8984 302.928 99.8984 302.381C99.8984 233.973 99.8984 165.565 99.8984 97.1564V95.0309C100.406 94.9834 100.789 94.9151 101.166 94.9181C136.966 94.9774 172.766 95.0457 208.566 95.1229C213.362 95.1229 218.158 95.2565 222.953 95.3841C229.165 95.5504 235.379 95.7226 241.591 95.9779C247.054 96.2035 252.523 96.438 257.975 96.8684C263.427 97.2989 268.816 97.9935 274.235 98.5724L275.161 98.7683L276.013 98.8722L276.654 99.0355L277.497 99.1572L278.138 99.3205L280.167 99.7509L280.811 99.9172L284.916 100.938L285.539 101.185C288.48 102.141 291.474 102.951 294.35 104.085C299.811 106.234 304.841 109.203 309.607 112.626C313.29 115.271 316.504 118.414 318.911 122.235C322.101 127.299 323.899 132.922 325 138.8C326.056 144.515 326.433 150.336 326.122 156.139C325.763 163.43 324.769 170.629 321.374 177.216C319 181.85 315.474 185.451 310.589 187.5C308.108 188.539 305.544 189.408 303.036 190.355L301.238 190.887L300.692 191.003L300.051 191.181L299.493 191.264L298.861 191.46L298.027 191.623L297.38 191.777L296.828 191.863L296.19 192.042L295.347 192.175L294.706 192.341L293.857 192.454L292.928 192.668L292.086 192.778L291.148 192.965L290.299 193.06L289.367 193.262ZM201.31 177.077C205.319 177.697 218.719 176.522 223.339 175.361C227.346 174.355 229.755 171.861 230.883 168.008C231.269 166.687 231.705 165.336 231.744 163.968C231.925 157.698 232.15 151.422 232.041 145.153C231.904 138.123 228.479 134.142 221.609 132.498C215.122 130.942 208.513 130.716 201.883 130.678C201.689 130.707 201.501 130.762 201.322 130.841L201.31 177.077Z" fill="#FCFCFC"/>
<path d="M490.606 95.3217C491.161 95.1852 491.719 94.9269 492.274 94.9269C523.033 94.9051 553.798 94.9002 584.569 94.912C584.961 94.912 585.353 94.9447 586.003 94.9714C584.839 96.9366 583.774 98.7742 582.673 100.588C579.266 106.208 575.874 111.833 572.425 117.426C567.104 126.059 561.718 134.644 556.4 143.288C552.907 148.964 549.524 154.708 546.04 160.39C543.238 164.962 540.345 169.48 537.525 174.046C534.512 178.924 531.532 183.819 528.584 188.732C528.364 189.1 528.447 189.842 528.67 190.26C530.824 194.28 533.035 198.276 535.237 202.268C538.183 207.612 541.137 212.95 544.099 218.284C547.105 223.684 550.156 229.063 553.147 234.472C556.527 240.575 559.848 246.711 563.217 252.823C566.009 257.891 568.855 262.94 571.636 268.005C576.45 276.725 581.258 285.446 586.062 294.17C587.682 297.1 589.362 299.997 591.003 302.916C591.194 303.324 591.36 303.743 591.502 304.171C590.89 304.201 590.377 304.245 589.864 304.245C556.085 304.245 522.307 304.256 488.529 304.278C487.303 304.278 486.612 303.865 486.155 302.824C484.265 298.59 482.371 294.36 480.472 290.133C479.7 288.42 478.872 286.734 478.098 285.024C476.056 280.55 474.044 276.068 471.993 271.6C470.055 267.378 468.055 263.187 466.129 258.96C464.01 254.308 461.974 249.623 459.846 244.972C457.971 240.854 455.988 236.778 454.139 232.655C451.747 227.365 449.424 222.045 447.067 216.737C446.967 216.512 446.848 216.298 446.735 216.075L446.352 215.007L446.055 215.081C446.073 215.431 446.088 215.781 446.106 216.129C446.106 232.254 446.098 248.383 446.082 264.517C446.082 277.67 446.082 290.825 446.082 303.984C445.489 304.026 444.895 304.103 444.302 304.103C411.657 304.103 379.02 304.103 346.392 304.103C345.798 304.103 345.205 304.017 344.629 303.969V94.9091H445.765L446.061 95.298C446.061 121.62 446.061 147.941 446.061 174.263V175.836L446.412 175.866L446.952 174.263L490.357 95.669C490.44 95.5533 490.523 95.4375 490.606 95.3217Z" fill="#FCFCFC"/>
</svg>
