<svg width="821" height="211" viewBox="0 0 821 211" fill="none" xmlns="http://www.w3.org/2000/svg">
<path d="M732.266 71.06C730.581 77.9649 728.893 84.8709 727.203 91.7778C727.091 92.2379 726.939 92.6862 726.809 93.1404C726.758 93.2532 726.708 93.366 726.66 93.4788L726.438 94.2655C726.402 94.4466 726.367 94.6306 726.328 94.8117L726.132 95.4499C726.099 95.634 726.064 95.8181 726.031 95.9991L725.835 96.6374L725.737 97.1836C725.672 97.3973 725.604 97.6081 725.536 97.8189L725.441 98.371L725.242 99.0063L725.144 99.5585C725.076 99.7693 725.007 99.98 724.942 100.191C724.877 100.402 724.874 100.562 724.841 100.746C724.809 100.93 724.708 101.167 724.642 101.378L724.55 101.933L724.31 102.554C724.215 103.041 724.123 103.53 724.013 104.017C723.556 105.816 723.097 107.615 722.636 109.414L722.511 109.955C722.455 110.168 722.396 110.385 722.339 110.602C722.283 110.818 722.259 110.961 722.221 111.142C722.12 111.439 722.022 111.736 721.924 112.047C720.377 118.224 718.83 124.402 717.282 130.58C714.168 143.096 711.051 155.613 707.931 168.133C707.869 168.347 707.804 168.561 707.741 168.774C707.614 169.368 707.489 169.932 707.362 170.511L706.869 172.34C706.833 172.524 706.798 172.705 706.759 172.886C706.721 173.067 706.634 173.313 706.569 173.527L706.462 174.073C706.4 174.287 706.335 174.501 706.272 174.714C706.21 174.928 706.195 175.077 706.16 175.261C706.124 175.445 706.026 175.685 705.961 175.899L705.863 176.448C705.795 176.659 705.729 176.873 705.664 177.086L705.557 177.633L705.361 178.271C705.329 178.455 705.299 178.639 705.266 178.82L705.011 179.731C702.459 189.851 699.907 199.968 697.313 210.245H637.434C634.345 210.245 634.294 210.246 633.511 207.413C631.528 200.209 629.593 192.992 627.647 185.778C625.146 176.504 622.647 167.23 620.15 157.954C620.026 157.494 619.928 157.025 619.818 156.558C619.714 155.965 619.613 155.371 619.521 154.777L619.408 154.228L619.198 153.587C619.159 153.406 619.12 153.225 619.079 153.041L618.874 152.402L618.509 150.957C618.438 150.746 618.367 150.535 618.298 150.324C618.23 150.114 618.221 149.959 618.18 149.778L617.714 148.243C617.577 147.65 617.444 147.083 617.307 146.504L617.12 145.869C616.999 145.386 616.877 144.902 616.752 144.417L616.527 143.791L616.414 143.238C616.346 143.028 616.274 142.817 616.203 142.603L615.844 141.154L615.636 140.525C615.598 140.341 615.559 140.16 615.524 139.976L615.34 139.338C613.6 133.16 611.826 126.991 610.134 120.802C607.805 112.264 605.537 103.712 603.243 95.1679C603.13 94.7523 603.024 94.3338 602.917 93.9182C602.893 93.6213 602.872 93.3244 602.852 93.0276L602.727 92.4843C602.579 91.9698 602.431 91.4562 602.285 90.9436L602.16 90.4004C602.095 90.1866 602.026 89.9729 601.961 89.7621C601.896 89.5514 601.869 89.4029 601.825 89.2218C601.682 88.7073 601.538 88.1937 601.391 87.6811C601.24 87.1052 601.095 86.5323 600.934 85.9564L600.747 85.3122L597.483 73.0014H597.216V209.946C596.676 209.987 596.139 210.067 595.599 210.067C567.176 210.067 538.754 210.067 510.334 210.067C509.747 210.039 509.161 209.979 508.58 209.889C508.58 140.986 508.58 72.0802 508.58 3.17118V0.894273H510.568C552.947 0.894273 595.327 0.882391 637.707 0.858643C639.268 0.858643 639.989 1.18222 640.431 2.82089C642.114 9.05494 643.993 15.2474 645.8 21.4577C645.87 21.7454 645.923 22.0368 645.96 22.3305L646.236 22.948L646.895 25.5841C646.963 25.7948 647.031 26.0056 647.103 26.2164L647.221 26.7626C647.37 27.2732 647.519 27.7858 647.669 28.3003C647.708 28.4814 647.747 28.6655 647.782 28.8495C647.818 29.0336 647.922 29.2711 647.99 29.4818L648.106 30.0281L648.302 30.6693C648.423 31.1502 648.545 31.6341 648.67 32.115C648.735 32.3287 648.803 32.5395 648.868 32.7503L649.572 35.6743C649.637 35.8851 649.705 36.0988 649.774 36.3096C649.889 36.7965 650.005 37.2803 650.124 37.7672L650.331 38.3936L650.438 38.9457L650.655 39.5929C650.691 39.7769 650.723 39.961 650.756 40.145C650.789 40.3291 650.892 40.5695 650.958 40.7803C651.023 40.9911 651.035 41.1454 651.07 41.3295L651.249 41.9677C653.716 51.5029 656.182 61.037 658.647 70.5702C660.883 79.1375 663.137 87.698 665.41 96.2515C665.508 96.5629 665.622 96.8691 665.752 97.1688L666.167 97.2133C668.719 86.7045 671.265 76.2055 673.803 65.7165L673.999 65.0812C674.031 64.8972 674.064 64.7131 674.094 64.5291L674.569 62.7004C674.604 62.5164 674.64 62.3353 674.672 62.1542C674.705 61.9731 674.788 61.7237 674.848 61.51C674.999 60.8332 675.144 60.1593 675.299 59.4825C675.379 59.1856 675.459 58.8887 675.542 58.5711L675.88 57.1076L676.673 53.8006L676.771 53.2484L676.963 52.6102C676.993 52.4261 677.026 52.2421 677.058 52.061L677.245 51.4198L677.343 50.8706C677.409 50.6568 677.471 50.4431 677.536 50.2293L677.634 49.6831L678.168 47.5695C678.195 47.3825 678.225 47.1984 678.251 47.0144C678.4 46.4028 678.548 45.7883 678.694 45.1768L678.804 44.6335C678.86 44.4198 678.916 44.2031 678.97 43.9864C679.023 43.7697 679.05 43.6272 679.091 43.4461C679.133 43.265 679.201 43.0127 679.255 42.796L679.379 42.2587L679.614 41.3236L679.738 40.7803L679.854 40.1866C680.353 37.7909 680.801 35.3834 681.338 32.9996C682.879 26.3421 684.441 19.6884 686.024 13.0388C686.893 9.35773 687.754 5.67667 688.719 2.01936C688.837 1.57111 689.532 1.21785 690.027 0.944734C690.294 0.799273 690.707 0.918018 691.054 0.918018H819.219C819.813 0.918018 820.407 0.977386 821 1.00707V210.293C820.359 210.293 819.715 210.251 819.074 210.251H732.821V72.8679C732.821 72.2741 732.821 71.6804 732.803 71.0867L732.866 69.7775L732.569 69.7419C732.477 70.1842 732.379 70.6266 732.266 71.06Z" fill="#FCFCFC"/>
<path d="M190.367 99.2617L173.558 101.078C173.558 101.162 173.558 101.242 173.558 101.322L178.497 101.951L179.425 102.15L180.277 102.251L180.924 102.394L182.058 102.545L182.699 102.708L183.542 102.824L184.192 102.958L185.319 103.145L185.957 103.314L186.806 103.433L187.441 103.608L188.29 103.732L188.925 103.91L190.964 104.282L193.08 104.804L193.632 104.902L194.27 105.095L194.819 105.199L195.454 105.395L196.006 105.496L197.537 105.959L198.083 106.075L199.615 106.558L201.054 106.933L201.671 107.229C206.634 108.685 211.286 111.04 215.397 114.179C217.36 115.602 219.228 117.153 220.988 118.822C223.956 121.755 225.493 125.403 226.006 129.58C227.638 142.909 227.125 156.297 227.193 169.656C227.256 182.563 227.193 195.483 227.193 208.381V210.127H133.118V208.384C133.1 184.695 133.081 161.004 133.061 137.313C133.061 136.423 132.969 135.532 132.919 134.641C132.886 134.324 132.851 134.009 132.818 133.691C132.426 131.257 132.29 128.743 131.572 126.409C130.936 124.266 129.906 122.259 128.536 120.493C127.568 119.306 125.823 118.415 124.274 118.065C120.532 117.234 116.7 116.797 112.902 116.203L110.771 116.055L106.679 115.915C105.405 115.85 104.129 115.761 102.856 115.737C102.675 115.737 102.488 116.034 102.307 116.218C102.307 116.812 102.272 117.406 102.272 117.999V208.245C102.272 208.838 102.272 209.432 102.251 210.026C101.708 210.047 101.168 210.088 100.624 210.088H2.5455C2.00241 210.088 1.45933 210.041 0.919213 210.014C0.919213 209.471 0.898438 208.928 0.898438 208.381C0.898438 139.973 0.898438 71.5647 0.898438 3.15639V1.03087C1.40591 0.983373 1.78874 0.915094 2.16564 0.918062C37.9658 0.977434 73.766 1.04571 109.566 1.1229C114.362 1.1229 119.158 1.25648 123.953 1.38413C130.165 1.55038 136.379 1.72255 142.591 1.97785C148.054 2.20347 153.523 2.43798 158.975 2.86843C164.427 3.29888 169.816 3.99353 175.235 4.5724L176.161 4.76833L177.013 4.87223L177.654 5.0355L178.497 5.15722L179.138 5.32048L181.167 5.75093L181.811 5.91717L185.916 6.93837L186.539 7.18476C189.48 8.14065 192.474 8.95108 195.35 10.0851C200.811 12.2343 205.841 15.2029 210.607 18.6257C214.29 21.2707 217.504 24.4145 219.911 28.2351C223.101 33.2995 224.899 38.922 226 44.7998C227.056 50.5152 227.433 56.3355 227.122 62.1394C226.763 69.4303 225.769 76.6291 222.374 83.2164C220 87.8504 216.474 91.4513 211.589 93.4996C209.108 94.5386 206.544 95.4084 204.036 96.3554L202.238 96.8868L201.692 97.0026L201.051 97.1807L200.493 97.2638L199.861 97.4597L199.027 97.623L198.38 97.7774L197.828 97.8634L197.19 98.0416L196.347 98.1752L195.706 98.3414L194.857 98.4542L193.928 98.6679L193.086 98.7778L192.148 98.9648L191.299 99.0598L190.367 99.2617ZM102.31 83.0769C106.319 83.6973 119.719 82.5218 124.339 81.361C128.346 80.3547 130.755 77.8611 131.883 74.0078C132.269 72.6868 132.705 71.3361 132.744 69.9676C132.925 63.6979 133.15 57.4223 133.041 51.1526C132.904 44.123 129.479 40.1421 122.609 38.4975C116.122 36.942 109.513 36.7163 102.883 36.6777C102.689 36.7067 102.501 36.7616 102.322 36.841L102.31 83.0769Z" fill="#FCFCFC"/>
<path d="M391.606 1.32171C392.161 1.18515 392.719 0.926889 393.274 0.926889C424.033 0.905119 454.798 0.900175 485.569 0.912049C485.961 0.912049 486.353 0.944698 487.003 0.971416C485.839 2.93663 484.774 4.77419 483.673 6.588C480.266 12.2076 476.874 17.833 473.425 23.4259C468.104 32.0585 462.718 40.6437 457.4 49.2883C453.907 54.9642 450.524 60.7085 447.04 66.3903C444.238 70.962 441.345 75.4802 438.525 80.0459C435.512 84.9243 432.532 89.8195 429.584 94.7315C429.364 95.0996 429.447 95.8418 429.67 96.2603C431.824 100.28 434.035 104.276 436.237 108.268C439.183 113.612 442.137 118.95 445.099 124.284C448.105 129.684 451.156 135.063 454.147 140.472C457.527 146.575 460.848 152.711 464.217 158.823C467.009 163.891 469.855 168.94 472.636 174.005C477.45 182.725 482.258 191.446 487.062 200.17C488.682 203.1 490.362 205.997 492.003 208.916C492.194 209.324 492.36 209.743 492.502 210.171C491.89 210.201 491.377 210.245 490.864 210.245C457.085 210.245 423.307 210.256 389.529 210.278C388.303 210.278 387.612 209.865 387.155 208.824C385.265 204.59 383.371 200.36 381.472 196.133C380.7 194.42 379.872 192.734 379.098 191.024C377.056 186.55 375.044 182.068 372.993 177.6C371.055 173.378 369.055 169.187 367.129 164.96C365.01 160.308 362.974 155.623 360.846 150.972C358.971 146.854 356.988 142.778 355.139 138.655C352.747 133.365 350.424 128.045 348.067 122.737C347.967 122.512 347.848 122.298 347.735 122.075L347.352 121.007L347.055 121.081C347.073 121.431 347.088 121.781 347.106 122.129C347.106 138.254 347.098 154.383 347.082 170.517C347.082 183.67 347.082 196.825 347.082 209.984C346.489 210.026 345.895 210.103 345.302 210.103C312.657 210.103 280.02 210.103 247.392 210.103C246.798 210.103 246.205 210.017 245.629 209.969V0.909078H346.765L347.061 1.29796C347.061 27.6195 347.061 53.941 347.061 80.2626V81.8359L347.412 81.8656L347.952 80.2626L391.357 1.66904C391.44 1.55326 391.523 1.43748 391.606 1.32171Z" fill="#FCFCFC"/>
</svg>
