<svg width="41" height="54" viewBox="0 0 41 54" fill="none" xmlns="http://www.w3.org/2000/svg">
<path d="M40.6381 22.8072C40.6381 35.3147 31.1671 43.2755 20.9376 53.155C10.3293 42.8702 0.891602 35.3147 0.891602 22.8072C0.891602 10.2997 9.18652 0.822754 21.2833 0.822754C33.38 0.822754 40.6381 10.2997 40.6381 22.8072Z" fill="#0D1117"/>
<path d="M11.9344 24.2759H20.9109V24.4396C20.9109 27.1824 20.9118 29.9255 20.9136 32.6688C20.9136 32.8048 20.8796 32.8441 20.7402 32.8438C17.8644 32.8396 14.9883 32.8387 12.1118 32.8411C12.052 32.8411 11.9923 32.8459 11.9326 32.8485L11.9344 24.2759Z" fill="white"/>
<path d="M31.1127 14.1017C31.1148 14.1588 31.1187 14.2159 31.1187 14.2731C31.1187 17.1345 31.1187 19.9962 31.1187 22.8581V23.0507H22.1481V22.7457C22.1481 19.9103 22.1481 17.0747 22.1481 14.239C22.1481 14.1825 22.1413 14.1263 22.1377 14.0698H22.1972C22.2476 14.0841 22.2991 14.0937 22.3511 14.0985C22.8957 14.1007 23.4401 14.0985 23.9847 14.0985L31.1127 14.1017Z" fill="white"/>
<path d="M20.9136 14.0698C20.9103 14.1263 20.9038 14.1827 20.9038 14.2392C20.9038 17.0806 20.9038 19.9222 20.9038 22.7638V23.0507H11.9326V14.101C14.8451 14.101 17.7575 14.1003 20.6698 14.0988C20.7318 14.094 20.7934 14.0843 20.8539 14.0698H20.9136Z" fill="white"/>
</svg>
