<svg width="360" height="348" viewBox="0 0 360 348" fill="none" xmlns="http://www.w3.org/2000/svg">
<path d="M0.0348083 183.886H169.566V187.007C169.566 239.301 169.583 291.598 169.616 343.899C169.616 346.493 168.974 347.242 166.34 347.236C112.029 347.157 57.7104 347.14 3.38415 347.185C2.25643 347.185 1.1287 347.276 0.000976562 347.327L0.0348083 183.886Z" fill="#FCFCFC"/>
<path d="M359.888 0.579585C359.928 1.61812 360.001 2.65665 360.001 3.69518C360.001 55.7125 360.001 107.734 360.001 159.758V163.26H189.85V157.715C189.85 106.171 189.85 54.6248 189.85 3.0766C189.85 2.04942 189.72 1.02791 189.652 0.000732422H190.78C191.737 0.259725 192.714 0.434418 193.701 0.522835C204.031 0.56256 214.355 0.522835 224.685 0.522835L359.888 0.579585Z" fill="#FCFCFC"/>
<path d="M169.757 0.0161133C169.695 1.04329 169.571 2.07047 169.571 3.09765C169.571 54.8085 169.571 106.521 169.571 158.236V163.457H0.0341797V0.583616C55.0747 0.583616 110.113 0.570374 165.15 0.543891C166.321 0.456576 167.484 0.280147 168.629 0.0161133L169.757 0.0161133Z" fill="#FCFCFC"/>
</svg>
