<svg width="313" height="209" viewBox="0 0 313 209" fill="none" xmlns="http://www.w3.org/2000/svg">
<path d="M236.192 51.2948C236.922 53.6183 237.065 55.9874 236.634 58.3744C236.415 59.5927 236.009 60.7666 235.472 61.9004C234.853 63.207 234.041 64.364 233.067 65.416C232.817 65.6859 232.861 65.9608 232.974 66.2411C233.34 67.1473 233.721 68.0462 234.092 68.9494C234.582 70.1425 235.07 71.3364 235.559 72.5313C236.145 73.965 236.733 75.3968 237.319 76.8305C237.716 77.8031 238.112 78.7761 238.51 79.7468C238.6 79.9681 238.702 80.1847 238.798 80.4044C234.039 81.6629 229.279 82.9213 224.52 84.1798C224.471 83.9812 224.4 83.785 224.375 83.5845C224.117 81.4801 223.875 79.3744 223.612 77.2711C223.291 74.7103 222.969 72.1484 222.61 69.5929C222.538 69.0881 222.717 68.428 221.862 68.2577C220.508 67.9886 219.33 67.2558 218.233 66.4763C215.215 64.3341 213.362 61.3618 212.349 57.8364C219.786 55.8683 227.224 53.8969 234.663 51.9347C235.208 51.7923 235.735 51.6306 236.192 51.2948Z" fill="#F1F1F1"/>
<path d="M219.654 85.4669C219.577 84.4844 219.481 83.5036 219.237 82.5445C219.303 81.8665 219.097 81.2142 219.047 80.5478C218.748 78.2424 218.448 75.937 218.149 73.6316C217.997 72.4604 217.811 71.2934 217.706 70.1179C217.674 69.7619 217.496 69.6926 217.25 69.6146C216.147 69.2693 215.085 68.8323 214.104 68.2163C211.547 66.6095 209.683 64.4156 208.49 61.6445C208.101 60.7412 207.746 59.8292 207.537 58.8656C208.08 58.9307 208.599 58.8378 209.122 58.69C210.193 58.3877 211.274 58.1178 212.351 57.8363C213.364 61.3602 215.217 64.334 218.234 66.4762C219.332 67.2557 220.509 67.9885 221.864 68.2576C222.717 68.4268 222.54 69.088 222.611 69.5928C222.97 72.1483 223.293 74.7102 223.613 77.2711C223.877 79.3743 224.12 81.4811 224.377 83.5844C224.402 83.7864 224.472 83.9811 224.522 84.1797C222.898 84.6089 221.277 85.0377 219.654 85.4669Z" fill="#E5E5E5"/>
<path d="M230.321 23.3972C230.354 23.5685 230.488 23.5536 230.619 23.5716C231.395 23.6846 231.905 24.1134 232.237 24.8293C232.482 25.3568 232.582 25.9161 232.735 26.4646C232.818 26.7595 232.699 26.9485 232.374 27.0235C231.887 27.1346 231.409 27.2817 230.928 27.4137C230.782 27.4459 230.637 27.4747 230.493 27.5129C220.608 30.1266 210.724 32.74 200.839 35.3537C200.695 35.3919 200.555 35.4401 200.412 35.4842C199.89 35.6174 199.364 35.7406 198.846 35.8872C198.575 35.9637 198.432 35.9044 198.364 35.6168C198.227 35.0385 198.042 34.4714 197.923 33.89C197.786 33.2162 198.063 32.6671 198.513 32.1724C198.634 32.0386 198.923 32.0033 198.847 31.7195C198.955 31.6908 199.063 31.6625 199.171 31.6338C199.377 31.7784 199.569 31.64 199.755 31.5908C209.698 28.9666 219.638 26.3383 229.578 23.7051C229.764 23.6559 230 23.6826 230.107 23.4538C230.177 23.4354 230.25 23.4161 230.321 23.3972Z" fill="#CBCBCB"/>
<path d="M195.125 58.3411C193.862 58.6751 192.6 59.0106 191.336 59.3446C190.994 58.0487 190.651 56.7544 190.309 55.4585C191.584 55.1326 192.858 54.8066 194.135 54.4803C194.464 55.7685 194.795 57.0548 195.125 58.3411Z" fill="#E5E5E5"/>
<path d="M230.105 23.4543C229.999 23.6831 229.764 23.656 229.576 23.7056C219.636 26.3388 209.696 28.9671 199.754 31.5913C199.568 31.6405 199.375 31.7789 199.17 31.6343C209.482 28.9076 219.793 26.181 230.105 23.4543Z" fill="#FEFEFE"/>
<path d="M200.413 35.4857C200.555 35.4416 200.695 35.3935 200.84 35.3553C210.724 32.7401 220.608 30.1267 230.493 27.5145C230.637 27.4763 230.783 27.449 230.928 27.4153C231.378 29.5727 231.786 31.7363 232.269 33.8866C232.551 35.1489 232.767 36.4275 233.051 37.6928C233.472 39.5695 233.835 41.4601 234.204 43.3491C234.364 44.1712 233.858 44.9529 233.04 45.1977C232.576 45.3365 232.106 45.4559 231.638 45.5828C224.008 47.5972 216.378 49.6116 208.747 51.6259C208.387 51.7211 208.013 51.7803 207.67 51.9156C206.562 52.3502 205.597 51.7648 205.228 50.5955C204.711 48.9556 204.23 47.3033 203.684 45.6727C203.028 43.7099 202.399 41.7385 201.763 39.7688C201.303 38.3431 200.799 36.9341 200.413 35.4857ZM207.116 41.7852C207.124 41.7833 207.133 41.7809 207.14 41.7789C207.235 42.1375 207.302 42.5065 207.431 42.853C207.634 43.3979 208.127 43.6574 208.616 43.525C209.129 43.3844 209.417 42.8769 209.285 42.2878C209.167 41.762 209.041 41.2366 208.871 40.7275C208.749 40.3619 208.795 40.0951 209.012 39.7622C209.608 38.8549 209.3 37.6485 208.388 37.0841C207.467 36.5143 206.22 36.8137 205.656 37.743C205.105 38.6497 205.379 39.9095 206.328 40.4002C206.773 40.6297 206.946 40.9167 207.006 41.3545C207.025 41.5005 207.079 41.6424 207.116 41.7852Z" fill="#F1F1F1"/>
<path d="M212.351 57.8378C211.275 58.1208 210.194 58.3907 209.123 58.6915C208.598 58.8397 208.078 58.9326 207.537 58.8671C206.635 58.4355 206.035 57.8094 206.126 56.7204C206.189 55.9589 206.694 55.3048 207.43 55.0895C207.949 54.938 208.474 54.8133 208.993 54.6682C209.166 54.6192 209.373 54.6284 209.478 54.4366C214.429 53.1273 219.381 51.8181 224.333 50.507C227.015 49.7962 229.696 49.0795 232.378 48.3653C233.03 48.4558 233.601 48.136 234.206 47.9968C235.258 47.7553 236.101 48.0783 236.583 49.0315C237.003 49.8582 236.733 50.6092 236.195 51.2943C235.736 51.6305 235.211 51.7933 234.666 51.9358C227.224 53.8987 219.788 55.8683 212.351 57.8378Z" fill="#CBCBCB"/>
<path d="M232.377 48.3656C229.696 49.0794 227.015 49.7961 224.332 50.5073C219.381 51.8195 214.429 53.1272 209.476 54.4369C209.233 53.4999 208.989 52.5632 208.746 51.6262C216.376 49.6119 224.006 47.5975 231.637 45.5831C231.884 46.5111 232.13 47.4376 232.377 48.3656Z" fill="#B2B2B2"/>
<path d="M219.047 80.5478C219.097 81.2141 219.303 81.8665 219.237 82.5445C217.338 83.0132 215.473 83.6148 213.545 83.978C209.561 84.7291 206.181 83.59 203.392 80.6998C202.143 79.4065 201.329 77.8418 200.868 76.1045C199.941 72.6153 199.024 69.1234 198.103 65.6326C198.743 65.4616 199.385 65.292 200.025 65.121C200.989 68.7485 201.921 72.3847 202.926 75.9998C204.058 80.0715 208.407 82.7914 212.602 82.1501C213.786 81.9691 214.919 81.6044 216.074 81.3196C217.068 81.0773 218.057 80.8064 219.047 80.5478Z" fill="#9A9A9A"/>
<path d="M195.125 58.3411C194.795 57.0548 194.464 55.7685 194.135 54.4818C195.419 54.1217 196.697 53.7502 198.003 53.4735C198.263 54.4521 198.523 55.4307 198.782 56.4111C199.139 57.7829 199.498 59.1525 199.85 60.5255C199.899 60.7163 200.009 60.9037 199.934 61.1145C198.687 61.4442 197.44 61.7739 196.193 62.1035C195.79 61.112 195.624 60.0526 195.32 59.0332C195.249 58.8035 195.19 58.5725 195.125 58.3411Z" fill="#B3B3B3"/>
<path d="M198.782 56.4112C198.522 55.4327 198.262 54.4541 198.002 53.4736C198.435 53.3864 198.756 53.5833 199.048 53.869C200.323 55.1108 201.605 56.3477 202.878 57.5951C203.417 58.1242 203.451 58.7121 202.999 59.1549C202.576 59.5675 202.023 59.5086 201.474 58.9867C200.575 58.1291 199.679 57.2692 198.782 56.4112Z" fill="#4F4F4F"/>
<path d="M196.192 62.104C197.439 61.7743 198.686 61.4447 199.932 61.115C200.048 62.4501 199.985 63.7881 200.025 65.1243C199.384 65.2953 198.743 65.4648 198.102 65.6359C197.461 64.4601 196.762 63.3158 196.192 62.104Z" fill="#4F4F4F"/>
<path d="M207.116 41.7851C207.078 41.6408 207.025 41.5004 207.006 41.3543C206.945 40.915 206.774 40.6292 206.328 40.4C205.379 39.9093 205.105 38.6495 205.656 37.7428C206.221 36.8136 207.465 36.513 208.388 37.084C209.302 37.648 209.608 38.8547 209.012 39.762C208.793 40.0953 208.747 40.3621 208.871 40.7274C209.042 41.2361 209.167 41.7633 209.285 42.2877C209.418 42.8749 209.13 43.3842 208.616 43.5248C208.126 43.6591 207.634 43.3992 207.431 42.8529C207.301 42.5067 207.235 42.1373 207.14 41.7788C207.133 41.7808 207.124 41.7831 207.116 41.7851Z" fill="#8D8D8D"/>
<path d="M272.948 150.513C272.814 150.384 272.672 150.261 272.547 150.122C272.076 149.599 271.799 149.031 271.974 148.284C272.268 147.027 272.512 145.759 272.777 144.496C274.061 144.77 275.345 145.044 276.629 145.318C276.403 146.39 276.149 147.459 275.959 148.539C275.752 149.717 275.165 150.503 273.942 150.726C273.61 150.654 273.278 150.584 272.948 150.513Z" fill="#A4A6AA"/>
<path d="M257.378 141.233C257.145 142.325 256.873 143.411 256.687 144.51C256.486 145.704 255.886 146.456 254.657 146.637C254.367 146.576 254.077 146.514 253.785 146.452C252.764 145.752 252.525 144.807 252.826 143.637C253.1 142.574 253.294 141.493 253.523 140.419C254.809 140.692 256.094 140.962 257.378 141.233Z" fill="#A4A6AA"/>
<path d="M257.379 141.233C256.094 140.963 254.809 140.692 253.524 140.421C251.163 139.919 248.804 139.401 246.437 138.926C245.907 138.82 245.82 138.622 245.927 138.117C249.405 121.77 252.867 105.419 256.335 89.0692C256.379 88.8635 256.45 88.6637 256.508 88.4593C256.771 88.533 257.032 88.6241 257.298 88.6806C268.295 91.0143 279.293 93.3434 290.29 95.6756C290.538 95.7281 290.782 95.7963 291.028 95.8581C291.08 96.2209 291.009 96.5708 290.934 96.9246C287.522 113.009 284.113 129.096 280.705 145.182C280.64 145.492 280.584 145.806 280.525 146.117C279.226 145.85 277.927 145.585 276.629 145.318C275.345 145.044 274.061 144.77 272.777 144.496C267.643 143.409 262.512 142.321 257.379 141.233ZM266.484 131.333C266.256 131.262 266.033 131.273 265.798 131.328C263.626 131.828 262.287 134.136 262.953 136.266C263.424 137.77 264.495 138.761 265.993 138.992C269.168 139.482 271.379 136.648 270.408 133.845C270.08 132.901 269.543 132.053 268.468 131.753C268.481 130.719 268.327 130.494 267.529 130.385C266.955 130.309 266.711 130.529 266.484 131.333Z" fill="#F1F1F1"/>
<path d="M280.525 146.117C280.584 145.806 280.64 145.492 280.705 145.182C284.113 129.096 287.522 113.009 290.934 96.9245C291.009 96.5707 291.08 96.2208 291.028 95.858C291.077 95.852 291.125 95.8445 291.174 95.8385C292.434 96.1317 293.692 96.4358 294.975 96.6245C294.931 96.8953 294.899 97.1702 294.842 97.4383C291.404 113.666 287.966 129.891 284.527 146.118C284.352 146.943 284.352 146.945 283.507 146.764C282.512 146.548 281.518 146.333 280.525 146.117Z" fill="#C5C6C8"/>
<path d="M291.172 95.8385C291.124 95.8445 291.075 95.852 291.027 95.858C290.781 95.7962 290.536 95.728 290.288 95.6755C279.291 93.3433 268.294 91.0142 257.297 88.6805C257.03 88.624 256.769 88.5344 256.507 88.4592C256.736 87.384 256.989 86.3137 257.182 85.2324C257.266 84.7615 257.425 84.673 257.89 84.7733C261.981 85.6614 266.076 86.5211 270.172 87.3858C270.417 87.4377 270.658 87.5442 270.918 87.4706C271.075 87.5299 271.226 87.6092 271.387 87.6451C274.827 88.3789 278.267 89.1079 281.71 89.8327C281.872 89.867 282.042 89.8543 282.21 89.8637C282.417 90.0364 282.681 90.0369 282.926 90.0888C285.941 90.7393 288.958 91.3866 291.974 92.034C291.707 93.3016 291.439 94.5708 291.172 95.8385Z" fill="#414851"/>
<path d="M282.21 89.864C282.042 89.8546 281.872 89.8673 281.71 89.833C278.268 89.1086 274.828 88.3795 271.387 87.6454C271.225 87.611 271.075 87.5302 270.918 87.4709C271.611 86.305 272.563 85.3356 273.371 84.256C273.512 84.0676 273.7 84.1123 273.89 84.1526C276.206 84.645 278.521 85.1356 280.837 85.625C281.028 85.6653 281.217 85.7006 281.27 85.9299C281.573 87.2435 282.048 88.5152 282.21 89.864Z" fill="#A4A6AA"/>
<path d="M291.172 95.8386C291.439 94.571 291.707 93.3018 291.974 92.0341C293.095 92.2635 294.213 92.5054 295.336 92.7142C295.699 92.7812 295.77 92.9201 295.69 93.2664C295.434 94.3817 295.21 95.5035 294.974 96.6246C293.693 96.4362 292.433 96.1302 291.172 95.8386Z" fill="#202833"/>
<path d="M268.47 131.754C269.543 132.053 270.082 132.9 270.409 133.846C271.381 136.648 269.169 139.481 265.994 138.992C264.496 138.761 263.425 137.77 262.954 136.266C262.287 134.136 263.627 131.829 265.799 131.328C266.034 131.274 266.258 131.262 266.485 131.333C266.241 132.531 266.014 133.732 265.746 134.923C265.627 135.45 265.924 135.739 266.258 136.019C266.599 136.306 266.969 136.068 267.231 135.914C267.542 135.73 267.695 135.352 267.773 134.965C267.99 133.892 268.234 132.825 268.47 131.754Z" fill="#FEFEFE"/>
<path d="M268.47 131.754C268.236 132.825 267.991 133.892 267.773 134.966C267.694 135.353 267.542 135.732 267.231 135.915C266.969 136.07 266.599 136.307 266.258 136.02C265.925 135.741 265.626 135.451 265.746 134.924C266.013 133.732 266.242 132.531 266.485 131.335C266.711 130.531 266.955 130.31 267.532 130.387C268.328 130.494 268.482 130.719 268.47 131.754Z" fill="#8D8D8D"/>
<path d="M157.89 135.532L167.868 124.43L175.726 123.812L176.92 132.326L170.564 135.173L163.624 142.492L159.413 143.453L157.89 135.532Z" fill="#EFBE9D"/>
<path d="M129.144 135.214L134.798 153.364L153.633 136.644L160.727 142.709C160.727 142.709 144.743 168.157 136.989 172.947C128.388 178.264 118.155 171.275 116.861 166.146C115.568 161.017 108.757 138.023 108.757 138.023L129.144 135.214Z" fill="#EFBE9D"/>
<path d="M135.245 153.046C135.266 153.084 134.749 153.372 134.022 153.974C133.598 154.331 133.202 154.719 132.837 155.136C131.945 156.157 131.257 157.341 130.813 158.623C130.633 159.146 130.493 159.683 130.396 160.228C130.229 161.16 130.233 161.753 130.191 161.753C130.164 161.616 130.154 161.475 130.162 161.335C130.15 161.173 130.15 161.009 130.162 160.846C130.162 160.658 130.183 160.428 130.225 160.203C130.305 159.645 130.434 159.095 130.609 158.56C131.043 157.243 131.747 156.032 132.674 155.003C133.057 154.585 133.476 154.202 133.926 153.857C134.11 153.703 134.298 153.59 134.452 153.481C134.587 153.389 134.726 153.304 134.87 153.226C134.986 153.149 135.112 153.089 135.245 153.046Z" fill="#E7996E"/>
<path d="M114.988 153.226L134.799 147.871C134.799 147.871 130.55 135.285 127.245 126.19C124.323 118.168 119.428 114.828 116.882 113.014C115.854 112.275 114.66 111.802 113.406 111.635C108.719 111.008 95.8989 109.319 89.5388 108.788C81.672 108.132 65.2416 112.471 65.2416 112.471C65.2416 112.471 50.8353 120.471 45.9775 123.728C44.7863 124.517 43.8759 125.664 43.3775 127.005C42.4803 129.425 41.3368 133.584 39.9679 138.964C39.0957 142.383 36.2119 153.702 36.2119 153.702L53.1097 153.18C56.5152 163.538 59.6702 172.826 59.6702 172.826L58.3014 197.638H120.968C120.968 197.638 115.184 159.258 115.184 158.367C115.184 158.041 115.105 155.847 114.988 153.226Z" fill="#FE8D25"/>
<g opacity="0.3">
<path d="M95.4983 133.083C94.2463 131.498 92.0929 130.85 90.098 131.051C88.1032 131.252 86.2502 132.196 84.5892 133.325C79.4644 136.807 75.8253 142.057 72.6118 147.353C67.0027 156.586 62.2903 166.337 58.5393 176.471L58.6687 179.063C62.8712 178.532 65.6089 174.983 67.4327 171.158C69.2564 167.333 70.041 163.087 71.6477 159.166C74.7808 151.634 80.7583 145.646 88.2785 142.508C90.7825 142.768 93.4701 141.961 95.106 140.046C96.742 138.132 97.055 135.06 95.4983 133.083Z" fill="black"/>
</g>
<path d="M115.184 156.512C115.088 156.512 114.529 151.023 113.932 144.239C113.335 137.455 112.926 131.941 113.018 131.933C113.11 131.925 113.673 137.417 114.27 144.21C114.867 151.002 115.272 156.503 115.184 156.512Z" fill="#263238"/>
<path d="M48.6108 131.933C48.7239 132.202 48.8078 132.482 48.8612 132.769C49.0073 133.388 49.1951 134.178 49.4163 135.122C49.8712 137.112 50.4763 139.863 51.1232 142.91C51.7701 145.957 52.3418 148.716 52.7383 150.718C52.9177 151.671 53.068 152.469 53.189 153.092C53.2578 153.382 53.2969 153.677 53.3058 153.974C53.198 153.704 53.1156 153.424 53.0596 153.138C52.9135 152.52 52.7257 151.73 52.5046 150.785C52.0497 148.795 51.4445 146.045 50.7935 142.998C50.1425 139.95 49.5791 137.192 49.1826 135.189C49.0031 134.236 48.8487 133.438 48.7319 132.811C48.6634 132.523 48.6229 132.229 48.6108 131.933Z" fill="#263238"/>
<path d="M112.158 111.874C112.258 111.899 111.687 114.101 111.294 116.89C110.902 119.678 110.819 121.931 110.718 121.906C110.631 121.413 110.608 120.911 110.652 120.413C110.685 119.21 110.788 118.01 110.96 116.818C111.129 115.625 111.369 114.443 111.678 113.278C111.778 112.791 111.939 112.319 112.158 111.874Z" fill="#263238"/>
<path d="M85.136 123.389L90.8367 111.873L89.0672 106.857C89.0672 106.857 97.6184 102.41 94.6971 93.3349C93.2865 88.9542 89.6473 80.1679 86.2627 72.2551C84.5068 68.1508 81.2724 64.8592 77.2032 63.0351C73.1341 61.211 68.5284 60.9883 64.3027 62.4112L63.4346 62.6996C54.2324 66.4115 52.2376 76.3097 56.1939 85.4221L67.7665 119.28L85.136 123.389Z" fill="#EFBE9D"/>
<path d="M89.0672 106.824C89.0672 106.824 83.5208 109.211 76.1799 107.438C76.1799 107.438 81.1462 113.006 89.8726 109.16L89.0672 106.824Z" fill="#E7996E"/>
<path d="M86.7427 81.1836C86.858 81.5192 86.8384 81.8866 86.688 82.208C86.5377 82.5294 86.2685 82.7796 85.9373 82.9057C85.7778 82.9739 85.6063 83.0094 85.4329 83.0102C85.2594 83.0111 85.0876 82.9772 84.9275 82.9106C84.7673 82.844 84.622 82.7461 84.5002 82.6225C84.3783 82.4989 84.2823 82.3522 84.2179 82.191C84.1013 81.8559 84.1198 81.4885 84.2694 81.167C84.4191 80.8454 84.688 80.5949 85.0191 80.4688C85.1789 80.4 85.3508 80.364 85.5246 80.3628C85.6985 80.3617 85.8708 80.3954 86.0315 80.462C86.1921 80.5286 86.3378 80.6268 86.46 80.7507C86.5822 80.8747 86.6783 81.0218 86.7427 81.1836Z" fill="#263238"/>
<path d="M85.7702 76.7865C85.67 77.008 84.4472 76.611 83.0617 77.0833C81.6761 77.5556 80.8957 78.5881 80.687 78.471C80.5869 78.4209 80.6495 78.053 80.9833 77.5891C81.4444 76.971 82.084 76.5099 82.8154 76.2682C83.5357 76.0249 84.3143 76.0162 85.0398 76.2431C85.5782 76.427 85.8244 76.682 85.7702 76.7865Z" fill="#263238"/>
<path d="M74.7026 84.7994C74.8188 85.1344 74.7996 85.5016 74.6491 85.8226C74.4986 86.1437 74.2287 86.393 73.8971 86.5174C73.7377 86.5861 73.5661 86.6221 73.3925 86.6232C73.219 86.6243 73.0469 86.5906 72.8866 86.5239C72.7263 86.4573 72.581 86.3591 72.4592 86.2352C72.3374 86.1113 72.2417 85.9642 72.1777 85.8026C72.0625 85.467 72.0821 85.0996 72.2324 84.7782C72.3827 84.4568 72.652 84.2066 72.9832 84.0804C73.1429 84.0124 73.3147 83.9771 73.4883 83.9766C73.6619 83.976 73.8338 84.0102 73.994 84.0772C74.1543 84.1442 74.2995 84.2426 74.4211 84.3666C74.5428 84.4907 74.6385 84.6378 74.7026 84.7994Z" fill="#263238"/>
<path d="M72.3029 80.8995C72.2236 81.1294 70.9674 80.8702 69.6403 81.4889C68.3132 82.1075 67.6496 83.2236 67.4326 83.1274C67.3283 83.0856 67.345 82.7094 67.6287 82.2204C68.0176 81.5569 68.6002 81.0288 69.2981 80.7072C69.9889 80.3873 70.7629 80.2936 71.51 80.4397C72.0692 80.5651 72.3446 80.7908 72.3029 80.8995Z" fill="#263238"/>
<path d="M80.7413 90.7601C80.7121 90.6807 81.5217 90.2418 82.8572 89.5939C83.1994 89.435 83.5124 89.2553 83.4915 88.992C83.3974 88.6146 83.1907 88.2748 82.8989 88.018L80.9625 85.6898C78.2206 82.3458 76.1047 79.5285 76.2424 79.4198C76.3802 79.3111 78.7131 81.9278 81.4549 85.2968C82.1268 86.1328 82.7654 86.9187 83.3705 87.6753C83.6418 88.0347 84.0257 88.4151 84.0215 89.0045C84.0113 89.1477 83.9684 89.2867 83.896 89.4106C83.8237 89.5346 83.7238 89.6402 83.6042 89.7193C83.4247 89.8386 83.2313 89.9355 83.0283 90.0077C81.6427 90.5344 80.7747 90.8354 80.7413 90.7601Z" fill="#263238"/>
<path d="M70.4208 76.076C70.4208 76.494 68.9643 76.7866 67.4035 77.5306C65.8426 78.2747 64.6741 79.1608 64.3486 78.8933C64.1942 78.7637 64.3069 78.3332 64.7117 77.7898C65.2695 77.1031 65.9762 76.5526 66.7781 76.1804C67.5801 75.8081 68.4562 75.6237 69.3399 75.6413C70.016 75.658 70.4166 75.8586 70.4208 76.076Z" fill="#263238"/>
<path d="M84.1175 73.0496C83.9797 73.4676 82.9155 73.4425 81.7637 73.8145C80.6119 74.1866 79.7104 74.7383 79.3765 74.4833C79.2263 74.3579 79.2722 73.9901 79.5977 73.547C80.0489 72.998 80.6526 72.5953 81.3323 72.39C82.012 72.1846 82.7373 72.1858 83.4163 72.3933C83.9338 72.5773 84.1759 72.8573 84.1175 73.0496Z" fill="#263238"/>
<path d="M59.1652 91.8511C58.9899 91.8511 52.3501 92.1019 54.6204 98.213C56.8907 104.324 62.5497 100.78 62.4955 100.6C62.4412 100.42 59.1652 91.8511 59.1652 91.8511Z" fill="#EFBE9D"/>
<path d="M59.7703 98.9822C59.737 98.9822 59.691 99.095 59.545 99.2455C59.333 99.4486 59.0495 99.5597 58.7562 99.5548C58.0217 99.5548 57.0869 98.7188 56.6696 97.6487C56.4573 97.1299 56.3646 96.5699 56.3983 96.0102C56.3859 95.7979 56.4246 95.5858 56.511 95.3916C56.5974 95.1974 56.7291 95.0268 56.8949 94.8941C57.0052 94.8172 57.1387 94.7809 57.2726 94.7916C57.4066 94.8023 57.5327 94.8592 57.6294 94.9526C57.7755 95.0948 57.7838 95.2327 57.8214 95.2285C57.859 95.2244 57.9132 95.078 57.7713 94.844C57.6809 94.705 57.5452 94.6016 57.3874 94.5514C57.2808 94.518 57.1687 94.5063 57.0576 94.5171C56.9465 94.5278 56.8387 94.5608 56.7405 94.6141C56.5081 94.7571 56.3162 94.9575 56.1832 95.1961C56.0502 95.4347 55.9806 95.7035 55.981 95.9767C55.9205 96.6024 56.0122 97.2334 56.248 97.8159C56.7447 99.0323 57.8005 99.9519 58.7771 99.8767C58.9589 99.8644 59.1357 99.811 59.294 99.7205C59.4523 99.63 59.588 99.5048 59.691 99.3542C59.8162 99.1326 59.7954 98.9822 59.7703 98.9822Z" fill="#E7996E"/>
<path d="M76.9853 93.0925C77.2065 93.0048 77.7157 94.5096 79.3641 95.1449C81.0126 95.7803 82.5567 95.078 82.6402 95.2829C82.6903 95.3706 82.3815 95.7009 81.7096 95.9433C80.8313 96.2527 79.8724 96.2423 79.0011 95.914C78.1661 95.5971 77.4867 94.9676 77.1064 94.1584C76.8351 93.5482 76.881 93.1176 76.9853 93.0925Z" fill="#263238"/>
<path d="M88.4745 58.8667C88.1962 58.308 87.7834 57.8275 87.2735 57.4685C86.7635 57.1095 86.1723 56.8832 85.5532 56.8102C85.4337 56.4674 85.2813 56.137 85.0983 55.8237C83.9798 53.926 81.4591 52.8977 79.4142 53.7337C78.9787 52.999 78.3513 52.3974 77.5996 51.9935C76.8479 51.5897 76.0004 51.399 75.1484 51.442C74.2965 51.485 73.4724 51.7601 72.7651 52.2376C72.0577 52.7151 71.4938 53.3769 71.1343 54.1517C70.1363 53.7498 69.0439 53.6445 67.9877 53.8484C66.9315 54.0522 65.9564 54.5566 65.179 55.3012C64.9793 55.4799 64.8345 55.7119 64.7616 55.97C64.7443 56.0567 64.7442 56.1461 64.7614 56.2329C64.7786 56.3196 64.8127 56.4022 64.8618 56.4758C64.4231 56.1144 63.9035 55.8649 63.3476 55.7484C62.7916 55.6319 62.2157 55.652 61.6692 55.807C61.2988 55.9189 60.9512 56.0958 60.6426 56.3295C59.6938 56.7434 58.9447 57.5132 58.5559 58.4738C57.1737 58.4929 55.8465 59.0191 54.8258 59.9529C53.8051 60.8866 53.1618 62.1629 53.0179 63.54C52.0315 63.9522 51.1902 64.6496 50.6014 65.543C50.0127 66.4365 49.7032 67.4855 49.7126 68.556C49.0799 68.8283 48.5299 69.2627 48.1179 69.8155C47.7059 70.3683 47.4465 71.0199 47.3657 71.705C47.2849 72.39 47.3856 73.0843 47.6577 73.718C47.9297 74.3517 48.3635 74.9025 48.9155 75.315C48.9155 75.315 44.9258 77.752 47.3421 81.2381C48.5941 83.0188 51.0981 81.7857 51.0981 81.7857L58.6101 93.1511C58.5768 93.2305 59.8997 94.4051 60.5382 93.845C61.1767 93.2848 61.3437 92.3694 61.5398 91.5418C61.7694 90.5929 62.0949 89.6399 62.0156 88.6659C61.9363 87.692 61.3186 86.6721 60.3463 86.5216C61.2936 85.811 61.5982 84.4901 61.4438 83.3155C61.2894 82.141 60.6968 81.0751 60.1292 80.0342L57.6252 75.4362C58.7329 75.0166 59.7051 74.3019 60.4369 73.3693C61.1687 72.4366 61.6323 71.3216 61.7777 70.1444C63.7892 70.8382 66.2473 69.2833 66.4769 67.1598C67.2425 68.1213 68.344 68.7558 69.5587 68.935C70.7734 69.1142 72.0108 68.8249 73.0207 68.1254C73.2043 69.4881 75.8961 69.9061 77.2649 69.8183C78.6338 69.7305 79.9108 68.3177 79.9108 68.3177C80.8315 68.5083 81.7792 68.5281 82.707 68.3762L82.8447 68.3386C84.6434 67.9206 85.8161 65.7679 86.1458 63.9496C86.6094 63.8431 87.0458 63.6409 87.427 63.356C88.0741 62.8301 88.5282 62.1036 88.7178 61.2909C88.9074 60.4782 88.8218 59.6254 88.4745 58.8667Z" fill="#0D1117"/>
<path d="M78.6756 55.5396C78.766 55.5954 78.8488 55.6629 78.9218 55.7402C79.1397 55.9536 79.3241 56.1988 79.4685 56.4675C79.7028 56.8917 79.853 57.3573 79.9109 57.8386C79.9895 58.4801 79.9063 59.1311 79.6689 59.7321C79.3626 60.4583 78.8076 61.0512 78.1039 61.4041C77.2921 61.8112 76.3653 61.9263 75.4788 61.7301C74.9996 61.6253 74.5485 61.4186 74.1559 61.124C73.9464 60.9755 73.7642 60.7916 73.6175 60.5806C73.4572 60.3606 73.3618 60.0999 73.3421 59.8282C73.3375 59.6855 73.3635 59.5434 73.4182 59.4114C73.4729 59.2795 73.5551 59.1608 73.6593 59.0633C73.8701 58.877 74.1289 58.7539 74.4063 58.708C74.6829 58.6538 74.9681 58.6624 75.2409 58.7331C75.5138 58.7922 75.7739 58.8998 76.0088 59.0508C76.4658 59.3437 76.8356 59.7544 77.0794 60.2398C77.3232 60.7252 77.432 61.2675 77.3944 61.8095C77.342 62.3073 77.191 62.7895 76.9503 63.2281C76.7095 63.6666 76.3837 64.0526 75.9922 64.3635C75.2895 64.9294 74.442 65.2857 73.5466 65.3918C72.777 65.4849 71.9974 65.451 71.2387 65.2915C70.1525 65.0453 69.1011 64.6648 68.1087 64.1587C67.754 63.9873 67.4869 63.8452 67.3033 63.7407C67.2084 63.6948 67.1164 63.6431 67.0278 63.586C67.1291 63.6146 67.227 63.6538 67.32 63.7031L68.1546 64.0751C69.1517 64.5452 70.199 64.9 71.2763 65.1327C72.0188 65.2774 72.7797 65.3014 73.5299 65.2037C74.3891 65.0971 75.2008 64.7494 75.8711 64.2005C76.2394 63.9047 76.5459 63.5391 76.7729 63.1245C76.9999 62.7099 77.143 62.2545 77.1941 61.7845C77.2264 61.2812 77.1234 60.7784 76.8959 60.3285C76.6683 59.8786 76.3246 59.498 75.9003 59.2263C75.6879 59.0876 75.4516 58.9898 75.2034 58.9379C74.962 58.8755 74.7098 58.8669 74.4647 58.9128C74.2289 58.9505 74.0088 59.0549 73.8304 59.2138C73.7466 59.2894 73.6804 59.3825 73.6365 59.4865C73.5925 59.5905 73.5718 59.7028 73.5758 59.8157C73.6088 60.0456 73.6907 60.2657 73.816 60.4611C73.9413 60.6565 74.107 60.8227 74.3019 60.9485C74.6728 61.2291 75.0999 61.4259 75.5539 61.5253C76.3973 61.7196 77.2819 61.6163 78.0579 61.2327C78.7318 60.8996 79.2647 60.3363 79.5604 59.6443C79.7673 59.1377 79.8624 58.5923 79.8394 58.0455C79.8163 57.4986 79.6756 56.9632 79.4268 56.4759C79.2265 56.1266 78.973 55.8107 78.6756 55.5396Z" fill="#8D8D8D"/>
<path d="M38.261 153.619C38.261 153.619 34.3047 167.965 33.4325 171.468C32.5602 174.971 32.5519 183.109 34.5342 185.517C36.5165 187.924 43.0603 189.458 43.0603 189.458C43.0603 189.458 55.9017 183.188 60.2753 175.514C64.649 167.839 76.6014 147.006 76.6014 147.006L72.8162 136.598L52.9052 155.638L53.1139 153.159L38.261 153.619Z" fill="#EFBE9D"/>
<path d="M72.1985 137.254L82.9114 126.19H93.1778L99.7425 134.884C99.7425 134.884 96.625 135.465 95.5107 133.789L94.0584 131.72C94.0584 131.72 95.5107 134.905 94.7303 136.473C94.7303 136.473 93.1904 140.105 92.9441 140.494C92.4767 141.225 92.1095 141.694 90.7823 141.472C89.4552 141.25 87.3644 140.16 87.5856 139.382C87.6552 139.155 87.7859 138.951 87.9633 138.794C88.1406 138.636 88.3579 138.53 88.5913 138.487L85.4655 138.04C85.4655 138.04 82.3188 143.75 80.4241 145.092C79.2517 145.912 77.9669 146.559 76.6097 147.011L72.1985 137.254Z" fill="#EFBE9D"/>
<path d="M53.3059 155.304C53.3309 155.358 52.442 155.772 51.0773 156.558C49.3068 157.598 47.642 158.809 46.1069 160.173C44.5724 161.548 43.1747 163.068 41.9336 164.713C40.9862 165.967 40.4771 166.803 40.427 166.803C40.5029 166.585 40.6052 166.377 40.7317 166.184C41.0398 165.636 41.377 165.104 41.7416 164.592C44.1222 161.172 47.2658 158.356 50.9229 156.365C51.6241 155.993 52.2083 155.713 52.6173 155.529C52.8361 155.425 53.0676 155.349 53.3059 155.304Z" fill="#E7996E"/>
<path d="M85.2444 129.404C85.7354 129.263 86.2408 129.177 86.751 129.149C87.6816 129.032 88.9753 128.899 90.4026 128.773C90.763 128.729 91.1273 128.729 91.4877 128.773C91.8331 128.828 92.1615 128.961 92.4476 129.162C92.9155 129.5 93.2902 129.952 93.5368 130.474C93.7826 130.93 93.9451 131.425 94.0167 131.937C93.9625 131.958 93.7663 131.398 93.324 130.587C93.0701 130.122 92.7114 129.723 92.2765 129.421C92.0251 129.255 91.74 129.146 91.4418 129.103C91.1076 129.066 90.7702 129.066 90.436 129.103C89.0087 129.229 87.715 129.325 86.776 129.379C86.268 129.445 85.7543 129.453 85.2444 129.404Z" fill="#E7996E"/>
<path d="M93.4241 139.938C93.3656 139.938 93.4658 139.156 93.399 137.911C93.3582 137.183 93.2591 136.461 93.1027 135.749C92.9274 134.968 92.6854 134.032 91.8924 133.576C91.499 133.367 91.0772 133.216 90.6404 133.129L89.3884 132.84C88.6754 132.677 87.9515 132.565 87.2225 132.506C86.5516 132.485 85.88 132.501 85.2109 132.556C85.374 132.467 85.5525 132.411 85.7368 132.389C86.2301 132.292 86.7326 132.252 87.235 132.268C87.9769 132.294 88.7154 132.382 89.4427 132.531C89.86 132.61 90.2774 132.702 90.7197 132.803C91.1957 132.89 91.6549 133.052 92.0802 133.283C92.5091 133.545 92.8449 133.936 93.0401 134.399C93.2147 134.811 93.3421 135.242 93.4199 135.683C93.5652 136.412 93.642 137.154 93.6494 137.898C93.6553 138.398 93.6246 138.899 93.5576 139.394C93.5444 139.582 93.4993 139.766 93.4241 139.938Z" fill="#E7996E"/>
<path d="M89.7267 136.222C89.8143 136.222 89.8811 137.116 89.8894 138.282V138.483L89.6808 138.445C89.568 138.423 89.4534 138.412 89.3385 138.412C88.8027 138.431 88.2946 138.655 87.9196 139.039C87.6316 139.34 87.5398 139.603 87.5023 139.587C87.4647 139.57 87.4772 139.273 87.7527 138.884C87.941 138.636 88.1832 138.435 88.4608 138.294C88.7384 138.154 89.0442 138.078 89.3552 138.073C89.4956 138.074 89.6355 138.089 89.7726 138.119L89.5681 138.282C89.5514 137.104 89.6223 136.222 89.7267 136.222Z" fill="#E7996E"/>
<path d="M89.7266 136.564C89.7266 136.661 88.7834 136.523 87.6399 136.464C86.4964 136.406 85.5532 136.439 85.5532 136.343C85.5532 136.247 86.4755 136.063 87.6399 136.126C88.8042 136.188 89.7266 136.477 89.7266 136.564Z" fill="#E7996E"/>
<path d="M85.7243 136.03C85.812 136.03 85.7243 137.045 85.2611 138.182C84.7978 139.319 84.1217 140.076 84.0508 140.021C83.9799 139.967 84.4932 139.144 84.9481 138.048C85.403 136.953 85.6242 136.013 85.7243 136.03Z" fill="#E7996E"/>
<path d="M152.973 137.246C152.973 137.246 160.035 128.05 160.807 127.632C161.579 127.214 171.411 125.792 171.411 125.792C171.411 125.792 170.994 128.902 168.152 129.818C166.14 130.466 163.782 130.971 163.782 130.971C163.782 130.971 164.567 136.999 163.119 139.415C161.924 141.261 160.569 142.998 159.071 144.607L152.973 137.246Z" fill="#EFBE9D"/>
<path d="M161.792 140.816C162.422 140.07 162.92 139.222 163.265 138.308C163.603 137.299 163.797 136.248 163.841 135.185C163.874 134.557 163.874 133.928 163.841 133.3C163.814 132.971 163.767 132.645 163.699 132.322C163.614 131.97 163.602 131.604 163.665 131.248C163.704 131.154 163.761 131.069 163.832 130.997C163.904 130.925 163.989 130.868 164.083 130.83C164.242 130.752 164.408 130.689 164.579 130.642C164.905 130.55 165.235 130.476 165.568 130.42C166.186 130.322 166.797 130.183 167.396 130.002C168.418 129.722 169.348 129.177 170.092 128.422C170.571 127.892 170.935 127.269 171.161 126.591C171.328 126.11 171.382 125.83 171.403 125.835C171.406 125.904 171.397 125.973 171.378 126.039C171.345 126.235 171.299 126.427 171.24 126.616C171.04 127.322 170.687 127.974 170.205 128.526C169.455 129.322 168.505 129.9 167.455 130.198C166.85 130.392 166.232 130.543 165.606 130.65C165.281 130.707 164.959 130.781 164.642 130.871C164.482 130.914 164.327 130.973 164.179 131.047C164.042 131.098 163.93 131.2 163.866 131.331C163.818 131.654 163.832 131.983 163.907 132.301C163.978 132.633 164.025 132.97 164.049 133.308C164.085 133.943 164.085 134.58 164.049 135.214C163.996 136.295 163.782 137.361 163.415 138.379C163.156 139.051 162.794 139.678 162.342 140.239C162.221 140.394 162.088 140.541 161.946 140.678C161.9 140.73 161.848 140.776 161.792 140.816Z" fill="#E7996E"/>
<path d="M170 133.62C170.372 133.22 170.679 132.754 170.907 132.244C171.136 131.679 171.29 131.083 171.366 130.473C171.414 130.113 171.445 129.751 171.458 129.388C171.46 129.198 171.451 129.008 171.431 128.819C171.403 128.613 171.414 128.402 171.465 128.2C171.49 128.147 171.525 128.101 171.566 128.063C171.608 128.025 171.656 127.996 171.708 127.978C171.796 127.94 171.888 127.912 171.981 127.892C172.159 127.854 172.338 127.827 172.518 127.809C172.852 127.781 173.184 127.729 173.511 127.652C174.069 127.537 174.59 127.265 175.023 126.865C175.304 126.581 175.528 126.239 175.681 125.859C175.793 125.59 175.836 125.432 175.847 125.435C175.845 125.475 175.837 125.514 175.824 125.552C175.797 125.663 175.763 125.771 175.722 125.877C175.581 126.274 175.361 126.634 175.078 126.93C174.64 127.354 174.106 127.643 173.533 127.767C173.202 127.852 172.865 127.91 172.527 127.943C172.351 127.962 172.177 127.99 172.003 128.027C171.916 128.045 171.831 128.072 171.748 128.107C171.673 128.131 171.608 128.184 171.568 128.257C171.527 128.44 171.518 128.63 171.543 128.817C171.564 129.011 171.572 129.207 171.569 129.403C171.557 129.77 171.526 130.136 171.475 130.5C171.394 131.119 171.228 131.723 170.983 132.292C170.812 132.667 170.589 133.011 170.321 133.313C170.249 133.397 170.171 133.476 170.089 133.548C170.062 133.576 170.032 133.6 170 133.62Z" fill="#E7996E"/>
<path d="M172 133.857C172.246 133.635 172.447 133.375 172.595 133.089C172.744 132.772 172.842 132.437 172.887 132.094C172.917 131.891 172.934 131.687 172.939 131.483C172.939 131.375 172.931 131.268 172.916 131.161C172.895 131.045 172.901 130.926 172.933 130.812C172.95 130.783 172.972 130.757 173 130.736C173.027 130.715 173.059 130.699 173.094 130.689C173.153 130.669 173.214 130.653 173.276 130.643C173.395 130.624 173.515 130.61 173.636 130.601C173.859 130.589 174.082 130.562 174.301 130.522C174.673 130.462 175.021 130.313 175.307 130.091C175.493 129.934 175.64 129.743 175.74 129.53C175.812 129.379 175.84 129.29 175.847 129.292C175.846 129.315 175.841 129.337 175.832 129.358C175.815 129.42 175.794 129.481 175.767 129.541C175.676 129.763 175.532 129.964 175.345 130.128C175.055 130.364 174.7 130.522 174.316 130.587C174.095 130.631 173.87 130.662 173.643 130.677C173.525 130.686 173.408 130.7 173.293 130.72C173.234 130.729 173.177 130.743 173.122 130.763C173.072 130.775 173.029 130.805 173.003 130.845C172.976 130.948 172.972 131.056 172.991 131.161C173.007 131.271 173.014 131.381 173.014 131.492C173.009 131.699 172.991 131.905 172.961 132.11C172.912 132.458 172.806 132.798 172.647 133.116C172.536 133.326 172.39 133.519 172.213 133.687C172.165 133.733 172.113 133.777 172.059 133.817C172.041 133.832 172.021 133.846 172 133.857Z" fill="#E7996E"/>
<path d="M181.392 91.833C182.386 91.8858 183.304 92.2579 184.249 92.5091C187.49 93.3762 190.725 94.2725 193.961 95.1583C194.07 95.6188 193.75 95.9295 193.553 96.274C186.984 107.662 180.411 119.046 173.839 130.433C173.668 130.734 173.534 131.056 173.383 131.369C173.269 131.36 173.148 131.367 173.039 131.34C170.187 130.578 167.332 129.828 164.488 129.039C163.072 128.647 161.621 128.371 160.256 127.805C160.708 127.666 160.814 127.23 161.012 126.89C167.588 115.51 174.161 104.126 180.735 92.746C180.922 92.419 181.048 92.0438 181.392 91.833Z" fill="url(#paint0_linear_199_9105)"/>
<path d="M181.393 91.834C181.05 92.0471 180.922 92.42 180.735 92.7447C174.159 104.127 167.589 115.511 161.012 126.889C160.814 127.231 160.708 127.667 160.255 127.804C159.913 127.752 159.562 127.735 159.229 127.646C153.865 126.21 148.501 124.767 143.137 123.324C143.157 122.918 143.512 122.751 143.746 122.515C154.278 111.974 164.82 101.442 175.348 90.8946C175.793 90.4492 176.183 90.2925 176.797 90.4966C178.313 90.9977 179.909 91.2228 181.393 91.834Z" fill="url(#paint1_linear_199_9105)"/>
<path d="M204.879 98.0792C208.228 98.9596 211.578 99.8348 214.927 100.718C216.646 101.172 218.361 101.63 220.073 102.105C220.367 102.187 220.729 102.152 220.918 102.48C216.184 107.207 211.445 111.934 206.713 116.663C202.146 121.23 197.594 125.812 193.014 130.37C191.367 132.01 189.795 133.727 188.032 135.251C186.748 135.083 185.512 134.732 184.305 134.271C184.181 133.807 184.506 133.498 184.704 133.155C191.269 121.771 197.843 110.391 204.411 99.0082C204.583 98.7098 204.723 98.3906 204.879 98.0792Z" fill="url(#paint2_linear_199_9105)"/>
<path d="M173.382 131.368C173.534 131.056 173.665 130.734 173.839 130.432C180.409 119.047 186.984 107.662 193.553 96.2734C193.75 95.9312 194.069 95.6182 193.961 95.1578C196.059 95.6242 198.127 96.1901 200.183 96.8137C200.127 96.9473 200.088 97.0887 200.016 97.2145C193.27 108.905 186.521 120.591 179.773 132.279C179.628 132.531 179.503 132.804 179.184 132.887C177.208 132.544 175.295 131.956 173.382 131.368Z" fill="url(#paint3_linear_199_9105)"/>
<path d="M179.186 132.884C179.505 132.801 179.63 132.528 179.775 132.276C186.523 120.588 193.272 108.9 200.018 97.2118C200.089 97.0889 200.129 96.9446 200.185 96.811C201.767 97.1708 203.342 97.5573 204.881 98.0772C204.724 98.3886 204.585 98.7078 204.411 99.0091C197.843 110.392 191.271 121.771 184.704 133.156C184.506 133.499 184.181 133.808 184.305 134.27C182.566 133.927 180.854 133.481 179.186 132.884Z" fill="url(#paint4_linear_199_9105)"/>
<path d="M143.916 126.361C143.767 126.221 143.698 126.056 143.767 125.852C143.855 125.846 143.949 125.818 144.028 125.839C148.693 127.082 153.356 128.325 158.018 129.577C162.399 130.755 166.774 131.951 171.154 133.127C175.788 134.372 180.42 135.616 185.06 136.838C186.223 137.145 187.365 137.56 188.622 137.711C188.577 137.231 188.274 137.208 188 137.133C186.764 136.804 185.528 136.47 184.293 136.136C180.221 135.039 176.152 133.941 172.08 132.846C168.233 131.813 164.385 130.784 160.536 129.756C156.408 128.651 152.281 127.534 148.148 126.449C146.663 126.058 145.206 125.546 143.673 125.351C143.545 125.217 143.445 125.073 143.467 124.877C143.749 124.752 144.011 124.813 144.306 124.892C148.565 126.05 152.827 127.19 157.092 128.327C162.423 129.747 167.758 131.149 173.088 132.574C177.967 133.88 182.846 135.191 187.714 136.537C188.288 136.697 188.415 136.542 188.404 136.041C192.755 131.681 197.107 127.32 201.458 122.962C205.315 119.095 209.169 115.224 213.035 111.364C215.73 108.677 218.441 106.007 221.143 103.329C221.549 103.987 221.582 104.764 221.824 105.474C222.008 106.01 221.624 106.267 221.319 106.571C214.071 113.819 206.823 121.067 199.575 128.315C196.282 131.611 192.989 134.906 189.689 138.196C189.469 138.416 189.302 138.715 188.958 138.79C188.912 138.33 188.553 138.303 188.207 138.212C186.323 137.721 184.442 137.219 182.561 136.711C178.183 135.533 173.808 134.349 169.431 133.173C165.024 131.99 160.616 130.82 156.206 129.643C152.112 128.554 148.015 127.456 143.916 126.361Z" fill="#835336"/>
<path d="M221.143 103.331C218.439 106.009 215.728 108.678 213.035 111.366C209.169 115.225 205.316 119.096 201.459 122.963C197.108 127.323 192.756 131.684 188.405 136.042C188.351 136.046 188.297 136.046 188.245 136.045C188.174 135.78 188.103 135.515 188.034 135.249C189.797 133.728 191.369 132.009 193.016 130.368C197.593 125.811 202.146 121.229 206.715 116.661C211.446 111.93 216.186 107.206 220.92 102.478C221.077 102.743 221.155 103.023 221.143 103.331Z" fill="#D29C04"/>
<path d="M188.031 135.249C188.103 135.515 188.174 135.78 188.242 136.046C188.065 136.121 187.904 136.045 187.736 136.001C182.48 134.591 177.222 133.184 171.964 131.776C165.835 130.135 159.709 128.486 153.579 126.852C150.177 125.946 146.77 125.062 143.363 124.169C143.207 123.907 143.127 123.627 143.139 123.322C148.503 124.765 153.864 126.209 159.231 127.644C159.564 127.733 159.915 127.753 160.257 127.802C161.623 128.368 163.074 128.642 164.49 129.037C167.334 129.825 170.188 130.576 173.041 131.337C173.15 131.367 173.269 131.357 173.385 131.366C175.298 131.954 177.209 132.544 179.186 132.882C180.856 133.478 182.566 133.925 184.304 134.268C185.512 134.733 186.748 135.084 188.031 135.249Z" fill="#D29C04"/>
<path d="M143.363 124.17C146.767 125.063 150.177 125.947 153.579 126.853C159.709 128.486 165.837 130.135 171.964 131.777C177.222 133.184 182.48 134.592 187.736 136.002C187.906 136.048 188.065 136.121 188.242 136.047C188.295 136.048 188.349 136.048 188.402 136.043C188.41 136.543 188.286 136.698 187.712 136.54C182.844 135.194 177.965 133.88 173.086 132.577C167.756 131.151 162.421 129.75 157.09 128.33C152.825 127.195 148.563 126.053 144.304 124.895C144.008 124.813 143.747 124.754 143.465 124.88C143.371 124.65 143.318 124.417 143.363 124.17Z" fill="#986F47"/>
<path d="M143.915 126.361C148.014 127.456 152.111 128.553 156.209 129.648C160.617 130.826 165.026 131.999 169.434 133.179C173.811 134.352 178.188 135.538 182.564 136.717C184.445 137.222 186.326 137.727 188.211 138.218C188.556 138.309 188.915 138.336 188.961 138.796C188.394 138.837 187.881 138.601 187.356 138.46C173.184 134.669 159.014 130.868 144.845 127.063C144.455 126.955 143.907 127.013 143.915 126.361Z" fill="#986F47"/>
<path d="M143.671 125.354C145.204 125.549 146.661 126.061 148.146 126.452C152.279 127.538 156.406 128.655 160.534 129.759C164.383 130.79 168.231 131.816 172.078 132.85C176.15 133.945 180.219 135.042 184.291 136.139C185.527 136.471 186.762 136.807 187.998 137.137C188.274 137.208 188.578 137.233 188.62 137.714C187.363 137.564 186.221 137.148 185.058 136.841C180.419 135.622 175.786 134.376 171.152 133.13C166.772 131.952 162.397 130.758 158.016 129.581C153.356 128.327 148.691 127.085 144.027 125.843C143.947 125.822 143.853 125.85 143.765 125.856C143.735 125.686 143.703 125.521 143.671 125.354Z" fill="#97693D"/>
<path d="M197.383 148.753C198.14 148.392 198.971 148.299 199.772 148.104C202.524 147.442 205.283 146.803 208.038 146.156C208.304 146.454 208.192 146.813 208.185 147.148C207.902 158.235 207.615 169.321 207.329 180.408C207.323 180.7 207.354 180.993 207.367 181.285C207.28 181.324 207.193 181.379 207.101 181.402C204.68 181.987 202.262 182.58 199.836 183.141C198.629 183.42 197.442 183.8 196.201 183.93C196.481 183.645 196.384 183.28 196.394 182.948C196.685 171.864 196.973 160.778 197.263 149.695C197.269 149.377 197.212 149.048 197.383 148.753Z" fill="#EFEFEF"/>
<path d="M197.383 148.755C197.214 149.051 197.27 149.379 197.262 149.695C196.972 160.781 196.686 171.865 196.393 182.948C196.384 183.281 196.482 183.647 196.201 183.93C195.926 184.03 195.659 184.159 195.376 184.227C190.822 185.323 186.264 186.413 181.707 187.504C181.558 187.195 181.755 186.928 181.833 186.659C185.395 174.604 188.968 162.551 192.524 150.493C192.674 149.984 192.9 149.71 193.437 149.614C194.763 149.375 196.037 148.899 197.383 148.755Z" fill="#FCFCFC"/>
<path d="M217.307 143.925C220.144 143.228 222.98 142.528 225.818 141.834C227.275 141.478 228.731 141.127 230.192 140.79C230.443 140.732 230.696 140.56 230.969 140.727C229.363 146.138 227.754 151.55 226.151 156.961C224.605 162.186 223.076 167.416 221.517 172.639C220.956 174.518 220.482 176.424 219.789 178.263C218.77 178.656 217.712 178.893 216.632 179.038C216.353 178.744 216.47 178.384 216.478 178.05C216.76 166.967 217.05 155.885 217.334 144.802C217.342 144.511 217.317 144.218 217.307 143.925Z" fill="#FCFCFC"/>
<path d="M207.367 181.286C207.353 180.993 207.321 180.702 207.328 180.408C207.613 169.322 207.901 158.235 208.185 147.148C208.193 146.815 208.304 146.454 208.038 146.157C209.781 145.658 211.542 145.244 213.317 144.878C213.329 145 213.358 145.12 213.354 145.243C213.062 156.625 212.766 168.005 212.471 179.387C212.465 179.632 212.482 179.885 212.279 180.075C210.676 180.616 209.021 180.951 207.367 181.286Z" fill="#FCFCFC"/>
<path d="M212.279 180.072C212.482 179.882 212.465 179.629 212.471 179.384C212.766 168.002 213.061 156.62 213.354 145.24C213.357 145.12 213.329 144.997 213.317 144.875C214.635 144.505 215.958 144.157 217.308 143.923C217.317 144.217 217.342 144.509 217.335 144.803C217.05 155.886 216.762 166.967 216.479 178.051C216.47 178.385 216.354 178.745 216.631 179.037C215.205 179.483 213.756 179.842 212.279 180.072Z" fill="#EFEFEF"/>
<path d="M183.508 189.441C183.341 189.397 183.224 189.302 183.193 189.123C183.255 189.084 183.314 189.025 183.381 189.009C187.339 188.051 191.296 187.095 195.257 186.145C198.978 185.254 202.703 184.379 206.423 183.486C210.359 182.544 214.294 181.6 218.226 180.637C219.211 180.396 220.225 180.244 221.217 179.849C220.991 179.511 220.757 179.617 220.524 179.672C219.475 179.925 218.424 180.176 217.375 180.425C213.914 181.252 210.456 182.077 206.997 182.905C203.729 183.689 200.462 184.476 197.195 185.264C193.69 186.108 190.181 186.942 186.68 187.801C185.422 188.109 184.136 188.317 182.921 188.79C182.772 188.742 182.64 188.676 182.577 188.522C182.736 188.315 182.954 188.255 183.205 188.195C186.829 187.338 190.447 186.467 194.067 185.592C198.59 184.497 203.109 183.388 207.634 182.298C211.777 181.301 215.921 180.308 220.072 179.345C220.562 179.232 220.593 179.066 220.384 178.699C221.852 173.715 223.323 168.73 224.793 163.747C226.094 159.327 227.392 154.906 228.703 150.488C229.618 147.41 230.553 144.339 231.478 141.266C232.044 141.59 232.381 142.154 232.846 142.582C233.198 142.906 233.017 143.25 232.914 143.598C230.46 151.89 228.006 160.182 225.552 168.474C224.439 172.243 223.325 176.012 222.204 179.779C222.129 180.031 222.126 180.32 221.901 180.514C221.682 180.192 221.405 180.316 221.112 180.388C219.517 180.783 217.921 181.168 216.322 181.55C212.602 182.439 208.883 183.323 205.164 184.215C201.421 185.112 197.683 186.02 193.94 186.924C190.466 187.766 186.987 188.602 183.508 189.441Z" fill="#835336"/>
<path d="M231.478 141.267C230.552 144.342 229.618 147.413 228.704 150.489C227.393 154.907 226.095 159.328 224.793 163.748C223.325 168.732 221.854 173.717 220.384 178.7C220.347 178.725 220.306 178.746 220.267 178.767C220.108 178.599 219.948 178.431 219.79 178.261C220.485 176.424 220.957 174.517 221.518 172.637C223.075 167.416 224.604 162.185 226.152 156.96C227.753 151.547 229.364 146.136 230.969 140.726C231.193 140.858 231.363 141.035 231.478 141.267Z" fill="#EFEFEF"/>
<path d="M219.788 178.263C219.948 178.431 220.107 178.599 220.265 178.768C220.164 178.896 220.014 178.904 219.872 178.939C215.408 180.011 210.943 181.085 206.479 182.159C201.275 183.411 196.069 184.656 190.868 185.913C187.981 186.612 185.099 187.328 182.215 188.039C181.993 187.908 181.821 187.732 181.707 187.501C186.265 186.411 190.821 185.322 195.377 184.224C195.659 184.156 195.928 184.029 196.201 183.928C197.441 183.798 198.627 183.417 199.836 183.139C202.261 182.577 204.679 181.984 207.1 181.4C207.193 181.378 207.278 181.323 207.367 181.283C209.022 180.948 210.676 180.616 212.278 180.071C213.756 179.84 215.203 179.482 216.63 179.036C217.712 178.895 218.77 178.657 219.788 178.263Z" fill="#EFEFEF"/>
<path d="M182.216 188.039C185.099 187.33 187.982 186.612 190.869 185.913C196.07 184.656 201.277 183.41 206.48 182.16C210.944 181.085 215.408 180.011 219.873 178.94C220.017 178.905 220.164 178.896 220.266 178.769C220.305 178.748 220.345 178.727 220.383 178.702C220.59 179.069 220.56 179.234 220.071 179.348C215.921 180.311 211.775 181.302 207.633 182.301C203.109 183.39 198.59 184.5 194.066 185.594C190.448 186.471 186.829 187.341 183.205 188.197C182.953 188.256 182.736 188.318 182.577 188.525C182.415 188.392 182.282 188.24 182.216 188.039Z" fill="#986F47"/>
<path d="M183.507 189.44C186.986 188.601 190.465 187.765 193.945 186.926C197.686 186.024 201.426 185.118 205.169 184.217C208.886 183.325 212.609 182.441 216.327 181.552C217.925 181.169 219.522 180.786 221.117 180.391C221.41 180.319 221.687 180.195 221.906 180.517C221.502 180.776 221.027 180.808 220.581 180.914C208.549 183.812 196.514 186.701 184.48 189.587C184.147 189.664 183.764 189.927 183.507 189.44Z" fill="#986F47"/>
<path d="M182.921 188.793C184.136 188.32 185.422 188.113 186.68 187.805C190.181 186.945 193.69 186.111 197.195 185.267C200.463 184.481 203.728 183.692 206.997 182.909C210.455 182.081 213.914 181.255 217.374 180.429C218.424 180.176 219.475 179.929 220.524 179.675C220.757 179.617 220.992 179.513 221.217 179.853C220.225 180.247 219.211 180.399 218.226 180.64C214.296 181.604 210.359 182.547 206.423 183.489C202.702 184.381 198.978 185.258 195.257 186.149C191.297 187.096 187.339 188.054 183.381 189.012C183.314 189.029 183.255 189.087 183.193 189.127C183.102 189.013 183.012 188.904 182.921 188.793Z" fill="#97693D"/>
<path d="M138.282 89.3275C137.934 88.787 137.308 88.6569 136.798 88.3719C133.527 86.537 130.237 84.735 126.95 82.9262C126.709 82.7937 126.476 82.6318 126.188 82.61C126.137 82.4086 125.972 82.3655 125.801 82.3277C125.636 82.1319 125.409 82.0798 125.171 82.0501C124.603 81.4952 123.877 81.2075 123.175 80.8781C123.13 80.8499 123.085 80.8233 123.04 80.795C122.32 80.5433 122.123 80.0565 122.11 79.2881C121.958 70.0613 121.785 60.8331 121.557 51.6078C121.521 50.1159 121.403 48.6223 121.373 47.1286C121.369 46.9176 121.252 46.6317 121.611 46.5612C121.617 46.7772 121.798 46.8252 121.944 46.9081C124.068 48.0896 126.195 49.2658 128.316 50.4525C131.739 52.3685 135.16 54.2914 138.576 56.2196C138.841 56.3687 139.049 56.3286 139.285 56.1833C140.085 55.6924 140.887 55.2083 141.691 54.7241C144.229 53.1972 146.762 51.6617 149.307 50.1483C150.405 49.4955 151.528 48.8884 152.64 48.2609C153.012 53.6989 152.926 59.1493 153.089 64.593C152.93 64.7231 152.972 64.9024 152.975 65.0688C153.008 67.6484 153.042 70.2297 153.077 72.8092C153.079 72.9207 153.171 72.9343 153.255 72.9464C153.313 75.9012 153.371 78.8543 153.429 81.8091C151.905 82.7414 150.381 83.6772 148.855 84.6078C146.311 86.1624 143.766 87.7152 141.223 89.268C140.751 89.3099 140.485 89.8315 139.942 89.825C139.934 89.3757 139.925 88.9486 139.917 88.5234C139.868 86.0213 139.819 83.5192 139.769 81.0171C139.704 81.0184 139.641 81.0179 139.576 81.0192C139.56 81.119 139.528 81.2209 139.53 81.3204C139.573 83.5841 139.619 85.8477 139.663 88.1097C139.666 88.2589 139.657 88.4118 139.798 88.5154C139.796 88.9409 139.963 89.5741 139.754 89.7463C139.398 90.0381 139.041 89.4309 138.632 89.3377C138.593 89.3282 138.548 89.336 138.505 89.3351C138.433 89.3314 138.358 89.3294 138.282 89.3275ZM152.047 56.7596C152.217 56.607 152.16 56.4039 152.156 56.217C152.12 54.1882 152.063 52.1598 152.049 50.1305C152.045 49.525 151.847 49.5461 151.428 49.8048C150.379 50.455 149.317 51.0849 148.266 51.7317C147.439 52.2403 146.621 52.7608 145.799 53.2761C145.735 53.2894 145.663 53.2857 145.612 53.3175C143.736 54.4627 141.863 55.6129 139.986 56.7563C139.757 56.8963 139.711 57.0859 139.696 57.3436C139.652 58.077 139.882 58.7793 139.882 59.5084C139.884 60.8139 139.925 62.1187 139.952 63.4254C139.968 64.1182 140.021 64.148 140.611 63.7916C143.533 62.0221 146.463 60.2712 149.364 58.4695C150.264 57.9131 151.225 57.4414 152.047 56.7596ZM146.087 61.3852C146.044 61.3912 145.994 61.3853 145.962 61.4065C144.087 62.5533 142.216 63.7052 140.339 64.852C140.069 65.0169 139.985 65.2416 139.991 65.5503C140.041 67.6697 140.086 69.7893 140.114 71.9075C140.12 72.3895 140.224 72.3857 140.606 72.1517C142.425 71.0352 144.208 69.861 146.054 68.7851C148.135 67.5708 150.157 66.2581 152.207 64.9895C152.364 64.8595 152.326 64.6801 152.322 64.512C152.281 62.3306 152.238 60.1475 152.192 57.9662C152.191 57.8907 152.213 57.7874 152.011 57.7433C150.067 58.9344 148.032 60.086 146.087 61.3852ZM152.527 81.319C152.565 81.2445 152.636 81.171 152.634 81.0973C152.596 78.8094 152.55 76.5218 152.505 74.2461C152.298 74.185 152.175 74.2869 152.051 74.3631C150.939 75.042 149.83 75.7225 148.722 76.4082C147.983 76.8654 147.182 77.2311 146.537 77.8322C146.494 77.8382 146.446 77.834 146.412 77.8535C144.473 78.9741 142.536 80.0964 140.6 81.2221C140.376 81.3518 140.305 81.5625 140.31 81.8214C140.358 83.9804 140.404 86.1411 140.436 88.3004C140.442 88.7309 140.539 88.7599 140.904 88.5331C143.346 87.0115 145.811 85.5237 148.253 84.0038C149.682 83.1145 151.171 82.3201 152.527 81.319ZM146.377 69.604C146.126 69.5815 145.919 69.6988 145.719 69.8211C143.974 70.8933 142.235 71.9722 140.489 73.0393C140.189 73.2236 140.143 73.4715 140.151 73.7956C140.208 76.0831 140.248 78.3709 140.292 80.6586C140.278 80.6881 140.264 80.7175 140.25 80.7469C140.343 80.7863 140.383 80.7255 140.419 80.6561C142.27 79.4961 144.224 78.5193 145.966 77.1555C147.35 76.0715 148.99 75.3222 150.495 74.3902C151.187 73.9632 151.986 73.6713 152.482 72.9667C152.441 70.8042 152.388 68.6436 152.37 66.4806C152.364 65.9334 152.235 65.8364 151.762 66.1288C150.401 66.9704 149.014 67.768 147.667 68.6334C147.219 68.9184 146.644 69.0686 146.377 69.604Z" fill="#DFE1E1"/>
<path d="M152.643 48.2566C151.532 48.884 150.408 49.4911 149.311 50.144C146.765 51.6574 144.233 53.1928 141.694 54.7198C140.891 55.2039 140.087 55.6881 139.289 56.179C139.053 56.3243 138.843 56.3644 138.579 56.2152C135.163 54.2871 131.742 52.3659 128.32 50.4482C126.198 49.2598 124.072 48.0852 121.947 46.9037C121.8 46.8226 121.62 46.7729 121.614 46.5569C122.888 45.6226 124.285 44.8832 125.628 44.0608C128.301 42.4231 130.99 40.8108 133.68 39.2002C135.308 38.2264 136.948 37.2746 138.583 36.3127C138.609 36.8577 138.633 37.4011 138.659 37.9461C138.684 38.4792 138.998 38.7012 139.609 38.6188C139.808 38.4983 139.997 38.3539 140.208 38.2622C140.781 38.0125 140.924 37.5963 140.874 36.9899C140.804 36.1215 140.831 35.246 140.818 34.3748C142.014 34.9191 143.112 35.6455 144.271 36.2593C144.449 36.3536 144.604 36.4586 144.53 36.6985C142.071 38.1622 139.61 39.619 137.155 41.0912C134.498 42.6839 131.846 44.2835 129.2 45.8932C128.857 46.1006 128.25 46.2001 128.297 46.6418C128.345 47.1057 128.969 47.0146 129.343 47.1668C129.369 47.1989 129.391 47.243 129.426 47.2629C132.46 48.967 135.495 50.6675 138.529 52.3698C138.814 52.5307 139.049 52.5261 139.354 52.3382C142.736 50.2577 146.13 48.1958 149.524 46.1339C153.811 43.5295 158.102 40.9302 162.399 38.3394C162.767 38.1177 162.757 37.9669 162.405 37.7782C161.727 37.4141 161.046 37.0604 160.369 36.6928C157.725 35.2539 155.084 33.8081 152.438 32.3743C152.252 32.2733 152.042 32.0579 151.81 32.3198C150.82 32.8985 149.838 33.4942 148.833 34.0492C148.151 34.4263 147.564 34.9937 146.757 35.1296C146.586 35.0095 146.414 34.891 146.243 34.7709C145.972 34.5806 145.598 34.3804 145.581 34.0702C145.551 33.4823 145.136 33.4939 144.841 33.5872C144.317 33.7519 143.947 33.5893 143.579 33.2723C145.693 31.9887 147.807 30.7051 149.923 29.4232C150.325 29.1803 150.793 29.0149 151.129 28.7047C151.718 28.1613 152.226 28.3143 152.83 28.661C155.087 29.9531 157.363 31.2122 159.632 32.4852C162.587 34.1428 165.547 35.7968 168.496 37.4665C168.859 37.6721 169.291 37.7837 169.542 38.1613C169.288 38.1234 169.086 38.256 168.884 38.375C167.418 39.2513 165.953 40.1327 164.488 41.0124C161.393 42.8711 158.288 44.7163 155.208 46.5987C154.345 47.1303 153.384 47.5249 152.643 48.2566ZM136.641 39.0168C136.23 39.5361 136.312 39.8416 136.916 40.015C137.354 40.1402 137.757 40.0568 138.112 39.7737C138.551 39.4219 138.532 39.2336 138.031 38.8763C138.112 38.5642 137.969 38.4109 137.674 38.3326C137.129 38.1872 136.849 38.3642 136.641 39.0168Z" fill="#EBEFF0"/>
<path d="M152.643 48.2565C153.384 47.5248 154.344 47.1285 155.212 46.5985C158.292 44.7161 161.395 42.8709 164.491 41.0122C165.956 40.1325 167.421 39.251 168.888 38.3747C169.088 38.2542 169.291 38.1215 169.546 38.1611C169.735 47.509 169.918 56.8571 170.117 66.2031C170.147 67.6316 170.331 69.0553 170.316 70.4881C170.311 70.996 170.369 71.5061 170.09 71.9697C170.001 71.9697 169.911 71.968 169.824 71.968C169.072 72.2865 168.345 72.6422 167.784 73.2622C167.527 73.2707 167.303 73.3523 167.134 73.5546C166.973 73.5801 166.841 73.6376 166.808 73.8201C165.545 74.3973 164.416 75.2052 163.233 75.9181C160.02 77.8512 156.825 79.8165 153.622 81.7666C153.571 81.7984 153.499 81.793 153.436 81.8062C153.378 78.8514 153.32 75.8983 153.262 72.9435C153.207 70.1602 153.151 67.3752 153.096 64.5919C152.931 59.1448 153.018 53.6944 152.643 48.2565ZM154.253 64.6121L154.255 64.612C154.349 69.4087 154.441 74.2071 154.539 79.0036C154.552 79.6879 154.575 79.6977 155.157 79.3518C156.074 78.8071 156.993 78.2623 157.909 77.7142C161.444 75.5998 164.973 73.4701 168.524 71.3811C169.028 71.0847 169.184 70.766 169.167 70.2053C168.932 62.718 168.994 55.2214 168.6 47.7372C168.474 45.3636 168.489 42.9838 168.45 40.6067C168.443 40.2003 168.413 40.055 167.964 40.3332C165.786 41.6798 163.585 42.9926 161.389 44.3121C159.047 45.7203 156.715 47.1454 154.347 48.5078C153.841 48.7974 153.731 49.1323 153.857 49.5914C153.973 50.0145 153.973 50.4366 153.981 50.8619C154.073 55.4475 154.163 60.0298 154.253 64.6121Z" fill="#D3D5D5"/>
<path d="M143.581 33.2727C143.947 33.5898 144.317 33.7523 144.843 33.5876C145.138 33.4943 145.553 33.4827 145.583 34.0706C145.599 34.3808 145.972 34.5811 146.245 34.7713C146.416 34.8914 146.588 35.0116 146.758 35.13C146.736 35.127 146.715 35.1274 146.693 35.1296C146.242 35.3992 145.789 35.6672 145.338 35.9368C143.888 35.1384 142.42 34.3677 140.993 33.5294C140.207 33.0679 139.4 32.6669 138.558 32.3283C139.08 31.5718 139.938 31.3302 140.67 31.7241C141.636 32.2438 142.61 32.7565 143.581 33.2727Z" fill="#5D6073"/>
<path d="M138.556 32.3276C139.398 32.6662 140.205 33.0673 140.992 33.5287C142.42 34.3671 143.886 35.1377 145.336 35.9361C145.416 36.5762 145.182 37.2447 145.511 37.8627C145.438 37.8899 145.359 37.9498 145.292 37.9391C144.569 37.8178 144.53 37.2695 144.531 36.7C144.605 36.4583 144.449 36.355 144.272 36.2607C143.114 35.647 142.016 34.9206 140.819 34.3762C140.517 34.1831 140.217 33.9866 139.911 33.797C139.53 33.5592 139.351 33.6038 139.37 34.1164C139.419 35.4622 139.431 36.8104 139.459 38.1566C139.463 38.3247 139.441 38.5052 139.611 38.6203C139 38.7026 138.687 38.4806 138.661 37.9475C138.635 37.4025 138.611 36.8591 138.584 36.3141C138.574 34.9847 138.565 33.657 138.556 32.3276Z" fill="#535667"/>
<path d="M138.282 89.3273C138.358 89.3293 138.435 89.3312 138.51 89.3314C138.569 89.6785 138.408 90.0694 138.692 90.3709C139.02 90.7196 140.1 90.7927 140.71 90.5509C141.277 90.3253 141.275 89.8707 141.236 89.3877C141.828 89.6694 141.781 90.1507 141.638 90.6648C141.519 90.7066 141.391 90.7331 141.282 90.7936C140.088 91.4621 138.935 91.3732 137.817 90.6129C137.671 90.0753 137.815 89.6436 138.282 89.3273Z" fill="#5D6073"/>
<path d="M141.234 89.3868C141.273 89.8716 141.275 90.3262 140.708 90.55C140.099 90.7919 139.018 90.7205 138.691 90.3701C138.409 90.0685 138.567 89.6777 138.509 89.3306C138.552 89.3314 138.595 89.3237 138.636 89.3332C139.044 89.4264 139.401 90.0336 139.757 89.7418C139.967 89.5713 139.8 88.9364 139.802 88.5108C139.841 88.5118 139.879 88.5145 139.919 88.5188C139.927 88.9441 139.935 89.3712 139.944 89.8205C140.487 89.827 140.752 89.3036 141.225 89.2635C141.233 89.3045 141.235 89.3456 141.234 89.3868Z" fill="#A9AAAA"/>
<path d="M123.041 80.7919C123.087 80.8202 123.132 80.8467 123.177 80.875C123.214 81.9568 123.415 82.1519 124.492 82.1376C124.722 82.1348 124.957 82.1559 125.173 82.047C125.41 82.0766 125.638 82.1305 125.803 82.3246C125.63 82.5407 125.374 82.592 125.129 82.6157C124.196 82.7095 123.278 82.7035 122.508 82.0376C122.288 81.4534 122.56 81.0793 123.041 80.7919Z" fill="#5D6073"/>
<path d="M122.508 82.0405C123.278 82.7047 124.196 82.7124 125.129 82.6186C125.376 82.5932 125.63 82.5419 125.803 82.3275C125.973 82.3636 126.139 82.4066 126.189 82.6098C125.28 83.3962 124.247 83.3634 123.197 83.01C122.779 82.8672 122.486 82.5419 122.508 82.0405Z" fill="#4E525F"/>
<path d="M137.815 90.6118C138.933 91.3722 140.086 91.461 141.281 90.7925C141.389 90.732 141.518 90.7055 141.637 90.6637C141.639 90.6843 141.648 90.7081 141.641 90.7271C141.42 91.4829 140.782 91.7716 139.416 91.7367C138.485 91.7121 137.995 91.3666 137.815 90.6118Z" fill="#4E525F"/>
<path d="M166.805 73.8193C166.837 73.6368 166.972 73.5793 167.131 73.5538C168.309 73.9939 169.415 73.871 170.44 73.1251C170.435 73.5867 170.189 73.8883 169.782 74.0525C168.756 74.4655 167.751 74.4852 166.805 73.8193Z" fill="#4E525F"/>
<path d="M170.442 73.1259C169.417 73.8717 168.311 73.9947 167.132 73.5546C167.301 73.3523 167.526 73.2707 167.782 73.2622C169.133 73.7315 169.912 73.2375 169.822 71.9681C169.911 71.968 170 71.9697 170.088 71.9697C170.483 72.2707 170.57 72.6653 170.442 73.1259Z" fill="#5D6073"/>
<path d="M152.482 72.9642C151.986 73.6688 151.187 73.9607 150.495 74.3877C148.989 75.3197 147.348 76.0707 145.966 77.153C144.224 78.5168 142.27 79.4936 140.419 80.6536C140.377 80.6545 140.335 80.6553 140.292 80.6561C140.248 78.3684 140.206 76.0806 140.151 73.7931C140.143 73.469 140.189 73.2211 140.489 73.0368C142.235 71.9697 143.974 70.8908 145.719 69.8186C145.919 69.6963 146.127 69.5789 146.377 69.6015C146.449 69.6773 146.505 69.7774 146.592 69.8271C147.888 70.5566 149.172 71.3136 150.496 71.9893C151.151 72.3247 151.706 72.8731 152.482 72.9642Z" fill="#C3C5C5"/>
<path d="M152.527 81.3186C151.171 82.3197 149.682 83.114 148.255 84.0033C145.813 85.5249 143.347 87.0127 140.905 88.5327C140.541 88.7594 140.444 88.7322 140.437 88.3C140.403 86.1407 140.359 83.9799 140.312 81.821C140.307 81.562 140.376 81.3513 140.602 81.2217C142.537 80.096 144.476 78.9737 146.413 77.8531C146.447 77.8335 146.497 77.8377 146.538 77.8317C147.663 78.4736 148.795 79.1016 149.909 79.7625C150.784 80.2788 151.744 80.6529 152.527 81.3186Z" fill="#C3C5C5"/>
<path d="M152.205 64.9894C150.156 66.258 148.133 67.5706 146.052 68.785C144.206 69.8626 142.423 71.035 140.604 72.1516C140.223 72.3855 140.118 72.3893 140.112 71.9073C140.086 69.7874 140.039 67.6679 139.989 65.5501C139.981 65.2414 140.068 65.0167 140.337 64.8519C142.212 63.7051 144.085 62.5549 145.96 61.4063C145.994 61.3851 146.044 61.391 146.085 61.385C146.178 61.469 146.257 61.5738 146.363 61.6335C147.436 62.2369 148.527 62.8142 149.591 63.4349C150.467 63.9478 151.423 64.3236 152.205 64.9894Z" fill="#C3C5C5"/>
<path d="M152.047 56.7593C151.223 57.4411 150.264 57.9128 149.363 58.4727C146.463 60.2727 143.531 62.0252 140.61 63.7948C140.02 64.1512 139.966 64.1214 139.951 63.4286C139.923 62.1235 139.882 60.8171 139.881 59.5115C139.88 58.7824 139.65 58.0801 139.694 57.3467C139.709 57.0891 139.756 56.8995 139.984 56.7594C141.861 55.6143 143.734 54.4658 145.611 53.3207C145.662 53.2888 145.736 53.2925 145.797 53.2793C145.939 53.3691 146.079 53.4659 146.224 53.5471C148.167 54.6189 150.108 55.6891 152.047 56.7593Z" fill="#C3C5C5"/>
<path d="M152.047 56.7583C150.106 55.6881 148.165 54.618 146.226 53.5444C146.079 53.4632 145.941 53.3664 145.799 53.2765C146.621 52.7612 147.439 52.2407 148.266 51.7321C149.317 51.0853 150.379 50.4554 151.428 49.8052C151.847 49.5465 152.045 49.5254 152.049 50.1309C152.063 52.1602 152.12 54.1886 152.156 56.2174C152.16 56.4026 152.219 56.6056 152.047 56.7583Z" fill="#D3D5D5"/>
<path d="M152.205 64.9888C151.422 64.3214 150.466 63.9456 149.591 63.4344C148.527 62.8137 147.438 62.2363 146.363 61.633C146.257 61.5733 146.176 61.4685 146.085 61.3845C148.031 60.0853 150.067 58.9337 152.01 57.7426C152.211 57.7867 152.189 57.8901 152.191 57.9655C152.237 60.1468 152.28 62.3299 152.321 64.5113C152.324 64.6794 152.362 64.8588 152.205 64.9888Z" fill="#D3D5D5"/>
<path d="M152.481 72.9636C151.706 72.8741 151.151 72.324 150.496 71.9904C149.172 71.3147 147.89 70.5576 146.592 69.8282C146.505 69.7802 146.447 69.6801 146.377 69.6026C146.644 69.0655 147.219 68.9169 147.668 68.6285C149.013 67.7631 150.403 66.9673 151.764 66.1239C152.235 65.8316 152.366 65.9285 152.371 66.4757C152.388 68.6387 152.441 70.801 152.481 72.9636Z" fill="#D3D5D5"/>
<path d="M152.527 81.3178C151.742 80.6522 150.783 80.2781 149.91 79.7617C148.795 79.1025 147.663 78.4729 146.538 77.831C147.183 77.2282 147.984 76.8642 148.723 76.407C149.83 75.7214 150.941 75.0408 152.053 74.3619C152.176 74.2857 152.3 74.1838 152.507 74.2449C152.551 76.5206 152.598 78.8082 152.636 81.0961C152.638 81.1698 152.565 81.2433 152.527 81.3178Z" fill="#D3D5D5"/>
<path d="M139.92 88.5212C139.881 88.5168 139.843 88.5141 139.803 88.5132C139.662 88.4096 139.671 88.2567 139.668 88.1075C139.622 85.8439 139.576 83.5802 139.535 81.3181C139.533 81.2187 139.564 81.1169 139.581 81.017C139.646 81.0157 139.709 81.0162 139.774 81.0149C139.822 83.5153 139.871 86.0174 139.92 88.5212Z" fill="#C5C7C7"/>
<path d="M125.173 82.049C124.956 82.1579 124.722 82.135 124.492 82.1395C123.415 82.1555 123.214 81.9605 123.177 80.877C123.879 81.2063 124.605 81.4923 125.173 82.049Z" fill="#A9AAAA"/>
<path d="M153.092 64.5894C153.147 67.3727 153.203 70.1577 153.258 72.941C153.172 72.929 153.082 72.9153 153.08 72.8038C153.045 70.2243 153.01 67.643 152.978 65.0634C152.975 64.8988 152.933 64.7194 153.092 64.5894Z" fill="#EBEFF0"/>
<path d="M140.292 80.6578C140.335 80.657 140.376 80.6562 140.419 80.6553C140.385 80.7246 140.345 80.7854 140.25 80.7461C140.264 80.715 140.278 80.6873 140.292 80.6578Z" fill="#C5C7C7"/>
<path d="M151.812 32.3176C152.044 32.0557 152.254 32.2729 152.439 32.3722C155.087 33.8059 157.727 35.25 160.371 36.6907C161.046 37.0583 161.729 37.4137 162.407 37.7761C162.759 37.9648 162.768 38.1155 162.4 38.3372C158.104 40.9281 153.815 43.5291 149.525 46.1318C146.131 48.192 142.739 50.2555 139.356 52.3361C139.05 52.5239 138.815 52.5285 138.531 52.3677C135.497 50.6654 132.461 48.9631 129.427 47.2608C129.393 47.2409 129.373 47.1984 129.345 47.1646C129.95 46.9623 130.592 46.9823 131.209 46.8604C134.623 46.1877 137.737 44.7661 140.662 42.9279C142.465 41.7945 144.142 40.4817 145.773 39.1013C148.012 37.2045 150.03 35.113 151.741 32.729C151.835 32.6054 152.042 32.4984 151.812 32.3176ZM146.173 45.7052C146.22 45.6563 146.268 45.6073 146.315 45.5584C146.675 44.8496 146.592 44.5562 145.893 44.2902C145.169 44.0128 144.483 44.1258 143.847 44.5741C143.609 44.7417 143.522 44.951 143.603 45.2308C143.59 45.2876 143.55 45.3553 143.568 45.3979C143.993 46.3434 145.314 46.4959 146.189 45.7049C146.189 45.7032 146.173 45.7052 146.173 45.7052Z" fill="#D3D5D5"/>
<path d="M151.812 32.319C152.042 32.498 151.835 32.6068 151.745 32.7338C150.033 35.1177 148.015 37.2092 145.776 39.106C144.146 40.4865 142.47 41.7992 140.665 42.9326C137.74 44.7709 134.627 46.1925 131.212 46.8651C130.595 46.987 129.953 46.9671 129.348 47.1694C128.975 47.0189 128.35 47.1083 128.302 46.6444C128.255 46.2027 128.862 46.1032 129.205 45.8958C131.851 44.2878 134.503 42.6865 137.16 41.0938C139.614 39.6234 142.076 38.1648 144.535 36.7011C144.534 37.2707 144.572 37.819 145.295 37.9403C145.362 37.951 145.442 37.8911 145.515 37.8639C145.799 37.7159 146.084 37.5748 146.362 37.4201C146.585 37.2973 146.816 37.1899 146.785 36.8542C146.735 36.2805 146.814 35.6991 146.695 35.1284C146.717 35.1245 146.738 35.1241 146.76 35.1288C147.569 34.9929 148.155 34.4238 148.837 34.0484C149.84 33.4952 150.821 32.8977 151.812 32.319ZM141.305 41.2594L141.303 41.2697C141.784 41.2242 141.8 40.7968 141.909 40.4807C141.983 40.2613 141.799 40.1397 141.574 40.1253C140.994 40.1315 140.58 40.5479 140.56 41.1591C140.544 41.59 140.721 41.6603 141.05 41.3982C141.281 41.6167 141.296 41.4448 141.305 41.2594Z" fill="#C4C6C6"/>
<path d="M139.611 38.6204C139.441 38.5054 139.463 38.3265 139.46 38.1568C139.432 36.8106 139.42 35.4624 139.37 34.1166C139.351 33.604 139.531 33.5593 139.911 33.7972C140.217 33.9868 140.517 34.1833 140.82 34.3764C140.833 35.2493 140.806 36.1248 140.876 36.9915C140.926 37.5961 140.783 38.0141 140.21 38.2638C139.997 38.3555 139.81 38.4999 139.611 38.6204Z" fill="#474B59"/>
<path d="M136.641 39.0169C136.849 38.3643 137.127 38.1856 137.674 38.331C137.969 38.4092 138.112 38.5625 138.031 38.8747C137.998 38.9268 137.935 38.9778 137.934 39.0292C137.926 39.4617 137.731 39.6834 137.282 39.6871C136.813 39.6929 136.657 39.4283 136.641 39.0169Z" fill="#24292F"/>
<path d="M136.641 39.0167C136.657 39.4281 136.813 39.6927 137.28 39.6886C137.729 39.685 137.924 39.4633 137.933 39.0308C137.933 38.9793 137.996 38.9283 138.029 38.8762C138.53 39.2335 138.549 39.4235 138.11 39.7735C137.756 40.0567 137.352 40.1401 136.914 40.0149C136.314 39.8414 136.23 39.536 136.641 39.0167Z" fill="#5D6073"/>
<path d="M154.253 64.6126C154.163 60.0303 154.073 55.4463 153.981 50.8641C153.973 50.4388 153.971 50.0168 153.857 49.5936C153.731 49.1346 153.843 48.7996 154.346 48.51C156.715 47.1477 159.047 45.7225 161.389 44.3143C163.585 42.9948 165.784 41.6821 167.964 40.3354C168.413 40.0573 168.443 40.2025 168.45 40.609C168.489 42.986 168.474 45.3675 168.6 47.7394C168.994 55.2236 168.932 62.7202 169.166 70.2076C169.184 70.7665 169.028 71.087 168.524 71.3833C164.972 73.4723 161.444 75.602 157.909 77.7165C156.993 78.2646 156.074 78.8093 155.156 79.354C154.576 79.6982 154.552 79.6884 154.539 79.0059C154.443 74.2093 154.349 69.4109 154.254 64.6143C154.253 64.6126 154.253 64.6126 154.253 64.6126ZM154.915 78.9487C155.112 79.0135 155.222 78.9324 155.329 78.8685C157.414 77.6147 159.503 76.3659 161.584 75.1035C163.755 73.7862 165.909 72.4383 168.097 71.1481C168.584 70.8606 168.794 70.5751 168.776 69.9956C168.571 63.7498 168.611 57.4974 168.288 51.2522C168.117 47.9599 168.14 44.657 168.075 41.3592C168.071 41.1534 168.067 40.9459 168.061 40.6818C167.334 40.9277 166.805 41.367 166.227 41.7163C162.445 44.002 158.673 46.3046 154.874 48.5614C154.347 48.8754 154.195 49.2061 154.209 49.7874C154.394 58.3754 154.553 66.9639 154.735 75.5502C154.758 76.6907 154.943 77.8245 154.915 78.9487Z" fill="#C5C7C7"/>
<path d="M169.822 71.9663C169.912 73.2358 169.133 73.7297 167.782 73.2604C168.343 72.6421 169.07 72.2864 169.822 71.9663Z" fill="#A9AAAA"/>
<path d="M146.693 35.1288C146.812 35.6994 146.733 36.2809 146.783 36.8546C146.814 37.1902 146.583 37.2977 146.36 37.4205C146.08 37.5735 145.795 37.7163 145.513 37.8643C145.183 37.2463 145.417 36.5777 145.338 35.9377C145.789 35.6663 146.24 35.3984 146.693 35.1288Z" fill="#474B59"/>
<path d="M143.603 45.2308C143.52 44.9511 143.609 44.7418 143.847 44.5741C144.483 44.1258 145.169 44.0146 145.894 44.2903C146.592 44.5579 146.677 44.8513 146.315 45.5584C146.268 45.6074 146.221 45.6563 146.173 45.7053L146.189 45.7033C145.235 46.0531 144.328 46.143 143.603 45.2308Z" fill="#5D6073"/>
<path d="M143.603 45.2316C144.326 46.1438 145.233 46.0539 146.189 45.7058C145.314 46.4967 143.995 46.3442 143.568 45.3987C143.55 45.3562 143.59 45.2867 143.603 45.2316Z" fill="#535667"/>
<path d="M141.052 41.3977C140.721 41.6598 140.546 41.5895 140.562 41.1585C140.584 40.5474 140.998 40.1309 141.576 40.1247C141.68 40.5533 141.471 40.9056 141.305 41.2692L141.306 41.2589C141.195 41.2593 141.098 41.2784 141.052 41.3977Z" fill="#5D6073"/>
<path d="M141.305 41.2691C141.471 40.9055 141.68 40.5515 141.576 40.1246C141.803 40.139 141.985 40.2607 141.911 40.48C141.802 40.7961 141.786 41.2236 141.305 41.2691Z" fill="#DFE1E1"/>
<path d="M141.052 41.3971C141.098 41.2795 141.195 41.2587 141.305 41.26C141.296 41.4437 141.281 41.6156 141.052 41.3971Z" fill="#DFE1E1"/>
<path d="M154.915 78.9487C154.943 77.8244 154.76 76.6906 154.734 75.552C154.55 66.9639 154.393 58.3754 154.207 49.7891C154.194 49.2078 154.347 48.8754 154.873 48.5631C158.671 46.3046 162.443 44.002 166.226 41.718C166.804 41.3687 167.332 40.9294 168.06 40.6835C168.065 40.9476 168.069 41.1551 168.073 41.3609C168.138 44.6587 168.117 47.9616 168.287 51.2539C168.61 57.4991 168.571 63.7497 168.775 69.9973C168.793 70.5768 168.582 70.8623 168.096 71.1498C165.908 72.44 163.754 73.7879 161.582 75.1052C159.502 76.3676 157.413 77.6181 155.327 78.8702C155.222 78.9324 155.112 79.0134 154.915 78.9487ZM155.851 67.6418C156.478 68 157.39 67.3679 157.379 66.5584C157.344 64.2499 157.295 61.94 157.245 59.6318C157.232 59.0625 156.913 58.9057 156.42 59.2122C156.259 59.3132 156.107 59.4277 155.951 59.5371C155.419 59.587 155.564 60.0045 155.568 60.3029C155.601 62.5583 155.648 64.8133 155.699 67.0683C155.703 67.2621 155.608 67.5024 155.851 67.6418Z" fill="#D3D5D5"/>
<path d="M155.95 59.5349C156.105 59.4272 156.257 59.311 156.418 59.2101C156.91 58.9019 157.23 59.0603 157.243 59.6296C157.294 61.9378 157.342 64.2477 157.378 66.5562C157.39 67.3657 156.476 67.9996 155.85 67.6396C155.822 66.0755 155.768 64.512 155.775 62.9472C155.78 61.8097 155.525 60.6533 155.95 59.5349Z" fill="#5B5E71"/>
<path d="M155.949 59.5347C155.523 60.6531 155.778 61.8095 155.774 62.9487C155.767 64.5135 155.822 66.077 155.849 67.6411C155.607 67.5018 155.701 67.2614 155.697 67.0659C155.646 64.8109 155.599 62.5559 155.566 60.3005C155.562 60.0021 155.417 59.5846 155.949 59.5347Z" fill="#474B59"/>
<defs>
<linearGradient id="paint0_linear_199_9105" x1="153.062" y1="19.3034" x2="184.073" y2="15.255" gradientUnits="userSpaceOnUse">
<stop stop-color="#D09A00"/>
<stop offset="0.980418" stop-color="#FFD285"/>
</linearGradient>
<linearGradient id="paint1_linear_199_9105" x1="141.825" y1="28.6163" x2="175.897" y2="25.25" gradientUnits="userSpaceOnUse">
<stop offset="0.980418" stop-color="#E3B137"/>
</linearGradient>
<linearGradient id="paint2_linear_199_9105" x1="180.842" y1="34.5401" x2="213.78" y2="31.182" gradientUnits="userSpaceOnUse">
<stop offset="0.980418" stop-color="#E3B137"/>
</linearGradient>
<linearGradient id="paint3_linear_199_9105" x1="164.957" y1="30.5654" x2="191.296" y2="26.9184" gradientUnits="userSpaceOnUse">
<stop offset="0.980418" stop-color="#E3B137"/>
</linearGradient>
<linearGradient id="paint4_linear_199_9105" x1="170.627" y1="33.5803" x2="196.207" y2="29.9991" gradientUnits="userSpaceOnUse">
<stop stop-color="#D09A00"/>
<stop offset="0.980418" stop-color="#FFD285"/>
</linearGradient>
</defs>
</svg>
