<svg width="264" height="264" viewBox="0 0 264 264" fill="none" xmlns="http://www.w3.org/2000/svg">
<path d="M252.236 246.713C252.236 246.793 198.38 246.851 132.005 246.851C65.6304 246.851 11.7638 246.793 11.7638 246.713C11.7638 246.634 65.5881 246.576 132 246.576C198.412 246.576 252.236 246.64 252.236 246.713Z" fill="#263238"/>
<path d="M168.96 246.713L96.0484 246.671C93.9651 246.676 91.9014 246.27 89.9753 245.476C88.0492 244.682 86.2987 243.516 84.8239 242.045C83.3491 240.573 82.179 238.826 81.3807 236.901C80.5823 234.977 80.1714 232.914 80.1714 230.831L80.1819 48.576C80.1819 46.4896 80.5941 44.4238 81.3947 42.4972C82.1954 40.5706 83.3688 38.8211 84.8475 37.3492C86.3262 35.8774 88.0811 34.7122 90.0115 33.9205C91.9418 33.1288 94.0095 32.7263 96.0959 32.736L169.013 32.7835C171.095 32.7794 173.159 33.186 175.084 33.9802C177.01 34.7743 178.759 35.9404 180.234 37.4117C181.708 38.883 182.878 40.6306 183.676 42.5545C184.474 44.4784 184.884 46.5407 184.884 48.6235L184.847 230.894C184.845 232.977 184.431 235.038 183.631 236.961C182.831 238.883 181.659 240.629 180.184 242.098C178.708 243.567 176.957 244.731 175.031 245.523C173.105 246.315 171.042 246.72 168.96 246.713Z" fill="#4A4A4A"/>
<path d="M169.446 38.2006L155.258 38.132C154.326 38.15 153.438 38.5368 152.79 39.2078C152.142 39.8787 151.786 40.7791 151.8 41.7118V44.2885C151.815 45.2221 151.46 46.1239 150.812 46.7959C150.163 47.468 149.275 47.8555 148.341 47.8736L120.69 47.7416C119.756 47.7167 118.869 47.3218 118.225 46.6436C117.582 45.9654 117.234 45.0594 117.258 44.1248V41.5534C117.282 40.6197 116.935 39.7145 116.293 39.0365C115.65 38.3584 114.765 37.9629 113.831 37.9366H108.842L96.4232 37.8785C94.9572 37.8716 93.5042 38.1536 92.1473 38.7086C90.7904 39.2635 89.5561 40.0804 88.5151 41.1126C87.474 42.1448 86.6466 43.3721 86.0802 44.7242C85.5137 46.0764 85.2193 47.5269 85.2138 48.9929L84.4799 228.017C84.4658 230.973 85.6256 233.814 87.7046 235.915C89.7835 238.017 92.6117 239.208 95.5679 239.226L168.59 239.564C170.057 239.571 171.51 239.289 172.867 238.734C174.224 238.179 175.459 237.362 176.5 236.33C177.542 235.298 178.37 234.071 178.937 232.719C179.504 231.367 179.799 229.916 179.805 228.45L180.576 49.4101C180.583 47.9427 180.3 46.4884 179.744 45.1305C179.188 43.7725 178.37 42.5376 177.336 41.4963C176.302 40.4551 175.073 39.628 173.719 39.0625C172.365 38.497 170.913 38.2041 169.446 38.2006Z" fill="#F5F5F5"/>
<path d="M138.457 205.73C138.373 207.895 138.294 209.922 138.225 211.607H148.716L147.433 205.165L138.457 205.73Z" fill="#F5F5F5"/>
<path d="M95.8265 208.428L95.9163 211.596H137.179C137.248 209.811 137.327 207.831 137.407 205.788L95.8265 208.428Z" fill="#F5F5F5"/>
<path d="M147.956 205.128L149.25 211.607H168.585L168.353 203.84L147.956 205.128Z" fill="#F5F5F5"/>
<path d="M139.503 114.602L143.157 93.4032L133.584 92.6904V114.602H139.503Z" fill="#EBEBEB"/>
<path d="M94.966 196.659L84.5696 200.73L84.538 208.095L95.2722 207.414L94.966 196.659Z" fill="#F5F5F5"/>
<path d="M94.9184 195.001L94.3482 175.259H94.3429V168.295L84.7016 169.314L84.5802 199.04L94.9132 194.991L94.9184 195.001Z" fill="#EBEBEB"/>
<path d="M94.3429 152.75L84.7755 151.488L84.7122 167.735L94.3429 166.716V152.75Z" fill="#F5F5F5"/>
<path d="M165.607 168.59L165.206 174.245L153.912 175.465L154.788 179.942L167.608 178.976L167.413 172.555L168.437 168.3L165.607 168.59Z" fill="#F5F5F5"/>
<path d="M145.253 180.661L154.26 179.979L152.302 169.932L144.44 170.724L145.253 180.661Z" fill="#F5F5F5"/>
<path d="M145.342 181.701L146.029 190.085L147.248 201.58L147.75 204.093L168.321 202.794L167.64 180.021L145.342 181.701Z" fill="#EBEBEB"/>
<path d="M109.935 142.138L110.727 143.495L94.8868 152.75V174.699L111.63 173.511L143.896 170.254L142.713 155.871L111.888 151.842L112.089 150.285L142.56 154.266L140.559 129.92L110.378 132.818L110.278 131.762L140.474 128.858L139.418 116.155H110.378L84.8812 120.796L84.7598 149.889L94.4116 151.161L109.935 142.138ZM96.4866 172.603C96.4866 172.603 96.6081 154.503 96.4866 153.828L109.433 146.964L111.112 171.7L96.4866 172.603Z" fill="#F5F5F5"/>
<path d="M164.551 168.696L152.824 169.879L153.711 174.435L164.224 173.3L164.551 168.696Z" fill="#F5F5F5"/>
<path d="M138.605 201.854C138.568 202.805 138.531 203.75 138.494 204.679L147.227 204.151L146.779 201.902L138.605 201.854Z" fill="#F5F5F5"/>
<path d="M119.803 114.602L121.34 107.627H133.056V92.6534L96.4127 89.9395V104L84.9709 106.587L84.9128 119.212L110.262 114.602H119.803Z" fill="#EBEBEB"/>
<path d="M144.255 72.9274L143.938 71.6444L157.935 66.1057L148.833 47.8369C148.667 47.8642 148.499 47.8783 148.331 47.8791L132.866 47.8052L133.288 73.3762L144.255 72.9274Z" fill="#F5F5F5"/>
<path d="M165.459 63.1278V38.1798L155.274 38.1323C154.811 38.1392 154.354 38.2373 153.928 38.4209C153.503 38.6045 153.118 38.8702 152.796 39.2026C152.473 39.535 152.219 39.9277 152.048 40.3583C151.877 40.7889 151.793 41.249 151.8 41.7122V44.2888C151.802 44.8644 151.667 45.4322 151.406 45.9453C151.145 46.4585 150.766 46.9023 150.3 47.2403L159.408 65.525L165.459 63.1278Z" fill="#EBEBEB"/>
<path d="M112.855 64.1997L111.677 37.9317H108.842L97.7537 37.8789L93.0387 61.3696L112.855 64.1997ZM110.352 40.5928L110.732 61.9874L96.0219 59.8331L99.2427 40.5928H110.352Z" fill="#F5F5F5"/>
<path d="M113.388 64.2789V64.5007C113.414 66.5493 113.456 70.2401 113.483 74.1842L132.765 73.3922L132.343 47.8001L120.68 47.742C119.745 47.7171 118.858 47.3222 118.215 46.644C117.571 45.9658 117.223 45.0598 117.248 44.1252V41.5538C117.272 40.6201 116.924 39.7149 116.282 39.0369C115.64 38.3588 114.754 37.9633 113.821 37.937H112.2L113.383 64.2737L113.388 64.2789Z" fill="#F5F5F5"/>
<path d="M91.5023 61.1372L96.1698 37.8735C93.2572 37.9245 90.4802 39.1132 88.4327 41.1853C86.3853 43.2575 85.2299 46.0485 85.2138 48.9615L85.161 60.5775L85.2138 60.2396L91.5023 61.1372Z" fill="#F5F5F5"/>
<path d="M94.8445 89.8234L85.0396 89.0947L84.9762 104.977L94.8445 102.744V89.8234Z" fill="#F5F5F5"/>
<path d="M91.3967 61.6491L85.161 60.7515L85.0554 86.4703L86.3965 86.5707L91.3967 61.6491Z" fill="#F5F5F5"/>
<path d="M111.197 194.7L111.36 174.055L94.8708 175.222L95.4517 195.45L111.197 194.7Z" fill="#F5F5F5"/>
<path d="M114.227 189.937L137.586 201.126C137.861 193.813 138.114 186.975 138.088 186.542L138.616 186.516L138.864 186.02C139.196 186.189 139.196 186.189 139.022 191.173C138.922 193.95 138.785 197.652 138.642 201.353H146.72L145.527 190.133L143.943 170.776L113.43 173.855L114.227 189.937Z" fill="#F5F5F5"/>
<path d="M171.473 155.67L171.209 152.946L143.22 155.86L144.397 170.206L168.564 167.767L171.473 155.67Z" fill="#F5F5F5"/>
<path d="M133.056 109.196H122.601L121.408 114.603H133.056V109.196Z" fill="#F5F5F5"/>
<path d="M167.154 111.022L140.976 109.211L139.92 115.394L140.976 128.832L168.596 126.192L167.154 111.022ZM141.926 115.384L143.331 111.482L166.077 112.918L167.376 124.08L142.676 127.01L141.926 115.384Z" fill="#F5F5F5"/>
<path d="M169.868 139.086L168.722 127.211L141.081 129.867L142.122 142.507L169.868 139.086Z" fill="#F5F5F5"/>
<path d="M95.3039 208.46L84.5802 209.141L84.5379 208.438L84.5221 211.606H95.3936L95.3039 208.46Z" fill="#F5F5F5"/>
<path d="M180.365 57.2298L180.523 57.6311L180.576 49.4101C180.59 46.4539 179.43 43.613 177.351 41.5113C175.272 39.4095 172.444 38.2188 169.488 38.2007H166.008V62.9375L180.365 57.2298Z" fill="#EBEBEB"/>
<path d="M137.56 201.696L113.726 190.275L112.881 173.907L111.883 174.008L111.714 195.201L95.4677 195.972V196.442L95.7792 207.372L137.428 204.732C137.486 203.734 137.523 202.71 137.56 201.696ZM96.4867 197.319L119.228 195.735L134.012 202.599L96.4709 204.632L96.4867 197.319Z" fill="#F5F5F5"/>
<path d="M173.59 84.7073L174.562 78.8993C166.014 75.8474 165.422 66.9348 165.449 64.2314L159.868 66.4438L168.268 83.3081L173.59 84.7073Z" fill="#F5F5F5"/>
<path d="M143.088 154.292L154.714 153.083L152.423 142.819L142.248 144.075L143.088 154.292Z" fill="#F5F5F5"/>
<path d="M168.163 94.7759L146.457 94.7707L144.651 94.6387L142.201 108.852L167.967 110.632L167.371 104.454L169.905 95.3251L168.163 94.7759Z" fill="#F5F5F5"/>
<path d="M166.663 90.9587L166.932 84.1739L158.4 67.0562L145.2 72.2833L149.746 90.9587H166.663ZM157.872 69.1312L165.692 84.005L164.562 88.6408L151.182 88.1128L147.84 74.068L157.872 69.1312Z" fill="#F5F5F5"/>
<path d="M170.042 172.825L170.438 186.152L179.847 185.624L179.874 186.146L170.454 186.68L170.935 202.625L179.826 202.066L179.895 203.111L170.966 203.676L171.204 211.607H179.868L180.059 167.128L171.193 168.026L170.042 172.825Z" fill="#F5F5F5"/>
<path d="M112.87 64.7329L92.9543 61.8711L87.9752 86.6871L112.96 88.5404C113.061 84.7177 112.992 73.0013 112.87 64.7329Z" fill="#EBEBEB"/>
<path d="M145.628 90.9586H148.642L144.381 73.4448L133.293 73.8989L133.563 90.0663L145.628 90.9586Z" fill="#F5F5F5"/>
<path d="M113.467 88.5772L133.056 90.0292L132.792 73.9199L113.52 74.7119C113.52 80.1556 113.552 85.9636 113.467 88.5772Z" fill="#F5F5F5"/>
<path d="M170.021 140.648L152.946 142.755L155.237 153.03L171.061 151.383L170.021 140.648Z" fill="#F5F5F5"/>
<path d="M174.652 78.3973L175.745 71.9082L180.46 72.2725L180.518 58.2964L165.977 64.0516C165.681 73.8882 171.859 77.3466 174.652 78.3973Z" fill="#EBEBEB"/>
<path d="M169.055 103.488L169.646 109.618L180.296 110.357L180.349 97.7326L171.436 94.9131L169.055 103.488Z" fill="#F5F5F5"/>
<path d="M174.124 155.855L171.325 167.471L180.048 166.605L180.101 154.408C177.418 153.701 175.079 153.125 173.823 152.882L174.124 155.855Z" fill="#F5F5F5"/>
<path d="M168.226 91.159L180.365 94.9923L180.391 88.0861L168.474 85.0078L168.226 91.159Z" fill="#F5F5F5"/>
<path d="M173.68 151.288C174.657 151.43 176.51 151.816 180.117 152.777L180.233 126.102L171.325 126.963L173.68 151.288Z" fill="#F5F5F5"/>
<path d="M171.225 125.918L180.238 125.052L180.291 111.931L169.799 111.208L171.225 125.918Z" fill="#F5F5F5"/>
<path d="M175.655 78.7302C177.366 79.2477 178.95 79.6525 180.407 79.9446V73.3235L176.568 73.0278L175.655 78.7302Z" fill="#F5F5F5"/>
<path d="M135.464 81.3965L141.272 82.896L141.298 76.9085C139.798 76.6128 138.179 76.2027 136.44 75.6782L135.464 81.3965Z" fill="#F5F5F5"/>
<path d="M179.895 203.111L179.826 202.055L170.935 202.615L170.454 186.664L179.874 186.136L179.847 185.608L170.438 186.136L170.042 172.809L171.193 168.01L180.058 167.112V166.584L171.325 167.466L174.124 155.85L173.833 152.877C175.09 153.12 177.429 153.696 180.111 154.403V152.772C176.505 151.821 174.652 151.425 173.675 151.283L171.32 126.958L180.227 126.097V125.041L171.214 125.907L169.789 111.192L180.291 111.936V110.352L169.641 109.613L169.05 103.488L171.436 94.9134L180.349 97.7329V94.9926L168.205 91.1593L168.453 85.0081L180.37 88.0863V86.4707L174.562 84.9711L175.528 79.2476C177.267 79.7756 178.884 80.1875 180.381 80.4831V79.9551C178.906 79.6665 177.322 79.2617 175.628 78.7407L176.589 73.0383L180.428 73.334V72.278L175.713 71.9137L174.62 78.4028C171.827 77.3468 165.644 73.8937 165.945 64.0571L180.486 58.3019V57.6366L180.328 57.2353L165.945 62.9271V38.1903H165.417V63.1383L159.356 65.5407L150.29 47.2455C149.858 47.5558 149.358 47.7585 148.832 47.8369L157.935 66.1057L143.938 71.6444L144.255 72.9275L133.288 73.3763L132.866 47.8052H132.338L132.76 73.3974L113.483 74.1841C113.456 70.2399 113.414 66.5492 113.388 64.5006V64.2788L112.2 37.9369H111.672L112.849 64.2049L93.0546 61.3643L97.7696 37.8735H96.4179H96.1645L91.497 61.1372L85.2085 60.2343L85.1557 60.5723V60.7518L91.3914 61.6494L86.3965 86.5921L85.0554 86.4918V89.1318L94.8603 89.8604V102.781L84.992 105.014V106.624L96.4127 104.016V89.9396L133.056 92.6535V107.628H121.334L119.798 114.603H110.262L84.9181 119.212V120.796L110.405 116.16H139.445L140.501 128.864L110.304 131.768L110.405 132.824L140.585 129.925L142.56 154.266L112.063 150.285L111.862 151.842L142.687 155.871L143.869 170.254L111.603 173.511L94.8603 174.699V152.75L110.7 143.495L109.908 142.138L94.4115 151.177L84.7597 149.905V151.489L94.3165 152.75V166.716L84.6911 167.735V169.319L94.3271 168.3V175.264L94.8973 195.006L84.5749 199.056V200.746L94.9712 196.675L95.2775 207.43L84.5432 208.106V208.454L84.5855 209.157L95.3091 208.476L95.3989 211.644H95.9269L95.8371 208.476L137.417 205.836C137.338 207.879 137.259 209.859 137.19 211.644H138.246C138.315 209.959 138.394 207.948 138.478 205.767L147.454 205.202L148.737 211.644H149.265L147.972 205.165L168.368 203.877L168.601 211.644H171.241M138.494 204.679C138.531 203.75 138.568 202.805 138.605 201.854H146.779L147.227 204.104L138.494 204.679ZM147.75 204.093L147.248 201.58L146.029 190.08L145.342 181.701L167.64 180.048L168.321 202.821L147.75 204.093ZM152.824 169.879L164.551 168.696L164.224 173.3L153.711 174.435L152.824 169.879ZM152.296 169.932L154.255 179.964L145.247 180.645L144.434 170.708L152.296 169.932ZM167.608 178.976L154.788 179.942L153.912 175.465L165.206 174.24L165.607 168.585L168.437 168.3L167.413 172.55L167.608 178.976ZM152.423 142.819L154.704 153.083L143.088 154.292L142.248 144.07L152.423 142.819ZM155.232 153.03L152.94 142.755L170.016 140.643L171.072 151.378L155.232 153.03ZM166.996 109.439L141.224 107.654L143.684 93.4561L145.485 93.5881H167.196L168.939 94.1161L166.399 103.245L166.996 109.439ZM165.443 64.2577C165.417 66.9611 166.008 75.8737 174.557 78.9255L173.585 84.7335L168.263 83.3607L159.862 66.4964L165.443 64.2577ZM158.4 67.0561L166.932 84.1791L166.663 90.9639H149.72L145.2 72.2833L158.4 67.0561ZM144.381 73.4555L148.642 90.9639H145.633L133.584 90.0663L133.293 73.9201L144.381 73.4555ZM132.765 73.9254L133.029 90.0347L113.462 88.5827C113.546 85.9691 113.53 80.161 113.462 74.7174L132.765 73.9254ZM92.949 61.8764L112.865 64.7382C112.965 73.0067 113.055 84.723 112.955 88.5457L87.9699 86.6924L92.949 61.8764ZM143.151 93.4033L139.497 114.608H133.584V92.6958L143.151 93.4033ZM122.601 109.196H133.056V114.603H121.408L122.601 109.196ZM139.92 115.395L140.976 109.212L167.165 111.023L168.617 126.192L140.976 128.832L139.92 115.395ZM168.749 127.211L169.894 139.086L142.148 142.507L141.092 129.867L168.749 127.211ZM143.246 155.86L171.23 152.946L171.489 155.67L168.58 167.762L144.413 170.201L143.246 155.86ZM145.532 190.133L146.726 201.353H138.647C138.79 197.657 138.927 193.961 139.028 191.173C139.202 186.189 139.202 186.189 138.869 186.02L138.621 186.516L138.093 186.542C138.093 186.975 137.866 193.813 137.591 201.126L114.233 189.938L113.409 173.855L143.922 170.776L145.532 190.133ZM111.387 174.055L111.223 194.7L95.4781 195.45L94.8973 175.222L111.387 174.055ZM95.5098 196.453V195.983L111.756 195.212L111.925 174.018L112.923 173.918L113.768 190.286L137.56 201.696C137.523 202.71 137.486 203.734 137.444 204.748L95.7949 207.388L95.5098 196.453Z" fill="white"/>
<path d="M119.228 195.724L96.4866 197.319V204.621L134.027 202.588L119.228 195.724Z" fill="#E0E0E0"/>
<path d="M166.082 112.918L143.331 111.482L141.926 115.384L142.697 127.021L167.397 124.091L166.082 112.918Z" fill="#E0E0E0"/>
<path d="M111.154 63.3545L110.78 41.96H99.6651L96.4443 61.2003L111.154 63.3545Z" fill="#E0E0E0"/>
<path d="M164.577 88.6405L165.707 84.0046L157.888 69.1309L147.856 74.0677L151.198 88.1389L164.577 88.6405Z" fill="#EBEBEB"/>
<path d="M169.24 56.4646C169.242 55.92 169.118 55.3822 168.878 54.8933C168.638 54.4043 168.289 53.9773 167.857 53.6456C167.425 53.3138 166.922 53.0863 166.388 52.9807C165.854 52.8751 165.302 52.8943 164.777 53.0368C164.251 53.1793 163.765 53.4412 163.358 53.8021C162.95 54.1631 162.631 54.6133 162.425 55.1178C162.22 55.6222 162.134 56.1673 162.174 56.7104C162.214 57.2536 162.379 57.7802 162.656 58.2492C162.788 58.4763 162.962 58.6399 163.131 58.8828L165.185 61.602C165.244 61.6808 165.321 61.7446 165.41 61.7886C165.498 61.8326 165.595 61.8555 165.694 61.8555C165.793 61.8555 165.89 61.8326 165.979 61.7886C166.067 61.7446 166.144 61.6808 166.204 61.602L168.226 58.925C168.415 58.7081 168.591 58.4807 168.754 58.2439C169.071 57.7046 169.239 57.0903 169.24 56.4646ZM165.707 58.0063C165.393 58.0126 165.084 57.9251 164.819 57.7549C164.554 57.5847 164.346 57.3396 164.222 57.0508C164.097 56.7619 164.061 56.4425 164.118 56.1332C164.176 55.8239 164.324 55.5387 164.544 55.314C164.765 55.0893 165.047 54.9352 165.355 54.8715C165.663 54.8078 165.983 54.8372 166.274 54.9561C166.566 55.075 166.815 55.278 166.99 55.5391C167.166 55.8002 167.26 56.1077 167.26 56.4223C167.263 56.6286 167.226 56.8336 167.149 57.0253C167.073 57.217 166.959 57.3916 166.815 57.5389C166.67 57.6863 166.498 57.8035 166.308 57.8838C166.118 57.964 165.914 58.0057 165.707 58.0063Z" fill="#FE8D25"/>
<path d="M84.4799 204.679H180.048V229.532C180.048 232.193 178.991 234.744 177.11 236.626C175.228 238.507 172.677 239.564 170.016 239.564H94.7653C92.035 239.557 89.4189 238.468 87.4908 236.535C85.5626 234.601 84.4798 231.983 84.4799 229.252V204.679Z" fill="#303842"/>
<path d="M109.412 216.829V222.674H112.58V224.347H107.437V216.829H109.412Z" fill="#FCFCFC"/>
<path d="M119.354 221.438C119.354 223.228 118.087 224.41 116.186 224.41C114.286 224.41 113.018 223.228 113.018 221.438C113.018 219.648 114.27 218.481 116.186 218.481C118.103 218.481 119.354 219.648 119.354 221.438ZM114.935 221.438C114.935 222.309 115.463 222.89 116.181 222.89C116.899 222.89 117.438 222.309 117.438 221.438C117.461 221.26 117.446 221.079 117.393 220.907C117.341 220.736 117.253 220.577 117.134 220.442C117.016 220.307 116.87 220.199 116.707 220.125C116.543 220.051 116.366 220.013 116.186 220.013C116.007 220.013 115.829 220.051 115.666 220.125C115.502 220.199 115.357 220.307 115.238 220.442C115.12 220.577 115.031 220.736 114.979 220.907C114.927 221.079 114.912 221.26 114.935 221.438Z" fill="#FCFCFC"/>
<path d="M122.939 220.055C122.253 220.055 121.778 220.625 121.778 221.459C121.778 222.293 122.253 222.864 122.939 222.864C123.172 222.878 123.404 222.823 123.605 222.707C123.807 222.591 123.97 222.417 124.075 222.209L125.479 223.017C125.126 223.563 124.608 223.983 124.001 224.215C123.393 224.446 122.727 224.478 122.1 224.306C121.473 224.133 120.917 223.765 120.514 223.255C120.11 222.745 119.88 222.12 119.856 221.47C119.832 221.07 119.893 220.67 120.035 220.296C120.178 219.922 120.398 219.582 120.682 219.299C120.965 219.017 121.306 218.798 121.68 218.657C122.055 218.516 122.455 218.456 122.855 218.481C123.372 218.454 123.886 218.567 124.343 218.809C124.801 219.051 125.184 219.412 125.453 219.854L124.08 220.657C123.956 220.468 123.787 220.314 123.587 220.208C123.388 220.103 123.165 220.05 122.939 220.055Z" fill="#FCFCFC"/>
<path d="M131.419 220.572V224.347H129.545V223.693C129.331 223.944 129.062 224.141 128.759 224.27C128.455 224.398 128.126 224.454 127.797 224.432C126.551 224.432 125.812 223.682 125.812 222.621C125.812 221.56 126.593 220.884 128.029 220.863H129.545V220.794C129.545 220.266 129.17 219.928 128.441 219.928C127.836 219.955 127.243 220.111 126.704 220.387L126.192 219.12C127.035 218.712 127.958 218.495 128.895 218.487C130.479 218.471 131.409 219.242 131.419 220.572ZM129.545 222.383V221.882H128.41C127.882 221.882 127.602 222.072 127.602 222.478C127.602 222.885 127.892 223.133 128.383 223.133C128.632 223.152 128.88 223.088 129.09 222.953C129.299 222.818 129.459 222.618 129.545 222.383Z" fill="#FCFCFC"/>
<path d="M136.483 224.046C135.997 224.311 135.451 224.444 134.899 224.432C134.645 224.458 134.388 224.429 134.146 224.346C133.905 224.264 133.684 224.13 133.499 223.954C133.314 223.777 133.17 223.563 133.076 223.326C132.982 223.088 132.941 222.833 132.956 222.578V220.086H132.153V218.824H132.956V217.214H134.851V218.824H136.356V220.086H134.851V222.288C134.851 222.716 135.047 222.906 135.379 222.9C135.628 222.879 135.872 222.813 136.097 222.705L136.483 224.046Z" fill="#FCFCFC"/>
<path d="M139.292 218.545V224.353H137.396V218.545H139.292ZM139.218 216.913C139.217 217.085 139.164 217.253 139.068 217.396C138.971 217.539 138.834 217.65 138.675 217.715C138.515 217.78 138.34 217.796 138.171 217.761C138.002 217.727 137.848 217.643 137.727 217.52C137.606 217.397 137.524 217.242 137.491 217.073C137.458 216.903 137.477 216.728 137.544 216.57C137.61 216.411 137.723 216.275 137.867 216.18C138.011 216.086 138.179 216.036 138.352 216.037C138.467 216.033 138.582 216.053 138.69 216.096C138.797 216.139 138.895 216.203 138.976 216.286C139.057 216.368 139.121 216.466 139.162 216.574C139.204 216.682 139.223 216.797 139.218 216.913Z" fill="#FCFCFC"/>
<path d="M146.684 220.704V224.363H144.783V221.232C144.797 221.096 144.782 220.958 144.739 220.828C144.695 220.698 144.624 220.579 144.531 220.478C144.437 220.378 144.323 220.299 144.196 220.247C144.069 220.195 143.932 220.171 143.795 220.176C143.5 220.176 143.216 220.291 143.004 220.497C142.792 220.703 142.668 220.984 142.66 221.28V224.347H140.754V218.539H142.66V219.484C142.858 219.156 143.141 218.888 143.48 218.708C143.818 218.529 144.199 218.445 144.582 218.465C145.844 218.471 146.684 219.326 146.684 220.704Z" fill="#FCFCFC"/>
<path d="M153.537 218.544V223.824C153.537 225.466 152.259 226.496 150.369 226.496C149.449 226.498 148.548 226.238 147.771 225.746L148.436 224.426C148.962 224.793 149.586 224.992 150.226 224.997C151.098 224.997 151.62 224.553 151.62 223.877V223.259C151.426 223.51 151.175 223.709 150.887 223.842C150.599 223.974 150.284 224.035 149.968 224.02C148.521 224.02 147.491 222.906 147.491 221.221C147.491 219.537 148.489 218.476 149.925 218.476C150.249 218.463 150.57 218.526 150.864 218.66C151.159 218.794 151.418 218.995 151.62 219.247V218.539L153.537 218.544ZM151.636 221.279C151.605 221.053 151.509 220.841 151.36 220.668C151.211 220.495 151.015 220.368 150.796 220.304C150.577 220.239 150.344 220.239 150.124 220.303C149.905 220.368 149.709 220.494 149.56 220.667C149.411 220.84 149.315 221.052 149.283 221.278C149.251 221.504 149.285 221.735 149.381 221.942C149.477 222.149 149.631 222.325 149.824 222.447C150.017 222.569 150.241 222.633 150.469 222.631C150.637 222.626 150.802 222.587 150.954 222.515C151.106 222.443 151.241 222.34 151.351 222.213C151.461 222.085 151.543 221.937 151.592 221.776C151.641 221.615 151.656 221.446 151.636 221.279Z" fill="#FCFCFC"/>
<path d="M94.9132 175.222L94.8129 174.171L143.827 169.725L140.559 129.909L138.89 116.044L133.056 116.276L133.03 90.8L165.211 92.1411L165.882 82.4628L157.893 66.116L165.512 63.1011L165.898 64.0832L159.345 66.6809L166.954 82.2516L166.943 82.3889L166.198 93.2393L134.086 91.9035L134.112 115.178L139.82 114.951L141.61 129.803L144.968 170.681L94.9132 175.222Z" fill="#FE8D25"/>
<path d="M99.2216 165.723C99.2246 165.053 99.073 164.392 98.7786 163.79C98.4842 163.188 98.0548 162.662 97.524 162.253C96.9932 161.844 96.3752 161.563 95.718 161.432C95.0609 161.301 94.3824 161.323 93.7353 161.497C93.0881 161.671 92.4898 161.992 91.9869 162.434C91.484 162.877 91.0901 163.43 90.8357 164.05C90.5813 164.67 90.4734 165.34 90.5203 166.009C90.5673 166.677 90.7678 167.326 91.1062 167.904C91.2752 168.184 91.4864 168.385 91.6976 168.68L94.2267 172.033C94.2995 172.13 94.3939 172.209 94.5025 172.264C94.6111 172.318 94.7309 172.346 94.8524 172.346C94.9739 172.346 95.0937 172.318 95.2023 172.264C95.3109 172.209 95.4053 172.13 95.4781 172.033L97.9702 168.738C98.1946 168.47 98.4044 168.19 98.5986 167.899C98.9949 167.241 99.2099 166.491 99.2216 165.723ZM94.8656 167.619C94.4865 167.619 94.116 167.506 93.8008 167.296C93.4856 167.085 93.2399 166.786 93.0949 166.436C92.9498 166.086 92.9118 165.7 92.9858 165.328C93.0597 164.957 93.2423 164.615 93.5103 164.347C93.7784 164.079 94.1199 163.896 94.4917 163.822C94.8635 163.748 95.2488 163.786 95.5991 163.932C95.9493 164.077 96.2486 164.322 96.4592 164.637C96.6698 164.953 96.7822 165.323 96.7822 165.702C96.7822 166.211 96.5803 166.698 96.2209 167.058C95.8614 167.417 95.3739 167.619 94.8656 167.619Z" fill="#0D1117"/>
<path d="M95.8794 174.699C95.8794 174.901 95.8195 175.098 95.7073 175.266C95.5951 175.434 95.4356 175.564 95.2491 175.641C95.0626 175.718 94.8574 175.738 94.6596 175.698C94.4618 175.659 94.2802 175.561 94.1379 175.418C93.9956 175.275 93.899 175.093 93.8603 174.895C93.8215 174.697 93.8425 174.492 93.9204 174.306C93.9983 174.119 94.1298 173.961 94.298 173.849C94.4663 173.738 94.6639 173.679 94.8656 173.68C94.9992 173.68 95.1315 173.707 95.2548 173.758C95.3781 173.809 95.4901 173.884 95.5843 173.979C95.6785 174.074 95.7531 174.186 95.8037 174.31C95.8544 174.433 95.8801 174.566 95.8794 174.699Z" fill="#D16B28"/>
<path d="M165.808 64.4268C166.268 64.4268 166.642 64.0533 166.642 63.5925C166.642 63.1318 166.268 62.7583 165.808 62.7583C165.347 62.7583 164.974 63.1318 164.974 63.5925C164.974 64.0533 165.347 64.4268 165.808 64.4268Z" fill="#D16B28"/>
<path d="M143.706 67.3673H101.735C101.285 67.3673 100.853 67.5457 100.535 67.8634C100.216 68.1811 100.036 68.6122 100.035 69.0622V82.0616C100.036 82.5116 100.216 82.9426 100.535 83.2603C100.853 83.578 101.285 83.7564 101.735 83.7564H132.887L133.172 87.6742L139.017 83.7564H143.727C144.176 83.7564 144.607 83.5779 144.925 83.26C145.243 82.9422 145.422 82.5111 145.422 82.0616V69.0622C145.422 68.8378 145.377 68.6157 145.291 68.4087C145.204 68.2017 145.077 68.0139 144.918 67.8562C144.758 67.6985 144.569 67.5741 144.361 67.4902C144.153 67.4063 143.93 67.3645 143.706 67.3673Z" fill="#0D1117"/>
<path d="M132.162 74.4018C132.117 74.5859 132.072 74.77 132.027 74.9542C132.024 74.9664 132.02 74.9784 132.016 74.9905C132.015 74.9935 132.013 74.9965 132.012 74.9995L132.006 75.0205C132.005 75.0253 132.004 75.0302 132.003 75.035L131.998 75.0521C131.997 75.057 131.996 75.0619 131.995 75.0667L131.99 75.0837L131.987 75.0983C131.986 75.104 131.984 75.1096 131.982 75.1152L131.98 75.1299L131.974 75.1469L131.972 75.1616C131.97 75.1672 131.968 75.1728 131.966 75.1784C131.965 75.1841 131.964 75.1883 131.964 75.1932C131.963 75.1982 131.96 75.2045 131.958 75.2101L131.956 75.2249L131.949 75.2414C131.947 75.2544 131.944 75.2675 131.941 75.2805C131.929 75.3284 131.917 75.3764 131.905 75.4243L131.901 75.4387C131.9 75.4444 131.898 75.4502 131.897 75.456C131.895 75.4618 131.895 75.4656 131.894 75.4704C131.891 75.4783 131.888 75.4862 131.886 75.4945C131.845 75.6592 131.803 75.8239 131.762 75.9886C131.679 76.3223 131.596 76.656 131.513 76.9898C131.511 76.9955 131.509 77.0012 131.508 77.0069C131.504 77.0227 131.501 77.0377 131.498 77.0532L131.484 77.1019C131.483 77.1068 131.483 77.1116 131.482 77.1165C131.48 77.1213 131.478 77.1279 131.476 77.1336L131.474 77.1481C131.472 77.1538 131.47 77.1595 131.469 77.1652C131.467 77.1709 131.466 77.1749 131.466 77.1798C131.465 77.1847 131.462 77.1911 131.46 77.1968L131.458 77.2114C131.456 77.2171 131.454 77.2228 131.452 77.2285L131.449 77.243L131.444 77.26C131.443 77.2649 131.443 77.2699 131.442 77.2747L131.435 77.299C131.367 77.5688 131.299 77.8385 131.23 78.1125H129.633C129.551 78.1125 129.55 78.1125 129.529 78.037C129.476 77.8449 129.424 77.6525 129.372 77.4602C129.306 77.213 129.239 76.9657 129.173 76.7184C129.169 76.7061 129.167 76.6936 129.164 76.6812C129.161 76.6654 129.158 76.6495 129.156 76.6337L129.153 76.6191L129.147 76.602C129.146 76.5971 129.145 76.5923 129.144 76.5874L129.139 76.5704L129.129 76.5319C129.127 76.5262 129.125 76.5206 129.123 76.515C129.121 76.5094 129.121 76.5053 129.12 76.5004L129.108 76.4595C129.104 76.4437 129.1 76.4286 129.097 76.4131L129.092 76.3962C129.089 76.3833 129.085 76.3704 129.082 76.3575L129.076 76.3408L129.073 76.3261C129.071 76.3205 129.069 76.3148 129.067 76.3091L129.058 76.2705L129.052 76.2537C129.051 76.2488 129.05 76.244 129.049 76.2391L129.044 76.2221C128.998 76.0574 128.951 75.8929 128.906 75.7279C128.843 75.5003 128.783 75.2723 128.722 75.0445C128.719 75.0335 128.716 75.0223 128.713 75.0112C128.712 75.0033 128.712 74.9954 128.711 74.9875L128.708 74.973C128.704 74.9593 128.7 74.9456 128.696 74.9319L128.693 74.9174C128.691 74.9117 128.689 74.906 128.688 74.9004C128.686 74.8948 128.685 74.8908 128.684 74.886C128.68 74.8723 128.676 74.8586 128.672 74.8449C128.668 74.8296 128.665 74.8143 128.66 74.799L128.655 74.7818L128.568 74.4536H128.561V78.1045C128.547 78.1056 128.532 78.1077 128.518 78.1077C127.76 78.1077 127.003 78.1077 126.245 78.1077C126.229 78.107 126.214 78.1054 126.198 78.103C126.198 76.266 126.198 74.429 126.198 72.5919V72.5312H126.251C127.381 72.5312 128.511 72.5309 129.641 72.5303C129.682 72.5303 129.701 72.5389 129.713 72.5826C129.758 72.7488 129.808 72.9139 129.856 73.0794C129.858 73.0871 129.86 73.0949 129.861 73.1027L129.868 73.1192L129.886 73.1894C129.887 73.1951 129.889 73.2007 129.891 73.2063L129.894 73.2209C129.898 73.2345 129.902 73.2481 129.906 73.2619C129.907 73.2667 129.908 73.2716 129.909 73.2765C129.91 73.2814 129.913 73.2877 129.915 73.2934L129.918 73.3079L129.923 73.325C129.926 73.3378 129.93 73.3507 129.933 73.3636C129.935 73.3693 129.936 73.3749 129.938 73.3805L129.957 73.4585C129.959 73.4641 129.96 73.4698 129.962 73.4754C129.965 73.4884 129.968 73.5013 129.972 73.5142L129.977 73.5309L129.98 73.5457L129.986 73.5629C129.987 73.5678 129.988 73.5727 129.988 73.5776C129.989 73.5825 129.992 73.589 129.994 73.5946C129.996 73.6002 129.996 73.6043 129.997 73.6092L130.002 73.6262C130.067 73.8804 130.133 74.1346 130.199 74.3888C130.258 74.6172 130.319 74.8454 130.379 75.0734C130.382 75.0817 130.385 75.0899 130.388 75.0979L130.399 75.0991C130.467 74.8189 130.535 74.539 130.603 74.2594L130.608 74.2424C130.609 74.2375 130.61 74.2326 130.611 74.2277L130.623 74.179C130.624 74.1741 130.625 74.1692 130.626 74.1644C130.627 74.1596 130.629 74.1529 130.631 74.1472C130.635 74.1292 130.639 74.1112 130.643 74.0932C130.645 74.0853 130.647 74.0773 130.649 74.0689L130.658 74.0299L130.679 73.9417L130.682 73.927L130.687 73.91C130.688 73.9051 130.689 73.9001 130.69 73.8953L130.695 73.8782L130.697 73.8636C130.699 73.8579 130.701 73.8522 130.702 73.8465L130.705 73.8319L130.719 73.7756C130.72 73.7706 130.721 73.7657 130.721 73.7608C130.725 73.7445 130.729 73.7281 130.733 73.7118L130.736 73.6973C130.738 73.6916 130.739 73.6858 130.741 73.68C130.742 73.6743 130.743 73.6705 130.744 73.6656C130.745 73.6608 130.747 73.6541 130.748 73.6483L130.752 73.634L130.758 73.6091L130.761 73.5946L130.764 73.5787C130.778 73.5149 130.789 73.4507 130.804 73.3871C130.845 73.2097 130.887 73.0323 130.929 72.855C130.952 72.7569 130.975 72.6587 131.001 72.5612C131.004 72.5493 131.022 72.5398 131.035 72.5326C131.043 72.5287 131.054 72.5319 131.063 72.5319H134.48C134.495 72.5319 134.511 72.5334 134.527 72.5342V78.1137C134.51 78.1137 134.493 78.1126 134.476 78.1126H132.176V74.45C132.176 74.4342 132.176 74.4184 132.176 74.4025L132.177 74.3676L132.17 74.3667C132.167 74.3785 132.165 74.3903 132.162 74.4018Z" fill="#FCFCFC"/>
<path d="M110 72.5654H112.379V72.609C112.379 73.3382 112.379 74.0675 112.38 74.7969C112.38 74.8331 112.371 74.8435 112.334 74.8435C111.572 74.8423 110.81 74.8421 110.047 74.8427C110.032 74.8427 110.016 74.844 110 74.8447L110 72.5654Z" fill="#FCFCFC"/>
<path d="M115.048 70.0095C115.049 70.024 115.05 70.0385 115.05 70.053C115.05 70.7784 115.05 71.5039 115.05 72.2294V72.2782H112.662V72.2009C112.662 71.4821 112.662 70.7632 112.662 70.0444C112.662 70.03 112.66 70.0158 112.659 70.0015H112.675C112.689 70.0051 112.702 70.0075 112.716 70.0087C112.861 70.0093 113.006 70.0087 113.151 70.0087L115.048 70.0095Z" fill="#FCFCFC"/>
<path d="M112.382 70C112.382 70.0143 112.38 70.0286 112.38 70.043C112.38 70.7641 112.38 71.4853 112.38 72.2065V72.2793H110.001V70.0079C110.773 70.0079 111.546 70.0077 112.318 70.0074C112.334 70.0061 112.351 70.0037 112.367 70H112.382Z" fill="#FCFCFC"/>
<path d="M117.715 75.1536L117.266 75.202C117.266 75.2042 117.266 75.2063 117.266 75.2085L117.398 75.2253L117.423 75.2306L117.446 75.2333L117.463 75.2371L117.493 75.2411L117.51 75.2454L117.533 75.2485L117.55 75.2521L117.58 75.2571L117.597 75.2616L117.62 75.2648L117.636 75.2694L117.659 75.2727L117.676 75.2775L117.73 75.2874L117.787 75.3013L117.802 75.3039L117.819 75.3091L117.833 75.3118L117.85 75.3171L117.865 75.3198L117.906 75.3321L117.92 75.3352L117.961 75.3481L117.999 75.3581L118.016 75.366C118.148 75.4048 118.272 75.4676 118.382 75.5512C118.434 75.5892 118.484 75.6305 118.531 75.675C118.61 75.7532 118.651 75.8505 118.665 75.9618C118.708 76.3172 118.694 76.6741 118.696 77.0303C118.698 77.3744 118.696 77.7188 118.696 78.0627V78.1092H116.188V78.0627C116.188 77.4312 116.187 76.7996 116.187 76.168C116.187 76.1443 116.184 76.1205 116.183 76.0968C116.182 76.0883 116.181 76.0799 116.18 76.0714C116.17 76.0066 116.166 75.9395 116.147 75.8773C116.13 75.8202 116.103 75.7667 116.066 75.7196C116.04 75.6879 115.994 75.6642 115.952 75.6548C115.853 75.6327 115.751 75.6211 115.649 75.6052L115.592 75.6013L115.483 75.5975C115.449 75.5958 115.415 75.5934 115.381 75.5928C115.377 75.5928 115.372 75.6007 115.367 75.6056C115.367 75.6214 115.366 75.6373 115.366 75.6531V78.059C115.366 78.0749 115.366 78.0907 115.365 78.1065C115.351 78.1071 115.336 78.1082 115.322 78.1082H112.707C112.693 78.1082 112.678 78.1069 112.664 78.1062C112.664 78.0917 112.663 78.0772 112.663 78.0627C112.663 76.2389 112.663 74.4152 112.663 72.5914V72.5347C112.677 72.5335 112.687 72.5317 112.697 72.5317C113.652 72.5333 114.606 72.5351 115.56 72.5372C115.688 72.5372 115.816 72.5408 115.944 72.5442C116.11 72.5486 116.275 72.5532 116.441 72.56C116.586 72.566 116.732 72.5723 116.878 72.5837C117.023 72.5952 117.167 72.6137 117.311 72.6292L117.336 72.6344L117.358 72.6372L117.376 72.6415L117.398 72.6448L117.415 72.6491L117.469 72.6606L117.486 72.665L117.596 72.6922L117.612 72.6988C117.691 72.7243 117.771 72.7459 117.847 72.7761C117.993 72.8334 118.127 72.9126 118.254 73.0038C118.352 73.0743 118.438 73.1582 118.502 73.26C118.587 73.395 118.635 73.5449 118.664 73.7016C118.693 73.854 118.703 74.0092 118.694 74.1639C118.685 74.3583 118.658 74.5502 118.568 74.7258C118.504 74.8493 118.41 74.9453 118.28 74.9999C118.214 75.0276 118.146 75.0508 118.079 75.0761L118.031 75.0902L118.016 75.0933L117.999 75.0981L117.984 75.1003L117.968 75.1055L117.945 75.1099L117.928 75.114L117.913 75.1163L117.896 75.121L117.874 75.1246L117.857 75.129L117.834 75.132L117.809 75.1377L117.787 75.1407L117.762 75.1456L117.739 75.1482L117.715 75.1536ZM115.367 74.7221C115.474 74.7386 115.831 74.7073 115.954 74.6763C116.061 74.6495 116.125 74.583 116.155 74.4803C116.166 74.4451 116.177 74.4091 116.178 74.3726C116.183 74.2054 116.189 74.0381 116.186 73.871C116.183 73.6836 116.091 73.5774 115.908 73.5336C115.735 73.4921 115.559 73.4861 115.382 73.4851C115.377 73.4859 115.372 73.4873 115.367 73.4894L115.367 74.7221Z" fill="#FCFCFC"/>
<path d="M123.08 72.5419C123.094 72.5382 123.109 72.5313 123.124 72.5313C123.944 72.5307 124.764 72.5306 125.585 72.5309C125.595 72.5309 125.606 72.5318 125.623 72.5325C125.592 72.5849 125.564 72.6339 125.534 72.6822C125.443 72.8321 125.353 72.982 125.261 73.1311C125.119 73.3613 124.976 73.5902 124.834 73.8206C124.741 73.9719 124.65 74.1251 124.558 74.2766C124.483 74.3984 124.406 74.5189 124.331 74.6406C124.25 74.7707 124.171 74.9012 124.092 75.0321C124.086 75.0419 124.089 75.0617 124.094 75.0729C124.152 75.1801 124.211 75.2866 124.27 75.393C124.348 75.5355 124.427 75.6778 124.506 75.82C124.586 75.964 124.667 76.1074 124.747 76.2516C124.837 76.4143 124.926 76.5779 125.015 76.7408C125.09 76.8759 125.166 77.0105 125.24 77.1455C125.368 77.378 125.496 77.6105 125.625 77.8431C125.668 77.9212 125.712 77.9985 125.756 78.0763C125.761 78.0871 125.766 78.0983 125.77 78.1097C125.753 78.1105 125.74 78.1117 125.726 78.1117C124.825 78.1117 123.925 78.112 123.024 78.1126C122.992 78.1126 122.973 78.1016 122.961 78.0738C122.911 77.9609 122.86 77.8482 122.81 77.7355C122.789 77.6898 122.767 77.6449 122.746 77.5993C122.692 77.48 122.638 77.3605 122.583 77.2414C122.532 77.1288 122.478 77.0171 122.427 76.9044C122.371 76.7804 122.316 76.6555 122.26 76.5315C122.21 76.4217 122.157 76.313 122.107 76.2031C122.044 76.0621 121.982 75.9203 121.919 75.7788C121.916 75.7727 121.913 75.767 121.91 75.7611L121.9 75.7326L121.892 75.7346C121.892 75.7439 121.893 75.7533 121.893 75.7625C121.893 76.1924 121.893 76.6224 121.893 77.0526C121.893 77.4032 121.893 77.7539 121.893 78.1047C121.877 78.1059 121.861 78.1079 121.845 78.1079C120.975 78.1079 120.105 78.1079 119.235 78.1079C119.219 78.1079 119.203 78.1056 119.188 78.1044V72.5309H121.884L121.892 72.5412C121.892 73.2429 121.892 73.9447 121.892 74.6464V74.6883L121.901 74.6891L121.916 74.6464L123.073 72.5511C123.075 72.548 123.077 72.5449 123.08 72.5419Z" fill="#FCFCFC"/>
<path d="M133.584 93.2977C134.876 93.2977 135.923 92.2505 135.923 90.9587C135.923 89.6669 134.876 88.6196 133.584 88.6196C132.292 88.6196 131.245 89.6669 131.245 90.9587C131.245 92.2505 132.292 93.2977 133.584 93.2977Z" fill="#D16B28"/>
<path d="M64.6483 171.975C64.6483 171.975 69.9283 200.651 68.3918 206.633C67.1299 211.617 38.016 234.131 38.016 234.131L33.9821 230.023C33.9821 230.023 42.203 220.9 46.295 212.473C49.0406 206.813 55.9416 202.398 55.9416 202.398L47.6256 176.785L64.6483 171.975Z" fill="#FFD4C9"/>
<path d="M56.6861 205.952L55.0387 200.144L56.6861 205.952Z" fill="#CC725A"/>
<path d="M55.0387 200.154C55.1911 201.149 55.4278 202.13 55.7462 203.085C55.9814 204.064 56.2957 205.023 56.6861 205.952C56.5275 204.958 56.2909 203.978 55.9785 203.021C55.7423 202.042 55.428 201.083 55.0387 200.154Z" fill="#844031"/>
<path d="M40.3128 235.176L39.9115 235.557C39.9115 235.557 43.5758 244.992 42.3456 246.259L29.6736 232.616L34.3886 228.587C34.8436 230.047 35.6084 231.392 36.6309 232.529C37.6533 233.666 38.9092 234.569 40.3128 235.176Z" fill="#D16B28"/>
<g opacity="0.6">
<path d="M34.2301 231.317C34.0672 231.224 33.876 231.193 33.6923 231.231C33.5086 231.269 33.345 231.373 33.2322 231.523C33.1341 231.681 33.0996 231.872 33.1359 232.055C33.1721 232.238 33.2763 232.4 33.4276 232.51C33.6 232.61 33.8031 232.642 33.998 232.601C34.1929 232.56 34.3658 232.449 34.4836 232.288C34.5716 232.113 34.5878 231.91 34.5286 231.722C34.4695 231.535 34.3397 231.378 34.1668 231.285" fill="white"/>
</g>
<g opacity="0.6">
<path d="M29.6842 232.616L30.8194 231.649L42.5357 245.076C42.5357 245.076 42.8367 245.932 42.3456 246.259L29.6842 232.616Z" fill="white"/>
</g>
<path d="M39.9168 235.641C39.8482 235.699 39.5102 235.398 38.9875 235.266C38.4648 235.134 38.016 235.224 38.016 235.14C38.016 235.055 38.4595 234.791 39.072 234.96C39.6845 235.129 39.9907 235.599 39.9168 235.641Z" fill="#263238"/>
<path d="M40.656 237.6C40.6085 237.674 40.2283 237.494 39.732 237.526C39.2357 237.558 38.8819 237.774 38.8238 237.706C38.7657 237.637 39.1037 237.241 39.7161 237.209C40.3286 237.178 40.7141 237.563 40.656 237.6Z" fill="#263238"/>
<path d="M39.695 240.023C39.6211 239.976 39.8693 239.575 40.392 239.406C40.9147 239.237 41.353 239.406 41.3213 239.495C41.2896 239.585 40.92 239.564 40.4923 239.707C40.0646 239.849 39.7637 240.081 39.695 240.023Z" fill="#263238"/>
<path d="M47.3193 175.94L46.7543 204.019L44.0721 243.239H37.2081C37.2081 243.239 34.1246 224.896 34.2671 215.308C34.4097 205.719 34.3199 202.192 34.2671 201.015C34.2143 199.837 30.8932 186.954 30.1646 177.339C29.4359 167.724 34.2671 165.195 34.2671 165.195L47.3193 175.94Z" fill="#FFD4C9"/>
<path d="M47.3193 175.94L47.1081 175.755C46.955 175.628 46.7438 175.444 46.4587 175.227L43.9296 173.115L34.32 165.142L34.2777 165.105L34.2408 165.132C33.3948 165.678 32.6748 166.398 32.1288 167.244C31.5346 168.146 31.0707 169.127 30.7507 170.158C30.1101 172.435 29.8883 174.809 30.096 177.165C30.5743 182.572 31.3943 187.944 32.5512 193.248C32.8574 194.679 33.1636 196.136 33.4804 197.614C33.6353 198.354 33.7937 199.098 33.9556 199.848C34.0296 200.217 34.114 200.608 34.1563 200.967C34.1985 201.326 34.188 201.738 34.1985 202.129C34.2619 205.239 34.2408 208.465 34.1985 211.717C34.1985 213.354 34.1352 215.007 34.1616 216.686C34.1616 217.525 34.2144 218.37 34.2355 219.215L34.3939 221.76C34.6473 225.171 35.0275 228.624 35.4499 232.13C35.9304 235.921 36.5059 239.649 37.0708 243.281V243.381H44.183V243.271C44.8377 233.656 45.4449 224.643 45.994 216.533C46.2686 212.483 46.522 208.655 46.7702 205.091C46.8441 204.199 46.8547 203.322 46.8652 202.451C46.8758 201.58 46.9022 200.745 46.9128 199.922C46.9444 198.269 46.9761 196.685 47.0025 195.17C47.1081 189.156 47.1926 184.351 47.2507 181.035C47.2507 179.388 47.2929 178.115 47.3088 177.244C47.3088 176.822 47.3088 176.494 47.3088 176.267C47.3088 176.04 47.3088 175.94 47.3088 175.94C47.3088 175.94 47.3088 176.056 47.3088 176.278C47.3088 176.5 47.3088 176.832 47.2771 177.265C47.2771 178.137 47.2243 179.414 47.182 181.062C47.1081 184.372 46.9972 189.177 46.86 195.186C46.8283 196.689 46.7931 198.264 46.7544 199.911C46.7544 200.735 46.7227 201.58 46.7016 202.435C46.6804 203.29 46.7016 204.167 46.596 205.075C46.3478 208.639 46.068 212.467 45.7987 216.517C45.239 224.627 44.6212 233.635 43.956 243.244L44.0774 243.133H37.2134L37.3348 243.234C36.7382 239.606 36.1944 235.884 35.7139 232.093C35.2704 228.597 34.8902 225.139 34.6579 221.739C34.6051 220.889 34.5523 220.039 34.4995 219.199C34.4467 218.36 34.4203 217.515 34.4203 216.681C34.4203 215.012 34.452 213.349 34.4572 211.712C34.4889 208.433 34.51 205.233 34.4572 202.118C34.4572 201.728 34.4572 201.342 34.4097 200.946C34.3622 200.55 34.2777 200.175 34.2038 199.795C34.0401 199.045 33.8817 198.301 33.7233 197.562L32.7888 193.2C31.6212 187.913 30.7853 182.557 30.286 177.165C30.0821 174.836 30.3004 172.489 30.9302 170.238C31.2363 169.227 31.6824 168.263 32.2555 167.376C32.7814 166.531 33.4839 165.811 34.3147 165.264H34.2302L43.8609 173.147L46.427 175.259L47.087 175.787L47.3193 175.94Z" fill="#844031"/>
<path d="M44.9381 241.069V241.597C44.9381 241.597 53.8772 245.145 53.9775 246.835H36.2578L36.506 240.937C37.8199 241.562 39.2528 241.898 40.7077 241.92C42.1626 241.943 43.6053 241.653 44.9381 241.069Z" fill="#D16B28"/>
<g opacity="0.6">
<path d="M38.3011 242.806C38.1255 242.853 37.974 242.965 37.8763 243.118C37.7786 243.271 37.7418 243.456 37.7731 243.635C37.8192 243.806 37.9291 243.954 38.0802 244.047C38.2313 244.14 38.4123 244.172 38.5862 244.137C38.7675 244.082 38.9221 243.962 39.0197 243.8C39.1174 243.638 39.151 243.446 39.1142 243.26C39.0498 243.085 38.9191 242.942 38.7502 242.862C38.5814 242.782 38.3879 242.771 38.2113 242.832" fill="white"/>
</g>
<g opacity="0.6">
<path d="M36.2631 246.819L36.3211 245.398L53.2858 245.926C53.2858 245.926 54.0725 246.27 53.9827 246.824L36.2631 246.819Z" fill="white"/>
</g>
<path d="M45.0015 241.644C45.0015 241.729 44.5685 241.766 44.1408 242.046C43.7131 242.326 43.4914 242.69 43.4069 242.653C43.3224 242.616 43.4597 242.125 43.9824 241.792C44.5051 241.46 45.0226 241.565 45.0015 241.644Z" fill="#263238"/>
<path d="M46.86 242.41C46.86 242.495 46.5062 242.643 46.2105 243.007C45.9148 243.371 45.8356 243.762 45.7459 243.757C45.6561 243.751 45.6086 243.266 45.9782 242.817C46.3478 242.368 46.86 242.352 46.86 242.41Z" fill="#263238"/>
<path d="M47.916 244.638C47.8368 244.638 47.7154 244.227 47.916 243.751C48.1167 243.276 48.5443 243.086 48.5813 243.16C48.6183 243.234 48.3701 243.487 48.1906 243.878C48.011 244.269 48.0005 244.628 47.916 244.638Z" fill="#263238"/>
<path d="M55.2764 84.5591C54.2443 85.2053 53.3839 86.0918 52.7688 87.1427C52.1537 88.1936 51.8021 89.3778 51.744 90.5941C51.6965 91.7716 51.8655 93.1391 51.0048 93.9469C50.1442 94.7548 48.6816 94.5436 47.8368 95.3672C46.8653 96.3388 47.3933 98.0072 46.934 99.3061C46.7008 99.9082 46.2608 100.407 45.6927 100.714C45.1247 101.021 44.4659 101.115 43.8346 100.98C45.1916 102.374 46.9073 103.366 48.7925 103.847L50.4716 102.141C50.1852 102.466 50.0156 102.878 49.9898 103.31C49.9639 103.743 50.0833 104.171 50.329 104.528C50.8402 105.232 51.5471 105.77 52.3618 106.075C54.2587 106.91 56.323 107.294 58.3932 107.198C60.4634 107.102 62.4833 106.528 64.2946 105.521" fill="#263238"/>
<path d="M76.0321 97.3949C75.7578 96.4889 75.5322 95.5689 75.3562 94.6388C75.1609 92.6113 76.3805 90.4993 75.6308 88.609C75.1028 87.2626 73.7088 86.497 72.3836 85.8898C71.0583 85.2826 69.6168 84.781 68.6876 83.6511C68.0223 82.8221 67.7108 81.7556 67.0455 80.9266C66.1004 79.7439 64.5639 79.2053 63.0749 78.9361C61.5454 78.6104 59.9577 78.6849 58.4655 79.1525C57.7258 79.3949 57.0536 79.8079 56.5032 80.3583C55.9529 80.9087 55.5398 81.5809 55.2975 82.3205C55.0916 83.0492 55.0969 83.8359 54.7695 84.5276C54.4421 85.2193 53.7135 85.8265 53.2647 86.5181C52.7908 87.2637 52.5773 88.1454 52.6575 89.0252C52.7378 89.905 53.1072 90.7334 53.7082 91.381L62.7212 106.276C64.8332 107.369 70.3508 106.973 72.2621 105.531C74.1735 104.09 76.502 99.7393 76.0321 97.3949Z" fill="#263238"/>
<path d="M54.1886 89.6703C54.9806 86.6184 57.7632 83.2181 60.7834 84.1421L69.9336 88.44C70.3755 88.5741 70.7507 88.8697 70.9846 89.2679C71.2184 89.6661 71.2937 90.1378 71.1955 90.589L66.9187 113.293C66.9454 113.287 66.9733 113.289 66.9985 113.3C67.0237 113.311 67.0451 113.329 67.0595 113.352C67.074 113.375 67.081 113.402 67.0794 113.429C67.0778 113.457 67.0678 113.483 67.0507 113.504C65.7149 115.035 59.4845 121.667 54.1781 118.784C52.9954 118.151 54.817 114.391 54.8381 112.923L55.4294 109.227C55.7726 107.353 55.9205 106.587 55.9152 106.587C55.9099 106.587 52.0925 105.162 52.272 99.8501C52.3618 97.2418 53.328 93.0653 54.1886 89.6703Z" fill="#FFD4C9"/>
<path d="M55.0229 94.4276C54.9887 94.6019 55.0252 94.7826 55.1242 94.9301C55.2231 95.0776 55.3766 95.1798 55.5509 95.2143C55.6338 95.2373 55.7204 95.2435 55.8057 95.2325C55.891 95.2214 55.9732 95.1935 56.0475 95.1501C56.1218 95.1068 56.1867 95.0491 56.2384 94.9803C56.29 94.9115 56.3273 94.8331 56.3482 94.7496C56.3823 94.5753 56.3459 94.3946 56.2469 94.2471C56.1479 94.0996 55.9944 93.9974 55.8202 93.9629C55.7373 93.9399 55.6506 93.9337 55.5653 93.9448C55.48 93.9558 55.3978 93.9838 55.3235 94.0271C55.2492 94.0704 55.1843 94.1281 55.1327 94.1969C55.0811 94.2657 55.0437 94.3441 55.0229 94.4276Z" fill="#263238"/>
<path d="M61.4328 96.0963C61.3985 96.2713 61.4348 96.4527 61.5337 96.601C61.6326 96.7494 61.7861 96.8526 61.9608 96.8883C62.0436 96.9113 62.1303 96.9175 62.2156 96.9065C62.3009 96.8954 62.3831 96.8675 62.4574 96.8241C62.5317 96.7808 62.5966 96.7231 62.6482 96.6543C62.6999 96.5855 62.7372 96.5071 62.758 96.4236C62.7922 96.2493 62.7558 96.0686 62.6568 95.9211C62.5578 95.7736 62.4043 95.6714 62.23 95.6369C62.1475 95.6131 62.061 95.6061 61.9758 95.6165C61.8905 95.6268 61.8082 95.6542 61.7338 95.6971C61.6593 95.74 61.5943 95.7975 61.5426 95.866C61.4909 95.9346 61.4535 96.0129 61.4328 96.0963Z" fill="#263238"/>
<path d="M54.384 92.0676C54.4421 92.1996 55.1074 91.8775 55.873 92.0676C56.6386 92.2576 57.0716 92.8596 57.1877 92.7698C57.3039 92.68 57.1877 92.5164 57.0188 92.2418C56.7731 91.8976 56.4139 91.6511 56.0043 91.5458C55.5948 91.4405 55.1612 91.4832 54.78 91.6663C54.4949 91.8352 54.384 92.0095 54.384 92.0676Z" fill="#263238"/>
<path d="M61.248 93.6777C61.3272 93.7991 61.9925 93.4295 62.832 93.5615C63.6715 93.6935 64.2048 94.2321 64.3104 94.137C64.416 94.042 64.3104 93.8836 64.0623 93.6354C63.7531 93.3154 63.3471 93.1062 62.907 93.0403C62.467 92.9745 62.0175 93.0556 61.6282 93.2711C61.3061 93.4559 61.1847 93.6196 61.248 93.6777Z" fill="#263238"/>
<path d="M58.0378 98.2928C57.685 98.1058 57.3109 97.9622 56.9237 97.8651C56.7442 97.807 56.5805 97.7383 56.5752 97.6116C56.5913 97.4166 56.669 97.2317 56.797 97.0836L57.6048 95.8059C58.7294 93.979 59.5848 92.4689 59.5109 92.4214C58.703 93.4367 57.9757 94.5136 57.3355 95.6422L56.5541 96.9358C56.3957 97.1328 56.3133 97.3801 56.3218 97.6328C56.3356 97.7019 56.3652 97.7669 56.4083 97.8227C56.4513 97.8786 56.5066 97.9238 56.5699 97.9548C56.6635 98.0015 56.7629 98.0353 56.8656 98.0552C57.2441 98.186 57.6382 98.2659 58.0378 98.2928Z" fill="#263238"/>
<path d="M55.9151 106.619C58.3374 107.118 60.8504 106.935 63.1751 106.091C63.1751 106.091 60.741 109.375 55.6722 107.892L55.9151 106.619Z" fill="#844031"/>
<path d="M59.986 100.642C59.9224 100.458 59.8134 100.292 59.6692 100.161C59.4868 100.047 59.2701 100 59.0567 100.029C58.7429 100.038 58.4406 100.149 58.1961 100.346C58.0749 100.445 57.9825 100.575 57.9286 100.721C57.8747 100.868 57.8613 101.027 57.8899 101.18C57.9374 101.492 58.3651 101.708 58.666 101.798C58.9711 101.876 59.2938 101.846 59.5795 101.714C59.7037 101.675 59.8166 101.607 59.9086 101.515C60.0006 101.423 60.0688 101.31 60.1075 101.186C60.1194 100.997 60.0773 100.808 59.986 100.642Z" fill="#844031"/>
<path d="M59.9545 99.6123C59.8436 99.6123 59.6905 100.357 58.8985 100.779C58.1065 101.202 57.3145 100.953 57.3145 101.059C57.3145 101.165 57.4676 101.244 57.8108 101.323C58.2635 101.415 58.7342 101.346 59.1413 101.128C59.5295 100.918 59.8211 100.566 59.9545 100.146C60.0601 99.8288 60.0073 99.6176 59.9545 99.6123Z" fill="#263238"/>
<path d="M61.4803 91.7402C61.512 91.9462 62.2406 91.9937 63.0643 92.2682C63.888 92.5428 64.511 92.886 64.6483 92.7329C64.7117 92.659 64.6483 92.4583 64.3949 92.2049C64.079 91.9009 63.6953 91.6765 63.2755 91.5502C62.8575 91.4188 62.4146 91.3862 61.9819 91.4551C61.6493 91.5185 61.4697 91.6399 61.4803 91.7402Z" fill="#263238"/>
<path d="M55.4665 89.2636C55.5774 89.4536 56.1687 89.3955 56.8446 89.517C57.5204 89.6384 58.0642 89.8655 58.2279 89.7229C58.3018 89.6543 58.2279 89.4748 58.0273 89.2741C57.727 89.0185 57.3612 88.8521 56.9713 88.7936C56.5832 88.7195 56.1819 88.7579 55.815 88.9045C55.5246 89.0207 55.4401 89.1738 55.4665 89.2636Z" fill="#263238"/>
<path d="M71.9506 89.4275C71.4745 88.672 70.7751 88.0834 69.9494 87.7431C66.5596 85.9614 62.9681 84.5929 59.2522 83.667C58.6925 84.3851 59.004 85.4886 59.6482 86.1328C60.3502 86.7141 61.1396 87.181 61.9872 87.5161C62.8003 87.9332 63.6134 88.5193 63.8616 89.3958C64.1098 90.2723 63.6979 91.3441 63.9197 92.2839C64.2998 93.9102 66.4171 94.6599 66.792 96.2862C67.0718 97.5111 66.264 98.6939 65.9314 99.9135C65.7701 100.534 65.7433 101.181 65.8527 101.813C65.9621 102.444 66.2052 103.045 66.5656 103.575C66.9261 104.105 67.3956 104.552 67.9428 104.886C68.4899 105.219 69.1021 105.432 69.7382 105.51C70.5091 101.068 71.2818 96.6294 72.0562 92.1942C72.2198 91.2649 72.3677 90.2881 71.9506 89.4275Z" fill="#263238"/>
<path d="M79.6541 101.756C79.0205 101.043 78.2021 100.394 78.0226 99.4541C77.7639 98.0918 79.0047 96.661 78.4609 95.3832C77.9645 94.2163 76.1271 94.0632 75.673 92.8752C75.3245 91.9512 75.9317 91.2384 75.8473 90.4517C75.7381 90.0237 75.4976 89.6407 75.1595 89.3566C74.8214 89.0724 74.4027 88.9015 73.9623 88.8677L66.8396 97.0094C65.9314 99.9134 65.1764 101.429 65.6146 103.235C65.9272 104.207 66.1326 105.211 66.2271 106.228C66.2704 106.74 66.1768 107.254 65.956 107.718C65.7352 108.182 65.3951 108.579 64.9705 108.868C68.582 109.576 72.2252 108.06 75.5991 106.577L79.1684 104.993C79.5546 104.861 79.9013 104.634 80.1769 104.333C80.7841 103.583 80.2877 102.469 79.6541 101.756Z" fill="#263238"/>
<path d="M75.7945 105.685C75.6621 105.709 75.5277 105.719 75.3932 105.716C75.0088 105.708 74.6286 105.635 74.2686 105.5C73.8237 105.333 73.4171 105.078 73.0734 104.75C72.7296 104.422 72.4558 104.028 72.2683 103.592C72.0809 103.155 71.9837 102.685 71.9827 102.21C71.9816 101.735 72.0767 101.264 72.2622 100.827C72.4825 100.366 72.763 99.9364 73.0964 99.5493C73.4469 99.1503 73.7369 98.702 73.957 98.2187C74.0767 97.9718 74.1388 97.701 74.1388 97.4267C74.1388 97.1524 74.0767 96.8816 73.957 96.6347C73.6772 96.1542 73.07 95.9694 72.5262 95.6737C72.2165 95.5372 71.9628 95.2988 71.8072 94.9982C71.6516 94.6976 71.6035 94.3528 71.6708 94.0211C71.8262 93.3857 72.0383 92.7654 72.3044 92.1678C72.4122 91.8707 72.4519 91.5531 72.4206 91.2385C72.3747 90.9262 72.2172 90.641 71.977 90.436C71.4455 90.0549 70.8224 89.8217 70.1713 89.7601C69.5108 89.6594 68.8862 89.3944 68.355 88.9893C67.8453 88.5864 67.4563 88.0513 67.2303 87.4422C67.0447 86.8602 66.952 86.2526 66.9558 85.6417C66.9574 85.076 66.9008 84.5116 66.7868 83.9574C66.653 83.4476 66.4118 82.9724 66.0793 82.5635C65.4655 81.8286 64.6203 81.3241 63.6822 81.1326C62.9069 80.9818 62.1047 81.0551 61.3695 81.3438C60.809 81.5528 60.2905 81.8604 59.8383 82.252C59.4566 82.5913 59.1179 82.9761 58.8298 83.3977C58.8298 83.3977 58.8298 83.3608 58.8721 83.3027C58.9143 83.2446 58.9566 83.1601 59.0305 83.0493C59.248 82.7341 59.5013 82.4453 59.7855 82.1886C60.2367 81.7772 60.7592 81.4516 61.3273 81.2277C62.0835 80.9215 62.9114 80.8373 63.7138 80.9848C64.6916 81.1729 65.5751 81.6911 66.2166 82.4526C66.5665 82.8808 66.8236 83.3771 66.9716 83.9099C67.0927 84.4756 67.1529 85.0527 67.1511 85.6312C67.1511 86.2223 67.2419 86.81 67.4204 87.3736C67.6371 87.9428 68.0016 88.444 68.4764 88.8256C68.9835 89.2088 69.5792 89.4577 70.2082 89.5489C70.8929 89.6271 71.5439 89.8879 72.0932 90.304C72.3758 90.5396 72.5634 90.8698 72.6212 91.2333C72.659 91.5812 72.6175 91.9332 72.4998 92.2629C72.2343 92.8475 72.024 93.4555 71.8714 94.0792C71.8204 94.3712 71.861 94.6718 71.9876 94.9398C72.1339 95.1935 72.3527 95.3976 72.6159 95.5259C72.8746 95.6685 73.1439 95.7846 73.429 95.9325C73.7094 96.0775 73.9462 96.2943 74.1154 96.5608C74.2456 96.8318 74.3132 97.1287 74.3132 97.4293C74.3132 97.73 74.2456 98.0269 74.1154 98.2979C73.8871 98.7981 73.5845 99.2609 73.2178 99.6707C72.8896 100.041 72.6142 100.455 72.3994 100.901C72.2189 101.32 72.1221 101.77 72.1143 102.226C72.1022 103.015 72.3634 103.784 72.8535 104.402C73.2318 104.868 73.7223 105.232 74.2791 105.458C74.7652 105.629 75.2795 105.706 75.7945 105.685Z" fill="#455A64"/>
<path d="M81.3859 99.9556C81.437 100.052 81.4659 100.158 81.4704 100.267C81.4943 100.584 81.4024 100.899 81.2117 101.154C81.0734 101.34 80.8923 101.491 80.6837 101.592C80.432 101.704 80.1542 101.745 79.8811 101.709C79.5474 101.665 79.2323 101.53 78.9705 101.318C78.7087 101.107 78.5104 100.827 78.3975 100.51C78.2627 100.146 78.2175 99.7547 78.2655 99.3695C78.3279 98.9605 78.4658 98.5666 78.672 98.2079C79.0522 97.4476 79.6647 96.74 79.7861 95.8213C79.8289 95.5963 79.8261 95.3649 79.7781 95.1409C79.73 94.917 79.6376 94.7049 79.5063 94.5172C79.1706 94.1684 78.7123 93.9638 78.2285 93.9469C77.6842 93.9281 77.1477 93.8119 76.6445 93.6037C76.3875 93.4641 76.1821 93.2457 76.0584 92.9807C75.9388 92.7191 75.8793 92.434 75.8842 92.1464C75.9187 91.5981 76.0252 91.0566 76.201 90.536C76.3382 90.043 76.3688 89.5264 76.2907 89.0207C76.1356 88.059 75.6202 87.1925 74.8493 86.5972C74.11 86.1124 73.2636 85.8152 72.3835 85.7312C71.5984 85.6395 70.8323 85.4257 70.1131 85.0976C69.5323 84.7976 69.0171 84.3848 68.5978 83.8832C68.2813 83.5059 68.0248 83.0821 67.8375 82.6266C67.6646 82.2451 67.5627 81.8354 67.5365 81.4175C67.6247 81.8207 67.7502 82.2149 67.9114 82.5949C68.3753 83.6212 69.1765 84.4578 70.1818 84.9656C70.892 85.2736 71.6452 85.4713 72.4152 85.5517C73.3249 85.6353 74.2003 85.9398 74.9655 86.4388C75.7845 87.0606 76.3329 87.9738 76.4967 88.989C76.578 89.5175 76.5474 90.0571 76.4069 90.573C76.242 91.0763 76.1375 91.5974 76.0954 92.1253C76.0772 92.3772 76.1281 92.6293 76.2425 92.8545C76.3569 93.0796 76.5306 93.2693 76.7448 93.4031C77.219 93.5949 77.7227 93.7038 78.2338 93.7252C78.4999 93.7355 78.7614 93.7982 79.0033 93.9096C79.2452 94.0211 79.4627 94.1791 79.6435 94.3746C79.7913 94.5839 79.8955 94.8207 79.9499 95.0711C80.0044 95.3214 80.0079 95.5801 79.9603 95.8319C79.8828 96.2993 79.7161 96.7474 79.4693 97.1519C79.2423 97.5426 78.9994 97.9069 78.8093 98.2712C78.6126 98.6159 78.4802 98.9933 78.4186 99.3853C78.3737 99.7412 78.4117 100.103 78.5295 100.441C78.6312 100.736 78.8113 100.997 79.0504 101.197C79.2894 101.397 79.5785 101.528 79.8864 101.577C80.1386 101.614 80.3962 101.581 80.6309 101.481C80.8257 101.391 80.9959 101.255 81.1272 101.085C81.3166 100.849 81.4175 100.554 81.4123 100.251C81.4105 100.152 81.4017 100.053 81.3859 99.9556Z" fill="#263238"/>
<path d="M42.6676 97.7064C42.5293 98.0051 42.4958 98.3419 42.5726 98.662C42.6123 98.8454 42.6927 99.0174 42.8078 99.1655C42.923 99.3135 43.07 99.4338 43.2379 99.5174C43.4653 99.6142 43.7152 99.6457 43.9596 99.6084C44.2039 99.571 44.433 99.4664 44.6212 99.3062C44.8373 99.1187 44.9796 98.8604 45.0225 98.5776C45.0697 98.265 45.059 97.9464 44.9908 97.6377C44.8694 96.9988 44.5526 96.2808 44.7057 95.4782C44.7796 95.0719 44.9382 94.6856 45.1711 94.3445C45.4039 94.0034 45.7059 93.7151 46.0574 93.4982C46.4262 93.2685 46.8344 93.1092 47.2612 93.0283C47.6997 92.9606 48.1449 92.9482 48.5865 92.9913C49.0114 93.0334 49.4394 93.0334 49.8643 92.9913C50.2642 92.957 50.6387 92.781 50.9203 92.495C51.1759 92.1948 51.3423 91.829 51.4008 91.439C51.464 91.0639 51.4746 90.6818 51.4324 90.3038C51.3149 89.5849 51.2882 88.854 51.3532 88.1284C51.464 87.4896 51.7617 86.898 52.2086 86.4283C52.5856 86.0609 53.0279 85.7672 53.5128 85.5624C53.8786 85.4156 54.2318 85.239 54.5688 85.0344C54.8406 84.8487 55.0737 84.612 55.2552 84.3374C55.257 84.3585 55.257 84.3797 55.2552 84.4008C55.2313 84.4601 55.2012 84.5167 55.1654 84.5697C55.0254 84.7784 54.846 84.9577 54.6374 85.0977C54.3119 85.3197 53.9694 85.5157 53.6131 85.6838C53.1271 85.9026 52.6866 86.2107 52.3142 86.592C51.8958 87.0422 51.6202 87.6062 51.5222 88.2129C51.4715 88.9186 51.507 89.6278 51.6278 90.3249C51.6724 90.7222 51.6618 91.1238 51.5961 91.5182C51.5313 91.9422 51.3483 92.3393 51.0681 92.664C50.7541 92.9847 50.3373 93.1847 49.8907 93.2289C49.4517 93.2713 49.0097 93.2713 48.5707 93.2289C48.1486 93.1863 47.7229 93.1969 47.3035 93.2606C46.9009 93.3341 46.5158 93.4828 46.1683 93.6988C45.8392 93.8956 45.5547 94.1587 45.3329 94.4714C45.1111 94.7841 44.9568 95.1396 44.88 95.5152C44.7321 96.2438 45.0225 96.9302 45.1492 97.6008C45.2124 97.934 45.2124 98.276 45.1492 98.6092C45.0919 98.9255 44.9279 99.2125 44.6846 99.4224C44.4741 99.5965 44.2187 99.7076 43.9479 99.7431C43.677 99.7786 43.4017 99.737 43.1534 99.623C42.861 99.4656 42.6347 99.2085 42.5156 98.8986C42.3964 98.5886 42.3923 98.2462 42.504 97.9334C42.5426 97.8474 42.5983 97.7702 42.6676 97.7064Z" fill="#263238"/>
<path d="M66.1267 155.232L36.3634 149.149C36.3634 149.149 32.076 153.12 30.3864 158.236C26.8858 168.823 32.8205 196.944 32.8205 196.944L47.7101 195.888L69.5482 194.668C69.5482 183.58 66.3326 161.774 66.3326 161.774L66.1267 155.232Z" fill="#FE8D25"/>
<path d="M74.4903 114.676L67.3517 111.54C67.3517 111.54 63.3072 115.299 58.6186 113.858C55.8835 113.018 55.2922 110.114 55.2922 110.114L46.9339 110.589L43.296 126.482L43.1746 135.537L35.2229 148.896C35.2229 148.896 45.2549 163.015 67.8111 159.224L69.2314 141.541C69.2314 141.541 72.7056 132.068 72.864 128.911C73.0224 125.754 72.864 121.968 72.864 121.968L74.4903 114.676Z" fill="#FCFCFC"/>
<path d="M60.3241 159.879C57.9308 159.884 55.5424 159.663 53.1908 159.219C49.6252 158.543 46.1961 157.282 43.0426 155.486C40.8936 154.258 38.9069 152.767 37.129 151.045C36.4344 150.381 35.7935 149.662 35.2124 148.896L43.1694 135.548L43.2961 126.477L46.934 110.579L55.3028 110.104C55.4395 110.65 55.6547 111.173 55.9417 111.656C56.5303 112.694 57.4878 113.473 58.6239 113.837C60.6673 114.406 62.8499 114.185 64.7382 113.219C65.6802 112.773 66.5576 112.201 67.3465 111.519L74.4903 114.687L72.8641 121.968C72.8641 122.068 73.0172 125.817 72.8641 128.917C72.711 132.016 69.2948 141.377 69.2314 141.552L67.8111 159.24C65.3373 159.659 62.8331 159.872 60.3241 159.879ZM35.2388 148.896C35.82 149.649 36.4591 150.355 37.1502 151.008C38.9266 152.728 40.9115 154.218 43.0585 155.443C47.9161 158.231 56.1476 161.14 67.8006 159.187L69.2209 141.509C69.2578 141.414 72.6951 132.005 72.8535 128.885C73.0119 125.764 72.8535 121.973 72.8535 121.936L74.4745 114.666L67.357 111.54C66.5662 112.218 65.6892 112.788 64.7487 113.235C63.8703 113.663 62.9321 113.955 61.9662 114.101C60.8462 114.271 59.7024 114.188 58.6186 113.858C57.474 113.493 56.5099 112.709 55.9206 111.662C55.6327 111.18 55.4175 110.659 55.2817 110.115L46.9446 110.59L43.2961 126.483L43.1799 135.538L35.2388 148.896Z" fill="#263238"/>
<path d="M48.1588 135.263C48.2816 135.44 48.4232 135.603 48.5812 135.749C48.8558 136.05 49.2782 136.467 49.822 136.963C52.6635 139.549 55.9763 141.564 59.5795 142.898C60.2659 143.152 60.8361 143.336 61.2321 143.426C61.4324 143.496 61.6394 143.546 61.8499 143.574C61.6612 143.475 61.4631 143.395 61.2585 143.336C60.8731 143.199 60.3187 142.993 59.6428 142.719C56.1022 141.307 52.8222 139.313 49.9382 136.821C49.4102 136.34 48.9455 135.944 48.6446 135.664C48.4968 135.514 48.3341 135.38 48.1588 135.263Z" fill="#263238"/>
<g opacity="0.3">
<path d="M39.9221 141.008C40.4533 141.235 41.0367 141.314 41.609 141.233C42.1814 141.153 42.721 140.918 43.1693 140.554C43.9604 139.783 44.5919 138.865 45.0279 137.85L48.4704 131.102C52.5071 129.896 56.8378 130.131 60.72 131.768C61.321 131.983 61.8635 132.335 62.304 132.797C62.809 133.527 63.0931 134.387 63.1224 135.274C63.3812 137.386 63.6082 139.566 64.4372 141.541C65.2661 143.516 66.8079 145.316 68.8724 145.886L69.997 136.298L66.866 128.679L51.8074 125.891L45.5823 128.225L41.3583 138.547L39.9221 141.008Z" fill="black"/>
</g>
<path d="M73.6296 114.444C73.6296 114.444 77.183 114.829 78.6033 119.528C79.6593 122.971 80.4408 129.597 80.4408 129.597L71.7024 130.062V121.614L73.6296 114.444Z" fill="#FCFCFC"/>
<path d="M71.6865 130.078V121.63L73.6137 114.439C74.316 114.559 74.9853 114.825 75.5779 115.22C77.0751 116.241 78.1488 117.773 78.598 119.529C79.654 122.934 80.4302 129.534 80.4408 129.603L71.6865 130.078ZM71.6865 121.63V130.047L80.3985 129.587C80.3563 129.239 79.5643 122.861 78.5611 119.529C78.116 117.778 77.0454 116.251 75.5515 115.236C74.9655 114.848 74.3059 114.583 73.6137 114.46L71.6865 121.63Z" fill="#FFBD00"/>
<path d="M46.934 110.59C45.2655 110.587 43.6538 111.196 42.4037 112.301C40.5082 114.112 36.3634 121.044 36.3634 121.044L44.8114 123.89L47.52 115.495L46.934 110.59Z" fill="#FCFCFC"/>
<path d="M44.8008 123.911L36.3528 121.055C36.395 120.981 40.524 114.101 42.4037 112.311C43.2454 111.529 44.2838 110.991 45.408 110.754C45.9167 110.634 46.4378 110.575 46.9603 110.579L47.52 115.495L44.8008 123.911ZM36.3792 121.039L44.7849 123.874L47.483 115.495L46.9233 110.606C45.263 110.607 43.6601 111.214 42.4142 112.311C40.5821 114.048 36.5904 120.685 36.3792 121.039Z" fill="#FFBD00"/>
<path d="M74.0572 123.335C73.8794 123.653 73.7343 123.987 73.6243 124.333C73.3444 125.041 73.0276 125.865 72.6739 126.767C72.3201 127.67 71.9875 128.483 71.7023 129.191C71.5453 129.519 71.4232 129.862 71.338 130.215C71.5535 129.92 71.7309 129.599 71.866 129.26C72.1564 128.658 72.5313 127.808 72.922 126.857C73.3127 125.907 73.6031 125.03 73.809 124.391C73.9341 124.051 74.0174 123.696 74.0572 123.335Z" fill="#263238"/>
<path d="M45.899 117.168C45.4222 118.484 45.0203 119.826 44.6952 121.187C44.2905 122.525 43.9661 123.886 43.7236 125.263C44.1999 123.949 44.6019 122.609 44.9275 121.25C45.3318 119.91 45.6562 118.547 45.899 117.168Z" fill="#263238"/>
<path d="M63.2226 112.501L62.0452 125.173C62.0226 125.383 61.9178 125.576 61.7536 125.71C61.5895 125.843 61.3793 125.906 61.1687 125.886L53.0217 125.268C52.8088 125.254 52.6095 125.159 52.4657 125.001C52.3219 124.844 52.2449 124.636 52.2508 124.423L53.0217 111.102C53.0283 110.988 53.0586 110.878 53.1108 110.777C53.1629 110.676 53.2357 110.588 53.3244 110.517C53.413 110.446 53.5156 110.395 53.6254 110.367C53.7351 110.338 53.8497 110.333 53.9615 110.352L62.5151 111.614C62.7243 111.643 62.9143 111.751 63.046 111.916C63.1776 112.081 63.2409 112.291 63.2226 112.501Z" fill="#263238"/>
<path d="M58.3757 118.489C58.5869 118.547 63.1805 120.205 63.1805 120.205L69.2841 124.814L71.7024 130.062L67.2513 135.485L66.3643 129.951C65.3093 130.1 64.236 130.057 63.1963 129.825C61.776 129.434 57.2616 128.272 57.2616 128.272L55.1496 126.593C54.9162 126.064 54.7529 125.507 54.6638 124.935C54.6729 124.834 54.711 124.738 54.7734 124.658C54.8358 124.578 54.92 124.518 55.0158 124.484C55.1116 124.451 55.215 124.446 55.3137 124.47C55.4123 124.493 55.502 124.545 55.572 124.619C56.0049 124.972 59.2997 125.627 60.1814 125.448C60.1814 125.448 55.4294 124.249 54.9437 123.378C54.4579 122.507 54.7747 121.947 55.5297 122.084C56.2848 122.222 58.967 123.109 59.8065 123.188C60.6461 123.267 61.6757 123.457 61.9555 123.098C62.2353 122.739 61.6704 122.295 61.6704 122.295L60.8942 121.472C60.8942 121.472 57.4939 120.247 57.4147 119.481C57.3952 119.349 57.4064 119.214 57.4473 119.087C57.4882 118.96 57.5578 118.844 57.6506 118.748C57.7435 118.652 57.8572 118.579 57.9829 118.534C58.1086 118.489 58.243 118.473 58.3757 118.489Z" fill="#FFD4C9"/>
<path d="M56.8075 117.966C56.8075 117.966 52.6733 117.876 52.3723 118.071C52.0714 118.267 45.936 123.341 45.936 123.341L44.5051 124.249L46.9339 128.954L47.6467 128.695L52.5994 127.143C53.0988 127.03 53.6081 126.966 54.12 126.952C54.12 126.952 58.8192 127.079 59.2099 126.604C59.6006 126.129 59.4581 125.976 59.1307 125.833C57.8918 125.638 56.6411 125.527 55.3872 125.5C54.7713 125.447 54.1615 125.338 53.5656 125.173C53.5656 125.173 55.5403 125.083 55.9997 125.02C56.459 124.957 60.8731 124.798 60.9365 124.054C60.9998 123.309 60.5194 122.945 57.7315 123.161C56.1942 123.302 54.6456 123.265 53.1168 123.051L59.3578 122.127C59.3578 122.127 61.8605 121.82 61.2163 121.028C60.5722 120.236 55.2446 120.675 55.2446 120.675L52.8528 121.086L53.724 119.898C53.724 119.898 57.0821 119.56 57.5467 119.323C58.1222 119.038 58.2542 118.695 57.9322 118.314C57.6135 118.063 57.2127 117.939 56.8075 117.966Z" fill="#FFD4C9"/>
<path d="M37.0867 121.287L43.9507 123.621L43.6075 125.205L44.9698 123.938L46.9339 128.938C46.9339 128.938 45.3869 131.831 44.5474 133.436C42.2981 137.724 39.0562 142.412 36.2472 141.626C32.8786 140.702 31.8648 136.837 32.377 134.318C32.8469 132.042 37.0867 121.287 37.0867 121.287Z" fill="#FFD4C9"/>
<path d="M79.9233 129.624L73.619 130.009L71.7024 130.062L70.4563 127.333L66.792 132C66.792 132 67.225 135.253 67.452 137.048C68.0539 141.853 69.4584 147.365 72.3571 147.608C75.8366 147.919 79.0522 144.466 79.4482 141.926C79.8125 139.645 79.9233 129.624 79.9233 129.624Z" fill="#FFD4C9"/>
<path d="M45.936 123.32C45.936 123.32 45.9888 123.267 46.105 123.172L46.633 122.744L48.576 121.128L51.6543 118.594L52.1189 118.224L52.3618 118.034C52.464 117.984 52.5754 117.955 52.6892 117.95C53.1116 117.908 53.5498 117.897 53.9986 117.886C54.8962 117.886 55.8466 117.886 56.8445 117.886C57.0983 117.878 57.3516 117.912 57.5943 117.987C57.7237 118.029 57.8438 118.095 57.948 118.182C58.0475 118.275 58.1251 118.388 58.1751 118.515C58.2 118.582 58.2101 118.653 58.2046 118.724C58.1992 118.795 58.1783 118.864 58.1434 118.927C58.0723 119.044 57.9747 119.144 57.8583 119.217C57.75 119.3 57.6286 119.364 57.4992 119.407C57.3691 119.446 57.2369 119.478 57.1032 119.502C56.0472 119.698 54.9226 119.819 53.7663 119.946L53.8191 119.914L52.9532 121.107L52.874 120.991L55.2658 120.579C56.2743 120.505 57.3092 120.458 58.3652 120.463C58.8942 120.462 59.4229 120.488 59.9492 120.542C60.222 120.567 60.4923 120.614 60.757 120.685C60.897 120.72 61.0307 120.777 61.153 120.854C61.221 120.894 61.2791 120.949 61.323 121.015C61.3668 121.081 61.3954 121.156 61.4064 121.234C61.4095 121.314 61.3916 121.392 61.3545 121.463C61.3174 121.533 61.2625 121.593 61.1952 121.635C61.0799 121.72 60.9538 121.789 60.8204 121.841C60.5584 121.944 60.2881 122.023 60.0125 122.079C59.4845 122.195 58.909 122.253 58.3546 122.343L54.9701 122.834L53.1327 123.103V122.945C54.548 123.137 55.9794 123.183 57.4042 123.082C58.1065 123.022 58.8115 122.999 59.5162 123.013C59.8764 123.012 60.2339 123.074 60.5722 123.198C60.7484 123.264 60.896 123.389 60.9893 123.552C61.0623 123.718 61.0844 123.902 61.0527 124.08C61.0276 124.177 60.965 124.261 60.8784 124.312C60.8051 124.362 60.7273 124.404 60.6461 124.439C60.4903 124.503 60.3296 124.554 60.1656 124.592C59.8454 124.671 59.5211 124.733 59.1941 124.777C58.5447 124.872 57.9058 124.93 57.2722 124.978L56.3324 125.046C56.0314 125.046 55.7199 125.115 55.4136 125.125C54.8012 125.162 54.2045 125.194 53.6132 125.215V125.078C54.2598 125.274 54.9286 125.387 55.6037 125.416C56.2743 125.442 56.9184 125.49 57.552 125.542C57.8688 125.542 58.1804 125.601 58.4919 125.638L58.9512 125.701C59.0297 125.716 59.1073 125.735 59.1836 125.759C59.2577 125.79 59.3285 125.829 59.3948 125.875C59.4323 125.9 59.464 125.933 59.4877 125.971C59.5114 126.009 59.5265 126.052 59.532 126.097C59.5372 126.179 59.5189 126.262 59.4792 126.334C59.448 126.402 59.409 126.466 59.3631 126.525L59.2944 126.614C59.2659 126.646 59.2319 126.673 59.1941 126.694C58.923 126.804 58.6361 126.872 58.344 126.894C57.2905 126.983 56.2331 127.017 55.176 126.994H54.458C54.2311 126.981 54.0037 126.981 53.7768 126.994C53.3531 127.01 52.9328 127.077 52.5255 127.195L48.9087 128.304L47.9636 128.589L47.7207 128.658H47.6362L47.7154 128.626L47.953 128.547L48.8928 128.241C49.7271 127.982 50.9309 127.596 52.4621 127.111C53.337 126.895 54.2406 126.82 55.1391 126.889C56.1964 126.906 57.2539 126.867 58.3071 126.773C58.5826 126.753 58.8534 126.691 59.1096 126.588C59.1347 126.573 59.1578 126.556 59.1783 126.535L59.2416 126.451C59.2817 126.398 59.3171 126.341 59.3472 126.282C59.3653 126.258 59.3783 126.23 59.3854 126.201C59.3925 126.172 59.3937 126.142 59.3887 126.112C59.3838 126.082 59.3729 126.054 59.3567 126.029C59.3405 126.003 59.3193 125.982 59.2944 125.965C59.2359 125.926 59.174 125.893 59.1096 125.865C59.042 125.844 58.9733 125.829 58.9037 125.817C58.7559 125.791 58.608 125.775 58.4549 125.754C58.1487 125.717 57.8372 125.69 57.5204 125.664C56.892 125.611 56.2426 125.569 55.5826 125.542C54.8955 125.517 54.2142 125.406 53.5551 125.21C53.5459 125.208 53.5373 125.204 53.5296 125.199C53.522 125.194 53.5155 125.187 53.5105 125.179C53.5056 125.171 53.5023 125.162 53.5009 125.153C53.4995 125.144 53.4999 125.134 53.5023 125.125C53.5048 125.11 53.5126 125.097 53.5242 125.087C53.5358 125.078 53.5505 125.072 53.5656 125.073L55.3608 124.978C55.6671 124.978 55.9628 124.914 56.2796 124.893L57.2141 124.824C57.8477 124.777 58.4813 124.719 59.1255 124.624C59.4472 124.58 59.7663 124.518 60.0812 124.439C60.2383 124.403 60.392 124.354 60.5405 124.291C60.6725 124.233 60.8362 124.143 60.8573 124.043C60.8809 123.898 60.8607 123.749 60.7992 123.615C60.7297 123.482 60.6101 123.381 60.4666 123.335C60.1528 123.225 59.8226 123.168 59.4898 123.166C58.7974 123.153 58.1047 123.176 57.4148 123.235C55.9777 123.339 54.5338 123.293 53.1063 123.098C53.0955 123.097 53.085 123.094 53.0755 123.089C53.066 123.084 53.0576 123.077 53.0511 123.069C53.0446 123.06 53.04 123.05 53.0376 123.04C53.0353 123.029 53.0353 123.019 53.0376 123.008C53.0398 122.991 53.0478 122.974 53.0602 122.962C53.0726 122.95 53.0888 122.942 53.1063 122.939L54.9437 122.67L58.3282 122.179C58.8826 122.089 59.4423 122.031 59.9756 121.92C60.2405 121.868 60.5002 121.792 60.7517 121.693C60.8715 121.646 60.9849 121.584 61.0896 121.509C61.1357 121.481 61.1742 121.442 61.2018 121.396C61.2294 121.35 61.2453 121.298 61.248 121.245C61.2164 121.028 60.9629 120.896 60.72 120.833C60.4639 120.764 60.2025 120.716 59.9386 120.69C59.4106 120.632 58.8826 120.616 58.3546 120.611C57.2986 120.611 56.2743 120.653 55.2711 120.722L52.8792 121.128C52.8695 121.131 52.8594 121.131 52.8496 121.129C52.8397 121.128 52.8303 121.124 52.8219 121.119C52.8135 121.113 52.8063 121.106 52.8008 121.098C52.7952 121.089 52.7913 121.08 52.7895 121.07C52.7853 121.062 52.7831 121.053 52.7831 121.044C52.7831 121.035 52.7853 121.026 52.7895 121.018L53.6607 119.83C53.6661 119.82 53.6737 119.812 53.683 119.807C53.6922 119.801 53.7027 119.798 53.7135 119.798C54.8645 119.676 55.9839 119.56 57.0346 119.37C57.1666 119.344 57.2933 119.317 57.4148 119.28C57.5311 119.237 57.6412 119.179 57.7421 119.106C57.948 118.974 58.1012 118.763 58.0114 118.546C57.9677 118.44 57.9003 118.344 57.8143 118.268C57.7284 118.191 57.626 118.134 57.5151 118.103C57.2883 118.03 57.0509 117.996 56.8128 118.003C55.8202 118.003 54.8698 117.971 53.9775 117.976C53.5287 117.976 53.0904 117.976 52.6733 118.034C52.5785 118.037 52.4851 118.058 52.3988 118.098L52.1612 118.277L51.6965 118.647L48.576 121.181L46.6119 122.765C46.3848 122.939 46.2159 123.077 46.0839 123.177L45.936 123.32Z" fill="#844031"/>
<path d="M44.7057 124.196C44.7479 124.244 42.2083 126.371 39.035 128.948C35.8617 131.525 33.2587 133.589 33.227 133.542C33.1953 133.494 35.7244 131.366 38.8977 128.79C42.071 126.213 44.6687 124.149 44.7057 124.196Z" fill="#844031"/>
<path d="M75.9845 139.249C75.9475 139.249 75.8155 138.648 75.4565 137.702C74.9996 136.469 74.4598 135.268 73.8408 134.107C73.1227 132.734 72.4258 131.514 71.9558 130.611C71.7182 130.163 71.5334 129.793 71.4278 129.555C71.359 129.424 71.3041 129.286 71.2642 129.144C71.3609 129.256 71.4409 129.383 71.5018 129.518L72.1037 130.574C72.6317 131.456 73.3286 132.686 74.0414 134.043C74.6713 135.209 75.2012 136.426 75.6254 137.681C75.7469 138.063 75.8491 138.451 75.9317 138.843C75.9668 138.976 75.9846 139.112 75.9845 139.249Z" fill="#844031"/>
</svg>
