<svg width="47" height="30" viewBox="0 0 47 30" fill="none" xmlns="http://www.w3.org/2000/svg">
<path d="M45.4822 12.0208C44.6634 10.5681 43.8842 9.07577 43.0258 7.63625C42.7352 7.1344 42.3126 6.68537 41.8768 6.30238C40.6486 5.20623 39.1562 4.83645 37.5318 4.83645C36.5545 4.83645 35.564 4.83645 34.6 4.83645C34.6 4.83645 34.6 4.83645 34.6 4.82324L34.4283 5.52319L34.3358 5.89298L29.7795 24.9369C29.8192 24.818 29.8456 24.7124 29.8852 24.6067C30.6116 22.2163 32.1567 20.6448 34.5339 19.892C36.779 19.1788 39.1166 19.9448 40.3184 21.7541C40.8863 22.6125 41.124 23.5766 41.1504 24.6331C42.1013 24.6464 42.8805 24.3162 43.5276 23.6823C44.3993 22.8238 44.9143 21.7541 45.1652 20.5787C45.3237 19.8259 45.4558 19.06 45.6011 18.3072C45.6935 17.7525 45.7992 17.1978 45.8916 16.6432C45.9444 16.3262 46.0105 16.0092 46.0633 15.6923C46.2878 14.398 46.1293 13.183 45.4822 12.0208ZM38.8525 13.4604H38.0865C37.8092 13.4604 37.5318 13.4604 37.2677 13.4604C36.9771 13.4604 36.6998 13.4604 36.4093 13.4604C36.1187 13.4604 35.8414 13.4604 35.5508 13.4604C35.3923 13.4604 35.2207 13.4604 35.0622 13.4604H34.732C34.6 13.4604 34.4679 13.4604 34.3358 13.4604C34.2302 13.4604 34.1113 13.4736 34.0057 13.4604L35.3791 6.88347L35.4584 6.51369H35.4716C35.6301 6.51369 35.8018 6.52689 35.9602 6.51369C36.1583 6.51369 36.3564 6.51369 36.5413 6.51369C37.2281 6.50048 37.9148 6.48727 38.5883 6.55331C39.011 6.60613 39.4468 6.68537 39.8694 6.83065C40.5165 7.05516 41.0712 7.45136 41.4806 8.00603C41.5466 8.09848 41.6127 8.19093 41.6787 8.29658C42.3654 9.45876 43.0522 10.6209 43.6861 11.8095C43.9502 12.285 43.8578 12.7868 43.5672 13.1038C43.3691 13.3151 43.0786 13.4472 42.7352 13.4472C42.6296 13.4472 42.5239 13.4472 42.4315 13.4472C41.2429 13.4604 40.0543 13.4604 38.8525 13.4604Z" fill="#FE8D25"/>
<path d="M16.1895 9.16835C16.1499 8.65327 15.8197 8.41555 15.1329 8.38914C14.7367 8.37593 14.3405 8.37593 13.9443 8.40234C13.8254 8.41555 13.6406 8.5212 13.6273 8.61365C13.5217 9.23438 13.4557 9.86832 13.3632 10.5419C14.0236 10.5419 14.6311 10.5815 15.2254 10.5287C15.8197 10.4626 16.2423 9.81549 16.1895 9.16835ZM16.1895 9.16835C16.1499 8.65327 15.8197 8.41555 15.1329 8.38914C14.7367 8.37593 14.3405 8.37593 13.9443 8.40234C13.8254 8.41555 13.6406 8.5212 13.6273 8.61365C13.5217 9.23438 13.4557 9.86832 13.3632 10.5419C14.0236 10.5419 14.6311 10.5815 15.2254 10.5287C15.8197 10.4626 16.2423 9.81549 16.1895 9.16835ZM34.5076 4.45346C34.1378 2.48562 32.8963 1.29699 30.9021 1.13851C29.4361 1.01965 27.9701 0.96682 26.5041 0.96682C21.2742 0.953613 13.9575 0.953613 7.81628 0.953613C7.38045 0.953613 6.95783 1.04606 6.57482 1.19134C5.83523 1.4951 5.22771 2.04979 4.87113 2.76297C4.69944 3.09314 4.59378 3.44973 4.54095 3.83273L0.314723 22.4546C0.169446 23.5771 1.05431 24.5809 2.19011 24.5809C4.05229 24.5809 7.30121 24.5941 7.88231 24.5941C8.38418 24.6073 8.59549 24.4356 8.76718 23.9866C9.7577 21.4376 11.6463 19.9849 14.3405 19.6811C16.6782 19.417 18.9233 20.7509 19.5573 23.1809C19.7026 23.7488 19.729 24.3432 19.8214 24.9375H29.7795L31.7869 16.5378L34.5868 4.81005C34.5472 4.65156 34.534 4.55912 34.5076 4.45346ZM10.9067 8.46838C10.2596 8.48158 9.62563 8.46838 8.97849 8.46838C8.88604 8.46838 8.78039 8.48158 8.64832 8.49479C8.58228 8.98345 8.50304 9.4589 8.4238 10.0136C8.96529 10.0136 9.45394 10.0268 9.9426 10.0136C10.3124 10.0004 10.6029 10.0796 10.6822 10.489C10.7482 10.8324 10.4445 11.2286 10.0218 11.2815C9.58601 11.3343 9.13698 11.3079 8.68794 11.3079C8.55587 11.3079 8.4238 11.3079 8.2389 11.3079C8.13325 11.9946 8.05401 12.655 7.93514 13.3153C7.90873 13.5002 7.8559 13.7512 7.72383 13.8436C7.51252 13.9889 7.20876 14.1078 6.98424 14.0549C6.64086 13.9889 6.61445 13.6455 6.65407 13.3285C6.82576 12.0607 7.01065 10.7928 7.19555 9.52493C7.26159 9.02307 7.32762 8.5212 7.42007 8.01934C7.52573 7.42503 7.77666 7.20051 8.38418 7.20051C9.21622 7.1873 10.0615 7.20051 10.8935 7.20051C11.2765 7.20051 11.5935 7.29296 11.6331 7.74199C11.6859 8.125 11.3557 8.45517 10.9067 8.46838ZM17.5102 9.30042C17.3913 10.2645 16.9951 11.0569 16.0442 11.5588C16.2291 12.0871 16.4008 12.589 16.5593 13.0776C16.7046 13.5399 16.5065 13.9361 16.097 14.0681C15.7008 14.2002 15.4235 14.0285 15.2518 13.5399C15.0801 13.0644 14.9084 12.5757 14.7631 12.1003C14.6839 11.8494 14.565 11.7437 14.2745 11.7305C13.1651 11.7173 13.1651 11.7041 13.0066 12.8135C12.967 13.0776 12.9538 13.3417 12.8745 13.5927C12.7557 13.9625 12.3463 14.2002 12.0161 14.0813C11.6595 13.9493 11.5935 13.6851 11.6463 13.3285C11.8972 11.5588 12.135 9.77587 12.3859 8.00613C12.4519 7.50427 12.7425 7.20051 13.2311 7.20051C14.1292 7.1873 15.0405 7.17409 15.9386 7.26654C17.0876 7.3722 17.6555 8.17782 17.5102 9.30042ZM21.4987 14.1078C20.5082 14.1078 19.5177 14.1078 18.5403 14.1078C17.9989 14.1078 17.7743 13.8832 17.8404 13.3417C18.0517 11.7173 18.2894 10.0928 18.5271 8.46838C18.5535 8.28348 18.58 8.09858 18.6064 7.91368C18.6856 7.39861 19.029 7.1873 19.5044 7.1873C20.495 7.17409 21.4855 7.17409 22.4628 7.1873C22.8062 7.1873 23.0967 7.30616 23.0967 7.71558C23.0967 8.125 22.859 8.36272 22.4496 8.37593C21.71 8.38913 20.9704 8.38914 20.2308 8.38914H19.8214C19.7818 8.66648 19.7422 8.93062 19.7025 9.19476C19.6629 9.43249 19.6365 9.657 19.5969 9.90794C20.0459 9.90794 20.4686 9.90794 20.878 9.90794C21.0497 9.90794 21.2214 9.90794 21.4062 9.90794C21.776 9.90794 22.1194 9.94756 22.159 10.4098C22.159 10.5022 22.1458 10.5815 22.1194 10.6607C22.0138 10.9117 21.7496 11.0966 21.4062 11.1098C20.7723 11.1362 20.1252 11.1098 19.4384 11.1098C19.346 11.7041 19.2667 12.2588 19.1743 12.8927C19.9931 12.8927 20.7591 12.8927 21.5251 12.8927C21.9081 12.8927 22.2779 12.9059 22.2911 13.421C22.3175 13.8436 22.0138 14.1078 21.4987 14.1078ZM27.0192 14.0945C25.9494 14.1078 24.8797 14.1078 23.8099 14.0945C23.3741 14.0945 23.176 13.8172 23.2288 13.4078C23.3081 12.7738 23.4005 12.1267 23.493 11.4928C23.6514 10.3041 23.8231 9.12873 23.9948 7.9401C24.0608 7.43823 24.391 7.1873 24.9325 7.1873C25.9098 7.17409 26.8739 7.1873 27.8512 7.1873C28.1946 7.1873 28.4852 7.27975 28.5248 7.68917C28.5644 8.04575 28.2607 8.37593 27.8512 8.37593C27.1249 8.40234 26.3985 8.40234 25.6721 8.37593C25.3155 8.36272 25.157 8.46838 25.157 8.83817C25.157 9.16835 25.0778 9.51173 25.0382 9.90794C25.6853 9.90794 26.2796 9.90794 26.8739 9.90794C27.2305 9.90794 27.5607 9.94756 27.5607 10.4098C27.5607 10.8456 27.2701 11.0701 26.8739 11.0966C26.3589 11.1362 25.857 11.1098 25.3419 11.1098C25.1966 11.1098 25.0514 11.1098 24.8533 11.1098C24.8004 11.4796 24.7476 11.8362 24.6948 12.2192C24.6684 12.4437 24.6287 12.6682 24.5891 12.9059C25.0117 12.9059 25.408 12.9059 25.8042 12.9059C26.2136 12.9059 26.6098 12.9059 27.0192 12.9059C27.389 12.9059 27.6796 12.9984 27.7192 13.421C27.7324 13.6191 27.6399 13.804 27.4815 13.9361C27.3626 14.0285 27.2041 14.0945 27.0192 14.0945ZM15.1197 8.38914C14.7235 8.37593 14.3273 8.37593 13.9311 8.40234C13.8122 8.41555 13.6273 8.5212 13.6141 8.61365C13.5085 9.23438 13.4424 9.86832 13.35 10.5419C14.0103 10.5419 14.6179 10.5815 15.2122 10.5287C15.8065 10.4758 16.2291 9.8287 16.1763 9.18155C16.1499 8.65328 15.8197 8.40234 15.1197 8.38914ZM16.1895 9.16835C16.1499 8.65327 15.8197 8.41555 15.1329 8.38914C14.7367 8.37593 14.3405 8.37593 13.9443 8.40234C13.8254 8.41555 13.6406 8.5212 13.6273 8.61365C13.5217 9.23438 13.4557 9.86832 13.3632 10.5419C14.0236 10.5419 14.6311 10.5815 15.2254 10.5287C15.8197 10.4626 16.2423 9.81549 16.1895 9.16835ZM16.1895 9.16835C16.1499 8.65327 15.8197 8.41555 15.1329 8.38914C14.7367 8.37593 14.3405 8.37593 13.9443 8.40234C13.8254 8.41555 13.6406 8.5212 13.6273 8.61365C13.5217 9.23438 13.4557 9.86832 13.3632 10.5419C14.0236 10.5419 14.6311 10.5815 15.2254 10.5287C15.8197 10.4626 16.2423 9.81549 16.1895 9.16835Z" fill="#303842"/>
<g opacity="0.3">
<path d="M34.6001 4.82325L31.8003 16.551L31 20.1528L30.5 22.1528L30 23.1528L29.5 22.6528L27.5 20.6528L25.5 18.6528L21 14.6528L18 12.1528L15 9.15283L10.5 5.15283L6.57495 1.19134C6.95795 1.03285 7.38058 0.953613 7.81641 0.953613C13.9576 0.953613 21.2743 0.953613 26.5175 0.96682C27.9834 0.96682 29.4494 1.01965 30.9154 1.13851C32.9096 1.29699 34.1511 2.49883 34.5209 4.45346C34.5341 4.55911 34.5473 4.65156 34.6001 4.82325Z" fill="#FDFEFE"/>
</g>
<path d="M13.5223 29.045C11.3298 29.045 9.87703 27.2091 10.3525 25.0431C10.828 22.8903 12.8091 21.4243 15.0015 21.6224C16.7977 21.7809 18.0392 23.4846 17.7619 25.3865C17.4581 27.394 15.543 29.045 13.5223 29.045Z" fill="#FE8D25"/>
<path d="M13.8654 26.496C13.1786 26.496 12.7162 25.9148 12.8747 25.2411C13.02 24.5674 13.6541 24.1051 14.341 24.1579C14.909 24.2108 15.2921 24.7391 15.2128 25.3468C15.1071 25.9676 14.5127 26.496 13.8654 26.496Z" fill="#FCFCFC"/>
<path d="M34.8907 29.045C32.6983 29.045 31.2454 27.2091 31.7209 25.0431C32.1964 22.8903 34.1775 21.4243 36.3699 21.6224C38.1661 21.7809 39.4076 23.4846 39.1303 25.3865C38.8265 27.394 36.9246 29.045 34.8907 29.045Z" fill="#FE8D25"/>
<path d="M35.2478 26.496C34.5609 26.496 34.0985 25.9148 34.2571 25.2411C34.4024 24.5674 35.0364 24.1051 35.7233 24.1579C36.2913 24.2108 36.6744 24.7391 36.5951 25.3468C36.4762 25.9676 35.8818 26.496 35.2478 26.496Z" fill="#FCFCFC"/>
<path d="M16.0442 11.5584C16.2291 12.0867 16.4008 12.5886 16.5593 13.0772C16.7046 13.5394 16.5065 13.9356 16.0971 14.0677C15.7009 14.1998 15.4235 14.0281 15.2518 13.5394C15.0802 13.064 14.9085 12.5753 14.7632 12.0999C14.684 11.849 14.5651 11.7433 14.2746 11.7301C13.1652 11.7169 13.1652 11.7037 13.0067 12.8131C12.9671 13.0772 12.9539 13.3413 12.8747 13.5923C12.769 13.962 12.3464 14.1998 12.0162 14.0809C11.6596 13.9488 11.5936 13.6847 11.6464 13.3281C11.8974 11.5584 12.1351 9.77554 12.386 8.00586C12.452 7.50401 12.7426 7.20026 13.2312 7.20026C14.1293 7.18705 15.0405 7.17384 15.9386 7.26629C17.0611 7.37194 17.629 8.17755 17.4838 9.31331C17.3913 10.2774 16.9951 11.0698 16.0442 11.5584ZM13.3633 10.5283C14.0236 10.5283 14.6311 10.5679 15.2254 10.5151C15.8197 10.4623 16.2423 9.81516 16.1895 9.16804C16.1499 8.65298 15.8197 8.41526 15.133 8.38885C14.7368 8.37564 14.3406 8.37564 13.9444 8.40206C13.8255 8.41526 13.6406 8.52092 13.6274 8.61336C13.5218 9.23407 13.4425 9.85478 13.3633 10.5283Z" fill="white"/>
<path d="M19.8348 8.38849C19.7555 8.90355 19.6895 9.37898 19.6102 9.90725C20.2442 9.90725 20.8385 9.90725 21.4196 9.90725C21.7893 9.90725 22.1327 9.94687 22.1723 10.4091C22.1987 10.7657 21.8686 11.0826 21.4196 11.109C20.7856 11.1355 20.1385 11.109 19.4518 11.109C19.3725 11.7033 19.2801 12.258 19.1876 12.8919C20.0064 12.8919 20.7724 12.8919 21.5384 12.8919C21.9214 12.8919 22.2912 12.9051 22.3044 13.4202C22.3176 13.8296 22.0138 14.0805 21.4988 14.0937C20.5083 14.0937 19.5178 14.0937 18.5405 14.0937C17.999 14.0937 17.7745 13.8692 17.8406 13.3278C18.0783 11.5185 18.3556 9.72235 18.6065 7.91305C18.6858 7.39799 19.0292 7.18669 19.5046 7.17348C20.4951 7.16027 21.4856 7.16027 22.4629 7.17348C22.8062 7.17348 23.0968 7.29234 23.0968 7.70174C23.0968 8.11115 22.8591 8.34887 22.4497 8.36207C21.7101 8.37528 20.9705 8.37528 20.231 8.37528C20.1253 8.38849 20.0064 8.38849 19.8348 8.38849Z" fill="white"/>
<path d="M24.5893 12.9059C25.4478 12.9059 26.2402 12.9059 27.0194 12.9059C27.3891 12.9059 27.6797 12.9984 27.7193 13.421C27.7457 13.7644 27.4156 14.0945 27.0194 14.1077C25.9496 14.121 24.8799 14.121 23.8101 14.1077C23.3743 14.1077 23.1762 13.8304 23.2291 13.421C23.4668 11.5985 23.7177 9.77598 23.9818 7.95347C24.0611 7.45162 24.378 7.20069 24.9195 7.20069C25.8968 7.18749 26.8609 7.20069 27.8382 7.20069C28.1815 7.20069 28.4721 7.29314 28.5117 7.70254C28.5513 8.05912 28.2476 8.37608 27.8382 8.38929C27.1118 8.40249 26.3854 8.4157 25.6591 8.38929C25.3025 8.37608 25.144 8.48173 25.144 8.85152C25.144 9.19489 25.0648 9.52506 25.0252 9.92125C25.6723 9.92125 26.2666 9.92125 26.8609 9.92125C27.2175 9.92125 27.5476 9.96087 27.5476 10.4231C27.5476 10.8721 27.2571 11.0834 26.8609 11.1098C26.359 11.1495 25.844 11.1231 25.3289 11.1231C25.1836 11.1231 25.0384 11.1231 24.8403 11.1231C24.761 11.7174 24.6818 12.272 24.5893 12.9059Z" fill="white"/>
<path d="M8.64824 8.49448C8.58221 8.98312 8.50297 9.45856 8.42373 10.0132C8.9652 10.0132 9.45384 10.0264 9.94249 10.0132C10.3123 10 10.6028 10.0793 10.6821 10.4887C10.7481 10.832 10.4443 11.2282 10.0217 11.2679C9.58591 11.3207 9.13688 11.2943 8.68786 11.2943C8.55579 11.2943 8.42373 11.2943 8.23883 11.2943C8.13318 11.981 8.05394 12.6413 7.93508 13.3017C7.90867 13.4866 7.85584 13.7375 7.72378 13.8299C7.51247 13.962 7.20872 14.0941 6.98421 14.0412C6.64083 13.9752 6.61442 13.6318 6.65404 13.3149C6.82573 12.0471 7.01062 10.7792 7.19551 9.51139C7.26155 9.00953 7.32758 8.50768 7.42002 8.00583C7.52568 7.41153 7.7766 7.18702 8.38411 7.18702C9.22933 7.17382 10.0613 7.18702 10.9066 7.18702C11.2896 7.18702 11.6065 7.27947 11.6461 7.72849C11.6858 8.12469 11.3556 8.45486 10.8934 8.46806C10.2462 8.48127 9.61232 8.46806 8.9652 8.46806C8.88596 8.48127 8.79351 8.49448 8.64824 8.49448Z" fill="white"/>
<path d="M43.5815 13.1042C43.3834 13.3156 43.0928 13.4476 42.7494 13.4476C42.6438 13.4476 42.5381 13.4476 42.4456 13.4476C41.2569 13.4476 40.055 13.4608 38.8663 13.4476H38.1003C37.8229 13.4476 37.5455 13.4476 37.2814 13.4476C36.9908 13.4476 36.7134 13.4476 36.4229 13.4476C36.1323 13.4476 35.8549 13.4476 35.5644 13.4476C35.4059 13.4476 35.2342 13.4476 35.0757 13.4476H34.7455C34.6134 13.4476 34.4813 13.4476 34.3492 13.4476C34.2436 13.4476 34.1247 13.4608 34.019 13.4476L34.9568 8.97018L35.3927 6.87013L35.4719 6.50031H35.4851C35.6436 6.50031 35.8153 6.51352 35.9738 6.50031C36.1719 6.50031 36.37 6.50031 36.5549 6.50031C37.6776 6.4739 38.7871 6.43427 39.8833 6.83051C40.5305 7.05504 41.0852 7.45128 41.4947 8.00601C41.5607 8.09846 41.6268 8.19092 41.6928 8.29658C42.3796 9.45887 43.0664 10.6212 43.7004 11.8099C43.9645 12.2853 43.8853 12.7872 43.5815 13.1042Z" fill="#24292F"/>
<path opacity="0.2" d="M45.4833 12.0215C44.6645 10.5686 43.8852 9.07616 43.0267 7.63651C42.7361 7.13461 42.3135 6.68555 41.8776 6.30252C40.6493 5.20627 39.1568 4.83645 37.5322 4.83645C36.5548 4.83645 35.5643 4.83645 34.6001 4.83645C34.6001 4.83645 34.6001 4.83645 34.6001 4.82324L34.4284 5.52326L34.3359 5.89308L35.3926 6.87046L35.4718 6.50064H35.485C35.6435 6.50064 35.8152 6.51384 35.9737 6.50064C36.1718 6.50064 36.3699 6.50064 36.5549 6.50064C37.6775 6.47422 38.787 6.4346 39.8832 6.83083C40.5304 7.05536 41.0851 7.4516 41.4946 8.00633C41.5606 8.09878 41.6267 8.19124 41.6927 8.2969C42.3795 9.45919 43.0663 10.6215 43.7003 11.8102C44.1229 12.5894 43.6342 13.448 42.7493 13.448C42.6437 13.448 42.538 13.448 42.4455 13.448L45.8664 16.631C45.9192 16.314 45.9852 15.9971 46.0381 15.6801C46.289 14.3989 46.1305 13.1838 45.4833 12.0215Z" fill="#FDFEFE"/>
<path opacity="0.3" d="M42.4982 13.5003L35.3926 6.87012L35.4718 6.50031H35.485C35.6435 6.50031 35.8152 6.51352 35.9737 6.50031C36.1718 6.50031 36.3699 6.50031 36.5548 6.50031C37.6775 6.4739 38.7869 6.43428 39.8831 6.8305C40.5303 7.05503 41.085 7.45125 41.4944 8.00596C41.5604 8.09841 41.6265 8.19086 41.6925 8.29652C42.3793 9.45878 43.0661 10.621 43.7 11.8097C44.017 12.4437 44.017 13.4342 42.4982 13.5003Z" fill="white"/>
</svg>
