<svg width="41" height="40" viewBox="0 0 41 40" fill="none" xmlns="http://www.w3.org/2000/svg">
<path d="M31.7719 11.1145C31.6573 14.7395 30.4489 17.8853 27.6469 20.3332C27.5948 20.3749 27.5531 20.4165 27.501 20.4582C27.2198 20.677 26.9073 20.6665 26.6989 20.427C26.4906 20.177 26.5114 19.8957 26.7719 19.6353C27.1781 19.229 27.6052 18.854 27.9802 18.427C29.626 16.552 30.4177 14.3332 30.6052 11.8749C30.6364 11.4374 30.6469 10.9895 30.6781 10.552C30.6989 10.2082 30.9385 9.9582 31.2406 9.98945C31.5635 10.0207 31.7614 10.2082 31.7614 10.552C31.7823 10.7395 31.7719 10.9165 31.7719 11.1145Z" fill="#FCFCFC"/>
<path d="M34.3448 13.6668C33.9386 13.6772 33.699 13.3126 33.8344 12.8647C34.0948 12.0522 34.4906 11.3126 35.0323 10.6564C35.8448 9.67721 36.8656 8.98971 38.0323 8.48971C38.3761 8.34388 38.6781 8.45846 38.8031 8.76054C38.9281 9.05221 38.8031 9.30221 38.4802 9.48971C37.7615 9.92721 37.0219 10.3335 36.3656 10.8439C35.6261 11.4272 35.1886 12.2501 34.8865 13.1355C34.8136 13.448 34.6677 13.646 34.3448 13.6668Z" fill="#FCFCFC"/>
<path d="M23.9177 36.7498C23.9177 32.3957 23.9177 28.0832 23.9177 23.729C24.074 23.729 24.2198 23.729 24.3552 23.729C26.0219 23.729 27.6781 23.729 29.3448 23.729C30.3865 23.729 30.699 24.0415 30.699 25.0623C30.699 28.5311 30.699 31.9998 30.699 35.4686C30.699 36.4373 30.3865 36.7394 29.4073 36.7394C27.5948 36.7498 25.7719 36.7498 23.9177 36.7498Z" fill="#FE8D25"/>
<path d="M17.8761 23.6875C17.8761 28.0937 17.8761 32.4063 17.8761 36.7292C17.7823 36.7396 17.7094 36.75 17.6365 36.75C15.8031 36.75 13.9698 36.7604 12.1469 36.75C11.4906 36.75 11.1052 36.3542 11.1052 35.7083C11.0948 32.8646 11.0948 30.0208 11.1156 27.1771C11.1156 27.0417 11.2406 26.8333 11.3656 26.7708C13.1156 25.7917 14.7188 24.9271 16.5 24C16.8229 23.8125 15 24 17.8761 23.6875Z" fill="#FE8D25"/>
<path d="M16.7777 23.6875C16.7777 28.0937 16.7777 32.4063 16.7777 36.7292C16.6839 36.7396 16.611 36.75 16.5381 36.75C14.7048 36.75 12.8714 36.7604 11.0485 36.75C10.3923 36.75 10.0068 36.3542 10.0068 35.7083C9.99643 32.8646 9.99643 30.0208 10.0173 27.1771C10.0173 27.0417 10.1423 26.8333 10.2673 26.7708C12.0173 25.7917 13.7673 24.8021 15.5485 23.875C15.8714 23.6875 16.3298 23.7396 16.7777 23.6875Z" fill="#D16B28"/>
<path d="M19.001 36.7186C19.001 32.3853 19.001 28.0936 19.001 23.7603C20.2718 23.7603 21.5218 23.7603 22.7926 23.7603C22.7926 28.0832 22.7926 32.3853 22.7926 36.7186C21.5322 36.7186 20.2822 36.7186 19.001 36.7186Z" fill="#FE8D25"/>
<path d="M13.1988 15.0936C13.1571 13.8957 12.8759 12.6561 13.6884 11.5416C14.6571 10.2186 16.5009 9.88531 17.8446 10.8124C19.2092 11.7499 19.6051 13.6353 18.6363 14.9686C18.0946 15.7186 17.4071 16.3749 16.7717 17.0624C16.7301 17.1041 16.6676 17.1249 16.5946 17.1666C16.2196 16.552 15.8446 15.9582 15.4176 15.2707C15.7717 14.7603 16.1571 14.1666 16.5738 13.5936C16.8446 13.2186 16.8655 12.927 16.5946 12.6978C16.3134 12.4582 15.9905 12.5103 15.7092 12.9166C15.2926 13.4999 14.9071 14.0936 14.5321 14.7082C14.4176 14.8957 14.303 14.9791 14.0842 14.9791C13.803 14.9791 13.5217 15.052 13.1988 15.0936Z" fill="#FE8D25"/>
<path d="M9.59463 17.0623C9.35505 17.354 9.15713 17.6248 8.92797 17.8644C8.84463 17.9478 8.68838 17.9894 8.56338 17.9998C7.91755 18.0103 7.27172 18.0103 6.62588 18.0103C6.50088 18.0103 6.36547 18.0311 6.24047 18.0519C5.8863 18.1248 5.68838 18.3748 5.74047 18.6769C5.79255 18.9894 6.0738 19.1561 6.43838 19.1457C7.17797 19.1248 7.90713 19.1457 8.60505 19.1457C8.90713 19.7707 9.20922 20.3957 9.53213 21.0415C9.45922 21.0832 9.37588 21.1561 9.29255 21.1665C8.4488 21.3123 7.61547 21.5103 6.7613 21.5936C5.0113 21.7707 3.5738 20.4686 3.49047 18.7082C3.40713 17.0936 4.7613 15.6457 6.42797 15.604C7.0113 15.5832 7.56338 15.729 8.05297 16.0415C8.5738 16.3644 9.08422 16.729 9.59463 17.0623Z" fill="#FE8D25"/>
<path d="M19.6264 20.3548C19.4078 20.475 19.1887 20.5955 18.9688 20.7165C18.7951 20.4014 18.6222 20.0893 18.4504 19.7791C18.1962 19.32 17.9442 18.8649 17.6949 18.4105C19.2277 17.5623 20.7594 16.7152 22.291 15.8772C22.499 15.7662 22.6414 15.7639 22.7323 15.7891C22.8231 15.8142 22.9422 15.8887 23.0603 16.0878C23.3262 16.5378 23.5812 16.9968 23.8151 17.4544C23.9642 17.7542 23.8723 17.9973 23.6615 18.1165C22.3239 18.8715 20.9868 19.6068 19.6264 20.3548Z" fill="#FCFCFC" stroke="#D1D2D2"/>
<path d="M10.1782 21.9688C10.7719 23.0417 11.3344 24.0729 11.9177 25.1354C11.8136 25.2083 11.7302 25.2708 11.6261 25.3229C10.0948 26.1667 8.56358 27.0104 7.02192 27.8542C6.2615 28.2708 5.77192 28.125 5.34483 27.375C5.12608 26.9896 4.90733 26.6042 4.70942 26.2188C4.39692 25.6146 4.53233 25.0938 5.11567 24.7604C6.80317 23.8333 8.46983 22.9167 10.1782 21.9688Z" fill="#303842"/>
<path d="M10.1782 21.9688C10.7719 23.0417 11.3344 24.0729 11.9177 25.1354C11.8136 25.2083 11.7302 25.2708 11.6261 25.3229C10.0948 26.1667 8.56358 27.0104 7.02192 27.8542C6.2615 28.2708 5.77192 28.125 5.34483 27.375C5.12608 26.9896 4.90733 26.6042 4.70942 26.2188C4.39692 25.6146 4.53233 25.0938 5.11567 24.7604C6.80317 23.8333 8.46983 22.9167 10.1782 21.9688Z" fill="#D1D2D2"/>
<path d="M9.82012 23C10.2228 23.7018 10.6044 24.3764 11 25.0715C10.9293 25.1192 10.8728 25.1601 10.8022 25.1941C9.7636 25.7461 8.72502 26.298 7.67937 26.8499C7.16362 27.1225 6.83155 27.0271 6.54188 26.5365C6.39351 26.2844 6.24514 26.0322 6.11091 25.7801C5.89895 25.3849 5.9908 25.0442 6.38645 24.8262C7.531 24.2197 8.66143 23.6201 9.82012 23Z" fill="#FCFCFC"/>
<path d="M14.9014 19.9457C15.2194 19.7703 15.5378 19.5946 15.857 19.4186C16.2848 20.193 16.7038 20.9552 17.1259 21.7293C16.4518 22.1007 15.7835 22.4691 15.1153 22.8374L15.1137 22.8383C14.4457 23.2066 13.7777 23.5748 13.104 23.9459C12.9039 23.583 12.7059 23.2257 12.5075 22.8679C12.2821 22.4611 12.0562 22.0536 11.8265 21.6365C12.8566 21.074 13.8769 20.511 14.9014 19.9457Z" fill="#FCFCFC" stroke="#D1D2D2"/>
<path d="M10.5323 20.5209C10.3031 20.1146 10.0844 19.7292 9.88646 19.3438C9.64688 18.8542 9.78229 18.323 10.251 18.0521C11.376 17.4063 12.5115 16.7813 13.6469 16.1771C14.0948 15.9376 14.6156 16.073 14.8865 16.4896C15.1365 16.8751 15.3448 17.2917 15.5948 17.7292C13.8969 18.6667 12.2198 19.5834 10.5323 20.5209Z" fill="#FE8D25"/>
<path d="M26.3862 11.4896C26.0321 11.2083 25.73 10.9688 25.4383 10.7188C25.2091 10.5208 24.9696 10.4271 24.6571 10.5104C24.2716 10.6146 23.8758 10.6667 23.4279 10.7604C23.5529 10.4375 23.6154 10.1354 23.7612 9.875C24.0321 9.38542 23.98 8.94792 23.6571 8.5C23.4904 8.27083 23.3758 8.01042 23.1987 7.6875C23.6362 7.71875 23.9904 7.71875 24.3446 7.76042C24.7091 7.80208 25.0008 7.70833 25.2404 7.41667C25.48 7.125 25.7508 6.86458 26.0529 6.53125C26.1571 6.9375 26.2716 7.29167 26.3446 7.64583C26.4279 8.02083 26.6154 8.27083 26.98 8.40625C27.3133 8.53125 27.6362 8.70833 28.0321 8.88542C27.6571 9.125 27.355 9.34375 27.0216 9.54167C26.73 9.71875 26.5633 9.92708 26.5529 10.2917C26.5216 10.6771 26.4487 11.0521 26.3862 11.4896Z" fill="url(#paint0_linear_63_5391)"/>
<path d="M32.7615 19.4479C33.6677 19.3333 34.1781 18.8646 34.3136 17.9375C34.6156 18.3021 34.8136 18.6771 35.1156 18.8542C35.4177 19.0313 35.8344 19 36.2823 19.0729C35.6677 19.6563 35.4073 20.3229 35.8552 21.1667C35.0531 20.7708 34.3448 20.8021 33.6781 21.4479C33.8136 20.5625 33.5948 19.8854 32.7615 19.4479Z" fill="url(#paint1_linear_63_5391)"/>
<path d="M35.4697 4.95817C35.4697 5.88525 34.7405 6.62484 33.8343 6.62484C32.928 6.62484 32.178 5.88525 32.1676 4.979C32.1572 4.07275 32.9072 3.32275 33.8134 3.32275C34.7509 3.32275 35.4697 4.03109 35.4697 4.95817Z" fill="url(#paint2_linear_63_5391)"/>
<defs>
<linearGradient id="paint0_linear_63_5391" x1="25.6898" y1="-4.09376" x2="29.3606" y2="-3.67537" gradientUnits="userSpaceOnUse">
<stop stop-color="#D09A00"/>
<stop offset="0.980418" stop-color="#FFD285"/>
</linearGradient>
<linearGradient id="paint1_linear_63_5391" x1="34.5761" y1="10.4152" x2="37.248" y2="10.7285" gradientUnits="userSpaceOnUse">
<stop stop-color="#D09A00"/>
<stop offset="0.980418" stop-color="#FFD285"/>
</linearGradient>
<linearGradient id="paint2_linear_63_5391" x1="33.8694" y1="-3.75314" x2="36.3756" y2="-3.46009" gradientUnits="userSpaceOnUse">
<stop stop-color="#D09A00"/>
<stop offset="0.980418" stop-color="#FFD285"/>
</linearGradient>
</defs>
</svg>
