<svg width="71" height="70" viewBox="0 0 71 70" fill="none" xmlns="http://www.w3.org/2000/svg">
<rect x="0.5" width="70" height="70" rx="35" fill="#FCFCFC"/>
<path d="M53.4359 22.5C53.0535 22.0724 52.5849 21.7307 52.0609 21.4973C51.5369 21.2639 50.9695 21.1441 50.3958 21.1458H44.1802C43.8604 19.254 42.8815 17.5363 41.4167 16.2971C39.9519 15.0578 38.0958 14.3769 36.1771 14.375H34.8229C32.9042 14.3769 31.0481 15.0578 29.5833 16.2971C28.1186 17.5363 27.1396 19.254 26.8198 21.1458H20.6042C20.0283 21.1419 19.4583 21.2604 18.9317 21.4936C18.4052 21.7267 17.9342 22.0691 17.5501 22.4981C17.1659 22.927 16.8773 23.4328 16.7035 23.9818C16.5296 24.5307 16.4745 25.1104 16.5417 25.6823L19.0198 48.6151C19.1161 49.6243 19.5863 50.5611 20.3379 51.2413C21.0896 51.9216 22.0685 52.2962 23.0823 52.2917H47.9313C48.9429 52.2966 49.92 51.9238 50.6714 51.2463C51.4227 50.5689 51.8943 49.6354 51.9938 48.6286L54.4583 25.6958C54.5254 25.1211 54.4688 24.5386 54.2925 23.9874C54.1162 23.4363 53.8241 22.9291 53.4359 22.5ZM29.5823 21.1458C29.8823 19.9838 30.5598 18.9543 31.5083 18.219C32.4569 17.4837 33.6228 17.0842 34.8229 17.0833H36.1771C37.3772 17.0842 38.5431 17.4837 39.4917 18.219C40.4402 18.9543 41.1177 19.9838 41.4177 21.1458H29.5823Z" fill="#D16B28"/>
<path d="M53.436 22.5C53.0536 22.0724 52.5849 21.7307 52.0609 21.4973C51.537 21.2639 50.9695 21.1441 50.3959 21.1458H44.1802C44.0206 20.1918 43.6903 19.2744 43.2052 18.4375C42.4928 17.2036 41.4685 16.1787 40.2349 15.4656C39.0013 14.7526 37.6019 14.3765 36.1771 14.375H34.8229C32.9043 14.3769 31.0482 15.0578 29.5834 16.2971C28.1186 17.5363 27.1396 19.254 26.8198 21.1458H29.5823C29.8824 19.9838 30.5598 18.9543 31.5084 18.219C32.4569 17.4837 33.6228 17.0842 34.8229 17.0833H36.1771C37.4914 17.0869 38.7596 17.5682 39.7453 18.4375C39.9354 18.6061 40.114 18.787 40.2802 18.9792L40.3344 19.0469C40.4855 19.2239 40.6236 19.4117 40.7474 19.6089L40.8219 19.7307C40.9391 19.9244 41.0431 20.1257 41.1334 20.3333C41.1334 20.374 41.1334 20.4146 41.1808 20.4484C41.275 20.6685 41.3542 20.8947 41.4177 21.1255H35.5V52.2917H47.9313C48.943 52.2966 49.9201 51.9238 50.6714 51.2463C51.4228 50.5689 51.8943 49.6354 51.9938 48.6286L54.4584 25.6958C54.5254 25.1211 54.4689 24.5386 54.2925 23.9874C54.1162 23.4363 53.8242 22.9291 53.436 22.5Z" fill="#FE8D25"/>
<path d="M45.9742 36.2424C45.9241 36.4595 45.8739 36.6766 45.8236 36.8937C45.8203 36.9082 45.8158 36.9223 45.8119 36.9366C45.8104 36.9401 45.8089 36.9437 45.8075 36.9472L45.8008 36.9719C45.7998 36.9776 45.7987 36.9834 45.7976 36.9891L45.7917 37.0092C45.7908 37.015 45.7897 37.0208 45.7887 37.0265L45.7829 37.0465L45.78 37.0637C45.7781 37.0704 45.776 37.077 45.774 37.0837L45.7712 37.101L45.7653 37.121L45.7623 37.1383C45.7603 37.145 45.7583 37.1516 45.7563 37.1582C45.7544 37.1649 45.7543 37.1699 45.7533 37.1757C45.7524 37.1815 45.7494 37.1889 45.7474 37.1956L45.7447 37.213L45.7375 37.2325C45.7347 37.2478 45.732 37.2632 45.7287 37.2785C45.7151 37.3351 45.7015 37.3916 45.6877 37.4482L45.684 37.4652C45.6824 37.4719 45.6806 37.4787 45.6789 37.4855C45.6772 37.4923 45.6765 37.4968 45.6754 37.5025C45.6724 37.5118 45.6695 37.5212 45.6666 37.531C45.6205 37.7252 45.5745 37.9194 45.5285 38.1136C45.4358 38.5071 45.3431 38.9006 45.2503 39.2942C45.2484 39.3009 45.2465 39.3077 45.2447 39.3144C45.2409 39.333 45.2371 39.3508 45.2334 39.369L45.2187 39.4265C45.2176 39.4322 45.2166 39.4379 45.2154 39.4436C45.2143 39.4493 45.2117 39.4571 45.2098 39.4638L45.2066 39.481C45.2047 39.4877 45.2028 39.4944 45.201 39.5011C45.1991 39.5078 45.1987 39.5125 45.1976 39.5183C45.1965 39.5241 45.1936 39.5316 45.1917 39.5384L45.1888 39.5556C45.1867 39.5622 45.1848 39.569 45.1829 39.5757L45.1797 39.5929L45.1739 39.6129C45.1729 39.6187 45.172 39.6245 45.171 39.6302L45.1634 39.6588C45.0875 39.977 45.0116 40.2951 44.9344 40.6182H43.1531C43.0612 40.6182 43.0597 40.6182 43.0364 40.5291C42.9774 40.3026 42.9199 40.0757 42.862 39.849C42.7876 39.5574 42.7132 39.2658 42.639 38.9742C42.6353 38.9597 42.6323 38.945 42.6291 38.9303C42.626 38.9117 42.623 38.893 42.6202 38.8743L42.6169 38.8571L42.6106 38.8369C42.6095 38.8312 42.6083 38.8255 42.6071 38.8197L42.601 38.7997L42.5901 38.7542C42.588 38.7476 42.5859 38.741 42.5839 38.7343C42.5818 38.7277 42.5816 38.7229 42.5803 38.7172L42.5665 38.6689C42.5624 38.6503 42.5584 38.6324 42.5544 38.6142L42.5488 38.5943C42.5452 38.5791 42.5416 38.5639 42.5379 38.5486L42.5312 38.5289L42.5278 38.5116C42.5258 38.5049 42.5237 38.4983 42.5215 38.4916L42.5109 38.4461L42.5047 38.4263C42.5035 38.4205 42.5024 38.4148 42.5013 38.409L42.4959 38.3889C42.4441 38.1947 42.3913 38.0008 42.341 37.8062C42.2717 37.5378 42.2043 37.2689 42.136 37.0003C42.1327 36.9873 42.1295 36.9741 42.1263 36.961C42.1256 36.9517 42.125 36.9424 42.1244 36.933L42.1207 36.916C42.1162 36.8998 42.1119 36.8836 42.1075 36.8675L42.1038 36.8504C42.1018 36.8437 42.0998 36.837 42.0979 36.8304C42.0959 36.8237 42.0951 36.8191 42.0938 36.8134C42.0896 36.7972 42.0853 36.7811 42.0809 36.7649C42.0764 36.7468 42.0721 36.7288 42.0673 36.7107L42.0618 36.6905L41.9647 36.3034H41.9567V40.6087C41.9406 40.61 41.9247 40.6126 41.9086 40.6126C41.0631 40.6126 40.2176 40.6126 39.3721 40.6126C39.3546 40.6117 39.3372 40.6098 39.3199 40.607C39.3199 38.4408 39.3199 36.2745 39.3199 34.1081V34.0365H39.3791C40.6398 34.0365 41.9005 34.0361 43.1613 34.0354C43.2077 34.0354 43.2291 34.0456 43.2423 34.0971C43.2924 34.2931 43.3482 34.4878 43.402 34.683C43.4041 34.692 43.4057 34.7012 43.4068 34.7104L43.415 34.7298L43.4346 34.8127C43.4366 34.8194 43.4386 34.826 43.4408 34.8326L43.4443 34.8498C43.4487 34.8658 43.4531 34.8819 43.4576 34.8981C43.4588 34.9038 43.4599 34.9096 43.461 34.9154C43.462 34.9212 43.4651 34.9286 43.4672 34.9353L43.4706 34.9524L43.4764 34.9726C43.48 34.9877 43.4837 35.0029 43.4874 35.018C43.4893 35.0248 43.4913 35.0314 43.4933 35.038L43.5142 35.1299C43.5162 35.1366 43.5182 35.1433 43.5202 35.1499C43.5237 35.1652 43.5271 35.1804 43.5306 35.1957L43.5368 35.2154L43.54 35.2328L43.5464 35.2531C43.5475 35.2589 43.5485 35.2647 43.5494 35.2705C43.5504 35.2763 43.5535 35.2838 43.5554 35.2905C43.5574 35.2971 43.5577 35.3019 43.5588 35.3077L43.5641 35.3278C43.6375 35.6276 43.7108 35.9273 43.7842 36.227C43.8507 36.4964 43.9178 36.7655 43.9854 37.0344C43.9883 37.0442 43.9917 37.0538 43.9955 37.0632L44.0079 37.0646C44.0838 36.7342 44.1595 36.4042 44.235 36.0744L44.2409 36.0544C44.2418 36.0487 44.2428 36.0429 44.2437 36.0371L44.2578 35.9796C44.2589 35.9738 44.2599 35.9681 44.2609 35.9624C44.2619 35.9567 44.2644 35.9489 44.2661 35.9422C44.2706 35.9209 44.2749 35.8997 44.2795 35.8784C44.2819 35.8691 44.2843 35.8598 44.2868 35.8498L44.2968 35.8038L44.3204 35.6998L44.3233 35.6824L44.3291 35.6624C44.3299 35.6566 44.3309 35.6508 44.3319 35.6451L44.3375 35.625L44.3404 35.6077C44.3423 35.601 44.3442 35.5942 44.3461 35.5875L44.349 35.5704L44.3649 35.5039C44.3657 35.498 44.3666 35.4922 44.3674 35.4865C44.3718 35.4672 44.3762 35.4479 44.3805 35.4287L44.3838 35.4116C44.3855 35.4049 44.3872 35.3981 44.3887 35.3913C44.3903 35.3844 44.3911 35.38 44.3924 35.3743C44.3936 35.3686 44.3956 35.3606 44.3972 35.3538L44.4009 35.3369L44.4079 35.3075L44.4116 35.2905L44.4151 35.2718C44.4299 35.1965 44.4432 35.1208 44.4592 35.0459C44.505 34.8366 44.5515 34.6274 44.5986 34.4183C44.6245 34.3026 44.6501 34.1869 44.6788 34.0719C44.6823 34.0578 44.7029 34.0467 44.7177 34.0381C44.7256 34.0335 44.7379 34.0373 44.7482 34.0373H48.5609C48.5786 34.0373 48.5962 34.0391 48.6139 34.0401V40.6196C48.5948 40.6196 48.5757 40.6183 48.5566 40.6183H45.9907V36.2992C45.9907 36.2806 45.9907 36.2619 45.9902 36.2432L45.9921 36.2021L45.9832 36.201C45.9805 36.2149 45.9776 36.2288 45.9742 36.2424Z" fill="#FCFCFC"/>
<path d="M21.2461 34.0768H23.9005V34.1281C23.9005 34.9881 23.9007 35.8481 23.9013 36.7082C23.9013 36.7509 23.8912 36.7632 23.85 36.7631C22.9996 36.7618 22.1492 36.7615 21.2986 36.7623C21.2809 36.7623 21.2633 36.7638 21.2456 36.7646L21.2461 34.0768Z" fill="#FCFCFC"/>
<path d="M26.878 31.0622C26.8786 31.0793 26.8798 31.0964 26.8798 31.1134C26.8798 31.9689 26.8798 32.8244 26.8798 33.6799V33.7375H24.2157V33.6463C24.2157 32.7987 24.2157 31.951 24.2157 31.1033C24.2157 31.0864 24.2137 31.0696 24.2126 31.0527H24.2303C24.2453 31.0569 24.2606 31.0598 24.276 31.0613C24.4378 31.0619 24.5994 31.0613 24.7612 31.0613L26.878 31.0622Z" fill="#FCFCFC"/>
<path d="M23.9035 31.053C23.9026 31.0699 23.9006 31.0868 23.9006 31.1037C23.9006 31.9541 23.9006 32.8045 23.9006 33.6549V33.7408H21.2462V31.0623C22.108 31.0623 22.9697 31.0621 23.8314 31.0617C23.8498 31.0602 23.868 31.0573 23.8859 31.053H23.9035Z" fill="#FCFCFC"/>
<path d="M29.8538 37.1286L29.3537 37.1857C29.3537 37.1883 29.3537 37.1909 29.3537 37.1934L29.5006 37.2132L29.5283 37.2194L29.5536 37.2226L29.5729 37.2271L29.6066 37.2318L29.6257 37.237L29.6507 37.2406L29.6701 37.2448L29.7036 37.2507L29.7226 37.256L29.7478 37.2597L29.7667 37.2652L29.792 37.2692L29.8109 37.2748L29.8715 37.2864L29.9345 37.3029L29.9509 37.3059L29.9699 37.312L29.9862 37.3153L30.0051 37.3214L30.0215 37.3246L30.0671 37.3392L30.0833 37.3428L30.1289 37.358L30.1717 37.3698L30.1901 37.3791C30.3377 37.4249 30.4761 37.4989 30.5984 37.5976C30.6568 37.6423 30.7123 37.6911 30.7647 37.7436C30.853 37.8358 30.8987 37.9505 30.914 38.0818C30.9625 38.5008 30.9473 38.9217 30.9493 39.3417C30.9511 39.7475 30.9493 40.1536 30.9493 40.5591V40.614H28.1507V40.5592C28.1502 39.8145 28.1496 39.0697 28.149 38.3249C28.149 38.2969 28.1463 38.2689 28.1448 38.2409C28.1438 38.2309 28.1428 38.221 28.1418 38.211C28.1301 38.1345 28.1261 38.0555 28.1047 37.9821C28.0858 37.9147 28.0552 37.8516 28.0144 37.7961C27.9856 37.7588 27.9337 37.7308 27.8876 37.7198C27.7763 37.6936 27.6623 37.6799 27.5493 37.6612L27.4859 37.6566L27.3642 37.6522C27.3263 37.6501 27.2883 37.6473 27.2505 37.6466C27.2451 37.6466 27.2395 37.6559 27.2341 37.6617C27.2341 37.6804 27.2331 37.699 27.2331 37.7177V40.5549C27.2331 40.5735 27.2331 40.5922 27.2325 40.6108C27.2163 40.6115 27.2002 40.6128 27.1841 40.6128H24.2664C24.2502 40.6128 24.2341 40.6113 24.218 40.6105C24.218 40.5934 24.2174 40.5763 24.2174 40.5591C24.2174 38.4085 24.2174 36.2579 24.2174 34.1072V34.0404C24.2325 34.0389 24.2439 34.0368 24.2551 34.0369C25.3201 34.0387 26.3851 34.0409 27.4501 34.0433C27.5928 34.0433 27.7354 34.0475 27.8781 34.0515C28.0629 34.0567 28.2477 34.0622 28.4325 34.0702C28.595 34.0773 28.7577 34.0847 28.9199 34.0982C29.0821 34.1117 29.2424 34.1336 29.4036 34.1518L29.4312 34.1579L29.4565 34.1612L29.4756 34.1663L29.5006 34.1701L29.5197 34.1753L29.5801 34.1888L29.5993 34.194L29.7214 34.2261L29.7399 34.2339C29.8274 34.2639 29.9165 34.2894 30.002 34.3251C30.1644 34.3926 30.3141 34.486 30.4559 34.5936C30.5654 34.6767 30.661 34.7756 30.7326 34.8957C30.8275 35.0549 30.881 35.2316 30.9138 35.4164C30.9452 35.5961 30.9564 35.7791 30.9472 35.9616C30.9365 36.1908 30.9069 36.4171 30.8059 36.6242C30.7353 36.7699 30.6304 36.8831 30.4851 36.9475C30.4113 36.9801 30.335 37.0075 30.2604 37.0373L30.2069 37.054L30.1907 37.0576L30.1716 37.0632L30.155 37.0658L30.1362 37.072L30.1114 37.0771L30.0921 37.082L30.0757 37.0847L30.0567 37.0903L30.0317 37.0945L30.0126 37.0997L29.9874 37.1032L29.9597 37.11L29.9346 37.1134L29.9067 37.1193L29.8815 37.1223L29.8538 37.1286ZM27.2342 36.6198C27.3535 36.6393 27.7521 36.6023 27.8896 36.5659C28.0087 36.5342 28.0804 36.4558 28.114 36.3347C28.1255 36.2932 28.1384 36.2507 28.1396 36.2077C28.145 36.0106 28.1517 35.8133 28.1484 35.6162C28.1443 35.3952 28.0425 35.27 27.8381 35.2183C27.6451 35.1694 27.4485 35.1623 27.2513 35.1611C27.2455 35.162 27.2399 35.1637 27.2346 35.1662L27.2342 36.6198Z" fill="#FCFCFC"/>
<path d="M35.8403 34.0495C35.8568 34.0452 35.8734 34.037 35.8899 34.037C36.8049 34.0364 37.7201 34.0362 38.6355 34.0366C38.6471 34.0366 38.6588 34.0376 38.6781 34.0384C38.6435 34.1002 38.6118 34.158 38.5791 34.215C38.4777 34.3917 38.3768 34.5685 38.2742 34.7444C38.1159 35.0158 37.9557 35.2857 37.7975 35.5574C37.6936 35.7359 37.593 35.9165 37.4893 36.0951C37.406 36.2388 37.3199 36.3809 37.236 36.5244C37.1464 36.6778 37.0577 36.8317 36.97 36.9861C36.9635 36.9977 36.966 37.021 36.9726 37.0342C37.0367 37.1605 37.1024 37.2861 37.168 37.4117C37.2556 37.5797 37.3435 37.7475 37.4316 37.9152C37.521 38.0849 37.6118 38.254 37.7007 38.4241C37.8013 38.616 37.9001 38.8089 38.0003 39.001C38.0834 39.1603 38.168 39.3191 38.2508 39.4783C38.3939 39.7524 38.537 40.0266 38.6799 40.3009C38.7281 40.393 38.7781 40.4841 38.8269 40.5758C38.8326 40.5887 38.8375 40.6019 38.8417 40.6153C38.8235 40.6162 38.8083 40.6176 38.793 40.6176C37.7881 40.6176 36.7833 40.618 35.7785 40.6187C35.742 40.6187 35.7214 40.6057 35.7078 40.5729C35.6516 40.4399 35.5953 40.3069 35.5388 40.174C35.5158 40.1201 35.4912 40.0671 35.4681 40.0134C35.4074 39.8727 35.3475 39.7318 35.2865 39.5913C35.2289 39.4586 35.1694 39.3268 35.1121 39.1939C35.0491 39.0477 34.9885 38.9004 34.9252 38.7542C34.8694 38.6247 34.8104 38.4966 34.7554 38.367C34.6843 38.2007 34.6151 38.0334 34.5451 37.8665C34.542 37.8595 34.5385 37.8527 34.5352 37.8457L34.5238 37.8121L34.5149 37.8145C34.5155 37.8255 34.5159 37.8365 34.5164 37.8474C34.5164 38.3544 34.5162 38.8614 34.5157 39.3686C34.5157 39.7822 34.5157 40.1957 34.5157 40.6094C34.4981 40.6107 34.4804 40.6132 34.4628 40.6132C33.4917 40.6132 32.5208 40.6132 31.5501 40.6132C31.5325 40.6132 31.5148 40.6105 31.4977 40.609V34.0365H34.5063L34.5151 34.0487C34.5151 34.8762 34.5151 35.7037 34.5151 36.5312V36.5807L34.5255 36.5816L34.5416 36.5312L35.8328 34.0604C35.8353 34.0567 35.8378 34.0531 35.8403 34.0495Z" fill="#FCFCFC"/>
</svg>
