<svg width="98" height="98" viewBox="0 0 98 98" fill="none" xmlns="http://www.w3.org/2000/svg">
<path d="M88.0408 25.8616L88.0485 25.8701C88.7313 26.625 89.245 27.517 89.5551 28.4865C89.8653 29.4559 89.9648 30.4805 89.8468 31.4915L89.8458 31.5007L89.8448 31.5098L84.271 83.3733L84.2701 83.382L84.2692 83.3907C84.0943 85.1616 83.2649 86.8035 81.9432 87.9952C80.6216 89.1868 78.9029 89.8425 77.1234 89.8338H77.1135L20.9167 89.8338L20.9074 89.8338C19.1242 89.8419 17.4024 89.1829 16.0802 87.9863C14.758 86.7898 13.931 85.1421 13.7616 83.3669L13.7604 83.3541L13.759 83.3415L8.15463 31.478L8.15361 31.4686L8.1525 31.4591C8.0343 30.4531 8.13132 29.4335 8.43712 28.4679C8.74291 27.5023 9.2505 26.6127 9.92622 25.8581C10.6019 25.1036 11.4304 24.5013 12.3565 24.0912C13.2827 23.6812 14.2855 23.4727 15.2983 23.4796V23.4797H15.3123H29.3692H31.0947L31.3823 21.7783C32.0251 17.9752 33.9931 14.5222 36.9377 12.031C39.8821 9.54002 43.613 8.17128 47.4697 8.16716H50.5299C54.3866 8.17128 58.1175 9.54002 61.0619 12.031C64.0065 14.5222 65.9744 17.9752 66.6173 21.7783L66.9049 23.4797H68.6304L82.6873 23.4797L82.6933 23.4796C83.7023 23.4766 84.7005 23.6874 85.6222 24.0979C86.5439 24.5085 87.3682 25.1095 88.0408 25.8616ZM33.6398 20.9276L32.9809 23.4797H35.6167H62.3829H65.0187L64.3597 20.9276C63.5681 17.8615 61.7806 15.1453 59.2779 13.2052C56.7752 11.2651 53.6991 10.2112 50.5326 10.2088H50.531L47.4685 10.2088L47.467 10.2088C44.3004 10.2112 41.2243 11.2651 38.7216 13.2052C36.219 15.1453 34.4315 17.8615 33.6398 20.9276Z" stroke="#FCFCFC" stroke-width="4.08333"/>
<path d="M72.6881 55.5791C72.5747 56.0701 72.4611 56.5611 72.3475 57.0521C72.3399 57.0848 72.3297 57.1167 72.3209 57.149C72.3175 57.157 72.3141 57.1651 72.3109 57.1731L72.296 57.229C72.2936 57.2419 72.2912 57.255 72.2886 57.2678L72.2754 57.3132C72.2732 57.3263 72.2708 57.3394 72.2686 57.3523L72.2554 57.3976L72.2488 57.4365C72.2444 57.4517 72.2398 57.4667 72.2353 57.4816L72.2289 57.5209L72.2155 57.5661L72.2089 57.6053C72.2043 57.6203 72.1997 57.6353 72.1953 57.6503C72.1909 57.6653 72.1907 57.6767 72.1885 57.6898C72.1863 57.7028 72.1795 57.7197 72.1752 57.7347L72.169 57.7742L72.1528 57.8183C72.1464 57.8529 72.1402 57.8877 72.1328 57.9223C72.1021 58.0503 72.0712 58.1782 72.0402 58.3061L72.0318 58.3445C72.028 58.3597 72.024 58.3751 72.0202 58.3905C72.0164 58.4059 72.0148 58.416 72.0122 58.4289C72.0054 58.45 71.9989 58.4711 71.9923 58.4933C71.8882 58.9324 71.7841 59.3716 71.68 59.8109C71.4705 60.7008 71.2608 61.5908 71.0509 62.4809C71.0467 62.4961 71.0423 62.5113 71.0381 62.5265C71.0295 62.5687 71.0211 62.6088 71.0126 62.65L70.9794 62.78C70.977 62.7931 70.9746 62.8059 70.972 62.8188C70.9694 62.8317 70.9636 62.8492 70.9592 62.8644L70.9521 62.9032C70.9479 62.9184 70.9435 62.9336 70.9393 62.9488C70.9351 62.964 70.9341 62.9746 70.9317 62.9877C70.9293 63.0007 70.9227 63.0178 70.9183 63.033L70.9117 63.0721C70.9071 63.0871 70.9027 63.1023 70.8984 63.1175L70.8912 63.1563L70.878 63.2017C70.8758 63.2148 70.8738 63.2278 70.8716 63.2407L70.8544 63.3055C70.6827 64.025 70.511 64.7443 70.3365 65.475H66.308C66.1002 65.475 66.0968 65.475 66.0441 65.2737C65.9107 64.7614 65.7806 64.2483 65.6496 63.7355C65.4813 63.0761 65.3132 62.4167 65.1452 61.7572C65.1369 61.7244 65.1303 61.6911 65.1229 61.658C65.1159 61.6157 65.1091 61.5735 65.1029 61.5313L65.0953 61.4923L65.0812 61.4467C65.0786 61.4338 65.076 61.4209 65.0732 61.4078L65.0594 61.3625L65.0348 61.2597C65.03 61.2447 65.0253 61.2297 65.0207 61.2147C65.0161 61.1997 65.0155 61.1888 65.0127 61.1759L64.9813 61.0668C64.9721 61.0246 64.9632 60.9842 64.954 60.9431L64.9414 60.8979C64.9333 60.8636 64.925 60.8292 64.9166 60.7947L64.9015 60.7502L64.8939 60.7109C64.8893 60.6959 64.8845 60.6809 64.8797 60.6658L64.8555 60.5628L64.8416 60.518C64.839 60.5049 64.8364 60.492 64.834 60.479L64.8216 60.4336C64.7046 59.9944 64.5852 59.5558 64.4714 59.1157C64.3147 58.5087 64.1621 57.9006 64.0078 57.2932C64.0002 57.2636 63.993 57.2339 63.9858 57.2043C63.9842 57.1832 63.9828 57.1621 63.9814 57.141L63.9731 57.1024C63.9631 57.0658 63.9532 57.0293 63.9433 56.9928L63.9349 56.9542C63.9305 56.939 63.9259 56.9238 63.9216 56.9088C63.9172 56.8938 63.9154 56.8833 63.9124 56.8704C63.9028 56.8338 63.8931 56.7973 63.8832 56.7609C63.873 56.7199 63.8633 56.6792 63.8525 56.6382L63.8399 56.5924L63.6203 55.7172H63.6023V65.4537C63.566 65.4567 63.5298 65.4624 63.4935 65.4624C61.5813 65.4624 59.6692 65.4624 57.7572 65.4624C57.7176 65.4604 57.6783 65.4561 57.6392 65.4497C57.6392 60.5508 57.6392 55.6517 57.6392 50.7523V50.5904H57.7729C60.624 50.5904 63.4752 50.5896 66.3264 50.5879C66.4314 50.5879 66.48 50.6109 66.5097 50.7274C66.6229 51.1706 66.7493 51.6109 66.8709 52.0525C66.8756 52.0729 66.8792 52.0936 66.8817 52.1145L66.9002 52.1584L66.9446 52.3458C66.9491 52.3608 66.9537 52.3758 66.9585 52.3908L66.9665 52.4296C66.9765 52.4659 66.9865 52.5024 66.9967 52.539C66.9993 52.5518 67.0019 52.5649 67.0043 52.578C67.0066 52.5911 67.0136 52.608 67.0182 52.623L67.026 52.6618L67.0392 52.7074C67.0474 52.7416 67.0556 52.776 67.0639 52.8102C67.0683 52.8254 67.0729 52.8404 67.0773 52.8553L67.1246 53.0632C67.129 53.0782 67.1336 53.0934 67.1382 53.1084C67.146 53.143 67.1538 53.1774 67.1618 53.212L67.1758 53.2566L67.1829 53.2958L67.1975 53.3418C67.1999 53.3549 67.2021 53.368 67.2043 53.3811C67.2065 53.3942 67.2135 53.4113 67.2179 53.4263C67.2223 53.4413 67.2231 53.4522 67.2255 53.4653L67.2374 53.5107C67.4034 54.1886 67.5693 54.8665 67.7352 55.5443C67.8856 56.1534 68.0373 56.7621 68.1902 57.3702C68.1968 57.3923 68.2045 57.4141 68.2132 57.4354L68.2411 57.4386C68.4128 56.6914 68.5841 55.945 68.7548 55.1992L68.768 55.154C68.7702 55.141 68.7724 55.1279 68.7744 55.1148L68.8064 54.9848C68.8087 54.9717 68.8111 54.9588 68.8133 54.9459C68.8155 54.9331 68.8211 54.9153 68.8251 54.9001C68.8353 54.852 68.8451 54.8041 68.8555 54.756C68.8609 54.7349 68.8662 54.7138 68.8718 54.6912L68.8946 54.5871L68.9479 54.352L68.9545 54.3127L68.9675 54.2674C68.9695 54.2543 68.9717 54.2412 68.9739 54.2283L68.9864 54.1827L68.993 54.1437C68.9974 54.1285 69.0016 54.1133 69.006 54.0981L69.0126 54.0593L69.0485 53.909C69.0503 53.8957 69.0523 53.8826 69.0541 53.8695C69.0641 53.826 69.0741 53.7823 69.0839 53.7389L69.0913 53.7002C69.0951 53.685 69.0988 53.6696 69.1024 53.6542C69.106 53.6388 69.1078 53.6287 69.1106 53.6158C69.1134 53.6029 69.118 53.585 69.1216 53.5696L69.13 53.5314L69.1458 53.4649L69.1542 53.4263L69.1619 53.3841C69.1955 53.2137 69.2256 53.0426 69.2618 52.8731C69.3655 52.3997 69.4705 51.9267 69.577 51.4539C69.6355 51.1922 69.6934 50.9304 69.7583 50.6704C69.7663 50.6385 69.813 50.6134 69.8464 50.594C69.8643 50.5837 69.8921 50.5921 69.9154 50.5921H78.538C78.5779 50.5921 78.6179 50.5963 78.6578 50.5984V65.4784C78.6147 65.4784 78.5714 65.4755 78.5282 65.4755H72.7254V55.7077C72.7254 55.6654 72.7254 55.6232 72.7242 55.581L72.7284 55.4879L72.7084 55.4854C72.7022 55.5169 72.6957 55.5483 72.6881 55.5791Z" fill="#FCFCFC"/>
<path d="M16.7654 50.6807H22.7682V50.7967C22.7682 52.7416 22.7688 54.6867 22.77 56.6318C22.77 56.7283 22.7473 56.7561 22.654 56.7559C20.7309 56.753 18.8076 56.7523 16.884 56.754C16.844 56.754 16.8041 56.7574 16.7642 56.7593L16.7654 50.6807Z" fill="#FCFCFC"/>
<path d="M29.501 43.8643C29.5024 43.9029 29.505 43.9416 29.505 43.9802C29.505 45.9148 29.505 47.8495 29.505 49.7844V49.9146H23.4801V49.7084C23.4801 47.7914 23.4801 45.8743 23.4801 43.9572C23.4801 43.919 23.4755 43.881 23.4731 43.8428H23.5131C23.547 43.8524 23.5816 43.8589 23.6165 43.8622C23.9823 43.8637 24.3478 43.8622 24.7136 43.8622L29.501 43.8643Z" fill="#FCFCFC"/>
<path d="M22.7733 43.8418C22.7711 43.88 22.7667 43.9182 22.7667 43.9564C22.7667 45.8796 22.7667 47.8029 22.7667 49.7262V49.9204H16.7637V43.8629C18.7126 43.8629 20.6614 43.8624 22.6102 43.8614C22.6517 43.8582 22.6929 43.8516 22.7334 43.8418H22.7733Z" fill="#FCFCFC"/>
<path d="M36.2322 57.5829L35.1014 57.7121C35.1014 57.718 35.1014 57.7237 35.1014 57.7294L35.4336 57.7742L35.4961 57.7883L35.5534 57.7955L35.5969 57.8056L35.6732 57.8164L35.7163 57.828L35.773 57.8362L35.8167 57.8457L35.8926 57.859L35.9355 57.871L35.9926 57.8795L36.0354 57.8919L36.0925 57.9008L36.1352 57.9135L36.2724 57.9398L36.4147 57.977L36.4518 57.984L36.4948 57.9977L36.5317 58.0051L36.5744 58.019L36.6116 58.0262L36.7146 58.0591L36.7513 58.0673L36.8544 58.1017L36.9512 58.1283L36.9927 58.1494C37.3266 58.2529 37.6396 58.4204 37.9161 58.6435C38.0482 58.7447 38.1739 58.855 38.2923 58.9736C38.4919 59.1822 38.5954 59.4416 38.6299 59.7385C38.7397 60.6862 38.7052 61.6381 38.7098 62.5879C38.714 63.5056 38.7098 64.4241 38.7098 65.3412V65.4653H32.3806V65.3414C32.3795 63.6571 32.3782 61.9728 32.3769 60.2883C32.3769 60.225 32.3707 60.1617 32.3673 60.0984C32.3651 60.0758 32.3627 60.0534 32.3605 60.0309C32.3341 59.8578 32.3249 59.679 32.2766 59.5131C32.2339 59.3607 32.1646 59.2181 32.0724 59.0925C32.0073 59.008 31.8899 58.9447 31.7857 58.9198C31.5339 58.8607 31.2761 58.8297 31.0206 58.7875L30.8772 58.7769L30.6019 58.767C30.5163 58.7624 30.4304 58.756 30.3448 58.7543C30.3326 58.7543 30.32 58.7754 30.3078 58.7885C30.3078 58.8307 30.3054 58.873 30.3054 58.9152V65.3315C30.3054 65.3737 30.3054 65.4159 30.304 65.4581C30.2675 65.4596 30.2311 65.4626 30.1946 65.4626H23.5962C23.5596 65.4626 23.5231 65.4592 23.4867 65.4573C23.4867 65.4187 23.4854 65.38 23.4854 65.3412C23.4854 60.4775 23.4854 55.6137 23.4854 50.75V50.5988C23.5195 50.5955 23.5452 50.5906 23.5706 50.5908C25.9791 50.595 28.3877 50.5999 30.7962 50.6054C31.1188 50.6054 31.4415 50.6149 31.7641 50.624C32.182 50.6358 32.6001 50.648 33.018 50.6662C33.3855 50.6822 33.7535 50.6989 34.1203 50.7295C34.487 50.7601 34.8496 50.8095 35.2142 50.8506L35.2765 50.8646L35.3338 50.872L35.3769 50.8836L35.4336 50.8922L35.4767 50.9038L35.6133 50.9344L35.6566 50.9463L35.9327 51.0189L35.9747 51.0364C36.1725 51.1043 36.374 51.162 36.5674 51.2426C36.9348 51.3954 37.2732 51.6065 37.5939 51.8498C37.8417 52.0379 38.0579 52.2614 38.2198 52.533C38.4344 52.8931 38.5554 53.2929 38.6295 53.7108C38.7005 54.1171 38.7259 54.5309 38.705 54.9436C38.6808 55.462 38.6139 55.9738 38.3855 56.4421C38.2258 56.7716 37.9886 57.0276 37.66 57.1733C37.4931 57.2471 37.3206 57.309 37.1518 57.3763L37.0308 57.4141L36.9941 57.4223L36.951 57.435L36.9135 57.4409L36.8709 57.4548L36.8148 57.4664L36.7713 57.4774L36.7342 57.4835L36.6912 57.4962L36.6345 57.5057L36.5914 57.5175L36.5343 57.5255L36.4718 57.5407L36.4151 57.5485L36.352 57.5618L36.2949 57.5686L36.2322 57.5829ZM30.308 56.4322C30.5778 56.4763 31.4792 56.3928 31.7901 56.3102C32.0596 56.2387 32.2217 56.0614 32.2976 55.7874C32.3235 55.6935 32.3529 55.5975 32.3555 55.5002C32.3677 55.0544 32.3828 54.6082 32.3755 54.1624C32.3663 53.6626 32.1359 53.3796 31.6737 53.2627C31.2372 53.1521 30.7926 53.136 30.3465 53.1333C30.3335 53.1354 30.3208 53.1393 30.3088 53.1449L30.308 56.4322Z" fill="#FCFCFC"/>
<path d="M49.7711 50.618C49.8084 50.6082 49.846 50.5899 49.8833 50.5899C51.9527 50.5883 54.0225 50.588 56.0926 50.5888C56.119 50.5888 56.1453 50.5911 56.1891 50.593C56.1108 50.7328 56.0391 50.8634 55.965 50.9924C55.7358 51.3919 55.5076 51.7919 55.2756 52.1895C54.9176 52.8033 54.5553 53.4137 54.1975 54.0283C53.9625 54.4319 53.7349 54.8403 53.5005 55.2443C53.312 55.5693 53.1173 55.8905 52.9277 56.2151C52.725 56.562 52.5244 56.91 52.3261 57.2593C52.3113 57.2854 52.3169 57.3382 52.3319 57.368C52.4768 57.6538 52.6256 57.9378 52.7737 58.2217C52.9719 58.6016 53.1707 58.9812 53.3699 59.3604C53.5722 59.7443 53.7774 60.1268 53.9787 60.5113C54.2061 60.9453 54.4295 61.3816 54.6561 61.8161C54.844 62.1764 55.0354 62.5354 55.2225 62.8955C55.5464 63.5155 55.8699 64.1356 56.1931 64.7558C56.3021 64.9641 56.4151 65.1701 56.5255 65.3776C56.5383 65.4067 56.5495 65.4365 56.559 65.4669C56.5179 65.469 56.4834 65.4722 56.4488 65.4722C54.1763 65.4722 51.9038 65.473 49.6313 65.4745C49.5489 65.4745 49.5024 65.4452 49.4716 65.3711C49.3445 65.0701 49.2171 64.7693 49.0893 64.4688C49.0374 64.347 48.9817 64.2271 48.9295 64.1055C48.7922 63.7875 48.6568 63.4688 48.5189 63.1511C48.3885 62.851 48.2539 62.553 48.1243 62.2524C47.9818 61.9217 47.8448 61.5886 47.7017 61.2579C47.5755 60.9651 47.4421 60.6753 47.3177 60.3822C47.1568 60.0061 47.0005 59.6278 46.8419 59.2504C46.8352 59.2344 46.8272 59.2192 46.8196 59.2034L46.7938 59.1274L46.7739 59.1327C46.7751 59.1576 46.7761 59.1825 46.7773 59.2072C46.7773 60.3537 46.7767 61.5005 46.7757 62.6475C46.7757 63.5827 46.7757 64.518 46.7757 65.4536C46.7357 65.4566 46.6958 65.462 46.6559 65.462C44.4596 65.462 42.2639 65.462 40.0688 65.462C40.0289 65.462 39.9889 65.4559 39.9502 65.4526V50.5886H46.7543L46.7743 50.6163C46.7743 52.4877 46.7743 54.3591 46.7743 56.2306V56.3424L46.7978 56.3445L46.8342 56.2306L49.7543 50.6426C49.7599 50.6344 49.7655 50.6262 49.7711 50.618Z" fill="#FCFCFC"/>
</svg>
