<svg width="95" height="94" viewBox="0 0 95 94" fill="none" xmlns="http://www.w3.org/2000/svg">
<rect x="7.5" y="7" width="80" height="80" rx="40" fill="#D1FADF"/>
<rect x="7.5" y="7" width="80" height="80" rx="40" stroke="#ECFDF3" stroke-width="13.3333"/>
<path d="M64.1667 45.4666V46.9999C64.1646 50.594 63.0008 54.0911 60.8489 56.9696C58.6969 59.8482 55.6721 61.9541 52.2256 62.9731C48.7791 63.9921 45.0954 63.8698 41.7241 62.6242C38.3528 61.3787 35.4744 59.0768 33.5183 56.0617C31.5621 53.0467 30.633 49.48 30.8695 45.8938C31.1059 42.3075 32.4953 38.8938 34.8305 36.1617C37.1656 33.4296 40.3213 31.5256 43.827 30.7335C47.3327 29.9415 51.0005 30.3038 54.2833 31.7666M64.1667 33.6666L47.5 50.3499L42.5 45.3499" stroke="#039855" stroke-width="3.33333" stroke-linecap="round" stroke-linejoin="round"/>
</svg>
