<svg width="67" height="66" viewBox="0 0 67 66" fill="none" xmlns="http://www.w3.org/2000/svg">
<rect x="5.5" y="5" width="56" height="56" rx="28" fill="#FFDBC4"/>
<rect x="5.5" y="5" width="56" height="56" rx="28" stroke="#FFF2E6" stroke-width="10"/>
<path d="M25.5183 26.515L25.74 26.7375L25.9617 26.5151L27.1601 25.313H48.3158C48.4971 25.313 48.6471 25.4615 48.6471 25.647V41.1796C48.6471 41.3648 48.4974 41.5131 48.3158 41.5131H27.1601L25.9616 40.3119L25.74 40.0898L25.5184 40.312L24.3204 41.5131H18.6453C18.4624 41.5131 18.313 41.3646 18.313 41.1796V25.647C18.313 25.4618 18.4627 25.313 18.6453 25.313H24.3203L25.5183 26.515ZM24.7821 37.2965C24.7821 37.826 25.2102 38.2561 25.74 38.2561C26.2702 38.2561 26.6984 37.8262 26.6984 37.2965C26.6984 36.7668 26.2702 36.3369 25.74 36.3369C25.2102 36.3369 24.7821 36.7669 24.7821 37.2965ZM24.7821 34.7083C24.7821 35.2367 25.2099 35.6679 25.74 35.6679C26.2705 35.6679 26.6984 35.2368 26.6984 34.7083C26.6984 34.1789 26.2709 33.7473 25.74 33.7473C25.2095 33.7473 24.7821 34.1791 24.7821 34.7083ZM24.7821 32.1188C24.7821 32.6478 25.2096 33.0793 25.74 33.0793C26.2707 33.0793 26.6984 32.648 26.6984 32.1188C26.6984 31.5893 26.2705 31.1587 25.74 31.1587C25.2099 31.1587 24.7821 31.5896 24.7821 32.1188ZM24.7821 29.5301C24.7821 30.0595 25.2099 30.4902 25.74 30.4902C26.2705 30.4902 26.6984 30.0596 26.6984 29.5301C26.6984 29.0007 26.2705 28.57 25.74 28.57C25.2099 28.57 24.7821 29.0008 24.7821 29.5301Z" fill="#FE8D25" stroke="#D16B28" stroke-width="0.626088"/>
<path d="M18.4891 25.647C18.4891 25.5586 18.5603 25.4891 18.6453 25.4891H24.2472L25.2509 26.4962V28.5047C24.8689 28.6879 24.606 29.079 24.606 29.5302C24.606 29.9814 24.8689 30.3724 25.2509 30.5556V31.0934C24.8689 31.2766 24.606 31.6676 24.606 32.1188C24.606 32.5697 24.8688 32.9612 25.2509 33.1446V33.6821C24.8687 33.8655 24.606 34.2572 24.606 34.7083C24.606 35.1589 24.8689 35.5499 25.2509 35.7332V36.2714C24.8691 36.4544 24.606 36.845 24.606 37.2965C24.606 37.7479 24.8691 38.1385 25.2509 38.3215V40.3308L24.2473 41.337H18.6453C18.5599 41.337 18.4891 41.2676 18.4891 41.1796V25.647Z" fill="#FE8D25" stroke="#D16B28" stroke-width="0.978293"/>
<rect x="30.902" y="30.3768" width="12.3135" height="5.37106" stroke="#D16B28" stroke-width="0.00369599"/>
<path d="M42.0294 32.599C42.0069 32.692 41.9843 32.785 41.9616 32.8781C41.9601 32.8843 41.9581 32.8903 41.9564 32.8964C41.9557 32.8979 41.955 32.8994 41.9544 32.901L41.9514 32.9116C41.9509 32.914 41.9504 32.9165 41.9499 32.9189L41.9473 32.9275C41.9469 32.93 41.9464 32.9325 41.946 32.9349L41.9433 32.9435L41.942 32.9509C41.9411 32.9538 41.9402 32.9566 41.9393 32.9594L41.938 32.9669L41.9354 32.9754L41.9341 32.9829C41.9332 32.9857 41.9322 32.9885 41.9314 32.9914C41.9305 32.9942 41.9305 32.9964 41.93 32.9989C41.9296 33.0013 41.9282 33.0045 41.9274 33.0074L41.9261 33.0149L41.9229 33.0232C41.9216 33.0298 41.9204 33.0364 41.9189 33.0429C41.9128 33.0672 41.9067 33.0914 41.9005 33.1156L41.8988 33.1229C41.8981 33.1258 41.8973 33.1287 41.8965 33.1316C41.8958 33.1345 41.8955 33.1365 41.8949 33.1389C41.8936 33.1429 41.8923 33.1469 41.891 33.1511C41.8702 33.2343 41.8495 33.3175 41.8288 33.4007C41.7871 33.5693 41.7454 33.738 41.7036 33.9066C41.7028 33.9095 41.7019 33.9124 41.7011 33.9152C41.6994 33.9232 41.6977 33.9308 41.696 33.9386L41.6894 33.9633C41.6889 33.9657 41.6884 33.9682 41.6879 33.9706C41.6874 33.9731 41.6863 33.9764 41.6854 33.9793L41.684 33.9866C41.6831 33.9895 41.6822 33.9924 41.6814 33.9953C41.6806 33.9981 41.6804 34.0001 41.6799 34.0026C41.6794 34.0051 41.6781 34.0083 41.6772 34.0112L41.6759 34.0186C41.675 34.0214 41.6741 34.0243 41.6733 34.0272L41.6718 34.0346L41.6692 34.0432C41.6688 34.0456 41.6684 34.0481 41.6679 34.0506L41.6645 34.0628C41.6304 34.1992 41.5962 34.3354 41.5615 34.4739H40.7598C40.7184 34.4739 40.7178 34.4739 40.7073 34.4357C40.6807 34.3387 40.6548 34.2415 40.6288 34.1443C40.5953 34.0194 40.5618 33.8944 40.5284 33.7695C40.5267 33.7633 40.5254 33.757 40.5239 33.7507C40.5226 33.7427 40.5212 33.7347 40.52 33.7267L40.5185 33.7193L40.5156 33.7107C40.5151 33.7082 40.5146 33.7058 40.514 33.7033L40.5113 33.6947L40.5064 33.6752C40.5055 33.6724 40.5045 33.6695 40.5036 33.6667C40.5027 33.6639 40.5026 33.6618 40.502 33.6594L40.4958 33.6387C40.4939 33.6307 40.4922 33.623 40.4903 33.6152L40.4878 33.6067C40.4862 33.6002 40.4846 33.5937 40.4829 33.5871L40.4799 33.5787L40.4784 33.5713C40.4775 33.5684 40.4765 33.5656 40.4755 33.5627L40.4707 33.5432L40.468 33.5347C40.4674 33.5322 40.4669 33.5298 40.4665 33.5273L40.464 33.5187C40.4407 33.4355 40.4169 33.3524 40.3943 33.269C40.3631 33.154 40.3328 33.0388 40.302 32.9237C40.3005 32.9181 40.2991 32.9125 40.2977 32.9069C40.2974 32.9029 40.2971 32.8989 40.2968 32.8949L40.2951 32.8876C40.2931 32.8806 40.2912 32.8737 40.2892 32.8668L40.2875 32.8595C40.2867 32.8566 40.2857 32.8537 40.2849 32.8509C40.284 32.8481 40.2836 32.8461 40.283 32.8436C40.2811 32.8367 40.2792 32.8298 40.2772 32.8229C40.2752 32.8151 40.2733 32.8074 40.2711 32.7996L40.2686 32.791L40.2249 32.6251H40.2213V34.4698C40.2141 34.4704 40.2069 34.4715 40.1997 34.4715C39.8192 34.4715 39.4386 34.4715 39.0581 34.4715C39.0503 34.4711 39.0424 34.4703 39.0347 34.4691C39.0347 33.5409 39.0347 32.6127 39.0347 31.6845V31.6538H39.0613C39.6287 31.6538 40.196 31.6536 40.7634 31.6533C40.7843 31.6533 40.794 31.6577 40.7999 31.6798C40.8224 31.7637 40.8476 31.8471 40.8718 31.9308C40.8727 31.9347 40.8734 31.9386 40.8739 31.9426L40.8776 31.9509L40.8865 31.9864C40.8874 31.9892 40.8883 31.9921 40.8892 31.9949L40.8908 32.0023C40.8928 32.0091 40.8948 32.016 40.8968 32.023C40.8973 32.0254 40.8979 32.0279 40.8983 32.0304C40.8988 32.0329 40.9002 32.0361 40.9011 32.0389L40.9027 32.0462L40.9053 32.0549C40.9069 32.0614 40.9085 32.0679 40.9102 32.0744C40.9111 32.0772 40.912 32.0801 40.9129 32.0829L40.9223 32.1223C40.9232 32.1251 40.9241 32.128 40.925 32.1309C40.9265 32.1374 40.9281 32.1439 40.9297 32.1505L40.9325 32.1589L40.9339 32.1664L40.9368 32.1751C40.9373 32.1776 40.9377 32.1801 40.9381 32.1825C40.9386 32.185 40.94 32.1882 40.9409 32.1911C40.9417 32.1939 40.9419 32.196 40.9424 32.1985L40.9447 32.2071C40.9778 32.3355 41.0108 32.464 41.0438 32.5924C41.0737 32.7078 41.1039 32.8231 41.1343 32.9383C41.1357 32.9425 41.1372 32.9466 41.1389 32.9507L41.1445 32.9513C41.1786 32.8097 41.2127 32.6683 41.2467 32.527L41.2493 32.5184C41.2498 32.516 41.2502 32.5135 41.2506 32.511L41.257 32.4864C41.2574 32.4839 41.2579 32.4814 41.2583 32.479C41.2588 32.4766 41.2599 32.4732 41.2607 32.4703C41.2627 32.4612 41.2647 32.4521 41.2667 32.443C41.2678 32.439 41.2689 32.435 41.27 32.4307L41.2745 32.411L41.2851 32.3665L41.2864 32.359L41.289 32.3504C41.2894 32.348 41.2899 32.3455 41.2903 32.343L41.2928 32.3344L41.2941 32.327C41.295 32.3241 41.2958 32.3213 41.2967 32.3184L41.298 32.311L41.3052 32.2825C41.3055 32.28 41.3059 32.2775 41.3063 32.2751C41.3083 32.2668 41.3102 32.2585 41.3122 32.2503L41.3137 32.243C41.3144 32.2401 41.3152 32.2372 41.3159 32.2343C41.3166 32.2314 41.317 32.2294 41.3175 32.227C41.3181 32.2246 41.319 32.2212 41.3197 32.2182L41.3214 32.211L41.3245 32.1984L41.3262 32.1911L41.3277 32.1831C41.3344 32.1508 41.3404 32.1184 41.3476 32.0863C41.3682 31.9966 41.3891 31.907 41.4103 31.8174C41.422 31.7678 41.4335 31.7182 41.4464 31.669C41.448 31.6629 41.4573 31.6582 41.4639 31.6545C41.4675 31.6525 41.473 31.6541 41.4777 31.6541H43.1936C43.2015 31.6541 43.2095 31.6549 43.2174 31.6553V34.4745C43.2088 34.4745 43.2002 34.474 43.1916 34.474H42.0369V32.6233C42.0369 32.6153 42.0369 32.6073 42.0366 32.5993L42.0375 32.5817L42.0335 32.5812C42.0322 32.5872 42.0309 32.5931 42.0294 32.599Z" fill="#FCFCFC"/>
<path d="M30.9004 31.6709H32.095V31.6929C32.095 32.0614 32.0951 32.4299 32.0953 32.7984C32.0953 32.8167 32.0908 32.822 32.0722 32.8219C31.6895 32.8214 31.3068 32.8213 30.924 32.8216C30.916 32.8216 30.9081 32.8222 30.9001 32.8226L30.9004 31.6709Z" fill="#FCFCFC"/>
<path d="M33.4351 30.3791C33.4354 30.3864 33.4359 30.3937 33.4359 30.401C33.4359 30.7676 33.4359 31.1341 33.4359 31.5007V31.5254H32.237V31.4863C32.237 31.1231 32.237 30.7599 32.237 30.3967C32.237 30.3894 32.2361 30.3822 32.2356 30.375H32.2435C32.2503 30.3768 32.2572 30.3781 32.2641 30.3787C32.3369 30.379 32.4097 30.3787 32.4825 30.3787L33.4351 30.3791Z" fill="#FCFCFC"/>
<path d="M32.0963 30.375C32.0959 30.3822 32.095 30.3895 32.095 30.3967C32.095 30.7611 32.095 31.1255 32.095 31.4899V31.5267H30.9004V30.379C31.2882 30.379 31.6761 30.3789 32.0639 30.3787C32.0721 30.3781 32.0803 30.3769 32.0884 30.375H32.0963Z" fill="#FCFCFC"/>
<path d="M34.7742 32.9781L34.5492 33.0025C34.5492 33.0037 34.5492 33.0047 34.5492 33.0058L34.6153 33.0143L34.6277 33.017L34.6391 33.0183L34.6478 33.0203L34.6629 33.0223L34.6715 33.0245L34.6828 33.0261L34.6915 33.0279L34.7066 33.0304L34.7152 33.0327L34.7265 33.0343L34.735 33.0366L34.7464 33.0383L34.7549 33.0407L34.7822 33.0457L34.8105 33.0527L34.8179 33.054L34.8264 33.0566L34.8338 33.058L34.8423 33.0607L34.8497 33.062L34.8702 33.0683L34.8775 33.0698L34.898 33.0764L34.9173 33.0814L34.9255 33.0854C34.992 33.105 35.0543 33.1367 35.1093 33.179C35.1356 33.1982 35.1606 33.2191 35.1842 33.2416C35.2239 33.2811 35.2445 33.3302 35.2513 33.3865C35.2732 33.566 35.2663 33.7464 35.2672 33.9263C35.2681 34.1002 35.2672 34.2742 35.2672 34.448V34.4715H34.0077V34.448C34.0075 34.1289 34.0072 33.8098 34.007 33.4906C34.007 33.4786 34.0057 33.4666 34.0051 33.4547C34.0046 33.4504 34.0042 33.4461 34.0037 33.4419C33.9985 33.4091 33.9966 33.3752 33.987 33.3438C33.9785 33.3149 33.9647 33.2879 33.9464 33.2641C33.9334 33.2481 33.9101 33.2361 33.8893 33.2314C33.8392 33.2202 33.7879 33.2143 33.7371 33.2063L33.7085 33.2043L33.6538 33.2024C33.6367 33.2015 33.6196 33.2003 33.6026 33.2C33.6002 33.2 33.5977 33.204 33.5952 33.2065C33.5952 33.2145 33.5948 33.2225 33.5948 33.2305V34.4461C33.5948 34.4541 33.5948 34.4621 33.5945 34.4701C33.5872 34.4704 33.58 34.471 33.5727 34.471H32.2596C32.2523 34.471 32.2451 34.4703 32.2378 34.47C32.2378 34.4626 32.2375 34.4553 32.2375 34.448C32.2375 33.5265 32.2375 32.605 32.2375 31.6835V31.6548C32.2443 31.6542 32.2495 31.6533 32.2545 31.6533C32.7338 31.6541 33.2131 31.655 33.6924 31.6561C33.7566 31.6561 33.8208 31.6579 33.885 31.6596C33.9682 31.6618 34.0514 31.6642 34.1346 31.6676C34.2077 31.6706 34.2809 31.6738 34.3539 31.6796C34.4269 31.6854 34.4991 31.6947 34.5716 31.7025L34.584 31.7052L34.5954 31.7066L34.604 31.7088L34.6153 31.7104L34.6239 31.7126L34.651 31.7184L34.6597 31.7207L34.7146 31.7344L34.7229 31.7377C34.7623 31.7506 34.8024 31.7615 34.8409 31.7768C34.914 31.8058 34.9814 31.8457 35.0452 31.8919C35.0945 31.9275 35.1375 31.9698 35.1697 32.0213C35.2124 32.0895 35.2365 32.1653 35.2513 32.2444C35.2654 32.3214 35.2704 32.3998 35.2663 32.478C35.2615 32.5762 35.2482 32.6732 35.2027 32.7619C35.1709 32.8244 35.1237 32.8729 35.0583 32.9004C35.0251 32.9144 34.9908 32.9262 34.9572 32.9389L34.9331 32.9461L34.9258 32.9476L34.9172 32.95L34.9098 32.9512L34.9013 32.9538L34.8901 32.956L34.8815 32.9581L34.8741 32.9592L34.8655 32.9616L34.8543 32.9634L34.8457 32.9657L34.8343 32.9672L34.8219 32.9701L34.8106 32.9715L34.798 32.9741L34.7867 32.9753L34.7742 32.9781ZM33.5953 32.76C33.6489 32.7684 33.8283 32.7526 33.8902 32.7369C33.9438 32.7234 33.9761 32.6898 33.9912 32.6379C33.9964 32.6201 34.0022 32.6019 34.0027 32.5835C34.0051 32.499 34.0082 32.4145 34.0067 32.33C34.0049 32.2353 33.959 32.1817 33.867 32.1595C33.7802 32.1386 33.6917 32.1355 33.6029 32.135C33.6003 32.1354 33.5978 32.1362 33.5954 32.1372L33.5953 32.76Z" fill="#FCFCFC"/>
<path d="M37.4685 31.6589C37.476 31.6571 37.4834 31.6536 37.4909 31.6536C37.9027 31.6533 38.3146 31.6532 38.7265 31.6534C38.7318 31.6534 38.737 31.6538 38.7457 31.6542C38.7301 31.6807 38.7159 31.7054 38.7011 31.7299C38.6555 31.8056 38.6101 31.8813 38.5639 31.9567C38.4927 32.073 38.4206 32.1886 38.3494 32.3051C38.3026 32.3815 38.2573 32.4589 38.2107 32.5354C38.1732 32.597 38.1344 32.6579 38.0967 32.7194C38.0564 32.7851 38.0165 32.851 37.977 32.9172C37.974 32.9222 37.9752 32.9322 37.9781 32.9378C38.007 32.9919 38.0366 33.0458 38.0661 33.0996C38.1055 33.1715 38.1451 33.2434 38.1847 33.3153C38.225 33.388 38.2658 33.4605 38.3058 33.5334C38.3511 33.6156 38.3956 33.6982 38.4407 33.7806C38.478 33.8488 38.5162 33.9168 38.5534 33.9851C38.6178 34.1025 38.6822 34.22 38.7465 34.3375C38.7682 34.377 38.7907 34.416 38.8127 34.4553C38.8152 34.4608 38.8175 34.4665 38.8193 34.4722C38.8112 34.4726 38.8043 34.4732 38.7974 34.4732C38.3452 34.4732 37.893 34.4734 37.4407 34.4737C37.4243 34.4737 37.4151 34.4681 37.4089 34.4541C37.3836 34.3971 37.3583 34.3401 37.3329 34.2831C37.3225 34.2601 37.3114 34.2374 37.3011 34.2143C37.2737 34.1541 37.2468 34.0937 37.2193 34.0335C37.1934 33.9766 37.1666 33.9202 37.1408 33.8632C37.1125 33.8006 37.0852 33.7375 37.0567 33.6748C37.0316 33.6193 37.0051 33.5644 36.9803 33.5089C36.9483 33.4376 36.9172 33.366 36.8856 33.2945C36.8843 33.2914 36.8827 33.2885 36.8812 33.2855L36.8761 33.2711L36.8721 33.2721C36.8723 33.2769 36.8725 33.2816 36.8728 33.2863C36.8728 33.5035 36.8727 33.7208 36.8724 33.9381C36.8724 34.1153 36.8724 34.2925 36.8724 34.4697C36.8645 34.4703 36.8565 34.4713 36.8486 34.4713C36.4115 34.4713 35.9746 34.4713 35.5378 34.4713C35.5298 34.4713 35.5219 34.4702 35.5142 34.4695V31.6534H36.8682L36.8722 31.6586C36.8722 32.0132 36.8722 32.3677 36.8722 32.7223V32.7435L36.8768 32.7439L36.8841 32.7223L37.4652 31.6636C37.4663 31.662 37.4674 31.6605 37.4685 31.6589Z" fill="#FCFCFC"/>
</svg>
