<svg width="70" height="70" viewBox="0 0 70 70" fill="none" xmlns="http://www.w3.org/2000/svg">
<path d="M70.0002 32.2668C70.0002 34.1359 70.0002 36.0032 70.0002 37.8723C69.7103 38.3118 69.8142 38.8315 69.7558 39.3056C69.1048 44.6175 67.3123 49.5101 64.4147 53.996C62.7936 56.5051 60.9172 58.8082 58.6523 60.7758C58.5575 59.7364 58.5338 58.6915 58.3952 57.6521C57.6567 52.1341 55.2369 47.4787 51.2488 43.6182C48.9493 41.3917 46.2541 39.7925 43.3073 38.5871C43.3693 38.5215 43.4222 38.4431 43.4915 38.3902C47.9956 34.9072 50.0325 30.3466 49.3414 24.6754C48.8746 20.8442 47.0054 17.7332 44.0167 15.3171C41.3962 13.1999 38.3601 12.1952 35.0029 12.1386C35.0029 8.09222 35.0029 4.04763 35.0029 0.0012207C35.9147 0.0012207 36.8265 0.0012207 37.7364 0.0012207C37.8331 0.185397 38.0136 0.127044 38.1595 0.134338C39.3192 0.189044 40.4681 0.365927 41.6005 0.593868C50.1747 2.33169 57.2063 6.61334 62.6167 13.4917C66.3695 18.2621 68.6836 23.6725 69.6136 29.6774C69.7467 30.5417 69.7176 31.4279 70.0002 32.2668Z" fill="#FE8900"/>
<path d="M35.0009 0.00133703C35.0009 4.04775 35.0009 8.09234 35.0009 12.1388V12.2044C34.2897 12.1187 33.5877 12.2391 32.8929 12.3393C22.1742 13.8875 16.9242 26.4097 23.3102 35.1554C24.2895 36.4956 25.5185 37.5642 26.775 38.6164C21.3864 40.6916 17.2488 44.2311 14.4005 49.2531C12.3709 52.8345 11.4372 56.715 11.4007 60.8197C5.36849 55.2561 1.71412 48.4179 0.397531 40.3178C0.264413 39.5008 0.324589 38.6529 0 37.8688C0 35.9541 0 34.0412 0 32.1265C0.189648 32.0353 0.129471 31.8548 0.144059 31.7071C0.72212 25.8918 2.54748 20.5051 5.83714 15.6709C11.6159 7.17875 19.5884 2.07104 29.74 0.389747C30.5807 0.251159 31.4487 0.300394 32.262 -0.000488281C33.1774 0.00133525 34.0892 0.00133703 35.0009 0.00133703Z" fill="#FEA920"/>
<path d="M43.3052 38.5872C46.2521 39.7925 48.9472 41.3917 51.2467 43.6183C55.2348 47.4787 57.6546 52.1342 58.3931 57.6522C58.5317 58.6916 58.5554 59.7365 58.6503 60.7759C58.6229 60.8123 58.601 60.8543 58.5682 60.8853C53.4094 65.5663 47.3899 68.4566 40.517 69.5926C39.5907 69.7458 38.6457 69.9989 37.7325 69.9993C36.8207 69.9993 35.909 69.9993 34.999 69.9993C35.0027 60.3875 35.0063 50.7756 35.01 41.162C36.5527 41.1146 38.0607 40.883 39.536 40.4125C40.8836 39.9858 42.0835 39.2673 43.3052 38.5872Z" fill="#2A323D"/>
<path d="M35.0118 41.1621C35.0081 50.7739 35.0045 60.3858 35.0008 69.9994C34.0891 69.9994 33.7224 70.0013 32.8124 70.0013C32.6284 70.0024 32.1963 70.0064 32.0833 69.9991C30.5406 69.8861 28.9084 69.5107 27.4003 69.1697C21.3334 67.7966 15.9868 65.0412 11.4043 60.8234C11.4389 56.7187 12.3726 52.8382 14.404 49.2568C17.2505 44.2348 21.3881 40.6953 26.7767 38.6201C27.0156 38.7496 27.2599 38.8681 27.4933 39.0067C29.8074 40.3926 32.3056 41.1165 35.0099 41.1056L35.0118 41.1621Z" fill="#303842"/>
<path d="M43.3051 38.5872C42.0833 39.2673 40.8834 39.9858 39.5358 40.4143C38.0606 40.883 36.5525 41.1164 35.0098 41.1638L35.0062 41.1055C35.0025 31.4736 35.0007 21.8399 34.9971 12.208V12.1423C38.356 12.197 41.3904 13.2036 44.0108 15.3207C47.0014 17.7369 48.8687 20.8479 49.3355 24.6791C50.0266 30.3485 47.9916 34.9109 43.4856 38.3939C43.42 38.4431 43.3671 38.5215 43.3051 38.5872Z" fill="#FEC373"/>
<path d="M34.999 12.2062C35.0026 21.8381 35.0044 31.4718 35.0081 41.1037C32.3038 41.1147 29.8055 40.3925 27.4915 39.0048C27.2581 38.8662 27.0137 38.7459 26.7748 38.6182C25.5184 37.5661 24.2875 36.4975 23.3101 35.1572C16.9259 26.4115 22.1741 13.8893 32.8928 12.3412C33.5857 12.2409 34.2896 12.1205 34.999 12.2062Z" fill="#FEDAA8"/>
</svg>
