<svg width="60" height="60" viewBox="0 0 60 60" fill="none" xmlns="http://www.w3.org/2000/svg">
<path d="M31.875 0C16.3125 0 3.75 12.5625 3.75 28.125C3.75 34.5 5.8125 40.5 9.75 45.375L5.8125 57.375C5.625 58.125 5.8125 58.875 6.375 59.4375C6.5625 59.8125 7.125 60 7.5 60C7.6875 60 8.0625 60 8.25 59.8125L21.1875 54C24.5625 55.5 28.125 56.25 31.875 56.25C47.4375 56.25 60 43.6875 60 28.125C60 12.5625 47.4375 0 31.875 0Z" fill="#25D366"/>
<path d="M48.1875 38.4375C47.4375 40.6875 44.625 42.5625 42.1875 42.9375C41.625 43.125 41.0625 43.125 40.3125 43.125C38.8125 43.125 36.5625 42.75 32.625 41.0625C28.125 39.1875 23.625 35.25 20.0625 30.1875V30C18.9375 28.3125 16.875 25.125 16.875 21.75C16.875 17.625 18.9375 15.5625 19.6875 14.625C20.625 13.6875 21.9375 13.125 23.4375 13.125C23.8125 13.125 24 13.125 24.375 13.125C25.6875 13.125 26.625 13.5 27.5625 15.375L28.3125 16.875C28.875 18.375 29.625 20.0625 29.8125 20.25C30.375 21.375 30.375 22.3125 29.8125 23.25C29.625 23.8125 29.25 24.1875 28.875 24.5625C28.6875 24.9375 28.5 25.125 28.3125 25.125C28.125 25.3125 28.125 25.3125 27.9375 25.5C28.5 26.4375 29.625 28.125 31.125 29.4375C33.375 31.5 35.0625 32.0625 36 32.4375C36.375 32.0625 36.75 31.3125 37.3125 30.75L37.5 30.375C38.4375 29.0625 39.9375 28.6875 41.4375 29.25C42.1875 29.625 46.3125 31.5 46.3125 31.5L46.6875 31.6875C47.25 32.0625 48 32.25 48.375 33C49.125 34.6875 48.5625 37.125 48.1875 38.4375Z" fill="white"/>
</svg>
